<?xml version="1.0" encoding="UTF-8" standalone="no"?>
<!DOCTYPE svg PUBLIC "-//W3C//DTD SVG 1.1//EN"
 "http://www.w3.org/Graphics/SVG/1.1/DTD/svg11.dtd">
<!-- Generated by graphviz version 2.43.0 (0)
 -->
<!-- Title: main/app_connection_manager/app_connection_manager.c Pages: 1 -->
<svg width="1299pt" height="159pt"
 viewBox="0.00 0.00 1298.50 159.00" xmlns="http://www.w3.org/2000/svg" xmlns:xlink="http://www.w3.org/1999/xlink">
<g id="graph0" class="graph" transform="scale(1 1) rotate(0) translate(4 155)">
<title>main/app_connection_manager/app_connection_manager.c</title>
<!-- Node1 -->
<g id="Node000001" class="node">
<title>Node1</title>
<g id="a_Node000001"><a xlink:title=" ">
<polygon fill="#999999" stroke="#666666" points="794.5,-151 649.5,-151 649.5,-110 794.5,-110 794.5,-151"/>
<text text-anchor="start" x="657.5" y="-139" font-family="Helvetica,sans-Serif" font-size="10.00">main/app_connection</text>
<text text-anchor="start" x="657.5" y="-128" font-family="Helvetica,sans-Serif" font-size="10.00">_manager/app_connection</text>
<text text-anchor="middle" x="722" y="-117" font-family="Helvetica,sans-Serif" font-size="10.00">_manager.c</text>
</a>
</g>
</g>
<!-- Node2 -->
<g id="Node000002" class="node">
<title>Node2</title>
<g id="a_Node000002"><a xlink:href="app__connection__manager_8h.html" target="_top" xlink:title=" ">
<polygon fill="white" stroke="#666666" points="342,-74 192,-74 192,-55 342,-55 342,-74"/>
<text text-anchor="middle" x="267" y="-62" font-family="Helvetica,sans-Serif" font-size="10.00">app_connection_manager.h</text>
</a>
</g>
</g>
<!-- Node1&#45;&gt;Node2 -->
<g id="edge1_Node000001_Node000002" class="edge">
<title>Node1&#45;&gt;Node2</title>
<g id="a_edge1_Node000001_Node000002"><a xlink:title=" ">
<path fill="none" stroke="#63b8ff" d="M649.4,-119.29C563.81,-107.25 422.52,-87.38 337.74,-75.45"/>
<polygon fill="#63b8ff" stroke="#63b8ff" points="338.08,-71.96 327.69,-74.04 337.11,-78.9 338.08,-71.96"/>
</a>
</g>
</g>
<!-- Node6 -->
<g id="Node000006" class="node">
<title>Node6</title>
<g id="a_Node000006"><a xlink:href="bluetooth__comm__gatt_8h.html" target="_top" xlink:title=" ">
<polygon fill="white" stroke="#666666" points="543.5,-74 410.5,-74 410.5,-55 543.5,-55 543.5,-74"/>
<text text-anchor="middle" x="477" y="-62" font-family="Helvetica,sans-Serif" font-size="10.00">bluetooth_comm_gatt.h</text>
</a>
</g>
</g>
<!-- Node1&#45;&gt;Node6 -->
<g id="edge5_Node000001_Node000006" class="edge">
<title>Node1&#45;&gt;Node6</title>
<g id="a_edge5_Node000001_Node000006"><a xlink:title=" ">
<path fill="none" stroke="#63b8ff" d="M649.49,-110.56C607.23,-99.52 555.41,-85.98 519.65,-76.64"/>
<polygon fill="#63b8ff" stroke="#63b8ff" points="520.12,-73.15 509.56,-74.01 518.35,-79.92 520.12,-73.15"/>
</a>
</g>
</g>
<!-- Node11 -->
<g id="Node000011" class="node">
<title>Node11</title>
<g id="a_Node000011"><a xlink:title=" ">
<polygon fill="#e0e0e0" stroke="#999999" points="811.5,-19 748.5,-19 748.5,0 811.5,0 811.5,-19"/>
<text text-anchor="middle" x="780" y="-7" font-family="Helvetica,sans-Serif" font-size="10.00">esp_log.h</text>
</a>
</g>
</g>
<!-- Node1&#45;&gt;Node11 -->
<g id="edge15_Node000001_Node000011" class="edge">
<title>Node1&#45;&gt;Node11</title>
<g id="a_edge15_Node000001_Node000011"><a xlink:title=" ">
<path fill="none" stroke="#63b8ff" d="M649.07,-114.16C608.4,-102.18 569.97,-82.85 592,-55 594.31,-52.08 683.75,-31.83 738.42,-19.67"/>
<polygon fill="#63b8ff" stroke="#63b8ff" points="739.19,-23.09 748.19,-17.5 737.67,-16.25 739.19,-23.09"/>
</a>
</g>
</g>
<!-- Node12 -->
<g id="Node000012" class="node">
<title>Node12</title>
<g id="a_Node000012"><a xlink:href="wifi__comm_8h.html" target="_top" xlink:title=" ">
<polygon fill="white" stroke="#666666" points="144.5,-74 65.5,-74 65.5,-55 144.5,-55 144.5,-74"/>
<text text-anchor="middle" x="105" y="-62" font-family="Helvetica,sans-Serif" font-size="10.00">wifi_comm.h</text>
</a>
</g>
</g>
<!-- Node1&#45;&gt;Node12 -->
<g id="edge12_Node000001_Node000012" class="edge">
<title>Node1&#45;&gt;Node12</title>
<g id="a_edge12_Node000001_Node000012"><a xlink:title=" ">
<path fill="none" stroke="#63b8ff" d="M649.19,-122.14C545.6,-111.64 349.75,-91.67 183,-74 173.85,-73.03 164.09,-71.98 154.69,-70.96"/>
<polygon fill="#63b8ff" stroke="#63b8ff" points="155,-67.47 144.68,-69.87 154.24,-74.43 155,-67.47"/>
</a>
</g>
</g>
<!-- Node14 -->
<g id="Node000014" class="node">
<title>Node14</title>
<g id="a_Node000014"><a xlink:title=" ">
<polygon fill="#e0e0e0" stroke="#999999" points="665.5,-74 600.5,-74 600.5,-55 665.5,-55 665.5,-74"/>
<text text-anchor="middle" x="633" y="-62" font-family="Helvetica,sans-Serif" font-size="10.00">esp_wifi.h</text>
</a>
</g>
</g>
<!-- Node1&#45;&gt;Node14 -->
<g id="edge16_Node000001_Node000014" class="edge">
<title>Node1&#45;&gt;Node14</title>
<g id="a_edge16_Node000001_Node000014"><a xlink:title=" ">
<path fill="none" stroke="#63b8ff" d="M694.81,-109.95C681.49,-100.37 665.7,-89.02 653.42,-80.19"/>
<polygon fill="#63b8ff" stroke="#63b8ff" points="655.34,-77.26 645.18,-74.26 651.26,-82.94 655.34,-77.26"/>
</a>
</g>
</g>
<!-- Node15 -->
<g id="Node000015" class="node">
<title>Node15</title>
<g id="a_Node000015"><a xlink:title=" ">
<polygon fill="#e0e0e0" stroke="#999999" points="760,-74 684,-74 684,-55 760,-55 760,-74"/>
<text text-anchor="middle" x="722" y="-62" font-family="Helvetica,sans-Serif" font-size="10.00">esp_event.h</text>
</a>
</g>
</g>
<!-- Node1&#45;&gt;Node15 -->
<g id="edge17_Node000001_Node000015" class="edge">
<title>Node1&#45;&gt;Node15</title>
<g id="a_edge17_Node000001_Node000015"><a xlink:title=" ">
<path fill="none" stroke="#63b8ff" d="M722,-109.95C722,-101.85 722,-92.5 722,-84.47"/>
<polygon fill="#63b8ff" stroke="#63b8ff" points="725.5,-84.26 722,-74.26 718.5,-84.26 725.5,-84.26"/>
</a>
</g>
</g>
<!-- Node16 -->
<g id="Node000016" class="node">
<title>Node16</title>
<g id="a_Node000016"><a xlink:title=" ">
<polygon fill="#e0e0e0" stroke="#999999" points="911.5,-74 778.5,-74 778.5,-55 911.5,-55 911.5,-74"/>
<text text-anchor="middle" x="845" y="-62" font-family="Helvetica,sans-Serif" font-size="10.00">freertos/event_groups.h</text>
</a>
</g>
</g>
<!-- Node1&#45;&gt;Node16 -->
<g id="edge18_Node000001_Node000016" class="edge">
<title>Node1&#45;&gt;Node16</title>
<g id="a_edge18_Node000001_Node000016"><a xlink:title=" ">
<path fill="none" stroke="#63b8ff" d="M759.57,-109.95C779.01,-99.84 802.21,-87.76 819.53,-78.75"/>
<polygon fill="#63b8ff" stroke="#63b8ff" points="821.23,-81.81 828.49,-74.09 818,-75.6 821.23,-81.81"/>
</a>
</g>
</g>
<!-- Node17 -->
<g id="Node000017" class="node">
<title>Node17</title>
<g id="a_Node000017"><a xlink:title=" ">
<polygon fill="#e0e0e0" stroke="#999999" points="1042.5,-74 929.5,-74 929.5,-55 1042.5,-55 1042.5,-74"/>
<text text-anchor="middle" x="986" y="-62" font-family="Helvetica,sans-Serif" font-size="10.00">freertos/FreeRTOS.h</text>
</a>
</g>
</g>
<!-- Node1&#45;&gt;Node17 -->
<g id="edge19_Node000001_Node000017" class="edge">
<title>Node1&#45;&gt;Node17</title>
<g id="a_edge19_Node000001_Node000017"><a xlink:title=" ">
<path fill="none" stroke="#63b8ff" d="M794.84,-111.84C841.69,-100.48 901.08,-86.09 941.13,-76.38"/>
<polygon fill="#63b8ff" stroke="#63b8ff" points="941.98,-79.77 950.88,-74.01 940.33,-72.97 941.98,-79.77"/>
</a>
</g>
</g>
<!-- Node18 -->
<g id="Node000018" class="node">
<title>Node18</title>
<g id="a_Node000018"><a xlink:title=" ">
<polygon fill="#e0e0e0" stroke="#999999" points="1149,-74 1061,-74 1061,-55 1149,-55 1149,-74"/>
<text text-anchor="middle" x="1105" y="-62" font-family="Helvetica,sans-Serif" font-size="10.00">freertos/task.h</text>
</a>
</g>
</g>
<!-- Node1&#45;&gt;Node18 -->
<g id="edge20_Node000001_Node000018" class="edge">
<title>Node1&#45;&gt;Node18</title>
<g id="a_edge20_Node000001_Node000018"><a xlink:title=" ">
<path fill="none" stroke="#63b8ff" d="M794.94,-117.31C869.67,-104.82 984.12,-85.7 1051.06,-74.51"/>
<polygon fill="#63b8ff" stroke="#63b8ff" points="1051.7,-77.96 1060.99,-72.85 1050.55,-71.05 1051.7,-77.96"/>
</a>
</g>
</g>
<!-- Node19 -->
<g id="Node000019" class="node">
<title>Node19</title>
<g id="a_Node000019"><a xlink:title=" ">
<polygon fill="#e0e0e0" stroke="#999999" points="1219.5,-74 1166.5,-74 1166.5,-55 1219.5,-55 1219.5,-74"/>
<text text-anchor="middle" x="1193" y="-62" font-family="Helvetica,sans-Serif" font-size="10.00">string.h</text>
</a>
</g>
</g>
<!-- Node1&#45;&gt;Node19 -->
<g id="edge21_Node000001_Node000019" class="edge">
<title>Node1&#45;&gt;Node19</title>
<g id="a_edge21_Node000001_Node000019"><a xlink:title=" ">
<path fill="none" stroke="#63b8ff" d="M794.52,-122.77C879.23,-114.35 1023.73,-98.24 1156.38,-74.13"/>
<polygon fill="#63b8ff" stroke="#63b8ff" points="1157.11,-77.56 1166.31,-72.31 1155.85,-70.67 1157.11,-77.56"/>
</a>
</g>
</g>
<!-- Node20 -->
<g id="Node000020" class="node">
<title>Node20</title>
<g id="a_Node000020"><a xlink:title=" ">
<polygon fill="#e0e0e0" stroke="#999999" points="1290.5,-74 1237.5,-74 1237.5,-55 1290.5,-55 1290.5,-74"/>
<text text-anchor="middle" x="1264" y="-62" font-family="Helvetica,sans-Serif" font-size="10.00">stdlib.h</text>
</a>
</g>
</g>
<!-- Node1&#45;&gt;Node20 -->
<g id="edge22_Node000001_Node000020" class="edge">
<title>Node1&#45;&gt;Node20</title>
<g id="a_edge22_Node000001_Node000020"><a xlink:title=" ">
<path fill="none" stroke="#63b8ff" d="M794.62,-124.52C891.4,-117.21 1068.07,-101.58 1227.34,-74.1"/>
<polygon fill="#63b8ff" stroke="#63b8ff" points="1228.07,-77.52 1237.32,-72.36 1226.87,-70.63 1228.07,-77.52"/>
</a>
</g>
</g>
<!-- Node3 -->
<g id="Node000003" class="node">
<title>Node3</title>
<g id="a_Node000003"><a xlink:title=" ">
<polygon fill="#e0e0e0" stroke="#999999" points="136,-19 74,-19 74,0 136,0 136,-19"/>
<text text-anchor="middle" x="105" y="-7" font-family="Helvetica,sans-Serif" font-size="10.00">stdbool.h</text>
</a>
</g>
</g>
<!-- Node2&#45;&gt;Node3 -->
<g id="edge2_Node000002_Node000003" class="edge">
<title>Node2&#45;&gt;Node3</title>
<g id="a_edge2_Node000002_Node000003"><a xlink:title=" ">
<path fill="none" stroke="#63b8ff" d="M240.97,-54.98C213.89,-46.13 171.29,-32.19 140.99,-22.28"/>
<polygon fill="#63b8ff" stroke="#63b8ff" points="141.82,-18.87 131.23,-19.08 139.65,-25.52 141.82,-18.87"/>
</a>
</g>
</g>
<!-- Node4 -->
<g id="Node000004" class="node">
<title>Node4</title>
<g id="a_Node000004"><a xlink:title=" ">
<polygon fill="#e0e0e0" stroke="#999999" points="323.5,-19 270.5,-19 270.5,0 323.5,0 323.5,-19"/>
<text text-anchor="middle" x="297" y="-7" font-family="Helvetica,sans-Serif" font-size="10.00">stdint.h</text>
</a>
</g>
</g>
<!-- Node2&#45;&gt;Node4 -->
<g id="edge3_Node000002_Node000004" class="edge">
<title>Node2&#45;&gt;Node4</title>
<g id="a_edge3_Node000002_Node000004"><a xlink:title=" ">
<path fill="none" stroke="#63b8ff" d="M271.95,-54.75C276.06,-47.49 282.03,-36.95 287.1,-27.98"/>
<polygon fill="#63b8ff" stroke="#63b8ff" points="290.26,-29.52 292.14,-19.09 284.17,-26.07 290.26,-29.52"/>
</a>
</g>
</g>
<!-- Node5 -->
<g id="Node000005" class="node">
<title>Node5</title>
<g id="a_Node000005"><a xlink:title=" ">
<polygon fill="#e0e0e0" stroke="#999999" points="252,-19 154,-19 154,0 252,0 252,-19"/>
<text text-anchor="middle" x="203" y="-7" font-family="Helvetica,sans-Serif" font-size="10.00">esp_wifi_types.h</text>
</a>
</g>
</g>
<!-- Node2&#45;&gt;Node5 -->
<g id="edge4_Node000002_Node000005" class="edge">
<title>Node2&#45;&gt;Node5</title>
<g id="a_edge4_Node000002_Node000005"><a xlink:title=" ">
<path fill="none" stroke="#63b8ff" d="M256.72,-54.98C247.16,-47.07 232.72,-35.11 221.22,-25.58"/>
<polygon fill="#63b8ff" stroke="#63b8ff" points="223.4,-22.85 213.47,-19.17 218.94,-28.24 223.4,-22.85"/>
</a>
</g>
</g>
<!-- Node6&#45;&gt;Node4 -->
<g id="edge6_Node000006_Node000004" class="edge">
<title>Node6&#45;&gt;Node4</title>
<g id="a_edge6_Node000006_Node000004"><a xlink:title=" ">
<path fill="none" stroke="#63b8ff" d="M448.08,-54.98C416.92,-45.81 367.26,-31.19 333.45,-21.23"/>
<polygon fill="#63b8ff" stroke="#63b8ff" points="334.08,-17.77 323.5,-18.3 332.11,-24.49 334.08,-17.77"/>
</a>
</g>
</g>
<!-- Node7 -->
<g id="Node000007" class="node">
<title>Node7</title>
<g id="a_Node000007"><a xlink:title=" ">
<polygon fill="#e0e0e0" stroke="#999999" points="418.5,-19 341.5,-19 341.5,0 418.5,0 418.5,-19"/>
<text text-anchor="middle" x="380" y="-7" font-family="Helvetica,sans-Serif" font-size="10.00">nimble/ble.h</text>
</a>
</g>
</g>
<!-- Node6&#45;&gt;Node7 -->
<g id="edge7_Node000006_Node000007" class="edge">
<title>Node6&#45;&gt;Node7</title>
<g id="a_edge7_Node000006_Node000007"><a xlink:title=" ">
<path fill="none" stroke="#63b8ff" d="M461.42,-54.98C446.23,-46.69 422.9,-33.94 405.1,-24.22"/>
<polygon fill="#63b8ff" stroke="#63b8ff" points="406.32,-20.89 395.87,-19.17 402.97,-27.04 406.32,-20.89"/>
</a>
</g>
</g>
<!-- Node8 -->
<g id="Node000008" class="node">
<title>Node8</title>
<g id="a_Node000008"><a xlink:title=" ">
<polygon fill="#e0e0e0" stroke="#999999" points="517.5,-19 436.5,-19 436.5,0 517.5,0 517.5,-19"/>
<text text-anchor="middle" x="477" y="-7" font-family="Helvetica,sans-Serif" font-size="10.00">host/ble_hs.h</text>
</a>
</g>
</g>
<!-- Node6&#45;&gt;Node8 -->
<g id="edge8_Node000006_Node000008" class="edge">
<title>Node6&#45;&gt;Node8</title>
<g id="a_edge8_Node000006_Node000008"><a xlink:title=" ">
<path fill="none" stroke="#63b8ff" d="M477,-54.75C477,-47.8 477,-37.85 477,-29.13"/>
<polygon fill="#63b8ff" stroke="#63b8ff" points="480.5,-29.09 477,-19.09 473.5,-29.09 480.5,-29.09"/>
</a>
</g>
</g>
<!-- Node9 -->
<g id="Node000009" class="node">
<title>Node9</title>
<g id="a_Node000009"><a xlink:title=" ">
<polygon fill="#e0e0e0" stroke="#999999" points="624,-19 536,-19 536,0 624,0 624,-19"/>
<text text-anchor="middle" x="580" y="-7" font-family="Helvetica,sans-Serif" font-size="10.00">host/ble_gap.h</text>
</a>
</g>
</g>
<!-- Node6&#45;&gt;Node9 -->
<g id="edge9_Node000006_Node000009" class="edge">
<title>Node6&#45;&gt;Node9</title>
<g id="a_edge9_Node000006_Node000009"><a xlink:title=" ">
<path fill="none" stroke="#63b8ff" d="M493.55,-54.98C509.89,-46.57 535.13,-33.59 554.13,-23.81"/>
<polygon fill="#63b8ff" stroke="#63b8ff" points="555.86,-26.86 563.15,-19.17 552.66,-20.63 555.86,-26.86"/>
</a>
</g>
</g>
<!-- Node10 -->
<g id="Node000010" class="node">
<title>Node10</title>
<g id="a_Node000010"><a xlink:title=" ">
<polygon fill="#e0e0e0" stroke="#999999" points="730.5,-19 641.5,-19 641.5,0 730.5,0 730.5,-19"/>
<text text-anchor="middle" x="686" y="-7" font-family="Helvetica,sans-Serif" font-size="10.00">host/ble_gatt.h</text>
</a>
</g>
</g>
<!-- Node6&#45;&gt;Node10 -->
<g id="edge10_Node000006_Node000010" class="edge">
<title>Node6&#45;&gt;Node10</title>
<g id="a_edge10_Node000006_Node000010"><a xlink:title=" ">
<path fill="none" stroke="#63b8ff" d="M510.58,-54.98C546.35,-45.91 603.12,-31.52 642.34,-21.57"/>
<polygon fill="#63b8ff" stroke="#63b8ff" points="643.32,-24.93 652.16,-19.08 641.6,-18.15 643.32,-24.93"/>
</a>
</g>
</g>
<!-- Node6&#45;&gt;Node11 -->
<g id="edge11_Node000006_Node000011" class="edge">
<title>Node6&#45;&gt;Node11</title>
<g id="a_edge11_Node000006_Node000011"><a xlink:title=" ">
<path fill="none" stroke="#63b8ff" d="M531.27,-55C582.34,-46.84 661.22,-33.85 738.27,-19.27"/>
<polygon fill="#63b8ff" stroke="#63b8ff" points="738.98,-22.7 748.15,-17.39 737.67,-15.83 738.98,-22.7"/>
</a>
</g>
</g>
<!-- Node12&#45;&gt;Node3 -->
<g id="edge13_Node000012_Node000003" class="edge">
<title>Node12&#45;&gt;Node3</title>
<g id="a_edge13_Node000012_Node000003"><a xlink:title=" ">
<path fill="none" stroke="#63b8ff" d="M105,-54.75C105,-47.8 105,-37.85 105,-29.13"/>
<polygon fill="#63b8ff" stroke="#63b8ff" points="108.5,-29.09 105,-19.09 101.5,-29.09 108.5,-29.09"/>
</a>
</g>
</g>
<!-- Node13 -->
<g id="Node000013" class="node">
<title>Node13</title>
<g id="a_Node000013"><a xlink:title=" ">
<polygon fill="#e0e0e0" stroke="#999999" points="56,-19 0,-19 0,0 56,0 56,-19"/>
<text text-anchor="middle" x="28" y="-7" font-family="Helvetica,sans-Serif" font-size="10.00">stddef.h</text>
</a>
</g>
</g>
<!-- Node12&#45;&gt;Node13 -->
<g id="edge14_Node000012_Node000013" class="edge">
<title>Node12&#45;&gt;Node13</title>
<g id="a_edge14_Node000012_Node000013"><a xlink:title=" ">
<path fill="none" stroke="#63b8ff" d="M92.63,-54.98C80.91,-46.92 63.08,-34.65 49.11,-25.03"/>
<polygon fill="#63b8ff" stroke="#63b8ff" points="50.82,-21.96 40.6,-19.17 46.85,-27.72 50.82,-21.96"/>
</a>
</g>
</g>
</g>
</svg>
