<?xml version="1.0" encoding="UTF-8" standalone="no"?>
<!DOCTYPE svg PUBLIC "-//W3C//DTD SVG 1.1//EN"
 "http://www.w3.org/Graphics/SVG/1.1/DTD/svg11.dtd">
<!-- Generated by graphviz version 2.43.0 (0)
 -->
<!-- Title: app_connection_manager_init Pages: 1 -->
<svg width="480pt" height="82pt"
 viewBox="0.00 0.00 480.00 82.00" xmlns="http://www.w3.org/2000/svg" xmlns:xlink="http://www.w3.org/1999/xlink">
<g id="graph0" class="graph" transform="scale(1 1) rotate(0) translate(4 78)">
<title>app_connection_manager_init</title>
<!-- Node1 -->
<g id="Node000001" class="node">
<title>Node1</title>
<g id="a_Node000001"><a xlink:title="Initialize connection manager.">
<polygon fill="#999999" stroke="#666666" points="163,-37 0,-37 0,-18 163,-18 163,-37"/>
<text text-anchor="middle" x="81.5" y="-25" font-family="Helvetica,sans-Serif" font-size="10.00">app_connection_manager_init</text>
</a>
</g>
</g>
<!-- Node2 -->
<g id="Node000002" class="node">
<title>Node2</title>
<g id="a_Node000002"><a xlink:href="bluetooth__comm__gatt_8c.html#ae1304212bbefa936b054ce9783f61a42" target="_top" xlink:title=" ">
<polygon fill="white" stroke="#666666" points="316.5,-56 218.5,-56 218.5,-37 316.5,-37 316.5,-56"/>
<text text-anchor="middle" x="267.5" y="-44" font-family="Helvetica,sans-Serif" font-size="10.00">custom_gatt_init</text>
</a>
</g>
</g>
<!-- Node1&#45;&gt;Node2 -->
<g id="edge1_Node000001_Node000002" class="edge">
<title>Node1&#45;&gt;Node2</title>
<g id="a_edge1_Node000001_Node000002"><a xlink:title=" ">
<path fill="none" stroke="#63b8ff" d="M163.21,-35.83C178.36,-37.4 193.92,-39.01 208.23,-40.48"/>
<polygon fill="#63b8ff" stroke="#63b8ff" points="208.09,-43.99 218.4,-41.53 208.81,-37.02 208.09,-43.99"/>
</a>
</g>
</g>
<!-- Node5 -->
<g id="Node000005" class="node">
<title>Node5</title>
<g id="a_Node000005"><a xlink:href="app__connection__manager_8c.html#abc984bc317c57837dcce17cfb08ea7f4" target="_top" xlink:title=" ">
<polygon fill="white" stroke="#666666" points="336,-19 199,-19 199,0 336,0 336,-19"/>
<text text-anchor="middle" x="267.5" y="-7" font-family="Helvetica,sans-Serif" font-size="10.00">wifi_scan_event_handler</text>
</a>
</g>
</g>
<!-- Node1&#45;&gt;Node5 -->
<g id="edge4_Node000001_Node000005" class="edge">
<title>Node1&#45;&gt;Node5</title>
<g id="a_edge4_Node000001_Node000005"><a xlink:title=" ">
<path fill="none" stroke="#63b8ff" d="M163.21,-19.6C171.65,-18.78 180.22,-17.94 188.63,-17.12"/>
<polygon fill="#63b8ff" stroke="#63b8ff" points="189.18,-20.58 198.79,-16.12 188.5,-13.61 189.18,-20.58"/>
</a>
</g>
</g>
<!-- Node3 -->
<g id="Node000003" class="node">
<title>Node3</title>
<g id="a_Node000003"><a xlink:href="bluetooth_8c.html#a3751d2a71d6a2fab013b5c402ff546bf" target="_top" xlink:title=" ">
<polygon fill="white" stroke="#666666" points="472,-74 372,-74 372,-55 472,-55 472,-74"/>
<text text-anchor="middle" x="422" y="-62" font-family="Helvetica,sans-Serif" font-size="10.00">ble_app_on_sync</text>
</a>
</g>
</g>
<!-- Node2&#45;&gt;Node3 -->
<g id="edge2_Node000002_Node000003" class="edge">
<title>Node2&#45;&gt;Node3</title>
<g id="a_edge2_Node000002_Node000003"><a xlink:title=" ">
<path fill="none" stroke="#63b8ff" d="M316.75,-52.2C331,-53.88 346.77,-55.74 361.63,-57.49"/>
<polygon fill="#63b8ff" stroke="#63b8ff" points="361.41,-60.99 371.75,-58.69 362.23,-54.04 361.41,-60.99"/>
</a>
</g>
</g>
<!-- Node4 -->
<g id="Node000004" class="node">
<title>Node4</title>
<g id="a_Node000004"><a xlink:href="bluetooth__comm__gatt_8c.html#a4bf56e512c1a541a007522b29a19e144" target="_top" xlink:title=" ">
<polygon fill="white" stroke="#666666" points="464,-37 380,-37 380,-18 464,-18 464,-37"/>
<text text-anchor="middle" x="422" y="-25" font-family="Helvetica,sans-Serif" font-size="10.00">ble_host_task</text>
</a>
</g>
</g>
<!-- Node2&#45;&gt;Node4 -->
<g id="edge3_Node000002_Node000004" class="edge">
<title>Node2&#45;&gt;Node4</title>
<g id="a_edge3_Node000002_Node000004"><a xlink:title=" ">
<path fill="none" stroke="#63b8ff" d="M316.75,-40.49C333.52,-38.4 352.38,-36.05 369.4,-33.93"/>
<polygon fill="#63b8ff" stroke="#63b8ff" points="370.24,-37.35 379.73,-32.64 369.38,-30.4 370.24,-37.35"/>
</a>
</g>
</g>
</g>
</svg>
