<?xml version="1.0" encoding="UTF-8" standalone="no"?>
<!DOCTYPE svg PUBLIC "-//W3C//DTD SVG 1.1//EN"
 "http://www.w3.org/Graphics/SVG/1.1/DTD/svg11.dtd">
<!-- Generated by graphviz version 2.43.0 (0)
 -->
<!-- Title: app_connection_manager_send_data Pages: 1 -->
<svg width="310pt" height="76pt"
 viewBox="0.00 0.00 310.00 75.50" xmlns="http://www.w3.org/2000/svg" xmlns:xlink="http://www.w3.org/1999/xlink">
<g id="graph0" class="graph" transform="scale(1 1) rotate(0) translate(4 71.5)">
<title>app_connection_manager_send_data</title>
<!-- Node1 -->
<g id="Node000001" class="node">
<title>Node1</title>
<g id="a_Node000001"><a xlink:title="Send data through active connections.">
<polygon fill="#999999" stroke="#666666" points="142,-45.5 0,-45.5 0,-15.5 142,-15.5 142,-45.5"/>
<text text-anchor="start" x="8" y="-33.5" font-family="Helvetica,sans-Serif" font-size="10.00">app_connection_manager</text>
<text text-anchor="middle" x="71" y="-22.5" font-family="Helvetica,sans-Serif" font-size="10.00">_send_data</text>
</a>
</g>
</g>
<!-- Node2 -->
<g id="Node000002" class="node">
<title>Node2</title>
<g id="a_Node000002"><a xlink:href="bluetooth__comm__gatt_8h.html#aa624c6f2559b9d3bae6834691dc427c5" target="_top" xlink:title=" ">
<polygon fill="white" stroke="#666666" points="302,-67.5 178,-67.5 178,-37.5 302,-37.5 302,-67.5"/>
<text text-anchor="start" x="186" y="-55.5" font-family="Helvetica,sans-Serif" font-size="10.00">bluetooth_comm_gatt</text>
<text text-anchor="middle" x="240" y="-44.5" font-family="Helvetica,sans-Serif" font-size="10.00">_send_data</text>
</a>
</g>
</g>
<!-- Node1&#45;&gt;Node2 -->
<g id="edge1_Node000001_Node000002" class="edge">
<title>Node1&#45;&gt;Node2</title>
<g id="a_edge1_Node000001_Node000002"><a xlink:title=" ">
<path fill="none" stroke="#63b8ff" d="M142.34,-39.77C150.7,-40.87 159.25,-41.99 167.63,-43.1"/>
<polygon fill="#63b8ff" stroke="#63b8ff" points="167.37,-46.59 177.75,-44.43 168.29,-39.65 167.37,-46.59"/>
</a>
</g>
</g>
<!-- Node3 -->
<g id="Node000003" class="node">
<title>Node3</title>
<g id="a_Node000003"><a xlink:href="wifi__comm_8h.html#abce5f373561b89e594b454bc377f7c6e" target="_top" xlink:title="Send raw bytes to the connected TCP client (if any).">
<polygon fill="white" stroke="#666666" points="284.5,-19 195.5,-19 195.5,0 284.5,0 284.5,-19"/>
<text text-anchor="middle" x="240" y="-7" font-family="Helvetica,sans-Serif" font-size="10.00">wifi_send_data</text>
</a>
</g>
</g>
<!-- Node1&#45;&gt;Node3 -->
<g id="edge2_Node000001_Node000003" class="edge">
<title>Node1&#45;&gt;Node3</title>
<g id="a_edge2_Node000001_Node000003"><a xlink:title=" ">
<path fill="none" stroke="#63b8ff" d="M142.34,-21.65C156.69,-19.85 171.57,-17.98 185.23,-16.26"/>
<polygon fill="#63b8ff" stroke="#63b8ff" points="185.92,-19.7 195.41,-14.98 185.05,-12.76 185.92,-19.7"/>
</a>
</g>
</g>
</g>
</svg>
