<?xml version="1.0" encoding="UTF-8" standalone="no"?>
<!DOCTYPE svg PUBLIC "-//W3C//DTD SVG 1.1//EN"
 "http://www.w3.org/Graphics/SVG/1.1/DTD/svg11.dtd">
<!-- Generated by graphviz version 2.43.0 (0)
 -->
<!-- Title: ble_host_task Pages: 1 -->
<svg width="425pt" height="27pt"
 viewBox="0.00 0.00 425.00 27.00" xmlns="http://www.w3.org/2000/svg" xmlns:xlink="http://www.w3.org/1999/xlink">
<g id="graph0" class="graph" transform="scale(1 1) rotate(0) translate(4 23)">
<title>ble_host_task</title>
<!-- Node1 -->
<g id="Node000001" class="node">
<title>Node1</title>
<g id="a_Node000001"><a xlink:title=" ">
<polygon fill="#999999" stroke="#666666" points="417,-19 333,-19 333,0 417,0 417,-19"/>
<text text-anchor="middle" x="375" y="-7" font-family="Helvetica,sans-Serif" font-size="10.00">ble_host_task</text>
</a>
</g>
</g>
<!-- Node2 -->
<g id="Node000002" class="node">
<title>Node2</title>
<g id="a_Node000002"><a xlink:href="bluetooth__comm__gatt_8c.html#ae1304212bbefa936b054ce9783f61a42" target="_top" xlink:title=" ">
<polygon fill="white" stroke="#666666" points="297,-19 199,-19 199,0 297,0 297,-19"/>
<text text-anchor="middle" x="248" y="-7" font-family="Helvetica,sans-Serif" font-size="10.00">custom_gatt_init</text>
</a>
</g>
</g>
<!-- Node1&#45;&gt;Node2 -->
<g id="edge1_Node000001_Node000002" class="edge">
<title>Node1&#45;&gt;Node2</title>
<g id="a_edge1_Node000001_Node000002"><a xlink:title=" ">
<path fill="none" stroke="#63b8ff" d="M322.63,-9.5C314.21,-9.5 305.51,-9.5 297.17,-9.5"/>
<polygon fill="#63b8ff" stroke="#63b8ff" points="322.72,-13 332.72,-9.5 322.72,-6 322.72,-13"/>
</a>
</g>
</g>
<!-- Node3 -->
<g id="Node000003" class="node">
<title>Node3</title>
<g id="a_Node000003"><a xlink:href="app__connection__manager_8c.html#a56fc30551431c4c7c6dff275c841f7ab" target="_top" xlink:title="Initialize connection manager.">
<polygon fill="white" stroke="#666666" points="163,-19 0,-19 0,0 163,0 163,-19"/>
<text text-anchor="middle" x="81.5" y="-7" font-family="Helvetica,sans-Serif" font-size="10.00">app_connection_manager_init</text>
</a>
</g>
</g>
<!-- Node2&#45;&gt;Node3 -->
<g id="edge2_Node000002_Node000003" class="edge">
<title>Node2&#45;&gt;Node3</title>
<g id="a_edge2_Node000002_Node000003"><a xlink:title=" ">
<path fill="none" stroke="#63b8ff" d="M188.96,-9.5C180.57,-9.5 171.81,-9.5 163.08,-9.5"/>
<polygon fill="#63b8ff" stroke="#63b8ff" points="188.98,-13 198.98,-9.5 188.98,-6 188.98,-13"/>
</a>
</g>
</g>
</g>
</svg>
