<?xml version="1.0" encoding="UTF-8" standalone="no"?>
<!DOCTYPE svg PUBLIC "-//W3C//DTD SVG 1.1//EN"
 "http://www.w3.org/Graphics/SVG/1.1/DTD/svg11.dtd">
<!-- Generated by graphviz version 2.43.0 (0)
 -->
<!-- Title: main/bluetooth_comm_gatt/bluetooth_comm_gatt.h Pages: 1 -->
<svg width="298pt" height="126pt"
 viewBox="0.00 0.00 298.00 126.00" xmlns="http://www.w3.org/2000/svg" xmlns:xlink="http://www.w3.org/1999/xlink">
<g id="graph0" class="graph" transform="scale(1 1) rotate(0) translate(4 122)">
<title>main/bluetooth_comm_gatt/bluetooth_comm_gatt.h</title>
<!-- Node1 -->
<g id="Node000001" class="node">
<title>Node1</title>
<g id="a_Node000001"><a xlink:title=" ">
<polygon fill="#999999" stroke="#666666" points="213,-118 86,-118 86,-77 213,-77 213,-118"/>
<text text-anchor="start" x="94" y="-106" font-family="Helvetica,sans-Serif" font-size="10.00">main/bluetooth_comm</text>
<text text-anchor="start" x="94" y="-95" font-family="Helvetica,sans-Serif" font-size="10.00">_gatt/bluetooth_comm</text>
<text text-anchor="middle" x="149.5" y="-84" font-family="Helvetica,sans-Serif" font-size="10.00">_gatt.h</text>
</a>
</g>
</g>
<!-- Node2 -->
<g id="Node000002" class="node">
<title>Node2</title>
<g id="a_Node000002"><a xlink:href="app__connection__manager_8c.html" target="_top" xlink:title=" ">
<polygon fill="white" stroke="#666666" points="145,-41 0,-41 0,0 145,0 145,-41"/>
<text text-anchor="start" x="8" y="-29" font-family="Helvetica,sans-Serif" font-size="10.00">main/app_connection</text>
<text text-anchor="start" x="8" y="-18" font-family="Helvetica,sans-Serif" font-size="10.00">_manager/app_connection</text>
<text text-anchor="middle" x="72.5" y="-7" font-family="Helvetica,sans-Serif" font-size="10.00">_manager.c</text>
</a>
</g>
</g>
<!-- Node1&#45;&gt;Node2 -->
<g id="edge1_Node000001_Node000002" class="edge">
<title>Node1&#45;&gt;Node2</title>
<g id="a_edge1_Node000001_Node000002"><a xlink:title=" ">
<path fill="none" stroke="#63b8ff" d="M122.08,-69.79C112.35,-60.32 101.6,-49.84 92.6,-41.07"/>
<polygon fill="#63b8ff" stroke="#63b8ff" points="119.66,-72.32 129.27,-76.79 124.55,-67.31 119.66,-72.32"/>
</a>
</g>
</g>
<!-- Node3 -->
<g id="Node000003" class="node">
<title>Node3</title>
<g id="a_Node000003"><a xlink:href="bluetooth__comm__gatt_8c.html" target="_top" xlink:title=" ">
<polygon fill="white" stroke="#666666" points="290,-41 163,-41 163,0 290,0 290,-41"/>
<text text-anchor="start" x="171" y="-29" font-family="Helvetica,sans-Serif" font-size="10.00">main/bluetooth_comm</text>
<text text-anchor="start" x="171" y="-18" font-family="Helvetica,sans-Serif" font-size="10.00">_gatt/bluetooth_comm</text>
<text text-anchor="middle" x="226.5" y="-7" font-family="Helvetica,sans-Serif" font-size="10.00">_gatt.c</text>
</a>
</g>
</g>
<!-- Node1&#45;&gt;Node3 -->
<g id="edge2_Node000001_Node000003" class="edge">
<title>Node1&#45;&gt;Node3</title>
<g id="a_edge2_Node000001_Node000003"><a xlink:title=" ">
<path fill="none" stroke="#63b8ff" d="M176.92,-69.79C186.65,-60.32 197.4,-49.84 206.4,-41.07"/>
<polygon fill="#63b8ff" stroke="#63b8ff" points="174.45,-67.31 169.73,-76.79 179.34,-72.32 174.45,-67.31"/>
</a>
</g>
</g>
</g>
</svg>
