<?xml version="1.0" encoding="UTF-8" standalone="no"?>
<!DOCTYPE svg PUBLIC "-//W3C//DTD SVG 1.1//EN"
 "http://www.w3.org/Graphics/SVG/1.1/DTD/svg11.dtd">
<!-- Generated by graphviz version 2.43.0 (0)
 -->
<!-- Title: main/bluetooth/bluetooth.h Pages: 1 -->
<svg width="302pt" height="104pt"
 viewBox="0.00 0.00 302.00 104.00" xmlns="http://www.w3.org/2000/svg" xmlns:xlink="http://www.w3.org/1999/xlink">
<g id="graph0" class="graph" transform="scale(1 1) rotate(0) translate(4 100)">
<title>main/bluetooth/bluetooth.h</title>
<!-- Node1 -->
<g id="Node000001" class="node">
<title>Node1</title>
<g id="a_Node000001"><a xlink:title=" ">
<polygon fill="#999999" stroke="#666666" points="227,-96 78,-96 78,-77 227,-77 227,-96"/>
<text text-anchor="middle" x="152.5" y="-84" font-family="Helvetica,sans-Serif" font-size="10.00">main/bluetooth/bluetooth.h</text>
</a>
</g>
</g>
<!-- Node2 -->
<g id="Node000002" class="node">
<title>Node2</title>
<g id="a_Node000002"><a xlink:href="bluetooth_8c.html" target="_top" xlink:title=" ">
<polygon fill="white" stroke="#666666" points="149,-30 0,-30 0,-11 149,-11 149,-30"/>
<text text-anchor="middle" x="74.5" y="-18" font-family="Helvetica,sans-Serif" font-size="10.00">main/bluetooth/bluetooth.c</text>
</a>
</g>
</g>
<!-- Node1&#45;&gt;Node2 -->
<g id="edge1_Node000001_Node000002" class="edge">
<title>Node1&#45;&gt;Node2</title>
<g id="a_edge1_Node000001_Node000002"><a xlink:title=" ">
<path fill="none" stroke="#63b8ff" d="M134.2,-70.49C118.93,-57.96 97.7,-40.54 85.1,-30.2"/>
<polygon fill="#63b8ff" stroke="#63b8ff" points="132.03,-73.23 141.98,-76.87 136.47,-67.82 132.03,-73.23"/>
</a>
</g>
</g>
<!-- Node3 -->
<g id="Node000003" class="node">
<title>Node3</title>
<g id="a_Node000003"><a xlink:href="bluetooth__comm__gatt_8c.html" target="_top" xlink:title=" ">
<polygon fill="white" stroke="#666666" points="294,-41 167,-41 167,0 294,0 294,-41"/>
<text text-anchor="start" x="175" y="-29" font-family="Helvetica,sans-Serif" font-size="10.00">main/bluetooth_comm</text>
<text text-anchor="start" x="175" y="-18" font-family="Helvetica,sans-Serif" font-size="10.00">_gatt/bluetooth_comm</text>
<text text-anchor="middle" x="230.5" y="-7" font-family="Helvetica,sans-Serif" font-size="10.00">_gatt.c</text>
</a>
</g>
</g>
<!-- Node1&#45;&gt;Node3 -->
<g id="edge2_Node000001_Node000003" class="edge">
<title>Node1&#45;&gt;Node3</title>
<g id="a_edge2_Node000001_Node000003"><a xlink:title=" ">
<path fill="none" stroke="#63b8ff" d="M170.89,-70.41C181.59,-61.63 195.21,-50.46 206.72,-41.01"/>
<polygon fill="#63b8ff" stroke="#63b8ff" points="168.53,-67.82 163.02,-76.87 172.97,-73.23 168.53,-67.82"/>
</a>
</g>
</g>
</g>
</svg>
