<?xml version="1.0" encoding="UTF-8" standalone="no"?>
<!DOCTYPE svg PUBLIC "-//W3C//DTD SVG 1.1//EN"
 "http://www.w3.org/Graphics/SVG/1.1/DTD/svg11.dtd">
<!-- Generated by graphviz version 2.43.0 (0)
 -->
<!-- Title: main/bluetooth/bluetooth.c Pages: 1 -->
<svg width="802pt" height="148pt"
 viewBox="0.00 0.00 802.00 148.00" xmlns="http://www.w3.org/2000/svg" xmlns:xlink="http://www.w3.org/1999/xlink">
<g id="graph0" class="graph" transform="scale(1 1) rotate(0) translate(4 144)">
<title>main/bluetooth/bluetooth.c</title>
<!-- Node1 -->
<g id="Node000001" class="node">
<title>Node1</title>
<g id="a_Node000001"><a xlink:title=" ">
<polygon fill="#999999" stroke="#666666" points="584,-140 435,-140 435,-121 584,-121 584,-140"/>
<text text-anchor="middle" x="509.5" y="-128" font-family="Helvetica,sans-Serif" font-size="10.00">main/bluetooth/bluetooth.c</text>
</a>
</g>
</g>
<!-- Node2 -->
<g id="Node000002" class="node">
<title>Node2</title>
<g id="a_Node000002"><a xlink:href="bluetooth_8h.html" target="_top" xlink:title=" ">
<polygon fill="white" stroke="#666666" points="456.5,-85 384.5,-85 384.5,-66 456.5,-66 456.5,-85"/>
<text text-anchor="middle" x="420.5" y="-73" font-family="Helvetica,sans-Serif" font-size="10.00">bluetooth.h</text>
</a>
</g>
</g>
<!-- Node1&#45;&gt;Node2 -->
<g id="edge1_Node000001_Node000002" class="edge">
<title>Node1&#45;&gt;Node2</title>
<g id="a_edge1_Node000001_Node000002"><a xlink:title=" ">
<path fill="none" stroke="#63b8ff" d="M495.2,-120.98C481.4,-112.77 460.26,-100.18 443.99,-90.49"/>
<polygon fill="#63b8ff" stroke="#63b8ff" points="445.44,-87.28 435.06,-85.17 441.86,-93.29 445.44,-87.28"/>
</a>
</g>
</g>
<!-- Node6 -->
<g id="Node000006" class="node">
<title>Node6</title>
<g id="a_Node000006"><a xlink:title=" ">
<polygon fill="#e0e0e0" stroke="#999999" points="121,-24.5 0,-24.5 0,-5.5 121,-5.5 121,-24.5"/>
<text text-anchor="middle" x="60.5" y="-12.5" font-family="Helvetica,sans-Serif" font-size="10.00">nimble/nimble_port.h</text>
</a>
</g>
</g>
<!-- Node1&#45;&gt;Node6 -->
<g id="edge10_Node000001_Node000006" class="edge">
<title>Node1&#45;&gt;Node6</title>
<g id="a_edge10_Node000001_Node000006"><a xlink:title=" ">
<path fill="none" stroke="#63b8ff" d="M475.75,-120.97C395.53,-100.69 193.49,-49.62 104.15,-27.03"/>
<polygon fill="#63b8ff" stroke="#63b8ff" points="104.89,-23.61 94.33,-24.55 103.17,-30.4 104.89,-23.61"/>
</a>
</g>
</g>
<!-- Node7 -->
<g id="Node000007" class="node">
<title>Node7</title>
<g id="a_Node000007"><a xlink:title=" ">
<polygon fill="#e0e0e0" stroke="#999999" points="476.5,-30 364.5,-30 364.5,0 476.5,0 476.5,-30"/>
<text text-anchor="start" x="372.5" y="-18" font-family="Helvetica,sans-Serif" font-size="10.00">nimble/nimble_port</text>
<text text-anchor="middle" x="420.5" y="-7" font-family="Helvetica,sans-Serif" font-size="10.00">_freertos.h</text>
</a>
</g>
</g>
<!-- Node1&#45;&gt;Node7 -->
<g id="edge11_Node000001_Node000007" class="edge">
<title>Node1&#45;&gt;Node7</title>
<g id="a_edge11_Node000001_Node000007"><a xlink:title=" ">
<path fill="none" stroke="#63b8ff" d="M503.86,-120.62C495.8,-108.11 480.31,-84.72 465.5,-66 457.84,-56.32 448.84,-46.12 440.91,-37.47"/>
<polygon fill="#63b8ff" stroke="#63b8ff" points="443.36,-34.97 433.99,-30.02 438.23,-39.73 443.36,-34.97"/>
</a>
</g>
</g>
<!-- Node8 -->
<g id="Node000008" class="node">
<title>Node8</title>
<g id="a_Node000008"><a xlink:title=" ">
<polygon fill="#e0e0e0" stroke="#999999" points="576,-24.5 495,-24.5 495,-5.5 576,-5.5 576,-24.5"/>
<text text-anchor="middle" x="535.5" y="-12.5" font-family="Helvetica,sans-Serif" font-size="10.00">host/ble_hs.h</text>
</a>
</g>
</g>
<!-- Node1&#45;&gt;Node8 -->
<g id="edge12_Node000001_Node000008" class="edge">
<title>Node1&#45;&gt;Node8</title>
<g id="a_edge12_Node000001_Node000008"><a xlink:title=" ">
<path fill="none" stroke="#63b8ff" d="M511.45,-120.97C515.63,-102.73 525.52,-59.57 531.23,-34.64"/>
<polygon fill="#63b8ff" stroke="#63b8ff" points="534.7,-35.16 533.52,-24.63 527.88,-33.6 534.7,-35.16"/>
</a>
</g>
</g>
<!-- Node9 -->
<g id="Node000009" class="node">
<title>Node9</title>
<g id="a_Node000009"><a xlink:title=" ">
<polygon fill="#e0e0e0" stroke="#999999" points="712.5,-30 594.5,-30 594.5,0 712.5,0 712.5,-30"/>
<text text-anchor="start" x="602.5" y="-18" font-family="Helvetica,sans-Serif" font-size="10.00">services/gap/ble_svc</text>
<text text-anchor="middle" x="653.5" y="-7" font-family="Helvetica,sans-Serif" font-size="10.00">_gap.h</text>
</a>
</g>
</g>
<!-- Node1&#45;&gt;Node9 -->
<g id="edge13_Node000001_Node000009" class="edge">
<title>Node1&#45;&gt;Node9</title>
<g id="a_edge13_Node000001_Node000009"><a xlink:title=" ">
<path fill="none" stroke="#63b8ff" d="M520.32,-120.97C542.9,-103.17 595.56,-61.67 627.48,-36.51"/>
<polygon fill="#63b8ff" stroke="#63b8ff" points="629.82,-39.12 635.51,-30.18 625.49,-33.62 629.82,-39.12"/>
</a>
</g>
</g>
<!-- Node10 -->
<g id="Node000010" class="node">
<title>Node10</title>
<g id="a_Node000010"><a xlink:title=" ">
<polygon fill="#e0e0e0" stroke="#999999" points="794,-24.5 731,-24.5 731,-5.5 794,-5.5 794,-24.5"/>
<text text-anchor="middle" x="762.5" y="-12.5" font-family="Helvetica,sans-Serif" font-size="10.00">esp_log.h</text>
</a>
</g>
</g>
<!-- Node1&#45;&gt;Node10 -->
<g id="edge14_Node000001_Node000010" class="edge">
<title>Node1&#45;&gt;Node10</title>
<g id="a_edge14_Node000001_Node000010"><a xlink:title=" ">
<path fill="none" stroke="#63b8ff" d="M528.52,-120.97C572.56,-101.21 681.8,-52.21 733.93,-28.82"/>
<polygon fill="#63b8ff" stroke="#63b8ff" points="735.57,-31.92 743.26,-24.63 732.71,-25.53 735.57,-31.92"/>
</a>
</g>
</g>
<!-- Node3 -->
<g id="Node000003" class="node">
<title>Node3</title>
<g id="a_Node000003"><a xlink:title=" ">
<polygon fill="#e0e0e0" stroke="#999999" points="192,-24.5 139,-24.5 139,-5.5 192,-5.5 192,-24.5"/>
<text text-anchor="middle" x="165.5" y="-12.5" font-family="Helvetica,sans-Serif" font-size="10.00">stdint.h</text>
</a>
</g>
</g>
<!-- Node2&#45;&gt;Node3 -->
<g id="edge2_Node000002_Node000003" class="edge">
<title>Node2&#45;&gt;Node3</title>
<g id="a_edge2_Node000002_Node000003"><a xlink:title=" ">
<path fill="none" stroke="#63b8ff" d="M384.39,-69.1C340.59,-62.11 264.78,-48.59 201.5,-30 199.57,-29.43 197.6,-28.81 195.62,-28.14"/>
<polygon fill="#63b8ff" stroke="#63b8ff" points="196.45,-24.72 185.85,-24.61 194.06,-31.3 196.45,-24.72"/>
</a>
</g>
</g>
<!-- Node4 -->
<g id="Node000004" class="node">
<title>Node4</title>
<g id="a_Node000004"><a xlink:title=" ">
<polygon fill="#e0e0e0" stroke="#999999" points="266.5,-24.5 210.5,-24.5 210.5,-5.5 266.5,-5.5 266.5,-24.5"/>
<text text-anchor="middle" x="238.5" y="-12.5" font-family="Helvetica,sans-Serif" font-size="10.00">stddef.h</text>
</a>
</g>
</g>
<!-- Node2&#45;&gt;Node4 -->
<g id="edge3_Node000002_Node000004" class="edge">
<title>Node2&#45;&gt;Node4</title>
<g id="a_edge3_Node000002_Node000004"><a xlink:title=" ">
<path fill="none" stroke="#63b8ff" d="M390.61,-65.93C361.16,-57.35 314.99,-43.51 275.5,-30 273.65,-29.37 271.75,-28.7 269.84,-28.02"/>
<polygon fill="#63b8ff" stroke="#63b8ff" points="270.92,-24.69 260.33,-24.52 268.51,-31.26 270.92,-24.69"/>
</a>
</g>
</g>
<!-- Node5 -->
<g id="Node000005" class="node">
<title>Node5</title>
<g id="a_Node000005"><a xlink:title=" ">
<polygon fill="#e0e0e0" stroke="#999999" points="346.5,-24.5 284.5,-24.5 284.5,-5.5 346.5,-5.5 346.5,-24.5"/>
<text text-anchor="middle" x="315.5" y="-12.5" font-family="Helvetica,sans-Serif" font-size="10.00">stdbool.h</text>
</a>
</g>
</g>
<!-- Node2&#45;&gt;Node5 -->
<g id="edge4_Node000002_Node000005" class="edge">
<title>Node2&#45;&gt;Node5</title>
<g id="a_edge4_Node000002_Node000005"><a xlink:title=" ">
<path fill="none" stroke="#63b8ff" d="M405.01,-65.87C387.87,-56.32 360.03,-40.81 339.94,-29.62"/>
<polygon fill="#63b8ff" stroke="#63b8ff" points="341.5,-26.48 331.06,-24.67 338.09,-32.59 341.5,-26.48"/>
</a>
</g>
</g>
<!-- Node2&#45;&gt;Node6 -->
<g id="edge5_Node000002_Node000006" class="edge">
<title>Node2&#45;&gt;Node6</title>
<g id="a_edge5_Node000002_Node000006"><a xlink:title=" ">
<path fill="none" stroke="#63b8ff" d="M384.11,-69.51C328.93,-61.82 220.83,-46.24 129.5,-30 123.56,-28.94 117.35,-27.78 111.19,-26.58"/>
<polygon fill="#63b8ff" stroke="#63b8ff" points="111.43,-23.06 100.94,-24.55 110.07,-29.92 111.43,-23.06"/>
</a>
</g>
</g>
<!-- Node2&#45;&gt;Node7 -->
<g id="edge6_Node000002_Node000007" class="edge">
<title>Node2&#45;&gt;Node7</title>
<g id="a_edge6_Node000002_Node000007"><a xlink:title=" ">
<path fill="none" stroke="#63b8ff" d="M420.5,-65.87C420.5,-59.11 420.5,-49.35 420.5,-40.26"/>
<polygon fill="#63b8ff" stroke="#63b8ff" points="424,-40.11 420.5,-30.11 417,-40.11 424,-40.11"/>
</a>
</g>
</g>
<!-- Node2&#45;&gt;Node8 -->
<g id="edge7_Node000002_Node000008" class="edge">
<title>Node2&#45;&gt;Node8</title>
<g id="a_edge7_Node000002_Node000008"><a xlink:title=" ">
<path fill="none" stroke="#63b8ff" d="M437.47,-65.87C456.41,-56.23 487.29,-40.53 509.33,-29.31"/>
<polygon fill="#63b8ff" stroke="#63b8ff" points="511.14,-32.32 518.46,-24.67 507.96,-26.08 511.14,-32.32"/>
</a>
</g>
</g>
<!-- Node2&#45;&gt;Node9 -->
<g id="edge8_Node000002_Node000009" class="edge">
<title>Node2&#45;&gt;Node9</title>
<g id="a_edge8_Node000002_Node000009"><a xlink:title=" ">
<path fill="none" stroke="#63b8ff" d="M454.38,-65.99C489.16,-57.26 544.17,-43.45 587.57,-32.55"/>
<polygon fill="#63b8ff" stroke="#63b8ff" points="588.64,-35.89 597.48,-30.06 586.93,-29.1 588.64,-35.89"/>
</a>
</g>
</g>
<!-- Node2&#45;&gt;Node10 -->
<g id="edge9_Node000002_Node000010" class="edge">
<title>Node2&#45;&gt;Node10</title>
<g id="a_edge9_Node000002_Node000010"><a xlink:title=" ">
<path fill="none" stroke="#63b8ff" d="M456.58,-71.31C513.49,-65.8 627.3,-52.84 721.5,-30 724.31,-29.32 727.2,-28.53 730.08,-27.67"/>
<polygon fill="#63b8ff" stroke="#63b8ff" points="731.27,-30.97 739.73,-24.6 729.14,-24.3 731.27,-30.97"/>
</a>
</g>
</g>
</g>
</svg>
