<?xml version="1.0" encoding="UTF-8" standalone="no"?>
<!DOCTYPE svg PUBLIC "-//W3C//DTD SVG 1.1//EN"
 "http://www.w3.org/Graphics/SVG/1.1/DTD/svg11.dtd">
<!-- Generated by graphviz version 2.43.0 (0)
 -->
<!-- Title: main/bluetooth/bluetooth.h Pages: 1 -->
<svg width="803pt" height="93pt"
 viewBox="0.00 0.00 803.00 93.00" xmlns="http://www.w3.org/2000/svg" xmlns:xlink="http://www.w3.org/1999/xlink">
<g id="graph0" class="graph" transform="scale(1 1) rotate(0) translate(4 89)">
<title>main/bluetooth/bluetooth.h</title>
<!-- Node1 -->
<g id="Node000001" class="node">
<title>Node1</title>
<g id="a_Node000001"><a xlink:title=" ">
<polygon fill="#999999" stroke="#666666" points="428,-85 279,-85 279,-66 428,-66 428,-85"/>
<text text-anchor="middle" x="353.5" y="-73" font-family="Helvetica,sans-Serif" font-size="10.00">main/bluetooth/bluetooth.h</text>
</a>
</g>
</g>
<!-- Node2 -->
<g id="Node000002" class="node">
<title>Node2</title>
<g id="a_Node000002"><a xlink:title=" ">
<polygon fill="#e0e0e0" stroke="#999999" points="53,-24.5 0,-24.5 0,-5.5 53,-5.5 53,-24.5"/>
<text text-anchor="middle" x="26.5" y="-12.5" font-family="Helvetica,sans-Serif" font-size="10.00">stdint.h</text>
</a>
</g>
</g>
<!-- Node1&#45;&gt;Node2 -->
<g id="edge1_Node000001_Node000002" class="edge">
<title>Node1&#45;&gt;Node2</title>
<g id="a_edge1_Node000001_Node000002"><a xlink:title=" ">
<path fill="none" stroke="#63b8ff" d="M278.72,-67.62C219.39,-61.08 134.71,-49.31 62.5,-30 60.34,-29.42 58.14,-28.76 55.93,-28.04"/>
<polygon fill="#63b8ff" stroke="#63b8ff" points="57.02,-24.71 46.42,-24.64 54.66,-31.3 57.02,-24.71"/>
</a>
</g>
</g>
<!-- Node3 -->
<g id="Node000003" class="node">
<title>Node3</title>
<g id="a_Node000003"><a xlink:title=" ">
<polygon fill="#e0e0e0" stroke="#999999" points="127.5,-24.5 71.5,-24.5 71.5,-5.5 127.5,-5.5 127.5,-24.5"/>
<text text-anchor="middle" x="99.5" y="-12.5" font-family="Helvetica,sans-Serif" font-size="10.00">stddef.h</text>
</a>
</g>
</g>
<!-- Node1&#45;&gt;Node3 -->
<g id="edge2_Node000001_Node000003" class="edge">
<title>Node1&#45;&gt;Node3</title>
<g id="a_edge2_Node000001_Node000003"><a xlink:title=" ">
<path fill="none" stroke="#63b8ff" d="M299.86,-65.96C255.59,-58.32 191.35,-45.89 136.5,-30 134.36,-29.38 132.16,-28.69 129.96,-27.96"/>
<polygon fill="#63b8ff" stroke="#63b8ff" points="131.03,-24.63 120.44,-24.58 128.69,-31.22 131.03,-24.63"/>
</a>
</g>
</g>
<!-- Node4 -->
<g id="Node000004" class="node">
<title>Node4</title>
<g id="a_Node000004"><a xlink:title=" ">
<polygon fill="#e0e0e0" stroke="#999999" points="207.5,-24.5 145.5,-24.5 145.5,-5.5 207.5,-5.5 207.5,-24.5"/>
<text text-anchor="middle" x="176.5" y="-12.5" font-family="Helvetica,sans-Serif" font-size="10.00">stdbool.h</text>
</a>
</g>
</g>
<!-- Node1&#45;&gt;Node4 -->
<g id="edge3_Node000001_Node000004" class="edge">
<title>Node1&#45;&gt;Node4</title>
<g id="a_edge3_Node000001_Node000004"><a xlink:title=" ">
<path fill="none" stroke="#63b8ff" d="M326.66,-65.98C299,-57.15 254.65,-42.87 216.5,-30 214.4,-29.29 212.25,-28.56 210.08,-27.81"/>
<polygon fill="#63b8ff" stroke="#63b8ff" points="211.18,-24.49 200.58,-24.53 208.89,-31.11 211.18,-24.49"/>
</a>
</g>
</g>
<!-- Node5 -->
<g id="Node000005" class="node">
<title>Node5</title>
<g id="a_Node000005"><a xlink:title=" ">
<polygon fill="#e0e0e0" stroke="#999999" points="347,-24.5 226,-24.5 226,-5.5 347,-5.5 347,-24.5"/>
<text text-anchor="middle" x="286.5" y="-12.5" font-family="Helvetica,sans-Serif" font-size="10.00">nimble/nimble_port.h</text>
</a>
</g>
</g>
<!-- Node1&#45;&gt;Node5 -->
<g id="edge4_Node000001_Node000005" class="edge">
<title>Node1&#45;&gt;Node5</title>
<g id="a_edge4_Node000001_Node000005"><a xlink:title=" ">
<path fill="none" stroke="#63b8ff" d="M343.61,-65.87C333.22,-56.8 316.66,-42.34 304.05,-31.32"/>
<polygon fill="#63b8ff" stroke="#63b8ff" points="306.26,-28.61 296.43,-24.67 301.66,-33.88 306.26,-28.61"/>
</a>
</g>
</g>
<!-- Node6 -->
<g id="Node000006" class="node">
<title>Node6</title>
<g id="a_Node000006"><a xlink:title=" ">
<polygon fill="#e0e0e0" stroke="#999999" points="477.5,-30 365.5,-30 365.5,0 477.5,0 477.5,-30"/>
<text text-anchor="start" x="373.5" y="-18" font-family="Helvetica,sans-Serif" font-size="10.00">nimble/nimble_port</text>
<text text-anchor="middle" x="421.5" y="-7" font-family="Helvetica,sans-Serif" font-size="10.00">_freertos.h</text>
</a>
</g>
</g>
<!-- Node1&#45;&gt;Node6 -->
<g id="edge5_Node000001_Node000006" class="edge">
<title>Node1&#45;&gt;Node6</title>
<g id="a_edge5_Node000001_Node000006"><a xlink:title=" ">
<path fill="none" stroke="#63b8ff" d="M363.53,-65.87C372.42,-58.22 385.75,-46.76 397.38,-36.75"/>
<polygon fill="#63b8ff" stroke="#63b8ff" points="399.8,-39.29 405.09,-30.11 395.23,-33.98 399.8,-39.29"/>
</a>
</g>
</g>
<!-- Node7 -->
<g id="Node000007" class="node">
<title>Node7</title>
<g id="a_Node000007"><a xlink:title=" ">
<polygon fill="#e0e0e0" stroke="#999999" points="577,-24.5 496,-24.5 496,-5.5 577,-5.5 577,-24.5"/>
<text text-anchor="middle" x="536.5" y="-12.5" font-family="Helvetica,sans-Serif" font-size="10.00">host/ble_hs.h</text>
</a>
</g>
</g>
<!-- Node1&#45;&gt;Node7 -->
<g id="edge6_Node000001_Node000007" class="edge">
<title>Node1&#45;&gt;Node7</title>
<g id="a_edge6_Node000001_Node000007"><a xlink:title=" ">
<path fill="none" stroke="#63b8ff" d="M380.11,-65.99C411.69,-55.9 464.51,-39.01 499.92,-27.69"/>
<polygon fill="#63b8ff" stroke="#63b8ff" points="501.4,-30.9 509.86,-24.52 499.27,-24.23 501.4,-30.9"/>
</a>
</g>
</g>
<!-- Node8 -->
<g id="Node000008" class="node">
<title>Node8</title>
<g id="a_Node000008"><a xlink:title=" ">
<polygon fill="#e0e0e0" stroke="#999999" points="713.5,-30 595.5,-30 595.5,0 713.5,0 713.5,-30"/>
<text text-anchor="start" x="603.5" y="-18" font-family="Helvetica,sans-Serif" font-size="10.00">services/gap/ble_svc</text>
<text text-anchor="middle" x="654.5" y="-7" font-family="Helvetica,sans-Serif" font-size="10.00">_gap.h</text>
</a>
</g>
</g>
<!-- Node1&#45;&gt;Node8 -->
<g id="edge7_Node000001_Node000008" class="edge">
<title>Node1&#45;&gt;Node8</title>
<g id="a_edge7_Node000001_Node000008"><a xlink:title=" ">
<path fill="none" stroke="#63b8ff" d="M399.08,-66C443.96,-57.57 514.75,-44.18 585.23,-30.24"/>
<polygon fill="#63b8ff" stroke="#63b8ff" points="586.04,-33.64 595.17,-28.27 584.68,-26.78 586.04,-33.64"/>
</a>
</g>
</g>
<!-- Node9 -->
<g id="Node000009" class="node">
<title>Node9</title>
<g id="a_Node000009"><a xlink:title=" ">
<polygon fill="#e0e0e0" stroke="#999999" points="795,-24.5 732,-24.5 732,-5.5 795,-5.5 795,-24.5"/>
<text text-anchor="middle" x="763.5" y="-12.5" font-family="Helvetica,sans-Serif" font-size="10.00">esp_log.h</text>
</a>
</g>
</g>
<!-- Node1&#45;&gt;Node9 -->
<g id="edge8_Node000001_Node000009" class="edge">
<title>Node1&#45;&gt;Node9</title>
<g id="a_edge8_Node000001_Node000009"><a xlink:title=" ">
<path fill="none" stroke="#63b8ff" d="M428.14,-70.09C503.24,-64.59 622.01,-52.95 722.5,-30 725.48,-29.32 728.55,-28.5 731.61,-27.61"/>
<polygon fill="#63b8ff" stroke="#63b8ff" points="732.72,-30.93 741.19,-24.56 730.6,-24.25 732.72,-30.93"/>
</a>
</g>
</g>
</g>
</svg>
