<?xml version="1.0" encoding="UTF-8" standalone="no"?>
<!DOCTYPE svg PUBLIC "-//W3C//DTD SVG 1.1//EN"
 "http://www.w3.org/Graphics/SVG/1.1/DTD/svg11.dtd">
<!-- Generated by graphviz version 2.43.0 (0)
 -->
<!-- Title: main/bluetooth_comm_gatt/bluetooth_comm_gatt.c Pages: 1 -->
<svg width="1441pt" height="170pt"
 viewBox="0.00 0.00 1441.00 170.00" xmlns="http://www.w3.org/2000/svg" xmlns:xlink="http://www.w3.org/1999/xlink">
<g id="graph0" class="graph" transform="scale(1 1) rotate(0) translate(4 166)">
<title>main/bluetooth_comm_gatt/bluetooth_comm_gatt.c</title>
<!-- Node1 -->
<g id="Node000001" class="node">
<title>Node1</title>
<g id="a_Node000001"><a xlink:title=" ">
<polygon fill="#999999" stroke="#666666" points="665.5,-162 538.5,-162 538.5,-121 665.5,-121 665.5,-162"/>
<text text-anchor="start" x="546.5" y="-150" font-family="Helvetica,sans-Serif" font-size="10.00">main/bluetooth_comm</text>
<text text-anchor="start" x="546.5" y="-139" font-family="Helvetica,sans-Serif" font-size="10.00">_gatt/bluetooth_comm</text>
<text text-anchor="middle" x="602" y="-128" font-family="Helvetica,sans-Serif" font-size="10.00">_gatt.c</text>
</a>
</g>
</g>
<!-- Node2 -->
<g id="Node000002" class="node">
<title>Node2</title>
<g id="a_Node000002"><a xlink:title=" ">
<polygon fill="#e0e0e0" stroke="#999999" points="50,-85 0,-85 0,-66 50,-66 50,-85"/>
<text text-anchor="middle" x="25" y="-73" font-family="Helvetica,sans-Serif" font-size="10.00">stdio.h</text>
</a>
</g>
</g>
<!-- Node1&#45;&gt;Node2 -->
<g id="edge1_Node000001_Node000002" class="edge">
<title>Node1&#45;&gt;Node2</title>
<g id="a_edge1_Node000001_Node000002"><a xlink:title=" ">
<path fill="none" stroke="#63b8ff" d="M538.48,-136.96C438.57,-130.75 238.58,-115.7 60.25,-84.98"/>
<polygon fill="#63b8ff" stroke="#63b8ff" points="60.62,-81.49 50.17,-83.22 59.42,-88.38 60.62,-81.49"/>
</a>
</g>
</g>
<!-- Node3 -->
<g id="Node000003" class="node">
<title>Node3</title>
<g id="a_Node000003"><a xlink:title=" ">
<polygon fill="#e0e0e0" stroke="#999999" points="121.5,-85 68.5,-85 68.5,-66 121.5,-66 121.5,-85"/>
<text text-anchor="middle" x="95" y="-73" font-family="Helvetica,sans-Serif" font-size="10.00">string.h</text>
</a>
</g>
</g>
<!-- Node1&#45;&gt;Node3 -->
<g id="edge2_Node000001_Node000003" class="edge">
<title>Node1&#45;&gt;Node3</title>
<g id="a_edge2_Node000001_Node000003"><a xlink:title=" ">
<path fill="none" stroke="#63b8ff" d="M538.27,-135.48C449.2,-127.91 282.33,-111.74 131.59,-85.1"/>
<polygon fill="#63b8ff" stroke="#63b8ff" points="132.14,-81.65 121.68,-83.33 130.91,-88.54 132.14,-81.65"/>
</a>
</g>
</g>
<!-- Node4 -->
<g id="Node000004" class="node">
<title>Node4</title>
<g id="a_Node000004"><a xlink:title=" ">
<polygon fill="#e0e0e0" stroke="#999999" points="252.5,-85 139.5,-85 139.5,-66 252.5,-66 252.5,-85"/>
<text text-anchor="middle" x="196" y="-73" font-family="Helvetica,sans-Serif" font-size="10.00">freertos/FreeRTOS.h</text>
</a>
</g>
</g>
<!-- Node1&#45;&gt;Node4 -->
<g id="edge3_Node000001_Node000004" class="edge">
<title>Node1&#45;&gt;Node4</title>
<g id="a_edge3_Node000001_Node000004"><a xlink:title=" ">
<path fill="none" stroke="#63b8ff" d="M538.12,-130.43C462.14,-118.45 336.07,-98.58 260.03,-86.59"/>
<polygon fill="#63b8ff" stroke="#63b8ff" points="260.52,-83.13 250.1,-85.03 259.43,-90.04 260.52,-83.13"/>
</a>
</g>
</g>
<!-- Node5 -->
<g id="Node000005" class="node">
<title>Node5</title>
<g id="a_Node000005"><a xlink:title=" ">
<polygon fill="#e0e0e0" stroke="#999999" points="359,-85 271,-85 271,-66 359,-66 359,-85"/>
<text text-anchor="middle" x="315" y="-73" font-family="Helvetica,sans-Serif" font-size="10.00">freertos/task.h</text>
</a>
</g>
</g>
<!-- Node1&#45;&gt;Node5 -->
<g id="edge4_Node000001_Node000005" class="edge">
<title>Node1&#45;&gt;Node5</title>
<g id="a_edge4_Node000001_Node000005"><a xlink:title=" ">
<path fill="none" stroke="#63b8ff" d="M538.31,-126.3C485.42,-114.5 411.34,-97.98 363.26,-87.26"/>
<polygon fill="#63b8ff" stroke="#63b8ff" points="363.94,-83.83 353.41,-85.07 362.41,-90.66 363.94,-83.83"/>
</a>
</g>
</g>
<!-- Node6 -->
<g id="Node000006" class="node">
<title>Node6</title>
<g id="a_Node000006"><a xlink:title=" ">
<polygon fill="#e0e0e0" stroke="#999999" points="873.5,-24.5 810.5,-24.5 810.5,-5.5 873.5,-5.5 873.5,-24.5"/>
<text text-anchor="middle" x="842" y="-12.5" font-family="Helvetica,sans-Serif" font-size="10.00">esp_log.h</text>
</a>
</g>
</g>
<!-- Node1&#45;&gt;Node6 -->
<g id="edge5_Node000001_Node000006" class="edge">
<title>Node1&#45;&gt;Node6</title>
<g id="a_edge5_Node000001_Node000006"><a xlink:title=" ">
<path fill="none" stroke="#63b8ff" d="M665.86,-124.12C695.87,-114.96 731.45,-101.95 761,-85 786.38,-70.44 811.36,-47.49 826.72,-32.1"/>
<polygon fill="#63b8ff" stroke="#63b8ff" points="829.34,-34.42 833.83,-24.82 824.34,-29.53 829.34,-34.42"/>
</a>
</g>
</g>
<!-- Node7 -->
<g id="Node000007" class="node">
<title>Node7</title>
<g id="a_Node000007"><a xlink:title=" ">
<polygon fill="#e0e0e0" stroke="#999999" points="409.5,-24.5 332.5,-24.5 332.5,-5.5 409.5,-5.5 409.5,-24.5"/>
<text text-anchor="middle" x="371" y="-12.5" font-family="Helvetica,sans-Serif" font-size="10.00">nimble/ble.h</text>
</a>
</g>
</g>
<!-- Node1&#45;&gt;Node7 -->
<g id="edge6_Node000001_Node000007" class="edge">
<title>Node1&#45;&gt;Node7</title>
<g id="a_edge6_Node000001_Node000007"><a xlink:title=" ">
<path fill="none" stroke="#63b8ff" d="M543.28,-120.97C517.89,-111.54 488.26,-99.19 463,-85 435.17,-69.37 406.23,-46.36 388.41,-31.28"/>
<polygon fill="#63b8ff" stroke="#63b8ff" points="390.48,-28.44 380.61,-24.58 385.92,-33.75 390.48,-28.44"/>
</a>
</g>
</g>
<!-- Node8 -->
<g id="Node000008" class="node">
<title>Node8</title>
<g id="a_Node000008"><a xlink:title=" ">
<polygon fill="#e0e0e0" stroke="#999999" points="792.5,-24.5 711.5,-24.5 711.5,-5.5 792.5,-5.5 792.5,-24.5"/>
<text text-anchor="middle" x="752" y="-12.5" font-family="Helvetica,sans-Serif" font-size="10.00">host/ble_hs.h</text>
</a>
</g>
</g>
<!-- Node1&#45;&gt;Node8 -->
<g id="edge7_Node000001_Node000008" class="edge">
<title>Node1&#45;&gt;Node8</title>
<g id="a_edge7_Node000001_Node000008"><a xlink:title=" ">
<path fill="none" stroke="#63b8ff" d="M665.66,-130.01C693.22,-122.19 723.36,-108.59 742,-85 753.12,-70.92 754.72,-50.02 754.09,-34.91"/>
<polygon fill="#63b8ff" stroke="#63b8ff" points="757.56,-34.39 753.3,-24.69 750.58,-34.93 757.56,-34.39"/>
</a>
</g>
</g>
<!-- Node9 -->
<g id="Node000009" class="node">
<title>Node9</title>
<g id="a_Node000009"><a xlink:title=" ">
<polygon fill="#e0e0e0" stroke="#999999" points="582.5,-85 491.5,-85 491.5,-66 582.5,-66 582.5,-85"/>
<text text-anchor="middle" x="537" y="-73" font-family="Helvetica,sans-Serif" font-size="10.00">host/ble_uuid.h</text>
</a>
</g>
</g>
<!-- Node1&#45;&gt;Node9 -->
<g id="edge8_Node000001_Node000009" class="edge">
<title>Node1&#45;&gt;Node9</title>
<g id="a_edge8_Node000001_Node000009"><a xlink:title=" ">
<path fill="none" stroke="#63b8ff" d="M582.14,-120.95C572.88,-111.83 562,-101.11 553.24,-92.49"/>
<polygon fill="#63b8ff" stroke="#63b8ff" points="555.48,-89.78 545.9,-85.26 550.57,-94.77 555.48,-89.78"/>
</a>
</g>
</g>
<!-- Node10 -->
<g id="Node000010" class="node">
<title>Node10</title>
<g id="a_Node000010"><a xlink:title=" ">
<polygon fill="#e0e0e0" stroke="#999999" points="516,-24.5 428,-24.5 428,-5.5 516,-5.5 516,-24.5"/>
<text text-anchor="middle" x="472" y="-12.5" font-family="Helvetica,sans-Serif" font-size="10.00">host/ble_gap.h</text>
</a>
</g>
</g>
<!-- Node1&#45;&gt;Node10 -->
<g id="edge9_Node000001_Node000010" class="edge">
<title>Node1&#45;&gt;Node10</title>
<g id="a_edge9_Node000001_Node000010"><a xlink:title=" ">
<path fill="none" stroke="#63b8ff" d="M538.5,-128.24C514.21,-120.17 488.81,-106.86 474,-85 464.04,-70.29 464.94,-49.49 467.47,-34.57"/>
<polygon fill="#63b8ff" stroke="#63b8ff" points="470.95,-35.02 469.56,-24.52 464.1,-33.59 470.95,-35.02"/>
</a>
</g>
</g>
<!-- Node11 -->
<g id="Node000011" class="node">
<title>Node11</title>
<g id="a_Node000011"><a xlink:title=" ">
<polygon fill="#e0e0e0" stroke="#999999" points="622.5,-24.5 533.5,-24.5 533.5,-5.5 622.5,-5.5 622.5,-24.5"/>
<text text-anchor="middle" x="578" y="-12.5" font-family="Helvetica,sans-Serif" font-size="10.00">host/ble_gatt.h</text>
</a>
</g>
</g>
<!-- Node1&#45;&gt;Node11 -->
<g id="edge10_Node000001_Node000011" class="edge">
<title>Node1&#45;&gt;Node11</title>
<g id="a_edge10_Node000001_Node000011"><a xlink:title=" ">
<path fill="none" stroke="#63b8ff" d="M538.29,-126.07C516.65,-117.79 494.73,-104.92 482,-85 465.1,-58.56 502.63,-39.09 535.61,-27.69"/>
<polygon fill="#63b8ff" stroke="#63b8ff" points="536.77,-31 545.18,-24.56 534.59,-24.34 536.77,-31"/>
</a>
</g>
</g>
<!-- Node12 -->
<g id="Node000012" class="node">
<title>Node12</title>
<g id="a_Node000012"><a xlink:title=" ">
<polygon fill="#e0e0e0" stroke="#999999" points="1012.5,-24.5 891.5,-24.5 891.5,-5.5 1012.5,-5.5 1012.5,-24.5"/>
<text text-anchor="middle" x="952" y="-12.5" font-family="Helvetica,sans-Serif" font-size="10.00">nimble/nimble_port.h</text>
</a>
</g>
</g>
<!-- Node1&#45;&gt;Node12 -->
<g id="edge11_Node000001_Node000012" class="edge">
<title>Node1&#45;&gt;Node12</title>
<g id="a_edge11_Node000001_Node000012"><a xlink:title=" ">
<path fill="none" stroke="#63b8ff" d="M665.76,-123.49C702.18,-113.3 748.52,-99.52 789,-85 837.49,-67.6 892.38,-43.4 924.49,-28.76"/>
<polygon fill="#63b8ff" stroke="#63b8ff" points="926.06,-31.9 933.69,-24.55 923.14,-25.53 926.06,-31.9"/>
</a>
</g>
</g>
<!-- Node13 -->
<g id="Node000013" class="node">
<title>Node13</title>
<g id="a_Node000013"><a xlink:title=" ">
<polygon fill="#e0e0e0" stroke="#999999" points="1433,-30 1321,-30 1321,0 1433,0 1433,-30"/>
<text text-anchor="start" x="1329" y="-18" font-family="Helvetica,sans-Serif" font-size="10.00">nimble/nimble_port</text>
<text text-anchor="middle" x="1377" y="-7" font-family="Helvetica,sans-Serif" font-size="10.00">_freertos.h</text>
</a>
</g>
</g>
<!-- Node1&#45;&gt;Node13 -->
<g id="edge12_Node000001_Node000013" class="edge">
<title>Node1&#45;&gt;Node13</title>
<g id="a_edge12_Node000001_Node000013"><a xlink:title=" ">
<path fill="none" stroke="#63b8ff" d="M665.58,-138.7C770.59,-134.75 986.44,-122.4 1165,-85 1224.05,-72.63 1289.78,-49.75 1332.17,-33.74"/>
<polygon fill="#63b8ff" stroke="#63b8ff" points="1333.53,-36.96 1341.63,-30.13 1331.04,-30.42 1333.53,-36.96"/>
</a>
</g>
</g>
<!-- Node14 -->
<g id="Node000014" class="node">
<title>Node14</title>
<g id="a_Node000014"><a xlink:title=" ">
<polygon fill="#e0e0e0" stroke="#999999" points="936,-85 866,-85 866,-66 936,-66 936,-85"/>
<text text-anchor="middle" x="901" y="-73" font-family="Helvetica,sans-Serif" font-size="10.00">os/queue.h</text>
</a>
</g>
</g>
<!-- Node1&#45;&gt;Node14 -->
<g id="edge13_Node000001_Node000014" class="edge">
<title>Node1&#45;&gt;Node14</title>
<g id="a_edge13_Node000001_Node000014"><a xlink:title=" ">
<path fill="none" stroke="#63b8ff" d="M665.78,-126.85C722.9,-114.62 805.24,-97 855.82,-86.17"/>
<polygon fill="#63b8ff" stroke="#63b8ff" points="856.76,-89.55 865.8,-84.03 855.29,-82.7 856.76,-89.55"/>
</a>
</g>
</g>
<!-- Node15 -->
<g id="Node000015" class="node">
<title>Node15</title>
<g id="a_Node000015"><a xlink:title=" ">
<polygon fill="#e0e0e0" stroke="#999999" points="1065.5,-85 954.5,-85 954.5,-66 1065.5,-66 1065.5,-85"/>
<text text-anchor="middle" x="1010" y="-73" font-family="Helvetica,sans-Serif" font-size="10.00">host/ble_hs_mbuf.h</text>
</a>
</g>
</g>
<!-- Node1&#45;&gt;Node15 -->
<g id="edge14_Node000001_Node000015" class="edge">
<title>Node1&#45;&gt;Node15</title>
<g id="a_edge14_Node000001_Node000015"><a xlink:title=" ">
<path fill="none" stroke="#63b8ff" d="M665.75,-130.5C742,-118.54 868.92,-98.63 945.5,-86.62"/>
<polygon fill="#63b8ff" stroke="#63b8ff" points="946.17,-90.06 955.5,-85.05 945.08,-83.14 946.17,-90.06"/>
</a>
</g>
</g>
<!-- Node16 -->
<g id="Node000016" class="node">
<title>Node16</title>
<g id="a_Node000016"><a xlink:href="bluetooth_8h.html" target="_top" xlink:title=" ">
<polygon fill="white" stroke="#666666" points="1156,-85 1084,-85 1084,-66 1156,-66 1156,-85"/>
<text text-anchor="middle" x="1120" y="-73" font-family="Helvetica,sans-Serif" font-size="10.00">bluetooth.h</text>
</a>
</g>
</g>
<!-- Node1&#45;&gt;Node16 -->
<g id="edge15_Node000001_Node000016" class="edge">
<title>Node1&#45;&gt;Node16</title>
<g id="a_edge15_Node000001_Node000016"><a xlink:title=" ">
<path fill="none" stroke="#63b8ff" d="M665.69,-134.45C754.75,-125.68 921.74,-108.09 1073.7,-85.11"/>
<polygon fill="#63b8ff" stroke="#63b8ff" points="1074.33,-88.55 1083.69,-83.58 1073.27,-81.63 1074.33,-88.55"/>
</a>
</g>
</g>
<!-- Node21 -->
<g id="Node000021" class="node">
<title>Node21</title>
<g id="a_Node000021"><a xlink:href="bluetooth__comm__gatt_8h.html" target="_top" xlink:title=" ">
<polygon fill="white" stroke="#666666" points="733.5,-85 600.5,-85 600.5,-66 733.5,-66 733.5,-85"/>
<text text-anchor="middle" x="667" y="-73" font-family="Helvetica,sans-Serif" font-size="10.00">bluetooth_comm_gatt.h</text>
</a>
</g>
</g>
<!-- Node1&#45;&gt;Node21 -->
<g id="edge24_Node000001_Node000021" class="edge">
<title>Node1&#45;&gt;Node21</title>
<g id="a_edge24_Node000001_Node000021"><a xlink:title=" ">
<path fill="none" stroke="#63b8ff" d="M621.86,-120.95C631.12,-111.83 642,-101.11 650.76,-92.49"/>
<polygon fill="#63b8ff" stroke="#63b8ff" points="653.43,-94.77 658.1,-85.26 648.52,-89.78 653.43,-94.77"/>
</a>
</g>
</g>
<!-- Node16&#45;&gt;Node6 -->
<g id="edge23_Node000016_Node000006" class="edge">
<title>Node16&#45;&gt;Node6</title>
<g id="a_edge23_Node000016_Node000006"><a xlink:title=" ">
<path fill="none" stroke="#63b8ff" d="M1083.65,-67.63C1080.72,-67.08 1077.81,-66.53 1075,-66 989.68,-49.94 966.96,-52.08 883,-30 880.36,-29.31 877.65,-28.53 874.94,-27.7"/>
<polygon fill="#63b8ff" stroke="#63b8ff" points="875.83,-24.31 865.24,-24.58 873.69,-30.98 875.83,-24.31"/>
</a>
</g>
</g>
<!-- Node16&#45;&gt;Node8 -->
<g id="edge21_Node000016_Node000008" class="edge">
<title>Node16&#45;&gt;Node8</title>
<g id="a_edge21_Node000016_Node000008"><a xlink:title=" ">
<path fill="none" stroke="#63b8ff" d="M1083.68,-67.46C1080.75,-66.95 1077.83,-66.45 1075,-66 953.72,-46.59 921.27,-54.94 801,-30 797.12,-29.19 793.09,-28.24 789.09,-27.22"/>
<polygon fill="#63b8ff" stroke="#63b8ff" points="789.86,-23.8 779.29,-24.57 788.03,-30.56 789.86,-23.8"/>
</a>
</g>
</g>
<!-- Node16&#45;&gt;Node12 -->
<g id="edge19_Node000016_Node000012" class="edge">
<title>Node16&#45;&gt;Node12</title>
<g id="a_edge19_Node000016_Node000012"><a xlink:title=" ">
<path fill="none" stroke="#63b8ff" d="M1095.57,-65.99C1066.71,-55.94 1018.5,-39.16 986,-27.84"/>
<polygon fill="#63b8ff" stroke="#63b8ff" points="987.05,-24.5 976.46,-24.52 984.75,-31.11 987.05,-24.5"/>
</a>
</g>
</g>
<!-- Node16&#45;&gt;Node13 -->
<g id="edge20_Node000016_Node000013" class="edge">
<title>Node16&#45;&gt;Node13</title>
<g id="a_edge20_Node000016_Node000013"><a xlink:title=" ">
<path fill="none" stroke="#63b8ff" d="M1156.01,-66.3C1196.07,-57.18 1261.65,-42.26 1310.99,-31.03"/>
<polygon fill="#63b8ff" stroke="#63b8ff" points="1311.97,-34.39 1320.94,-28.76 1310.42,-27.57 1311.97,-34.39"/>
</a>
</g>
</g>
<!-- Node17 -->
<g id="Node000017" class="node">
<title>Node17</title>
<g id="a_Node000017"><a xlink:title=" ">
<polygon fill="#e0e0e0" stroke="#999999" points="693.5,-24.5 640.5,-24.5 640.5,-5.5 693.5,-5.5 693.5,-24.5"/>
<text text-anchor="middle" x="667" y="-12.5" font-family="Helvetica,sans-Serif" font-size="10.00">stdint.h</text>
</a>
</g>
</g>
<!-- Node16&#45;&gt;Node17 -->
<g id="edge16_Node000016_Node000017" class="edge">
<title>Node16&#45;&gt;Node17</title>
<g id="a_edge16_Node000016_Node000017"><a xlink:title=" ">
<path fill="none" stroke="#63b8ff" d="M1083.7,-67.35C1080.76,-66.86 1077.83,-66.4 1075,-66 910.12,-42.52 863.84,-69.32 702,-30 699.69,-29.44 697.34,-28.76 694.99,-28"/>
<polygon fill="#63b8ff" stroke="#63b8ff" points="696.16,-24.7 685.57,-24.56 693.77,-31.28 696.16,-24.7"/>
</a>
</g>
</g>
<!-- Node18 -->
<g id="Node000018" class="node">
<title>Node18</title>
<g id="a_Node000018"><a xlink:title=" ">
<polygon fill="#e0e0e0" stroke="#999999" points="1087,-24.5 1031,-24.5 1031,-5.5 1087,-5.5 1087,-24.5"/>
<text text-anchor="middle" x="1059" y="-12.5" font-family="Helvetica,sans-Serif" font-size="10.00">stddef.h</text>
</a>
</g>
</g>
<!-- Node16&#45;&gt;Node18 -->
<g id="edge17_Node000016_Node000018" class="edge">
<title>Node16&#45;&gt;Node18</title>
<g id="a_edge17_Node000016_Node000018"><a xlink:title=" ">
<path fill="none" stroke="#63b8ff" d="M1111,-65.87C1101.63,-56.88 1086.75,-42.61 1075.3,-31.64"/>
<polygon fill="#63b8ff" stroke="#63b8ff" points="1077.68,-29.06 1068.04,-24.67 1072.83,-34.12 1077.68,-29.06"/>
</a>
</g>
</g>
<!-- Node19 -->
<g id="Node000019" class="node">
<title>Node19</title>
<g id="a_Node000019"><a xlink:title=" ">
<polygon fill="#e0e0e0" stroke="#999999" points="1167,-24.5 1105,-24.5 1105,-5.5 1167,-5.5 1167,-24.5"/>
<text text-anchor="middle" x="1136" y="-12.5" font-family="Helvetica,sans-Serif" font-size="10.00">stdbool.h</text>
</a>
</g>
</g>
<!-- Node16&#45;&gt;Node19 -->
<g id="edge18_Node000016_Node000019" class="edge">
<title>Node16&#45;&gt;Node19</title>
<g id="a_edge18_Node000016_Node000019"><a xlink:title=" ">
<path fill="none" stroke="#63b8ff" d="M1122.36,-65.87C1124.61,-57.66 1128.06,-45.04 1130.93,-34.55"/>
<polygon fill="#63b8ff" stroke="#63b8ff" points="1134.37,-35.24 1133.63,-24.67 1127.62,-33.39 1134.37,-35.24"/>
</a>
</g>
</g>
<!-- Node20 -->
<g id="Node000020" class="node">
<title>Node20</title>
<g id="a_Node000020"><a xlink:title=" ">
<polygon fill="#e0e0e0" stroke="#999999" points="1303,-30 1185,-30 1185,0 1303,0 1303,-30"/>
<text text-anchor="start" x="1193" y="-18" font-family="Helvetica,sans-Serif" font-size="10.00">services/gap/ble_svc</text>
<text text-anchor="middle" x="1244" y="-7" font-family="Helvetica,sans-Serif" font-size="10.00">_gap.h</text>
</a>
</g>
</g>
<!-- Node16&#45;&gt;Node20 -->
<g id="edge22_Node000016_Node000020" class="edge">
<title>Node16&#45;&gt;Node20</title>
<g id="a_edge22_Node000016_Node000020"><a xlink:title=" ">
<path fill="none" stroke="#63b8ff" d="M1138.03,-65.99C1155.43,-57.79 1182.34,-45.09 1204.69,-34.55"/>
<polygon fill="#63b8ff" stroke="#63b8ff" points="1206.4,-37.61 1213.95,-30.18 1203.41,-31.28 1206.4,-37.61"/>
</a>
</g>
</g>
<!-- Node21&#45;&gt;Node6 -->
<g id="edge30_Node000021_Node000006" class="edge">
<title>Node21&#45;&gt;Node6</title>
<g id="a_edge30_Node000021_Node000006"><a xlink:title=" ">
<path fill="none" stroke="#63b8ff" d="M692.96,-65.95C719.97,-57.04 763.48,-42.64 801,-30 803.09,-29.3 805.23,-28.57 807.39,-27.84"/>
<polygon fill="#63b8ff" stroke="#63b8ff" points="808.52,-31.15 816.86,-24.62 806.26,-24.53 808.52,-31.15"/>
</a>
</g>
</g>
<!-- Node21&#45;&gt;Node7 -->
<g id="edge26_Node000021_Node000007" class="edge">
<title>Node21&#45;&gt;Node7</title>
<g id="a_edge26_Node000021_Node000007"><a xlink:title=" ">
<path fill="none" stroke="#63b8ff" d="M609.51,-65.96C559.02,-58.04 483.73,-45.2 419,-30 415.41,-29.16 411.69,-28.21 407.98,-27.21"/>
<polygon fill="#63b8ff" stroke="#63b8ff" points="408.85,-23.82 398.28,-24.5 406.97,-30.56 408.85,-23.82"/>
</a>
</g>
</g>
<!-- Node21&#45;&gt;Node8 -->
<g id="edge27_Node000021_Node000008" class="edge">
<title>Node21&#45;&gt;Node8</title>
<g id="a_edge27_Node000021_Node000008"><a xlink:title=" ">
<path fill="none" stroke="#63b8ff" d="M679.54,-65.87C693.1,-56.54 714.94,-41.51 731.1,-30.38"/>
<polygon fill="#63b8ff" stroke="#63b8ff" points="733.15,-33.22 739.41,-24.67 729.18,-27.45 733.15,-33.22"/>
</a>
</g>
</g>
<!-- Node21&#45;&gt;Node10 -->
<g id="edge28_Node000021_Node000010" class="edge">
<title>Node21&#45;&gt;Node10</title>
<g id="a_edge28_Node000021_Node000010"><a xlink:title=" ">
<path fill="none" stroke="#63b8ff" d="M638.65,-65.99C604.71,-55.81 547.74,-38.72 510.01,-27.4"/>
<polygon fill="#63b8ff" stroke="#63b8ff" points="510.97,-24.04 500.39,-24.52 508.96,-30.74 510.97,-24.04"/>
</a>
</g>
</g>
<!-- Node21&#45;&gt;Node11 -->
<g id="edge29_Node000021_Node000011" class="edge">
<title>Node21&#45;&gt;Node11</title>
<g id="a_edge29_Node000021_Node000011"><a xlink:title=" ">
<path fill="none" stroke="#63b8ff" d="M653.87,-65.87C639.67,-56.54 616.8,-41.51 599.88,-30.38"/>
<polygon fill="#63b8ff" stroke="#63b8ff" points="601.47,-27.24 591.19,-24.67 597.62,-33.08 601.47,-27.24"/>
</a>
</g>
</g>
<!-- Node21&#45;&gt;Node17 -->
<g id="edge25_Node000021_Node000017" class="edge">
<title>Node21&#45;&gt;Node17</title>
<g id="a_edge25_Node000021_Node000017"><a xlink:title=" ">
<path fill="none" stroke="#63b8ff" d="M667,-65.87C667,-57.75 667,-45.31 667,-34.89"/>
<polygon fill="#63b8ff" stroke="#63b8ff" points="670.5,-34.67 667,-24.67 663.5,-34.67 670.5,-34.67"/>
</a>
</g>
</g>
</g>
</svg>
