<?xml version="1.0" encoding="UTF-8" standalone="no"?>
<!DOCTYPE svg PUBLIC "-//W3C//DTD SVG 1.1//EN"
 "http://www.w3.org/Graphics/SVG/1.1/DTD/svg11.dtd">
<!-- Generated by graphviz version 2.43.0 (0)
 -->
<!-- Title: ble_init Pages: 1 -->
<svg width="213pt" height="101pt"
 viewBox="0.00 0.00 213.00 101.00" xmlns="http://www.w3.org/2000/svg" xmlns:xlink="http://www.w3.org/1999/xlink">
<g id="graph0" class="graph" transform="scale(1 1) rotate(0) translate(4 97)">
<title>ble_init</title>
<!-- Node1 -->
<g id="Node000001" class="node">
<title>Node1</title>
<g id="a_Node000001"><a xlink:title=" ">
<polygon fill="#999999" stroke="#666666" points="53,-56 0,-56 0,-37 53,-37 53,-56"/>
<text text-anchor="middle" x="26.5" y="-44" font-family="Helvetica,sans-Serif" font-size="10.00">ble_init</text>
</a>
</g>
</g>
<!-- Node2 -->
<g id="Node000002" class="node">
<title>Node2</title>
<g id="a_Node000002"><a xlink:href="bluetooth_8c.html#a3751d2a71d6a2fab013b5c402ff546bf" target="_top" xlink:title=" ">
<polygon fill="white" stroke="#666666" points="197,-93 97,-93 97,-74 197,-74 197,-93"/>
<text text-anchor="middle" x="147" y="-81" font-family="Helvetica,sans-Serif" font-size="10.00">ble_app_on_sync</text>
</a>
</g>
</g>
<!-- Node1&#45;&gt;Node2 -->
<g id="edge1_Node000001_Node000002" class="edge">
<title>Node1&#45;&gt;Node2</title>
<g id="a_edge1_Node000001_Node000002"><a xlink:title=" ">
<path fill="none" stroke="#63b8ff" d="M53.21,-54.53C68.46,-59.29 88.13,-65.43 105.43,-70.83"/>
<polygon fill="#63b8ff" stroke="#63b8ff" points="104.71,-74.27 115.3,-73.91 106.79,-67.59 104.71,-74.27"/>
</a>
</g>
</g>
<!-- Node3 -->
<g id="Node000003" class="node">
<title>Node3</title>
<g id="a_Node000003"><a xlink:href="bluetooth_8c.html#a675642d210f93adacfb836b1d23680f4" target="_top" xlink:title=" ">
<polygon fill="white" stroke="#666666" points="186.5,-56 107.5,-56 107.5,-37 186.5,-37 186.5,-56"/>
<text text-anchor="middle" x="147" y="-44" font-family="Helvetica,sans-Serif" font-size="10.00">ble_on_reset</text>
</a>
</g>
</g>
<!-- Node1&#45;&gt;Node3 -->
<g id="edge2_Node000001_Node000003" class="edge">
<title>Node1&#45;&gt;Node3</title>
<g id="a_edge2_Node000001_Node000003"><a xlink:title=" ">
<path fill="none" stroke="#63b8ff" d="M53.21,-46.5C66.04,-46.5 82,-46.5 97.05,-46.5"/>
<polygon fill="#63b8ff" stroke="#63b8ff" points="97.27,-50 107.27,-46.5 97.27,-43 97.27,-50"/>
</a>
</g>
</g>
<!-- Node4 -->
<g id="Node000004" class="node">
<title>Node4</title>
<g id="a_Node000004"><a xlink:href="bluetooth_8h.html#a1b1de510b8ab4e2449ccc2b3bd58461a" target="_top" xlink:title=" ">
<polygon fill="white" stroke="#666666" points="205,-19 89,-19 89,0 205,0 205,-19"/>
<text text-anchor="middle" x="147" y="-7" font-family="Helvetica,sans-Serif" font-size="10.00">gatt_svr_register_cb</text>
</a>
</g>
</g>
<!-- Node1&#45;&gt;Node4 -->
<g id="edge3_Node000001_Node000004" class="edge">
<title>Node1&#45;&gt;Node4</title>
<g id="a_edge3_Node000001_Node000004"><a xlink:title=" ">
<path fill="none" stroke="#63b8ff" d="M53.21,-38.47C68.46,-33.71 88.13,-27.57 105.43,-22.17"/>
<polygon fill="#63b8ff" stroke="#63b8ff" points="106.79,-25.41 115.3,-19.09 104.71,-18.73 106.79,-25.41"/>
</a>
</g>
</g>
</g>
</svg>
