<?xml version="1.0" encoding="UTF-8" standalone="no"?>
<!DOCTYPE svg PUBLIC "-//W3C//DTD SVG 1.1//EN"
 "http://www.w3.org/Graphics/SVG/1.1/DTD/svg11.dtd">
<!-- Generated by graphviz version 2.43.0 (0)
 -->
<!-- Title: calculate_body_composition Pages: 1 -->
<svg width="497pt" height="27pt"
 viewBox="0.00 0.00 497.00 27.00" xmlns="http://www.w3.org/2000/svg" xmlns:xlink="http://www.w3.org/1999/xlink">
<g id="graph0" class="graph" transform="scale(1 1) rotate(0) translate(4 23)">
<title>calculate_body_composition</title>
<!-- Node1 -->
<g id="Node000001" class="node">
<title>Node1</title>
<g id="a_Node000001"><a xlink:title=" ">
<polygon fill="#999999" stroke="#666666" points="155,-19 0,-19 0,0 155,0 155,-19"/>
<text text-anchor="middle" x="77.5" y="-7" font-family="Helvetica,sans-Serif" font-size="10.00">calculate_body_composition</text>
</a>
</g>
</g>
<!-- Node2 -->
<g id="Node000002" class="node">
<title>Node2</title>
<g id="a_Node000002"><a xlink:href="body__composition_8c.html#afdfd064eabf0f8a5e373b98894b2b271" target="_top" xlink:title=" ">
<polygon fill="white" stroke="#666666" points="351,-19 191,-19 191,0 351,0 351,-19"/>
<text text-anchor="middle" x="271" y="-7" font-family="Helvetica,sans-Serif" font-size="10.00">save_body_composition_json</text>
</a>
</g>
</g>
<!-- Node1&#45;&gt;Node2 -->
<g id="edge1_Node000001_Node000002" class="edge">
<title>Node1&#45;&gt;Node2</title>
<g id="a_edge1_Node000001_Node000002"><a xlink:title=" ">
<path fill="none" stroke="#63b8ff" d="M155.01,-9.5C163.47,-9.5 172.14,-9.5 180.74,-9.5"/>
<polygon fill="#63b8ff" stroke="#63b8ff" points="180.79,-13 190.79,-9.5 180.79,-6 180.79,-13"/>
</a>
</g>
</g>
<!-- Node3 -->
<g id="Node000003" class="node">
<title>Node3</title>
<g id="a_Node000003"><a xlink:href="body__composition_8c.html#a3ac0dc9c98849f0b0b7c2caef34a4255" target="_top" xlink:title=" ">
<polygon fill="white" stroke="#666666" points="489,-19 387,-19 387,0 489,0 489,-19"/>
<text text-anchor="middle" x="438" y="-7" font-family="Helvetica,sans-Serif" font-size="10.00">write_json_to_file</text>
</a>
</g>
</g>
<!-- Node2&#45;&gt;Node3 -->
<g id="edge2_Node000002_Node000003" class="edge">
<title>Node2&#45;&gt;Node3</title>
<g id="a_edge2_Node000002_Node000003"><a xlink:title=" ">
<path fill="none" stroke="#63b8ff" d="M351.12,-9.5C359.61,-9.5 368.15,-9.5 376.37,-9.5"/>
<polygon fill="#63b8ff" stroke="#63b8ff" points="376.6,-13 386.6,-9.5 376.6,-6 376.6,-13"/>
</a>
</g>
</g>
</g>
</svg>
