<?xml version="1.0" encoding="UTF-8" standalone="no"?>
<!DOCTYPE svg PUBLIC "-//W3C//DTD SVG 1.1//EN"
 "http://www.w3.org/Graphics/SVG/1.1/DTD/svg11.dtd">
<!-- Generated by graphviz version 2.43.0 (0)
 -->
<!-- Title: main/calibration/calibration.h Pages: 1 -->
<svg width="511pt" height="159pt"
 viewBox="0.00 0.00 510.50 159.00" xmlns="http://www.w3.org/2000/svg" xmlns:xlink="http://www.w3.org/1999/xlink">
<g id="graph0" class="graph" transform="scale(1 1) rotate(0) translate(4 155)">
<title>main/calibration/calibration.h</title>
<!-- Node1 -->
<g id="Node000001" class="node">
<title>Node1</title>
<g id="a_Node000001"><a xlink:title=" ">
<polygon fill="#999999" stroke="#666666" points="304.5,-151 144.5,-151 144.5,-132 304.5,-132 304.5,-151"/>
<text text-anchor="middle" x="224.5" y="-139" font-family="Helvetica,sans-Serif" font-size="10.00">main/calibration/calibration.h</text>
</a>
</g>
</g>
<!-- Node2 -->
<g id="Node000002" class="node">
<title>Node2</title>
<g id="a_Node000002"><a xlink:href="calibration_8c.html" target="_top" xlink:title=" ">
<polygon fill="white" stroke="#666666" points="159,-90.5 0,-90.5 0,-71.5 159,-71.5 159,-90.5"/>
<text text-anchor="middle" x="79.5" y="-78.5" font-family="Helvetica,sans-Serif" font-size="10.00">main/calibration/calibration.c</text>
</a>
</g>
</g>
<!-- Node1&#45;&gt;Node2 -->
<g id="edge1_Node000001_Node000002" class="edge">
<title>Node1&#45;&gt;Node2</title>
<g id="a_edge1_Node000001_Node000002"><a xlink:title=" ">
<path fill="none" stroke="#63b8ff" d="M194.09,-128.23C166.07,-116.92 125.21,-100.44 100.61,-90.52"/>
<polygon fill="#63b8ff" stroke="#63b8ff" points="192.83,-131.5 203.42,-131.99 195.45,-125.01 192.83,-131.5"/>
</a>
</g>
</g>
<!-- Node3 -->
<g id="Node000003" class="node">
<title>Node3</title>
<g id="a_Node000003"><a xlink:href="main_8c.html" target="_top" xlink:title=" ">
<polygon fill="white" stroke="#666666" points="214,-24.5 137,-24.5 137,-5.5 214,-5.5 214,-24.5"/>
<text text-anchor="middle" x="175.5" y="-12.5" font-family="Helvetica,sans-Serif" font-size="10.00">main/main.c</text>
</a>
</g>
</g>
<!-- Node1&#45;&gt;Node3 -->
<g id="edge2_Node000001_Node000003" class="edge">
<title>Node1&#45;&gt;Node3</title>
<g id="a_edge2_Node000001_Node000003"><a xlink:title=" ">
<path fill="none" stroke="#63b8ff" d="M217.4,-122.46C206.69,-95.26 186.82,-44.76 178.89,-24.62"/>
<polygon fill="#63b8ff" stroke="#63b8ff" points="214.21,-123.92 221.13,-131.94 220.73,-121.36 214.21,-123.92"/>
</a>
</g>
</g>
<!-- Node4 -->
<g id="Node000004" class="node">
<title>Node4</title>
<g id="a_Node000004"><a xlink:href="weight__manager_8c.html" target="_top" xlink:title=" ">
<polygon fill="white" stroke="#666666" points="358.5,-30 232.5,-30 232.5,0 358.5,0 358.5,-30"/>
<text text-anchor="start" x="240.5" y="-18" font-family="Helvetica,sans-Serif" font-size="10.00">main/weight_manager</text>
<text text-anchor="middle" x="295.5" y="-7" font-family="Helvetica,sans-Serif" font-size="10.00">/weight_manager.c</text>
</a>
</g>
</g>
<!-- Node1&#45;&gt;Node4 -->
<g id="edge3_Node000001_Node000004" class="edge">
<title>Node1&#45;&gt;Node4</title>
<g id="a_edge3_Node000001_Node000004"><a xlink:title=" ">
<path fill="none" stroke="#63b8ff" d="M226.41,-121.55C228.65,-105.81 233.45,-83.26 243.5,-66 251.69,-51.93 264.97,-39.26 276.06,-30.19"/>
<polygon fill="#63b8ff" stroke="#63b8ff" points="222.91,-121.3 225.18,-131.65 229.86,-122.14 222.91,-121.3"/>
</a>
</g>
</g>
<!-- Node5 -->
<g id="Node000005" class="node">
<title>Node5</title>
<g id="a_Node000005"><a xlink:href="weight__manager_8h.html" target="_top" xlink:title=" ">
<polygon fill="white" stroke="#666666" points="378.5,-96 252.5,-96 252.5,-66 378.5,-66 378.5,-96"/>
<text text-anchor="start" x="260.5" y="-84" font-family="Helvetica,sans-Serif" font-size="10.00">main/weight_manager</text>
<text text-anchor="middle" x="315.5" y="-73" font-family="Helvetica,sans-Serif" font-size="10.00">/weight_manager.h</text>
</a>
</g>
</g>
<!-- Node1&#45;&gt;Node5 -->
<g id="edge4_Node000001_Node000005" class="edge">
<title>Node1&#45;&gt;Node5</title>
<g id="a_edge4_Node000001_Node000005"><a xlink:title=" ">
<path fill="none" stroke="#63b8ff" d="M246.6,-126.29C260.85,-117.13 279.32,-105.26 293.54,-96.11"/>
<polygon fill="#63b8ff" stroke="#63b8ff" points="244.45,-123.52 237.93,-131.87 248.23,-129.4 244.45,-123.52"/>
</a>
</g>
</g>
<!-- Node6 -->
<g id="Node000006" class="node">
<title>Node6</title>
<g id="a_Node000006"><a xlink:href="wifi__comm_8c.html" target="_top" xlink:title=" ">
<polygon fill="white" stroke="#666666" points="502.5,-24.5 376.5,-24.5 376.5,-5.5 502.5,-5.5 502.5,-24.5"/>
<text text-anchor="middle" x="439.5" y="-12.5" font-family="Helvetica,sans-Serif" font-size="10.00">main/wifi/wifi_comm.c</text>
</a>
</g>
</g>
<!-- Node1&#45;&gt;Node6 -->
<g id="edge8_Node000001_Node000006" class="edge">
<title>Node1&#45;&gt;Node6</title>
<g id="a_edge8_Node000001_Node000006"><a xlink:title=" ">
<path fill="none" stroke="#63b8ff" d="M308.36,-129.75C335.5,-123.24 364.5,-112.79 387.5,-96 413.32,-77.15 429.77,-41.25 436.29,-24.73"/>
<polygon fill="#63b8ff" stroke="#63b8ff" points="307.45,-126.37 298.47,-131.98 308.99,-133.2 307.45,-126.37"/>
</a>
</g>
</g>
<!-- Node5&#45;&gt;Node3 -->
<g id="edge5_Node000005_Node000003" class="edge">
<title>Node5&#45;&gt;Node3</title>
<g id="a_edge5_Node000005_Node000003"><a xlink:title=" ">
<path fill="none" stroke="#63b8ff" d="M275.64,-61.78C248.88,-49.54 214.84,-33.98 194.13,-24.52"/>
<polygon fill="#63b8ff" stroke="#63b8ff" points="274.23,-64.98 284.78,-65.95 277.14,-58.61 274.23,-64.98"/>
</a>
</g>
</g>
<!-- Node5&#45;&gt;Node4 -->
<g id="edge6_Node000005_Node000004" class="edge">
<title>Node5&#45;&gt;Node4</title>
<g id="a_edge6_Node000005_Node000004"><a xlink:title=" ">
<path fill="none" stroke="#63b8ff" d="M308.03,-56.11C305.31,-47.38 302.31,-37.78 299.93,-30.16"/>
<polygon fill="#63b8ff" stroke="#63b8ff" points="304.74,-57.3 311.06,-65.8 311.42,-55.21 304.74,-57.3"/>
</a>
</g>
</g>
<!-- Node5&#45;&gt;Node6 -->
<g id="edge7_Node000005_Node000006" class="edge">
<title>Node5&#45;&gt;Node6</title>
<g id="a_edge7_Node000005_Node000006"><a xlink:title=" ">
<path fill="none" stroke="#63b8ff" d="M351.74,-61.3C375.3,-49.14 404.9,-33.86 423,-24.52"/>
<polygon fill="#63b8ff" stroke="#63b8ff" points="349.99,-58.26 342.71,-65.95 353.2,-64.48 349.99,-58.26"/>
</a>
</g>
</g>
</g>
</svg>
