<?xml version="1.0" encoding="UTF-8" standalone="no"?>
<!DOCTYPE svg PUBLIC "-//W3C//DTD SVG 1.1//EN"
 "http://www.w3.org/Graphics/SVG/1.1/DTD/svg11.dtd">
<!-- Generated by graphviz version 2.43.0 (0)
 -->
<!-- Title: main Pages: 1 -->
<svg width="634pt" height="279pt"
 viewBox="0.00 0.00 634.00 279.00" xmlns="http://www.w3.org/2000/svg" xmlns:xlink="http://www.w3.org/1999/xlink">
<g id="graph0" class="graph" transform="scale(1 1) rotate(0) translate(4 275)">
<title>main</title>
<g id="clust1" class="cluster">
<title>clusterdir_5c982d53a68cdbcd421152b4020263a9</title>
<g id="a_clust1"><a xlink:href="dir_5c982d53a68cdbcd421152b4020263a9.html" target="_top">
<polygon fill="#edf0f7" stroke="#404040" stroke-width="2" points="8,-8 8,-263 618,-263 618,-8 8,-8"/>
</a>
</g>
</g>
<!-- dir_5c982d53a68cdbcd421152b4020263a9 -->
<g id="node1" class="node">
<title>dir_5c982d53a68cdbcd421152b4020263a9</title>
<text text-anchor="middle" x="589" y="-243" font-family="Helvetica,sans-Serif" font-size="10.00">main</text>
</g>
<!-- dir_7d41259a136a49734176e34f64ff9f2d -->
<g id="node6" class="node">
<title>dir_7d41259a136a49734176e34f64ff9f2d</title>
<g id="a_node6"><a xlink:href="dir_7d41259a136a49734176e34f64ff9f2d.html" target="_top" xlink:title="calibration">
<polygon fill="#a2b4d6" stroke="#404040" points="396,-90 328,-90 328,-71 396,-71 396,-90"/>
<text text-anchor="middle" x="362" y="-78" font-family="Helvetica,sans-Serif" font-size="10.00">calibration</text>
</a>
</g>
</g>
<!-- dir_5c982d53a68cdbcd421152b4020263a9&#45;&gt;dir_7d41259a136a49734176e34f64ff9f2d -->
<g id="edge2" class="edge">
<title>dir_5c982d53a68cdbcd421152b4020263a9&#45;&gt;dir_7d41259a136a49734176e34f64ff9f2d</title>
<g id="a_edge2"><a xlink:href="dir_000008_000004.html" target="_top">
<path fill="none" stroke="#63b8ff" d="M577.12,-235.97C540.43,-209.62 428.64,-129.35 382.38,-96.13"/>
<polygon fill="#63b8ff" stroke="#63b8ff" points="384.21,-93.14 374.04,-90.15 380.12,-98.82 384.21,-93.14"/>
</a>
</g>
<g id="a_edge2&#45;headlabel"><a xlink:href="dir_000008_000004.html" target="_top" xlink:title="4">
<text text-anchor="middle" x="388.78" y="-90.43" font-family="Helvetica,sans-Serif" font-size="10.00" fill="#63b8ff">4</text>
</a>
</g>
</g>
<!-- dir_81596091d4d62433ea291a5bdd8bc80c -->
<g id="node7" class="node">
<title>dir_81596091d4d62433ea291a5bdd8bc80c</title>
<g id="a_node7"><a xlink:href="dir_81596091d4d62433ea291a5bdd8bc80c.html" target="_top" xlink:title="hx711">
<polygon fill="#a2b4d6" stroke="#404040" points="563.5,-145 516.5,-145 516.5,-126 563.5,-126 563.5,-145"/>
<text text-anchor="middle" x="540" y="-133" font-family="Helvetica,sans-Serif" font-size="10.00">hx711</text>
</a>
</g>
</g>
<!-- dir_5c982d53a68cdbcd421152b4020263a9&#45;&gt;dir_81596091d4d62433ea291a5bdd8bc80c -->
<g id="edge3" class="edge">
<title>dir_5c982d53a68cdbcd421152b4020263a9&#45;&gt;dir_81596091d4d62433ea291a5bdd8bc80c</title>
<g id="a_edge3"><a xlink:href="dir_000008_000005.html" target="_top">
<path fill="none" stroke="#63b8ff" d="M584.99,-235.66C576.95,-217.93 558.7,-177.73 548.08,-154.32"/>
<polygon fill="#63b8ff" stroke="#63b8ff" points="551.25,-152.82 543.93,-145.16 544.87,-155.71 551.25,-152.82"/>
</a>
</g>
<g id="a_edge3&#45;headlabel"><a xlink:href="dir_000008_000005.html" target="_top" xlink:title="2">
<text text-anchor="middle" x="555.32" y="-152.42" font-family="Helvetica,sans-Serif" font-size="10.00" fill="#63b8ff">2</text>
</a>
</g>
</g>
<!-- dir_0ab4d07083b31fd4d8055a65baa88f6b -->
<g id="node9" class="node">
<title>dir_0ab4d07083b31fd4d8055a65baa88f6b</title>
<g id="a_node9"><a xlink:href="dir_0ab4d07083b31fd4d8055a65baa88f6b.html" target="_top" xlink:title="log_utils">
<polygon fill="#a2b4d6" stroke="#404040" points="310,-35 252,-35 252,-16 310,-16 310,-35"/>
<text text-anchor="middle" x="281" y="-23" font-family="Helvetica,sans-Serif" font-size="10.00">log_utils</text>
</a>
</g>
</g>
<!-- dir_5c982d53a68cdbcd421152b4020263a9&#45;&gt;dir_0ab4d07083b31fd4d8055a65baa88f6b -->
<g id="edge1" class="edge">
<title>dir_5c982d53a68cdbcd421152b4020263a9&#45;&gt;dir_0ab4d07083b31fd4d8055a65baa88f6b</title>
<g id="a_edge1"><a xlink:href="dir_000008_000007.html" target="_top">
<path fill="none" stroke="#63b8ff" d="M593.14,-235.96C605.92,-208.23 641.37,-119.72 599,-71 563.32,-29.97 397.37,-25.63 320.4,-25.89"/>
<polygon fill="#63b8ff" stroke="#63b8ff" points="320.13,-22.39 310.15,-25.95 320.17,-29.39 320.13,-22.39"/>
</a>
</g>
<g id="a_edge1&#45;headlabel"><a xlink:href="dir_000008_000007.html" target="_top" xlink:title="4">
<text text-anchor="middle" x="323.71" y="-17.03" font-family="Helvetica,sans-Serif" font-size="10.00" fill="#63b8ff">4</text>
</a>
</g>
</g>
<!-- dir_867e272f832ce7b32546ea02afe0d28b -->
<g id="node13" class="node">
<title>dir_867e272f832ce7b32546ea02afe0d28b</title>
<g id="a_node13"><a xlink:href="dir_867e272f832ce7b32546ea02afe0d28b.html" target="_top" xlink:title="weight_manager">
<polygon fill="#a2b4d6" stroke="#404040" points="401,-145 303,-145 303,-126 401,-126 401,-145"/>
<text text-anchor="middle" x="352" y="-133" font-family="Helvetica,sans-Serif" font-size="10.00">weight_manager</text>
</a>
</g>
</g>
<!-- dir_5c982d53a68cdbcd421152b4020263a9&#45;&gt;dir_867e272f832ce7b32546ea02afe0d28b -->
<g id="edge4" class="edge">
<title>dir_5c982d53a68cdbcd421152b4020263a9&#45;&gt;dir_867e272f832ce7b32546ea02afe0d28b</title>
<g id="a_edge4"><a xlink:href="dir_000008_000012.html" target="_top">
<path fill="none" stroke="#63b8ff" d="M569.42,-235.89C549.23,-226.99 516.86,-212.65 489,-200 450.95,-182.72 407.16,-162.33 379.54,-149.41"/>
<polygon fill="#63b8ff" stroke="#63b8ff" points="380.67,-146.08 370.13,-145.01 377.7,-152.42 380.67,-146.08"/>
</a>
</g>
<g id="a_edge4&#45;headlabel"><a xlink:href="dir_000008_000012.html" target="_top" xlink:title="2">
<text text-anchor="middle" x="385.13" y="-142.53" font-family="Helvetica,sans-Serif" font-size="10.00" fill="#63b8ff">2</text>
</a>
</g>
</g>
<!-- dir_eefee35c6ab380d7209ec05948f73f5c -->
<g id="node14" class="node">
<title>dir_eefee35c6ab380d7209ec05948f73f5c</title>
<g id="a_node14"><a xlink:href="dir_eefee35c6ab380d7209ec05948f73f5c.html" target="_top" xlink:title="wifi">
<polygon fill="#a2b4d6" stroke="#404040" points="437,-200 403,-200 403,-181 437,-181 437,-200"/>
<text text-anchor="middle" x="420" y="-188" font-family="Helvetica,sans-Serif" font-size="10.00">wifi</text>
</a>
</g>
</g>
<!-- dir_5c982d53a68cdbcd421152b4020263a9&#45;&gt;dir_eefee35c6ab380d7209ec05948f73f5c -->
<g id="edge5" class="edge">
<title>dir_5c982d53a68cdbcd421152b4020263a9&#45;&gt;dir_eefee35c6ab380d7209ec05948f73f5c</title>
<g id="a_edge5"><a xlink:href="dir_000008_000013.html" target="_top">
<path fill="none" stroke="#63b8ff" d="M568.28,-238C537.76,-228.43 480.73,-210.54 446.98,-199.96"/>
<polygon fill="#63b8ff" stroke="#63b8ff" points="447.9,-196.58 437.31,-196.93 445.81,-203.26 447.9,-196.58"/>
</a>
</g>
<g id="a_edge5&#45;headlabel"><a xlink:href="dir_000008_000013.html" target="_top" xlink:title="2">
<text text-anchor="middle" x="452.18" y="-192.45" font-family="Helvetica,sans-Serif" font-size="10.00" fill="#63b8ff">2</text>
</a>
</g>
</g>
<!-- dir_98072b2a9e3e21496d7d347363f7ab86 -->
<g id="node2" class="node">
<title>dir_98072b2a9e3e21496d7d347363f7ab86</title>
<g id="a_node2"><a xlink:href="dir_98072b2a9e3e21496d7d347363f7ab86.html" target="_top" xlink:title="app_connection_manager">
<polygon fill="#a2b4d6" stroke="#404040" points="550,-255 408,-255 408,-236 550,-236 550,-255"/>
<text text-anchor="middle" x="479" y="-243" font-family="Helvetica,sans-Serif" font-size="10.00">app_connection_manager</text>
</a>
</g>
</g>
<!-- dir_5210666ed177e1279a37fb2871204bf4 -->
<g id="node4" class="node">
<title>dir_5210666ed177e1279a37fb2871204bf4</title>
<g id="a_node4"><a xlink:href="dir_5210666ed177e1279a37fb2871204bf4.html" target="_top" xlink:title="bluetooth_comm_gatt">
<polygon fill="#a2b4d6" stroke="#404040" points="293,-200 169,-200 169,-181 293,-181 293,-200"/>
<text text-anchor="middle" x="231" y="-188" font-family="Helvetica,sans-Serif" font-size="10.00">bluetooth_comm_gatt</text>
</a>
</g>
</g>
<!-- dir_98072b2a9e3e21496d7d347363f7ab86&#45;&gt;dir_5210666ed177e1279a37fb2871204bf4 -->
<g id="edge6" class="edge">
<title>dir_98072b2a9e3e21496d7d347363f7ab86&#45;&gt;dir_5210666ed177e1279a37fb2871204bf4</title>
<g id="a_edge6"><a xlink:href="dir_000000_000002.html" target="_top">
<path fill="none" stroke="#63b8ff" d="M439.15,-235.98C396.17,-226.8 327.63,-212.15 281.04,-202.19"/>
<polygon fill="#63b8ff" stroke="#63b8ff" points="281.67,-198.75 271.16,-200.08 280.21,-205.59 281.67,-198.75"/>
</a>
</g>
<g id="a_edge6&#45;headlabel"><a xlink:href="dir_000000_000002.html" target="_top" xlink:title="1">
<text text-anchor="middle" x="285.78" y="-194.22" font-family="Helvetica,sans-Serif" font-size="10.00" fill="#63b8ff">1</text>
</a>
</g>
</g>
<!-- dir_98072b2a9e3e21496d7d347363f7ab86&#45;&gt;dir_eefee35c6ab380d7209ec05948f73f5c -->
<g id="edge7" class="edge">
<title>dir_98072b2a9e3e21496d7d347363f7ab86&#45;&gt;dir_eefee35c6ab380d7209ec05948f73f5c</title>
<g id="a_edge7"><a xlink:href="dir_000000_000013.html" target="_top">
<path fill="none" stroke="#63b8ff" d="M469.52,-235.98C460.8,-228.15 447.66,-216.34 437.1,-206.86"/>
<polygon fill="#63b8ff" stroke="#63b8ff" points="439.43,-204.25 429.65,-200.17 434.75,-209.46 439.43,-204.25"/>
</a>
</g>
<g id="a_edge7&#45;headlabel"><a xlink:href="dir_000000_000013.html" target="_top" xlink:title="1">
<text text-anchor="middle" x="444" y="-202.04" font-family="Helvetica,sans-Serif" font-size="10.00" fill="#63b8ff">1</text>
</a>
</g>
</g>
<!-- dir_2849427f5d8b0d267278d640e7f2eeb0 -->
<g id="node3" class="node">
<title>dir_2849427f5d8b0d267278d640e7f2eeb0</title>
<g id="a_node3"><a xlink:href="dir_2849427f5d8b0d267278d640e7f2eeb0.html" target="_top" xlink:title="bluetooth">
<polygon fill="#a2b4d6" stroke="#404040" points="179.5,-145 116.5,-145 116.5,-126 179.5,-126 179.5,-145"/>
<text text-anchor="middle" x="148" y="-133" font-family="Helvetica,sans-Serif" font-size="10.00">bluetooth</text>
</a>
</g>
</g>
<!-- dir_5210666ed177e1279a37fb2871204bf4&#45;&gt;dir_2849427f5d8b0d267278d640e7f2eeb0 -->
<g id="edge8" class="edge">
<title>dir_5210666ed177e1279a37fb2871204bf4&#45;&gt;dir_2849427f5d8b0d267278d640e7f2eeb0</title>
<g id="a_edge8"><a xlink:href="dir_000002_000001.html" target="_top">
<path fill="none" stroke="#63b8ff" d="M217.66,-180.98C204.91,-172.84 185.45,-160.41 170.33,-150.76"/>
<polygon fill="#63b8ff" stroke="#63b8ff" points="171.89,-147.6 161.58,-145.17 168.12,-153.5 171.89,-147.6"/>
</a>
</g>
<g id="a_edge8&#45;headlabel"><a xlink:href="dir_000002_000001.html" target="_top" xlink:title="1">
<text text-anchor="middle" x="176.45" y="-144.64" font-family="Helvetica,sans-Serif" font-size="10.00" fill="#63b8ff">1</text>
</a>
</g>
</g>
<!-- dir_04f6a3fe400aa365972f95030ad7b9da -->
<g id="node5" class="node">
<title>dir_04f6a3fe400aa365972f95030ad7b9da</title>
<g id="a_node5"><a xlink:href="dir_04f6a3fe400aa365972f95030ad7b9da.html" target="_top" xlink:title="body_composition">
<polygon fill="#a2b4d6" stroke="#404040" points="390,-255 284,-255 284,-236 390,-236 390,-255"/>
<text text-anchor="middle" x="337" y="-243" font-family="Helvetica,sans-Serif" font-size="10.00">body_composition</text>
</a>
</g>
</g>
<!-- dir_6ed641792ed04746791b6e216fbbe44e -->
<g id="node8" class="node">
<title>dir_6ed641792ed04746791b6e216fbbe44e</title>
<g id="a_node8"><a xlink:href="dir_6ed641792ed04746791b6e216fbbe44e.html" target="_top" xlink:title="kalman_filter">
<polygon fill="#a2b4d6" stroke="#404040" points="590,-90 510,-90 510,-71 590,-71 590,-90"/>
<text text-anchor="middle" x="550" y="-78" font-family="Helvetica,sans-Serif" font-size="10.00">kalman_filter</text>
</a>
</g>
</g>
<!-- dir_81596091d4d62433ea291a5bdd8bc80c&#45;&gt;dir_6ed641792ed04746791b6e216fbbe44e -->
<g id="edge9" class="edge">
<title>dir_81596091d4d62433ea291a5bdd8bc80c&#45;&gt;dir_6ed641792ed04746791b6e216fbbe44e</title>
<g id="a_edge9"><a xlink:href="dir_000005_000006.html" target="_top">
<path fill="none" stroke="#63b8ff" d="M541.65,-125.75C542.96,-118.8 544.84,-108.85 546.48,-100.13"/>
<polygon fill="#63b8ff" stroke="#63b8ff" points="549.96,-100.56 548.38,-90.09 543.09,-99.27 549.96,-100.56"/>
</a>
</g>
<g id="a_edge9&#45;headlabel"><a xlink:href="dir_000005_000006.html" target="_top" xlink:title="1">
<text text-anchor="middle" x="552.09" y="-102.12" font-family="Helvetica,sans-Serif" font-size="10.00" fill="#63b8ff">1</text>
</a>
</g>
</g>
<!-- dir_f09fada31fecc9d34644c2b187f8da9b -->
<g id="node10" class="node">
<title>dir_f09fada31fecc9d34644c2b187f8da9b</title>
<g id="a_node10"><a xlink:href="dir_f09fada31fecc9d34644c2b187f8da9b.html" target="_top" xlink:title="moving_avg">
<polygon fill="#a2b4d6" stroke="#404040" points="491.5,-90 414.5,-90 414.5,-71 491.5,-71 491.5,-90"/>
<text text-anchor="middle" x="453" y="-78" font-family="Helvetica,sans-Serif" font-size="10.00">moving_avg</text>
</a>
</g>
</g>
<!-- dir_81596091d4d62433ea291a5bdd8bc80c&#45;&gt;dir_f09fada31fecc9d34644c2b187f8da9b -->
<g id="edge10" class="edge">
<title>dir_81596091d4d62433ea291a5bdd8bc80c&#45;&gt;dir_f09fada31fecc9d34644c2b187f8da9b</title>
<g id="a_edge10"><a xlink:href="dir_000005_000009.html" target="_top">
<path fill="none" stroke="#63b8ff" d="M526.02,-125.98C512.53,-117.77 491.87,-105.18 475.96,-95.49"/>
<polygon fill="#63b8ff" stroke="#63b8ff" points="477.59,-92.38 467.23,-90.17 473.95,-98.36 477.59,-92.38"/>
</a>
</g>
<g id="a_edge10&#45;headlabel"><a xlink:href="dir_000005_000009.html" target="_top" xlink:title="1">
<text text-anchor="middle" x="482.14" y="-89.33" font-family="Helvetica,sans-Serif" font-size="10.00" fill="#63b8ff">1</text>
</a>
</g>
</g>
<!-- dir_2f94ee81aa0ebe14e042cb308620f7f8 -->
<g id="node11" class="node">
<title>dir_2f94ee81aa0ebe14e042cb308620f7f8</title>
<g id="a_node11"><a xlink:href="dir_2f94ee81aa0ebe14e042cb308620f7f8.html" target="_top" xlink:title="sntp_synch">
<polygon fill="#a2b4d6" stroke="#404040" points="289.5,-90 218.5,-90 218.5,-71 289.5,-71 289.5,-90"/>
<text text-anchor="middle" x="254" y="-78" font-family="Helvetica,sans-Serif" font-size="10.00">sntp_synch</text>
</a>
</g>
</g>
<!-- dir_2f94ee81aa0ebe14e042cb308620f7f8&#45;&gt;dir_0ab4d07083b31fd4d8055a65baa88f6b -->
<g id="edge11" class="edge">
<title>dir_2f94ee81aa0ebe14e042cb308620f7f8&#45;&gt;dir_0ab4d07083b31fd4d8055a65baa88f6b</title>
<g id="a_edge11"><a xlink:href="dir_000010_000007.html" target="_top">
<path fill="none" stroke="#63b8ff" d="M258.46,-70.75C262.12,-63.57 267.41,-53.18 271.95,-44.27"/>
<polygon fill="#63b8ff" stroke="#63b8ff" points="275.2,-45.59 276.62,-35.09 268.97,-42.41 275.2,-45.59"/>
</a>
</g>
<g id="a_edge11&#45;headlabel"><a xlink:href="dir_000010_000007.html" target="_top" xlink:title="1">
<text text-anchor="middle" x="276.1" y="-47.58" font-family="Helvetica,sans-Serif" font-size="10.00" fill="#63b8ff">1</text>
</a>
</g>
</g>
<!-- dir_dfb1e3b3e99e4ee48451437b15939960 -->
<g id="node12" class="node">
<title>dir_dfb1e3b3e99e4ee48451437b15939960</title>
<g id="a_node12"><a xlink:href="dir_dfb1e3b3e99e4ee48451437b15939960.html" target="_top" xlink:title="spiffs_manager">
<polygon fill="#a2b4d6" stroke="#404040" points="266,-255 174,-255 174,-236 266,-236 266,-255"/>
<text text-anchor="middle" x="220" y="-243" font-family="Helvetica,sans-Serif" font-size="10.00">spiffs_manager</text>
</a>
</g>
</g>
<!-- dir_867e272f832ce7b32546ea02afe0d28b&#45;&gt;dir_7d41259a136a49734176e34f64ff9f2d -->
<g id="edge14" class="edge">
<title>dir_867e272f832ce7b32546ea02afe0d28b&#45;&gt;dir_7d41259a136a49734176e34f64ff9f2d</title>
<g id="a_edge14"><a xlink:href="dir_000012_000004.html" target="_top">
<path fill="none" stroke="#63b8ff" d="M353.65,-125.75C354.96,-118.8 356.84,-108.85 358.48,-100.13"/>
<polygon fill="#63b8ff" stroke="#63b8ff" points="361.96,-100.56 360.38,-90.09 355.09,-99.27 361.96,-100.56"/>
</a>
</g>
<g id="a_edge14&#45;headlabel"><a xlink:href="dir_000012_000004.html" target="_top" xlink:title="2">
<text text-anchor="middle" x="364.09" y="-102.12" font-family="Helvetica,sans-Serif" font-size="10.00" fill="#63b8ff">2</text>
</a>
</g>
</g>
<!-- dir_867e272f832ce7b32546ea02afe0d28b&#45;&gt;dir_0ab4d07083b31fd4d8055a65baa88f6b -->
<g id="edge12" class="edge">
<title>dir_867e272f832ce7b32546ea02afe0d28b&#45;&gt;dir_0ab4d07083b31fd4d8055a65baa88f6b</title>
<g id="a_edge12"><a xlink:href="dir_000012_000007.html" target="_top">
<path fill="none" stroke="#63b8ff" d="M345.16,-125.82C338.3,-116.98 327.54,-102.8 319,-90 308.88,-74.84 298.31,-56.99 290.89,-44.08"/>
<polygon fill="#63b8ff" stroke="#63b8ff" points="293.88,-42.26 285.9,-35.3 287.8,-45.72 293.88,-42.26"/>
</a>
</g>
<g id="a_edge12&#45;headlabel"><a xlink:href="dir_000012_000007.html" target="_top" xlink:title="1">
<text text-anchor="middle" x="298.13" y="-41.48" font-family="Helvetica,sans-Serif" font-size="10.00" fill="#63b8ff">1</text>
</a>
</g>
</g>
<!-- dir_867e272f832ce7b32546ea02afe0d28b&#45;&gt;dir_2f94ee81aa0ebe14e042cb308620f7f8 -->
<g id="edge13" class="edge">
<title>dir_867e272f832ce7b32546ea02afe0d28b&#45;&gt;dir_2f94ee81aa0ebe14e042cb308620f7f8</title>
<g id="a_edge13"><a xlink:href="dir_000012_000010.html" target="_top">
<path fill="none" stroke="#63b8ff" d="M336.25,-125.98C320.77,-117.61 296.91,-104.7 278.86,-94.95"/>
<polygon fill="#63b8ff" stroke="#63b8ff" points="280.49,-91.85 270.03,-90.17 277.16,-98.01 280.49,-91.85"/>
</a>
</g>
<g id="a_edge13&#45;headlabel"><a xlink:href="dir_000012_000010.html" target="_top" xlink:title="1">
<text text-anchor="middle" x="285.01" y="-88.56" font-family="Helvetica,sans-Serif" font-size="10.00" fill="#63b8ff">1</text>
</a>
</g>
</g>
<!-- dir_eefee35c6ab380d7209ec05948f73f5c&#45;&gt;dir_7d41259a136a49734176e34f64ff9f2d -->
<g id="edge17" class="edge">
<title>dir_eefee35c6ab380d7209ec05948f73f5c&#45;&gt;dir_7d41259a136a49734176e34f64ff9f2d</title>
<g id="a_edge17"><a xlink:href="dir_000013_000004.html" target="_top">
<path fill="none" stroke="#63b8ff" d="M420.38,-180.72C420.55,-167.92 419.45,-143.73 410,-126 403.72,-114.21 393.08,-103.86 383.42,-96.12"/>
<polygon fill="#63b8ff" stroke="#63b8ff" points="385.4,-93.24 375.31,-90.02 381.19,-98.83 385.4,-93.24"/>
</a>
</g>
<g id="a_edge17&#45;headlabel"><a xlink:href="dir_000013_000004.html" target="_top" xlink:title="1">
<text text-anchor="middle" x="389.98" y="-90.63" font-family="Helvetica,sans-Serif" font-size="10.00" fill="#63b8ff">1</text>
</a>
</g>
</g>
<!-- dir_eefee35c6ab380d7209ec05948f73f5c&#45;&gt;dir_81596091d4d62433ea291a5bdd8bc80c -->
<g id="edge18" class="edge">
<title>dir_eefee35c6ab380d7209ec05948f73f5c&#45;&gt;dir_81596091d4d62433ea291a5bdd8bc80c</title>
<g id="a_edge18"><a xlink:href="dir_000013_000005.html" target="_top">
<path fill="none" stroke="#63b8ff" d="M437.19,-181.91C456.47,-173.39 488.06,-159.44 511.14,-149.25"/>
<polygon fill="#63b8ff" stroke="#63b8ff" points="512.72,-152.38 520.45,-145.14 509.89,-145.97 512.72,-152.38"/>
</a>
</g>
<g id="a_edge18&#45;headlabel"><a xlink:href="dir_000013_000005.html" target="_top" xlink:title="1">
<text text-anchor="middle" x="510.57" y="-153.93" font-family="Helvetica,sans-Serif" font-size="10.00" fill="#63b8ff">1</text>
</a>
</g>
</g>
<!-- dir_eefee35c6ab380d7209ec05948f73f5c&#45;&gt;dir_0ab4d07083b31fd4d8055a65baa88f6b -->
<g id="edge15" class="edge">
<title>dir_eefee35c6ab380d7209ec05948f73f5c&#45;&gt;dir_0ab4d07083b31fd4d8055a65baa88f6b</title>
<g id="a_edge15"><a xlink:href="dir_000013_000007.html" target="_top">
<path fill="none" stroke="#63b8ff" d="M402.71,-188.22C358.85,-183.89 244.3,-165.48 210,-90 199.96,-67.9 224.77,-50.27 247.77,-39.25"/>
<polygon fill="#63b8ff" stroke="#63b8ff" points="249.39,-42.36 257.08,-35.07 246.52,-35.97 249.39,-42.36"/>
</a>
</g>
<g id="a_edge15&#45;headlabel"><a xlink:href="dir_000013_000007.html" target="_top" xlink:title="1">
<text text-anchor="middle" x="247.27" y="-43.92" font-family="Helvetica,sans-Serif" font-size="10.00" fill="#63b8ff">1</text>
</a>
</g>
</g>
<!-- dir_eefee35c6ab380d7209ec05948f73f5c&#45;&gt;dir_2f94ee81aa0ebe14e042cb308620f7f8 -->
<g id="edge16" class="edge">
<title>dir_eefee35c6ab380d7209ec05948f73f5c&#45;&gt;dir_2f94ee81aa0ebe14e042cb308620f7f8</title>
<g id="a_edge16"><a xlink:href="dir_000013_000010.html" target="_top">
<path fill="none" stroke="#63b8ff" d="M402.77,-187.1C376.76,-182.73 326.99,-171.35 294,-145 278.93,-132.96 267.91,-113.6 261.3,-99.42"/>
<polygon fill="#63b8ff" stroke="#63b8ff" points="264.48,-97.96 257.27,-90.19 258.06,-100.76 264.48,-97.96"/>
</a>
</g>
<g id="a_edge16&#45;headlabel"><a xlink:href="dir_000013_000010.html" target="_top" xlink:title="1">
<text text-anchor="middle" x="268.52" y="-97.62" font-family="Helvetica,sans-Serif" font-size="10.00" fill="#63b8ff">1</text>
</a>
</g>
</g>
<!-- dir_eefee35c6ab380d7209ec05948f73f5c&#45;&gt;dir_867e272f832ce7b32546ea02afe0d28b -->
<g id="edge19" class="edge">
<title>dir_eefee35c6ab380d7209ec05948f73f5c&#45;&gt;dir_867e272f832ce7b32546ea02afe0d28b</title>
<g id="a_edge19"><a xlink:href="dir_000013_000012.html" target="_top">
<path fill="none" stroke="#63b8ff" d="M409.07,-180.98C398.92,-173.07 383.58,-161.11 371.35,-151.58"/>
<polygon fill="#63b8ff" stroke="#63b8ff" points="373.16,-148.56 363.12,-145.17 368.86,-154.08 373.16,-148.56"/>
</a>
</g>
<g id="a_edge19&#45;headlabel"><a xlink:href="dir_000013_000012.html" target="_top" xlink:title="1">
<text text-anchor="middle" x="377.74" y="-146.03" font-family="Helvetica,sans-Serif" font-size="10.00" fill="#63b8ff">1</text>
</a>
</g>
</g>
<!-- dir_b0cfbc17ad8055fb6b83da5401b2269f -->
<g id="node15" class="node">
<title>dir_b0cfbc17ad8055fb6b83da5401b2269f</title>
<g id="a_node15"><a xlink:href="dir_b0cfbc17ad8055fb6b83da5401b2269f.html" target="_top" xlink:title="wifi_power_management">
<polygon fill="#a2b4d6" stroke="#404040" points="156,-255 16,-255 16,-236 156,-236 156,-255"/>
<text text-anchor="middle" x="86" y="-243" font-family="Helvetica,sans-Serif" font-size="10.00">wifi_power_management</text>
</a>
</g>
</g>
</g>
</svg>
