<?xml version="1.0" encoding="UTF-8" standalone="no"?>
<!DOCTYPE svg PUBLIC "-//W3C//DTD SVG 1.1//EN"
 "http://www.w3.org/Graphics/SVG/1.1/DTD/svg11.dtd">
<!-- Generated by graphviz version 2.43.0 (0)
 -->
<!-- Title: hx711_read_filtered Pages: 1 -->
<svg width="523pt" height="64pt"
 viewBox="0.00 0.00 523.00 64.00" xmlns="http://www.w3.org/2000/svg" xmlns:xlink="http://www.w3.org/1999/xlink">
<g id="graph0" class="graph" transform="scale(1 1) rotate(0) translate(4 60)">
<title>hx711_read_filtered</title>
<!-- Node1 -->
<g id="Node000001" class="node">
<title>Node1</title>
<g id="a_Node000001"><a xlink:title=" ">
<polygon fill="#999999" stroke="#666666" points="515,-37 402,-37 402,-18 515,-18 515,-37"/>
<text text-anchor="middle" x="458.5" y="-25" font-family="Helvetica,sans-Serif" font-size="10.00">hx711_read_filtered</text>
</a>
</g>
</g>
<!-- Node2 -->
<g id="Node000002" class="node">
<title>Node2</title>
<g id="a_Node000002"><a xlink:href="hx711_8c.html#ac6c8066eeca1a4549359b2da8deda8f9" target="_top" xlink:title=" ">
<polygon fill="white" stroke="#666666" points="366,-56 229,-56 229,-37 366,-37 366,-56"/>
<text text-anchor="middle" x="297.5" y="-44" font-family="Helvetica,sans-Serif" font-size="10.00">hx711_read_filtered_rtos</text>
</a>
</g>
</g>
<!-- Node1&#45;&gt;Node2 -->
<g id="edge1_Node000001_Node000002" class="edge">
<title>Node1&#45;&gt;Node2</title>
<g id="a_edge1_Node000001_Node000002"><a xlink:title=" ">
<path fill="none" stroke="#63b8ff" d="M391.71,-35.36C383.26,-36.37 374.59,-37.41 366.11,-38.42"/>
<polygon fill="#63b8ff" stroke="#63b8ff" points="392.38,-38.81 401.89,-34.15 391.54,-31.86 392.38,-38.81"/>
</a>
</g>
</g>
<!-- Node3 -->
<g id="Node000003" class="node">
<title>Node3</title>
<g id="a_Node000003"><a xlink:href="hx711_8c.html#a985ea3f202ebc30a95f6bc340b15ef1e" target="_top" xlink:title=" ">
<polygon fill="white" stroke="#666666" points="346,-19 249,-19 249,0 346,0 346,-19"/>
<text text-anchor="middle" x="297.5" y="-7" font-family="Helvetica,sans-Serif" font-size="10.00">hx711_rtos_task</text>
</a>
</g>
</g>
<!-- Node1&#45;&gt;Node3 -->
<g id="edge2_Node000001_Node000003" class="edge">
<title>Node1&#45;&gt;Node3</title>
<g id="a_edge2_Node000001_Node000003"><a xlink:title=" ">
<path fill="none" stroke="#63b8ff" d="M391.94,-20.08C376.6,-18.34 360.54,-16.52 346.15,-14.89"/>
<polygon fill="#63b8ff" stroke="#63b8ff" points="391.56,-23.56 401.89,-21.2 392.35,-16.6 391.56,-23.56"/>
</a>
</g>
</g>
<!-- Node4 -->
<g id="Node000004" class="node">
<title>Node4</title>
<g id="a_Node000004"><a xlink:href="hx711_8c.html#aa3f2bd6b7c47bcd3ccbafcad4e942dd3" target="_top" xlink:title=" ">
<polygon fill="white" stroke="#666666" points="193,-19 101,-19 101,0 193,0 193,-19"/>
<text text-anchor="middle" x="147" y="-7" font-family="Helvetica,sans-Serif" font-size="10.00">hx711_init_rtos</text>
</a>
</g>
</g>
<!-- Node3&#45;&gt;Node4 -->
<g id="edge3_Node000003_Node000004" class="edge">
<title>Node3&#45;&gt;Node4</title>
<g id="a_edge3_Node000003_Node000004"><a xlink:title=" ">
<path fill="none" stroke="#63b8ff" d="M238.47,-9.5C223.43,-9.5 207.46,-9.5 193.19,-9.5"/>
<polygon fill="#63b8ff" stroke="#63b8ff" points="238.7,-13 248.7,-9.5 238.7,-6 238.7,-13"/>
</a>
</g>
</g>
<!-- Node5 -->
<g id="Node000005" class="node">
<title>Node5</title>
<g id="a_Node000005"><a xlink:href="main_8c.html#a630544a7f0a2cc40d8a7fefab7e2fe70" target="_top" xlink:title=" ">
<polygon fill="white" stroke="#666666" points="65,-19 0,-19 0,0 65,0 65,-19"/>
<text text-anchor="middle" x="32.5" y="-7" font-family="Helvetica,sans-Serif" font-size="10.00">app_main</text>
</a>
</g>
</g>
<!-- Node4&#45;&gt;Node5 -->
<g id="edge4_Node000004_Node000005" class="edge">
<title>Node4&#45;&gt;Node5</title>
<g id="a_edge4_Node000004_Node000005"><a xlink:title=" ">
<path fill="none" stroke="#63b8ff" d="M90.67,-9.5C81.9,-9.5 73.11,-9.5 65.13,-9.5"/>
<polygon fill="#63b8ff" stroke="#63b8ff" points="90.89,-13 100.89,-9.5 90.89,-6 90.89,-13"/>
</a>
</g>
</g>
</g>
</svg>
