<?xml version="1.0" encoding="UTF-8" standalone="no"?>
<!DOCTYPE svg PUBLIC "-//W3C//DTD SVG 1.1//EN"
 "http://www.w3.org/Graphics/SVG/1.1/DTD/svg11.dtd">
<!-- Generated by graphviz version 2.43.0 (0)
 -->
<!-- Title: hx711_init_rtos Pages: 1 -->
<svg width="668pt" height="261pt"
 viewBox="0.00 0.00 668.00 260.50" xmlns="http://www.w3.org/2000/svg" xmlns:xlink="http://www.w3.org/1999/xlink">
<g id="graph0" class="graph" transform="scale(1 1) rotate(0) translate(4 256.5)">
<title>hx711_init_rtos</title>
<!-- Node1 -->
<g id="Node000001" class="node">
<title>Node1</title>
<g id="a_Node000001"><a xlink:title=" ">
<polygon fill="#999999" stroke="#666666" points="92,-111 0,-111 0,-92 92,-92 92,-111"/>
<text text-anchor="middle" x="46" y="-99" font-family="Helvetica,sans-Serif" font-size="10.00">hx711_init_rtos</text>
</a>
</g>
</g>
<!-- Node2 -->
<g id="Node000002" class="node">
<title>Node2</title>
<g id="a_Node000002"><a xlink:href="hx711_8c.html#af597cc145be81ec0898873fc0a2e8261" target="_top" xlink:title=" ">
<polygon fill="white" stroke="#666666" points="351.5,-130 283.5,-130 283.5,-111 351.5,-111 351.5,-130"/>
<text text-anchor="middle" x="317.5" y="-118" font-family="Helvetica,sans-Serif" font-size="10.00">hx711_init</text>
</a>
</g>
</g>
<!-- Node1&#45;&gt;Node2 -->
<g id="edge1_Node000001_Node000002" class="edge">
<title>Node1&#45;&gt;Node2</title>
<g id="a_edge1_Node000001_Node000002"><a xlink:title=" ">
<path fill="none" stroke="#63b8ff" d="M92.11,-104.68C142.47,-108.23 223.4,-113.94 273.07,-117.44"/>
<polygon fill="#63b8ff" stroke="#63b8ff" points="272.95,-120.94 283.18,-118.15 273.45,-113.96 272.95,-120.94"/>
</a>
</g>
</g>
<!-- Node10 -->
<g id="Node000010" class="node">
<title>Node10</title>
<g id="a_Node000010"><a xlink:href="hx711_8c.html#a985ea3f202ebc30a95f6bc340b15ef1e" target="_top" xlink:title=" ">
<polygon fill="white" stroke="#666666" points="225,-92 128,-92 128,-73 225,-73 225,-92"/>
<text text-anchor="middle" x="176.5" y="-80" font-family="Helvetica,sans-Serif" font-size="10.00">hx711_rtos_task</text>
</a>
</g>
</g>
<!-- Node1&#45;&gt;Node10 -->
<g id="edge9_Node000001_Node000010" class="edge">
<title>Node1&#45;&gt;Node10</title>
<g id="a_edge9_Node000001_Node000010"><a xlink:title=" ">
<path fill="none" stroke="#63b8ff" d="M92.3,-94.8C100.61,-93.57 109.39,-92.28 118,-91"/>
<polygon fill="#63b8ff" stroke="#63b8ff" points="118.61,-94.45 127.99,-89.52 117.59,-87.52 118.61,-94.45"/>
</a>
</g>
</g>
<!-- Node3 -->
<g id="Node000003" class="node">
<title>Node3</title>
<g id="a_Node000003"><a xlink:href="hx711_8c.html#a4990d54a108524be3776bdca31a1e1bd" target="_top" xlink:title=" ">
<polygon fill="white" stroke="#666666" points="539.5,-252.5 420.5,-252.5 420.5,-222.5 539.5,-222.5 539.5,-252.5"/>
<text text-anchor="start" x="428.5" y="-240.5" font-family="Helvetica,sans-Serif" font-size="10.00">get_moving_average</text>
<text text-anchor="middle" x="480" y="-229.5" font-family="Helvetica,sans-Serif" font-size="10.00">_value</text>
</a>
</g>
</g>
<!-- Node2&#45;&gt;Node3 -->
<g id="edge2_Node000002_Node000003" class="edge">
<title>Node2&#45;&gt;Node3</title>
<g id="a_edge2_Node000002_Node000003"><a xlink:title=" ">
<path fill="none" stroke="#63b8ff" d="M325.47,-130.09C339.47,-148.71 372.87,-190.01 410,-213.5 412.6,-215.14 415.32,-216.69 418.12,-218.14"/>
<polygon fill="#63b8ff" stroke="#63b8ff" points="416.74,-221.36 427.28,-222.48 419.74,-215.04 416.74,-221.36"/>
</a>
</g>
</g>
<!-- Node4 -->
<g id="Node000004" class="node">
<title>Node4</title>
<g id="a_Node000004"><a xlink:href="hx711_8c.html#a33bac1c81f0833bc55f0cbbfc34f8c19" target="_top" xlink:title=" ">
<polygon fill="white" stroke="#666666" points="528.5,-130 431.5,-130 431.5,-111 528.5,-111 528.5,-130"/>
<text text-anchor="middle" x="480" y="-118" font-family="Helvetica,sans-Serif" font-size="10.00">hx711_read_raw</text>
</a>
</g>
</g>
<!-- Node2&#45;&gt;Node4 -->
<g id="edge3_Node000002_Node000004" class="edge">
<title>Node2&#45;&gt;Node4</title>
<g id="a_edge3_Node000002_Node000004"><a xlink:title=" ">
<path fill="none" stroke="#63b8ff" d="M351.76,-120.5C371.83,-120.5 397.97,-120.5 421.32,-120.5"/>
<polygon fill="#63b8ff" stroke="#63b8ff" points="421.48,-124 431.48,-120.5 421.48,-117 421.48,-124"/>
</a>
</g>
</g>
<!-- Node5 -->
<g id="Node000005" class="node">
<title>Node5</title>
<g id="a_Node000005"><a xlink:href="kalman__filter_8c.html#a9343b8ac8c00a1f1b5d288fd921ece81" target="_top" xlink:title=" ">
<polygon fill="white" stroke="#666666" points="541,-204 419,-204 419,-185 541,-185 541,-204"/>
<text text-anchor="middle" x="480" y="-192" font-family="Helvetica,sans-Serif" font-size="10.00">kalman_init_adaptive</text>
</a>
</g>
</g>
<!-- Node2&#45;&gt;Node5 -->
<g id="edge4_Node000002_Node000005" class="edge">
<title>Node2&#45;&gt;Node5</title>
<g id="a_edge4_Node000002_Node000005"><a xlink:title=" ">
<path fill="none" stroke="#63b8ff" d="M331.47,-130.15C348.63,-142.5 380.18,-163.81 410,-176.5 414.72,-178.51 419.72,-180.34 424.79,-181.99"/>
<polygon fill="#63b8ff" stroke="#63b8ff" points="423.97,-185.4 434.55,-184.97 426.01,-178.71 423.97,-185.4"/>
</a>
</g>
</g>
<!-- Node7 -->
<g id="Node000007" class="node">
<title>Node7</title>
<g id="a_Node000007"><a xlink:href="kalman__filter_8c.html#a3c43cf9d9c5ec9875bbfcf351235bd12" target="_top" xlink:title=" ">
<polygon fill="white" stroke="#666666" points="550,-93 410,-93 410,-74 550,-74 550,-93"/>
<text text-anchor="middle" x="480" y="-81" font-family="Helvetica,sans-Serif" font-size="10.00">kalman_update_adaptive</text>
</a>
</g>
</g>
<!-- Node2&#45;&gt;Node7 -->
<g id="edge6_Node000002_Node000007" class="edge">
<title>Node2&#45;&gt;Node7</title>
<g id="a_edge6_Node000002_Node000007"><a xlink:title=" ">
<path fill="none" stroke="#63b8ff" d="M351.76,-112.83C373.63,-107.79 402.68,-101.09 427.51,-95.37"/>
<polygon fill="#63b8ff" stroke="#63b8ff" points="428.54,-98.72 437.5,-93.07 426.97,-91.9 428.54,-98.72"/>
</a>
</g>
</g>
<!-- Node8 -->
<g id="Node000008" class="node">
<title>Node8</title>
<g id="a_Node000008"><a xlink:href="moving__average_8c.html#a5b4f3147f4bc47ab394e00ab409c13ce" target="_top" xlink:title=" ">
<polygon fill="white" stroke="#666666" points="539.5,-167 420.5,-167 420.5,-148 539.5,-148 539.5,-167"/>
<text text-anchor="middle" x="480" y="-155" font-family="Helvetica,sans-Serif" font-size="10.00">moving_average_init</text>
</a>
</g>
</g>
<!-- Node2&#45;&gt;Node8 -->
<g id="edge7_Node000002_Node000008" class="edge">
<title>Node2&#45;&gt;Node8</title>
<g id="a_edge7_Node000002_Node000008"><a xlink:title=" ">
<path fill="none" stroke="#63b8ff" d="M351.76,-128.17C373.63,-133.21 402.68,-139.91 427.51,-145.63"/>
<polygon fill="#63b8ff" stroke="#63b8ff" points="426.97,-149.1 437.5,-147.93 428.54,-142.28 426.97,-149.1"/>
</a>
</g>
</g>
<!-- Node9 -->
<g id="Node000009" class="node">
<title>Node9</title>
<g id="a_Node000009"><a xlink:href="moving__average_8c.html#ae8fe422690653cafb6e68f34a5ec7658" target="_top" xlink:title=" ">
<polygon fill="white" stroke="#666666" points="548.5,-56 411.5,-56 411.5,-37 548.5,-37 548.5,-56"/>
<text text-anchor="middle" x="480" y="-44" font-family="Helvetica,sans-Serif" font-size="10.00">moving_average_update</text>
</a>
</g>
</g>
<!-- Node2&#45;&gt;Node9 -->
<g id="edge8_Node000002_Node000009" class="edge">
<title>Node2&#45;&gt;Node9</title>
<g id="a_edge8_Node000002_Node000009"><a xlink:title=" ">
<path fill="none" stroke="#63b8ff" d="M351.62,-111.92C359.27,-109.2 367.17,-105.76 374,-101.5 393.2,-89.53 390.44,-76.88 410,-65.5 413.85,-63.26 417.97,-61.27 422.22,-59.52"/>
<polygon fill="#63b8ff" stroke="#63b8ff" points="423.49,-62.78 431.65,-56.02 421.06,-56.21 423.49,-62.78"/>
</a>
</g>
</g>
<!-- Node6 -->
<g id="Node000006" class="node">
<title>Node6</title>
<g id="a_Node000006"><a xlink:href="kalman__filter_8c.html#ac062a0fa3f2aaa889d7b3534dbbad89e" target="_top" xlink:title=" ">
<polygon fill="white" stroke="#666666" points="660,-204 586,-204 586,-185 660,-185 660,-204"/>
<text text-anchor="middle" x="623" y="-192" font-family="Helvetica,sans-Serif" font-size="10.00">kalman_init</text>
</a>
</g>
</g>
<!-- Node5&#45;&gt;Node6 -->
<g id="edge5_Node000005_Node000006" class="edge">
<title>Node5&#45;&gt;Node6</title>
<g id="a_edge5_Node000005_Node000006"><a xlink:title=" ">
<path fill="none" stroke="#63b8ff" d="M541.21,-194.5C552.66,-194.5 564.49,-194.5 575.45,-194.5"/>
<polygon fill="#63b8ff" stroke="#63b8ff" points="575.64,-198 585.64,-194.5 575.64,-191 575.64,-198"/>
</a>
</g>
</g>
<!-- Node11 -->
<g id="Node000011" class="node">
<title>Node11</title>
<g id="a_Node000011"><a xlink:href="hx711_8c.html#af0a6adda73c183ed8b4dbd127ff5b35a" target="_top" xlink:title=" ">
<polygon fill="white" stroke="#666666" points="374,-92 261,-92 261,-73 374,-73 374,-92"/>
<text text-anchor="middle" x="317.5" y="-80" font-family="Helvetica,sans-Serif" font-size="10.00">hx711_read_filtered</text>
</a>
</g>
</g>
<!-- Node10&#45;&gt;Node11 -->
<g id="edge10_Node000010_Node000011" class="edge">
<title>Node10&#45;&gt;Node11</title>
<g id="a_edge10_Node000010_Node000011"><a xlink:title=" ">
<path fill="none" stroke="#63b8ff" d="M225.34,-82.5C233.58,-82.5 242.27,-82.5 250.88,-82.5"/>
<polygon fill="#63b8ff" stroke="#63b8ff" points="250.92,-86 260.92,-82.5 250.92,-79 250.92,-86"/>
</a>
</g>
</g>
<!-- Node11&#45;&gt;Node4 -->
<g id="edge11_Node000011_Node000004" class="edge">
<title>Node11&#45;&gt;Node4</title>
<g id="a_edge11_Node000011_Node000004"><a xlink:title=" ">
<path fill="none" stroke="#63b8ff" d="M359,-92.09C380.18,-97.1 406.3,-103.29 428.76,-108.61"/>
<polygon fill="#63b8ff" stroke="#63b8ff" points="428.25,-112.08 438.79,-110.98 429.87,-105.27 428.25,-112.08"/>
</a>
</g>
</g>
<!-- Node11&#45;&gt;Node7 -->
<g id="edge12_Node000011_Node000007" class="edge">
<title>Node11&#45;&gt;Node7</title>
<g id="a_edge12_Node000011_Node000007"><a xlink:title=" ">
<path fill="none" stroke="#63b8ff" d="M374.18,-82.85C382.45,-82.9 391.1,-82.95 399.73,-83.01"/>
<polygon fill="#63b8ff" stroke="#63b8ff" points="399.82,-86.51 409.84,-83.07 399.86,-79.51 399.82,-86.51"/>
</a>
</g>
</g>
<!-- Node11&#45;&gt;Node9 -->
<g id="edge14_Node000011_Node000009" class="edge">
<title>Node11&#45;&gt;Node9</title>
<g id="a_edge14_Node000011_Node000009"><a xlink:title=" ">
<path fill="none" stroke="#63b8ff" d="M361.09,-72.95C381.21,-68.43 405.42,-63 426.65,-58.24"/>
<polygon fill="#63b8ff" stroke="#63b8ff" points="427.5,-61.64 436.49,-56.03 425.97,-54.81 427.5,-61.64"/>
</a>
</g>
</g>
<!-- Node12 -->
<g id="Node000012" class="node">
<title>Node12</title>
<g id="a_Node000012"><a xlink:href="moving__average_8c.html#a6336a0eede30b660dc06e9b149f6c143" target="_top" xlink:title=" ">
<polygon fill="white" stroke="#666666" points="544,-19 416,-19 416,0 544,0 544,-19"/>
<text text-anchor="middle" x="480" y="-7" font-family="Helvetica,sans-Serif" font-size="10.00">moving_average_reset</text>
</a>
</g>
</g>
<!-- Node11&#45;&gt;Node12 -->
<g id="edge13_Node000011_Node000012" class="edge">
<title>Node11&#45;&gt;Node12</title>
<g id="a_edge13_Node000011_Node000012"><a xlink:title=" ">
<path fill="none" stroke="#63b8ff" d="M332.15,-72.87C349.53,-61 380.79,-40.88 410,-28.5 415.71,-26.08 421.81,-23.88 427.93,-21.91"/>
<polygon fill="#63b8ff" stroke="#63b8ff" points="428.97,-25.26 437.53,-19 426.94,-18.56 428.97,-25.26"/>
</a>
</g>
</g>
</g>
</svg>
