<?xml version="1.0" encoding="UTF-8" standalone="no"?>
<!DOCTYPE svg PUBLIC "-//W3C//DTD SVG 1.1//EN"
 "http://www.w3.org/Graphics/SVG/1.1/DTD/svg11.dtd">
<!-- Generated by graphviz version 2.43.0 (0)
 -->
<!-- Title: get_moving_average_value Pages: 1 -->
<svg width="460pt" height="52pt"
 viewBox="0.00 0.00 460.00 51.50" xmlns="http://www.w3.org/2000/svg" xmlns:xlink="http://www.w3.org/1999/xlink">
<g id="graph0" class="graph" transform="scale(1 1) rotate(0) translate(4 47.5)">
<title>get_moving_average_value</title>
<!-- Node1 -->
<g id="Node000001" class="node">
<title>Node1</title>
<g id="a_Node000001"><a xlink:title=" ">
<polygon fill="#999999" stroke="#666666" points="452,-43.5 333,-43.5 333,-13.5 452,-13.5 452,-43.5"/>
<text text-anchor="start" x="341" y="-31.5" font-family="Helvetica,sans-Serif" font-size="10.00">get_moving_average</text>
<text text-anchor="middle" x="392.5" y="-20.5" font-family="Helvetica,sans-Serif" font-size="10.00">_value</text>
</a>
</g>
</g>
<!-- Node2 -->
<g id="Node000002" class="node">
<title>Node2</title>
<g id="a_Node000002"><a xlink:href="hx711_8c.html#af597cc145be81ec0898873fc0a2e8261" target="_top" xlink:title=" ">
<polygon fill="white" stroke="#666666" points="297,-38 229,-38 229,-19 297,-19 297,-38"/>
<text text-anchor="middle" x="263" y="-26" font-family="Helvetica,sans-Serif" font-size="10.00">hx711_init</text>
</a>
</g>
</g>
<!-- Node1&#45;&gt;Node2 -->
<g id="edge1_Node000001_Node000002" class="edge">
<title>Node1&#45;&gt;Node2</title>
<g id="a_edge1_Node000001_Node000002"><a xlink:title=" ">
<path fill="none" stroke="#63b8ff" d="M322.86,-28.5C313.91,-28.5 305.1,-28.5 297.12,-28.5"/>
<polygon fill="#63b8ff" stroke="#63b8ff" points="322.97,-32 332.97,-28.5 322.97,-25 322.97,-32"/>
</a>
</g>
</g>
<!-- Node3 -->
<g id="Node000003" class="node">
<title>Node3</title>
<g id="a_Node000003"><a xlink:href="main_8c.html#a630544a7f0a2cc40d8a7fefab7e2fe70" target="_top" xlink:title=" ">
<polygon fill="white" stroke="#666666" points="65,-38 0,-38 0,-19 65,-19 65,-38"/>
<text text-anchor="middle" x="32.5" y="-26" font-family="Helvetica,sans-Serif" font-size="10.00">app_main</text>
</a>
</g>
</g>
<!-- Node2&#45;&gt;Node3 -->
<g id="edge2_Node000002_Node000003" class="edge">
<title>Node2&#45;&gt;Node3</title>
<g id="a_edge2_Node000002_Node000003"><a xlink:title=" ">
<path fill="none" stroke="#63b8ff" d="M218.5,-28.5C173.77,-28.5 105.18,-28.5 65.29,-28.5"/>
<polygon fill="#63b8ff" stroke="#63b8ff" points="218.77,-32 228.77,-28.5 218.77,-25 218.77,-32"/>
</a>
</g>
</g>
<!-- Node4 -->
<g id="Node000004" class="node">
<title>Node4</title>
<g id="a_Node000004"><a xlink:href="hx711_8c.html#aa3f2bd6b7c47bcd3ccbafcad4e942dd3" target="_top" xlink:title=" ">
<polygon fill="white" stroke="#666666" points="193,-19 101,-19 101,0 193,0 193,-19"/>
<text text-anchor="middle" x="147" y="-7" font-family="Helvetica,sans-Serif" font-size="10.00">hx711_init_rtos</text>
</a>
</g>
</g>
<!-- Node2&#45;&gt;Node4 -->
<g id="edge3_Node000002_Node000004" class="edge">
<title>Node2&#45;&gt;Node4</title>
<g id="a_edge3_Node000002_Node000004"><a xlink:title=" ">
<path fill="none" stroke="#63b8ff" d="M218.83,-21.31C210.52,-19.92 201.78,-18.46 193.4,-17.07"/>
<polygon fill="#63b8ff" stroke="#63b8ff" points="218.28,-24.76 228.72,-22.95 219.43,-17.86 218.28,-24.76"/>
</a>
</g>
</g>
<!-- Node4&#45;&gt;Node3 -->
<g id="edge4_Node000004_Node000003" class="edge">
<title>Node4&#45;&gt;Node3</title>
<g id="a_edge4_Node000004_Node000003"><a xlink:title=" ">
<path fill="none" stroke="#63b8ff" d="M90.95,-18.8C82.09,-20.29 73.19,-21.8 65.13,-23.16"/>
<polygon fill="#63b8ff" stroke="#63b8ff" points="91.61,-22.24 100.89,-17.12 90.45,-15.33 91.61,-22.24"/>
</a>
</g>
</g>
</g>
</svg>
