<?xml version="1.0" encoding="UTF-8" standalone="no"?>
<!DOCTYPE svg PUBLIC "-//W3C//DTD SVG 1.1//EN"
 "http://www.w3.org/Graphics/SVG/1.1/DTD/svg11.dtd">
<!-- Generated by graphviz version 2.43.0 (0)
 -->
<!-- Title: hx711_rtos_task Pages: 1 -->
<svg width="430pt" height="138pt"
 viewBox="0.00 0.00 430.00 138.00" xmlns="http://www.w3.org/2000/svg" xmlns:xlink="http://www.w3.org/1999/xlink">
<g id="graph0" class="graph" transform="scale(1 1) rotate(0) translate(4 134)">
<title>hx711_rtos_task</title>
<!-- Node1 -->
<g id="Node000001" class="node">
<title>Node1</title>
<g id="a_Node000001"><a xlink:title=" ">
<polygon fill="#999999" stroke="#666666" points="97,-74 0,-74 0,-55 97,-55 97,-74"/>
<text text-anchor="middle" x="48.5" y="-62" font-family="Helvetica,sans-Serif" font-size="10.00">hx711_rtos_task</text>
</a>
</g>
</g>
<!-- Node2 -->
<g id="Node000002" class="node">
<title>Node2</title>
<g id="a_Node000002"><a xlink:href="hx711_8c.html#af0a6adda73c183ed8b4dbd127ff5b35a" target="_top" xlink:title=" ">
<polygon fill="white" stroke="#666666" points="246,-74 133,-74 133,-55 246,-55 246,-74"/>
<text text-anchor="middle" x="189.5" y="-62" font-family="Helvetica,sans-Serif" font-size="10.00">hx711_read_filtered</text>
</a>
</g>
</g>
<!-- Node1&#45;&gt;Node2 -->
<g id="edge1_Node000001_Node000002" class="edge">
<title>Node1&#45;&gt;Node2</title>
<g id="a_edge1_Node000001_Node000002"><a xlink:title=" ">
<path fill="none" stroke="#63b8ff" d="M97.34,-64.5C105.58,-64.5 114.27,-64.5 122.88,-64.5"/>
<polygon fill="#63b8ff" stroke="#63b8ff" points="122.92,-68 132.92,-64.5 122.92,-61 122.92,-68"/>
</a>
</g>
</g>
<!-- Node3 -->
<g id="Node000003" class="node">
<title>Node3</title>
<g id="a_Node000003"><a xlink:href="hx711_8c.html#a33bac1c81f0833bc55f0cbbfc34f8c19" target="_top" xlink:title=" ">
<polygon fill="white" stroke="#666666" points="400.5,-130 303.5,-130 303.5,-111 400.5,-111 400.5,-130"/>
<text text-anchor="middle" x="352" y="-118" font-family="Helvetica,sans-Serif" font-size="10.00">hx711_read_raw</text>
</a>
</g>
</g>
<!-- Node2&#45;&gt;Node3 -->
<g id="edge2_Node000002_Node000003" class="edge">
<title>Node2&#45;&gt;Node3</title>
<g id="a_edge2_Node000002_Node000003"><a xlink:title=" ">
<path fill="none" stroke="#63b8ff" d="M211.26,-74.09C229.61,-82.33 257.22,-94.17 282,-102.5 288.01,-104.52 294.37,-106.45 300.71,-108.25"/>
<polygon fill="#63b8ff" stroke="#63b8ff" points="300.02,-111.69 310.59,-110.96 301.87,-104.94 300.02,-111.69"/>
</a>
</g>
</g>
<!-- Node4 -->
<g id="Node000004" class="node">
<title>Node4</title>
<g id="a_Node000004"><a xlink:href="kalman__filter_8c.html#a3c43cf9d9c5ec9875bbfcf351235bd12" target="_top" xlink:title=" ">
<polygon fill="white" stroke="#666666" points="422,-93 282,-93 282,-74 422,-74 422,-93"/>
<text text-anchor="middle" x="352" y="-81" font-family="Helvetica,sans-Serif" font-size="10.00">kalman_update_adaptive</text>
</a>
</g>
</g>
<!-- Node2&#45;&gt;Node4 -->
<g id="edge3_Node000002_Node000004" class="edge">
<title>Node2&#45;&gt;Node4</title>
<g id="a_edge3_Node000002_Node000004"><a xlink:title=" ">
<path fill="none" stroke="#63b8ff" d="M246.18,-71.09C254.45,-72.07 263.1,-73.09 271.73,-74.12"/>
<polygon fill="#63b8ff" stroke="#63b8ff" points="271.5,-77.61 281.84,-75.31 272.32,-70.66 271.5,-77.61"/>
</a>
</g>
</g>
<!-- Node5 -->
<g id="Node000005" class="node">
<title>Node5</title>
<g id="a_Node000005"><a xlink:href="moving__average_8c.html#a6336a0eede30b660dc06e9b149f6c143" target="_top" xlink:title=" ">
<polygon fill="white" stroke="#666666" points="416,-56 288,-56 288,-37 416,-37 416,-56"/>
<text text-anchor="middle" x="352" y="-44" font-family="Helvetica,sans-Serif" font-size="10.00">moving_average_reset</text>
</a>
</g>
</g>
<!-- Node2&#45;&gt;Node5 -->
<g id="edge4_Node000002_Node000005" class="edge">
<title>Node2&#45;&gt;Node5</title>
<g id="a_edge4_Node000002_Node000005"><a xlink:title=" ">
<path fill="none" stroke="#63b8ff" d="M246.18,-58.25C256.41,-57.11 267.22,-55.9 277.86,-54.7"/>
<polygon fill="#63b8ff" stroke="#63b8ff" points="278.44,-58.16 287.99,-53.57 277.66,-51.2 278.44,-58.16"/>
</a>
</g>
</g>
<!-- Node6 -->
<g id="Node000006" class="node">
<title>Node6</title>
<g id="a_Node000006"><a xlink:href="moving__average_8c.html#ae8fe422690653cafb6e68f34a5ec7658" target="_top" xlink:title=" ">
<polygon fill="white" stroke="#666666" points="420.5,-19 283.5,-19 283.5,0 420.5,0 420.5,-19"/>
<text text-anchor="middle" x="352" y="-7" font-family="Helvetica,sans-Serif" font-size="10.00">moving_average_update</text>
</a>
</g>
</g>
<!-- Node2&#45;&gt;Node6 -->
<g id="edge5_Node000002_Node000006" class="edge">
<title>Node2&#45;&gt;Node6</title>
<g id="a_edge5_Node000002_Node000006"><a xlink:title=" ">
<path fill="none" stroke="#63b8ff" d="M212.82,-54.95C231.2,-47.27 258.03,-36.49 282,-28.5 288.97,-26.18 296.4,-23.91 303.71,-21.81"/>
<polygon fill="#63b8ff" stroke="#63b8ff" points="304.86,-25.12 313.54,-19.04 302.97,-18.38 304.86,-25.12"/>
</a>
</g>
</g>
</g>
</svg>
