<?xml version="1.0" encoding="UTF-8" standalone="no"?>
<!DOCTYPE svg PUBLIC "-//W3C//DTD SVG 1.1//EN"
 "http://www.w3.org/Graphics/SVG/1.1/DTD/svg11.dtd">
<!-- Generated by graphviz version 2.43.0 (0)
 -->
<!-- Title: hx711_init Pages: 1 -->
<svg width="362pt" height="224pt"
 viewBox="0.00 0.00 362.00 223.50" xmlns="http://www.w3.org/2000/svg" xmlns:xlink="http://www.w3.org/1999/xlink">
<g id="graph0" class="graph" transform="scale(1 1) rotate(0) translate(4 219.5)">
<title>hx711_init</title>
<!-- Node1 -->
<g id="Node000001" class="node">
<title>Node1</title>
<g id="a_Node000001"><a xlink:title=" ">
<polygon fill="#999999" stroke="#666666" points="68,-111 0,-111 0,-92 68,-92 68,-111"/>
<text text-anchor="middle" x="34" y="-99" font-family="Helvetica,sans-Serif" font-size="10.00">hx711_init</text>
</a>
</g>
</g>
<!-- Node2 -->
<g id="Node000002" class="node">
<title>Node2</title>
<g id="a_Node000002"><a xlink:href="hx711_8c.html#a4990d54a108524be3776bdca31a1e1bd" target="_top" xlink:title=" ">
<polygon fill="white" stroke="#666666" points="233.5,-215.5 114.5,-215.5 114.5,-185.5 233.5,-185.5 233.5,-215.5"/>
<text text-anchor="start" x="122.5" y="-203.5" font-family="Helvetica,sans-Serif" font-size="10.00">get_moving_average</text>
<text text-anchor="middle" x="174" y="-192.5" font-family="Helvetica,sans-Serif" font-size="10.00">_value</text>
</a>
</g>
</g>
<!-- Node1&#45;&gt;Node2 -->
<g id="edge1_Node000001_Node000002" class="edge">
<title>Node1&#45;&gt;Node2</title>
<g id="a_edge1_Node000001_Node000002"><a xlink:title=" ">
<path fill="none" stroke="#63b8ff" d="M41.48,-111.21C52.53,-127.03 76.49,-158.44 104,-176.5 106.44,-178.1 108.99,-179.6 111.62,-181.02"/>
<polygon fill="#63b8ff" stroke="#63b8ff" points="110.28,-184.26 120.81,-185.49 113.35,-177.97 110.28,-184.26"/>
</a>
</g>
</g>
<!-- Node3 -->
<g id="Node000003" class="node">
<title>Node3</title>
<g id="a_Node000003"><a xlink:href="hx711_8c.html#a33bac1c81f0833bc55f0cbbfc34f8c19" target="_top" xlink:title=" ">
<polygon fill="white" stroke="#666666" points="222.5,-167 125.5,-167 125.5,-148 222.5,-148 222.5,-167"/>
<text text-anchor="middle" x="174" y="-155" font-family="Helvetica,sans-Serif" font-size="10.00">hx711_read_raw</text>
</a>
</g>
</g>
<!-- Node1&#45;&gt;Node3 -->
<g id="edge2_Node000001_Node000003" class="edge">
<title>Node1&#45;&gt;Node3</title>
<g id="a_edge2_Node000001_Node000003"><a xlink:title=" ">
<path fill="none" stroke="#63b8ff" d="M49.82,-111.08C63.44,-119.53 84.44,-131.7 104,-139.5 109.1,-141.53 114.51,-143.4 119.96,-145.11"/>
<polygon fill="#63b8ff" stroke="#63b8ff" points="119.19,-148.53 129.77,-147.98 121.16,-141.81 119.19,-148.53"/>
</a>
</g>
</g>
<!-- Node4 -->
<g id="Node000004" class="node">
<title>Node4</title>
<g id="a_Node000004"><a xlink:href="kalman__filter_8c.html#a9343b8ac8c00a1f1b5d288fd921ece81" target="_top" xlink:title=" ">
<polygon fill="white" stroke="#666666" points="235,-130 113,-130 113,-111 235,-111 235,-130"/>
<text text-anchor="middle" x="174" y="-118" font-family="Helvetica,sans-Serif" font-size="10.00">kalman_init_adaptive</text>
</a>
</g>
</g>
<!-- Node1&#45;&gt;Node4 -->
<g id="edge3_Node000001_Node000004" class="edge">
<title>Node1&#45;&gt;Node4</title>
<g id="a_edge3_Node000001_Node000004"><a xlink:title=" ">
<path fill="none" stroke="#63b8ff" d="M68.05,-106.05C78.58,-107.5 90.66,-109.16 102.79,-110.83"/>
<polygon fill="#63b8ff" stroke="#63b8ff" points="102.57,-114.34 112.95,-112.23 103.52,-107.4 102.57,-114.34"/>
</a>
</g>
</g>
<!-- Node6 -->
<g id="Node000006" class="node">
<title>Node6</title>
<g id="a_Node000006"><a xlink:href="kalman__filter_8c.html#a3c43cf9d9c5ec9875bbfcf351235bd12" target="_top" xlink:title=" ">
<polygon fill="white" stroke="#666666" points="244,-93 104,-93 104,-74 244,-74 244,-93"/>
<text text-anchor="middle" x="174" y="-81" font-family="Helvetica,sans-Serif" font-size="10.00">kalman_update_adaptive</text>
</a>
</g>
</g>
<!-- Node1&#45;&gt;Node6 -->
<g id="edge5_Node000001_Node000006" class="edge">
<title>Node1&#45;&gt;Node6</title>
<g id="a_edge5_Node000001_Node000006"><a xlink:title=" ">
<path fill="none" stroke="#63b8ff" d="M68.05,-97.19C76.02,-96.15 84.87,-95 93.96,-93.81"/>
<polygon fill="#63b8ff" stroke="#63b8ff" points="94.42,-97.28 103.88,-92.52 93.51,-90.34 94.42,-97.28"/>
</a>
</g>
</g>
<!-- Node7 -->
<g id="Node000007" class="node">
<title>Node7</title>
<g id="a_Node000007"><a xlink:href="moving__average_8c.html#a5b4f3147f4bc47ab394e00ab409c13ce" target="_top" xlink:title=" ">
<polygon fill="white" stroke="#666666" points="233.5,-56 114.5,-56 114.5,-37 233.5,-37 233.5,-56"/>
<text text-anchor="middle" x="174" y="-44" font-family="Helvetica,sans-Serif" font-size="10.00">moving_average_init</text>
</a>
</g>
</g>
<!-- Node1&#45;&gt;Node7 -->
<g id="edge6_Node000001_Node000007" class="edge">
<title>Node1&#45;&gt;Node7</title>
<g id="a_edge6_Node000001_Node000007"><a xlink:title=" ">
<path fill="none" stroke="#63b8ff" d="M50.99,-91.91C64.69,-84 85.14,-72.92 104,-65.5 109.99,-63.14 116.39,-60.96 122.78,-58.98"/>
<polygon fill="#63b8ff" stroke="#63b8ff" points="124.16,-62.22 132.76,-56.04 122.18,-55.51 124.16,-62.22"/>
</a>
</g>
</g>
<!-- Node8 -->
<g id="Node000008" class="node">
<title>Node8</title>
<g id="a_Node000008"><a xlink:href="moving__average_8c.html#ae8fe422690653cafb6e68f34a5ec7658" target="_top" xlink:title=" ">
<polygon fill="white" stroke="#666666" points="242.5,-19 105.5,-19 105.5,0 242.5,0 242.5,-19"/>
<text text-anchor="middle" x="174" y="-7" font-family="Helvetica,sans-Serif" font-size="10.00">moving_average_update</text>
</a>
</g>
</g>
<!-- Node1&#45;&gt;Node8 -->
<g id="edge7_Node000001_Node000008" class="edge">
<title>Node1&#45;&gt;Node8</title>
<g id="a_edge7_Node000001_Node000008"><a xlink:title=" ">
<path fill="none" stroke="#63b8ff" d="M41.42,-91.86C52.37,-76.17 76.2,-45.21 104,-28.5 107.59,-26.34 111.44,-24.42 115.41,-22.71"/>
<polygon fill="#63b8ff" stroke="#63b8ff" points="116.74,-25.95 124.83,-19.11 114.24,-19.41 116.74,-25.95"/>
</a>
</g>
</g>
<!-- Node5 -->
<g id="Node000005" class="node">
<title>Node5</title>
<g id="a_Node000005"><a xlink:href="kalman__filter_8c.html#ac062a0fa3f2aaa889d7b3534dbbad89e" target="_top" xlink:title=" ">
<polygon fill="white" stroke="#666666" points="354,-130 280,-130 280,-111 354,-111 354,-130"/>
<text text-anchor="middle" x="317" y="-118" font-family="Helvetica,sans-Serif" font-size="10.00">kalman_init</text>
</a>
</g>
</g>
<!-- Node4&#45;&gt;Node5 -->
<g id="edge4_Node000004_Node000005" class="edge">
<title>Node4&#45;&gt;Node5</title>
<g id="a_edge4_Node000004_Node000005"><a xlink:title=" ">
<path fill="none" stroke="#63b8ff" d="M235.21,-120.5C246.66,-120.5 258.49,-120.5 269.45,-120.5"/>
<polygon fill="#63b8ff" stroke="#63b8ff" points="269.64,-124 279.64,-120.5 269.64,-117 269.64,-124"/>
</a>
</g>
</g>
</g>
</svg>
