<?xml version="1.0" encoding="UTF-8" standalone="no"?>
<!DOCTYPE svg PUBLIC "-//W3C//DTD SVG 1.1//EN"
 "http://www.w3.org/Graphics/SVG/1.1/DTD/svg11.dtd">
<!-- Generated by graphviz version 2.43.0 (0)
 -->
<!-- Title: main/hx711/hx711.c Pages: 1 -->
<svg width="922pt" height="137pt"
 viewBox="0.00 0.00 921.50 137.00" xmlns="http://www.w3.org/2000/svg" xmlns:xlink="http://www.w3.org/1999/xlink">
<g id="graph0" class="graph" transform="scale(1 1) rotate(0) translate(4 133)">
<title>main/hx711/hx711.c</title>
<!-- Node1 -->
<g id="Node000001" class="node">
<title>Node1</title>
<g id="a_Node000001"><a xlink:title=" ">
<polygon fill="#999999" stroke="#666666" points="567,-129 451,-129 451,-110 567,-110 567,-129"/>
<text text-anchor="middle" x="509" y="-117" font-family="Helvetica,sans-Serif" font-size="10.00">main/hx711/hx711.c</text>
</a>
</g>
</g>
<!-- Node2 -->
<g id="Node000002" class="node">
<title>Node2</title>
<g id="a_Node000002"><a xlink:href="hx711_8h.html" target="_top" xlink:title=" ">
<polygon fill="white" stroke="#666666" points="371,-74 315,-74 315,-55 371,-55 371,-74"/>
<text text-anchor="middle" x="343" y="-62" font-family="Helvetica,sans-Serif" font-size="10.00">hx711.h</text>
</a>
</g>
</g>
<!-- Node1&#45;&gt;Node2 -->
<g id="edge1_Node000001_Node000002" class="edge">
<title>Node1&#45;&gt;Node2</title>
<g id="a_edge1_Node000001_Node000002"><a xlink:title=" ">
<path fill="none" stroke="#63b8ff" d="M482.33,-109.98C454.46,-101.09 410.55,-87.07 379.48,-77.15"/>
<polygon fill="#63b8ff" stroke="#63b8ff" points="380.47,-73.79 369.88,-74.08 378.34,-80.46 380.47,-73.79"/>
</a>
</g>
</g>
<!-- Node5 -->
<g id="Node000005" class="node">
<title>Node5</title>
<g id="a_Node000005"><a xlink:title=" ">
<polygon fill="#e0e0e0" stroke="#999999" points="78,-19 0,-19 0,0 78,0 78,-19"/>
<text text-anchor="middle" x="39" y="-7" font-family="Helvetica,sans-Serif" font-size="10.00">driver/gpio.h</text>
</a>
</g>
</g>
<!-- Node1&#45;&gt;Node5 -->
<g id="edge8_Node000001_Node000005" class="edge">
<title>Node1&#45;&gt;Node5</title>
<g id="a_edge8_Node000001_Node000005"><a xlink:title=" ">
<path fill="none" stroke="#63b8ff" d="M468.9,-109.93C427.91,-101.12 362.45,-86.9 306,-74 227.67,-56.1 136.68,-34.23 83.7,-21.39"/>
<polygon fill="#63b8ff" stroke="#63b8ff" points="84.49,-17.98 73.94,-19.02 82.83,-24.78 84.49,-17.98"/>
</a>
</g>
</g>
<!-- Node9 -->
<g id="Node000009" class="node">
<title>Node9</title>
<g id="a_Node000009"><a xlink:title=" ">
<polygon fill="#e0e0e0" stroke="#999999" points="480.5,-74 395.5,-74 395.5,-55 480.5,-55 480.5,-74"/>
<text text-anchor="middle" x="438" y="-62" font-family="Helvetica,sans-Serif" font-size="10.00">rom/ets_sys.h</text>
</a>
</g>
</g>
<!-- Node1&#45;&gt;Node9 -->
<g id="edge9_Node000001_Node000009" class="edge">
<title>Node1&#45;&gt;Node9</title>
<g id="a_edge9_Node000001_Node000009"><a xlink:title=" ">
<path fill="none" stroke="#63b8ff" d="M497.59,-109.98C486.89,-102 470.66,-89.88 457.84,-80.31"/>
<polygon fill="#63b8ff" stroke="#63b8ff" points="459.72,-77.35 449.61,-74.17 455.53,-82.96 459.72,-77.35"/>
</a>
</g>
</g>
<!-- Node10 -->
<g id="Node000010" class="node">
<title>Node10</title>
<g id="a_Node000010"><a xlink:title=" ">
<polygon fill="#e0e0e0" stroke="#999999" points="521.5,-19 468.5,-19 468.5,0 521.5,0 521.5,-19"/>
<text text-anchor="middle" x="495" y="-7" font-family="Helvetica,sans-Serif" font-size="10.00">stdlib.h</text>
</a>
</g>
</g>
<!-- Node1&#45;&gt;Node10 -->
<g id="edge10_Node000001_Node000010" class="edge">
<title>Node1&#45;&gt;Node10</title>
<g id="a_edge10_Node000001_Node000010"><a xlink:title=" ">
<path fill="none" stroke="#63b8ff" d="M507.85,-109.66C505.59,-92.17 500.48,-52.8 497.43,-29.27"/>
<polygon fill="#63b8ff" stroke="#63b8ff" points="500.88,-28.63 496.12,-19.16 493.94,-29.53 500.88,-28.63"/>
</a>
</g>
</g>
<!-- Node11 -->
<g id="Node000011" class="node">
<title>Node11</title>
<g id="a_Node000011"><a xlink:title=" ">
<polygon fill="#e0e0e0" stroke="#999999" points="913.5,-19 862.5,-19 862.5,0 913.5,0 913.5,-19"/>
<text text-anchor="middle" x="888" y="-7" font-family="Helvetica,sans-Serif" font-size="10.00">math.h</text>
</a>
</g>
</g>
<!-- Node1&#45;&gt;Node11 -->
<g id="edge11_Node000001_Node000011" class="edge">
<title>Node1&#45;&gt;Node11</title>
<g id="a_edge11_Node000001_Node000011"><a xlink:title=" ">
<path fill="none" stroke="#63b8ff" d="M567.22,-118.23C628.64,-116.04 727.14,-107.02 805,-74 831.46,-62.78 856.95,-41.13 872.54,-26.26"/>
<polygon fill="#63b8ff" stroke="#63b8ff" points="875.06,-28.69 879.75,-19.19 870.16,-23.7 875.06,-28.69"/>
</a>
</g>
</g>
<!-- Node12 -->
<g id="Node000012" class="node">
<title>Node12</title>
<g id="a_Node000012"><a xlink:href="moving__average_8h.html" target="_top" xlink:title=" ">
<polygon fill="white" stroke="#666666" points="649.5,-74 542.5,-74 542.5,-55 649.5,-55 649.5,-74"/>
<text text-anchor="middle" x="596" y="-62" font-family="Helvetica,sans-Serif" font-size="10.00">moving_average.h</text>
</a>
</g>
</g>
<!-- Node1&#45;&gt;Node12 -->
<g id="edge12_Node000001_Node000012" class="edge">
<title>Node1&#45;&gt;Node12</title>
<g id="a_edge12_Node000001_Node000012"><a xlink:title=" ">
<path fill="none" stroke="#63b8ff" d="M522.98,-109.98C536.47,-101.77 557.13,-89.18 573.04,-79.49"/>
<polygon fill="#63b8ff" stroke="#63b8ff" points="575.05,-82.36 581.77,-74.17 571.41,-76.38 575.05,-82.36"/>
</a>
</g>
</g>
<!-- Node15 -->
<g id="Node000015" class="node">
<title>Node15</title>
<g id="a_Node000015"><a xlink:href="kalman__filter_8h.html" target="_top" xlink:title=" ">
<polygon fill="white" stroke="#666666" points="796.5,-74 707.5,-74 707.5,-55 796.5,-55 796.5,-74"/>
<text text-anchor="middle" x="752" y="-62" font-family="Helvetica,sans-Serif" font-size="10.00">kalman_filter.h</text>
</a>
</g>
</g>
<!-- Node1&#45;&gt;Node15 -->
<g id="edge17_Node000001_Node000015" class="edge">
<title>Node1&#45;&gt;Node15</title>
<g id="a_edge17_Node000001_Node000015"><a xlink:title=" ">
<path fill="none" stroke="#63b8ff" d="M548.04,-109.98C590.08,-100.82 657.04,-86.21 702.68,-76.26"/>
<polygon fill="#63b8ff" stroke="#63b8ff" points="703.63,-79.63 712.65,-74.08 702.14,-72.79 703.63,-79.63"/>
</a>
</g>
</g>
<!-- Node3 -->
<g id="Node000003" class="node">
<title>Node3</title>
<g id="a_Node000003"><a xlink:title=" ">
<polygon fill="#e0e0e0" stroke="#999999" points="369.5,-19 316.5,-19 316.5,0 369.5,0 369.5,-19"/>
<text text-anchor="middle" x="343" y="-7" font-family="Helvetica,sans-Serif" font-size="10.00">stdint.h</text>
</a>
</g>
</g>
<!-- Node2&#45;&gt;Node3 -->
<g id="edge2_Node000002_Node000003" class="edge">
<title>Node2&#45;&gt;Node3</title>
<g id="a_edge2_Node000002_Node000003"><a xlink:title=" ">
<path fill="none" stroke="#63b8ff" d="M343,-54.75C343,-47.8 343,-37.85 343,-29.13"/>
<polygon fill="#63b8ff" stroke="#63b8ff" points="346.5,-29.09 343,-19.09 339.5,-29.09 346.5,-29.09"/>
</a>
</g>
</g>
<!-- Node4 -->
<g id="Node000004" class="node">
<title>Node4</title>
<g id="a_Node000004"><a xlink:title=" ">
<polygon fill="#e0e0e0" stroke="#999999" points="450,-19 388,-19 388,0 450,0 450,-19"/>
<text text-anchor="middle" x="419" y="-7" font-family="Helvetica,sans-Serif" font-size="10.00">stdbool.h</text>
</a>
</g>
</g>
<!-- Node2&#45;&gt;Node4 -->
<g id="edge3_Node000002_Node000004" class="edge">
<title>Node2&#45;&gt;Node4</title>
<g id="a_edge3_Node000002_Node000004"><a xlink:title=" ">
<path fill="none" stroke="#63b8ff" d="M355.21,-54.98C366.78,-46.92 384.38,-34.65 398.16,-25.03"/>
<polygon fill="#63b8ff" stroke="#63b8ff" points="400.37,-27.76 406.57,-19.17 396.36,-22.02 400.37,-27.76"/>
</a>
</g>
</g>
<!-- Node2&#45;&gt;Node5 -->
<g id="edge4_Node000002_Node000005" class="edge">
<title>Node2&#45;&gt;Node5</title>
<g id="a_edge4_Node000002_Node000005"><a xlink:title=" ">
<path fill="none" stroke="#63b8ff" d="M314.96,-58.66C269.56,-50.81 176.88,-34.75 88.01,-19.17"/>
<polygon fill="#63b8ff" stroke="#63b8ff" points="88.49,-15.7 78.03,-17.42 87.28,-22.6 88.49,-15.7"/>
</a>
</g>
</g>
<!-- Node6 -->
<g id="Node000006" class="node">
<title>Node6</title>
<g id="a_Node000006"><a xlink:title=" ">
<polygon fill="#e0e0e0" stroke="#999999" points="652.5,-19 539.5,-19 539.5,0 652.5,0 652.5,-19"/>
<text text-anchor="middle" x="596" y="-7" font-family="Helvetica,sans-Serif" font-size="10.00">freertos/FreeRTOS.h</text>
</a>
</g>
</g>
<!-- Node2&#45;&gt;Node6 -->
<g id="edge5_Node000002_Node000006" class="edge">
<title>Node2&#45;&gt;Node6</title>
<g id="a_edge5_Node000002_Node000006"><a xlink:title=" ">
<path fill="none" stroke="#63b8ff" d="M371.04,-57.63C413.02,-48.83 492.84,-32.11 545.23,-21.14"/>
<polygon fill="#63b8ff" stroke="#63b8ff" points="546.25,-24.5 555.32,-19.02 544.82,-17.65 546.25,-24.5"/>
</a>
</g>
</g>
<!-- Node7 -->
<g id="Node000007" class="node">
<title>Node7</title>
<g id="a_Node000007"><a xlink:title=" ">
<polygon fill="#e0e0e0" stroke="#999999" points="184,-19 96,-19 96,0 184,0 184,-19"/>
<text text-anchor="middle" x="140" y="-7" font-family="Helvetica,sans-Serif" font-size="10.00">freertos/task.h</text>
</a>
</g>
</g>
<!-- Node2&#45;&gt;Node7 -->
<g id="edge6_Node000002_Node000007" class="edge">
<title>Node2&#45;&gt;Node7</title>
<g id="a_edge6_Node000002_Node000007"><a xlink:title=" ">
<path fill="none" stroke="#63b8ff" d="M314.77,-56.13C280.43,-47.16 222.11,-31.94 182.36,-21.56"/>
<polygon fill="#63b8ff" stroke="#63b8ff" points="183.25,-18.17 172.69,-19.03 181.48,-24.95 183.25,-18.17"/>
</a>
</g>
</g>
<!-- Node8 -->
<g id="Node000008" class="node">
<title>Node8</title>
<g id="a_Node000008"><a xlink:title=" ">
<polygon fill="#e0e0e0" stroke="#999999" points="298.5,-19 201.5,-19 201.5,0 298.5,0 298.5,-19"/>
<text text-anchor="middle" x="250" y="-7" font-family="Helvetica,sans-Serif" font-size="10.00">freertos/queue.h</text>
</a>
</g>
</g>
<!-- Node2&#45;&gt;Node8 -->
<g id="edge7_Node000002_Node000008" class="edge">
<title>Node2&#45;&gt;Node8</title>
<g id="a_edge7_Node000002_Node000008"><a xlink:title=" ">
<path fill="none" stroke="#63b8ff" d="M328.06,-54.98C313.5,-46.69 291.13,-33.94 274.07,-24.22"/>
<polygon fill="#63b8ff" stroke="#63b8ff" points="275.64,-21.08 265.21,-19.17 272.17,-27.16 275.64,-21.08"/>
</a>
</g>
</g>
<!-- Node12&#45;&gt;Node6 -->
<g id="edge15_Node000012_Node000006" class="edge">
<title>Node12&#45;&gt;Node6</title>
<g id="a_edge15_Node000012_Node000006"><a xlink:title=" ">
<path fill="none" stroke="#63b8ff" d="M596,-54.75C596,-47.8 596,-37.85 596,-29.13"/>
<polygon fill="#63b8ff" stroke="#63b8ff" points="599.5,-29.09 596,-19.09 592.5,-29.09 599.5,-29.09"/>
</a>
</g>
</g>
<!-- Node12&#45;&gt;Node10 -->
<g id="edge13_Node000012_Node000010" class="edge">
<title>Node12&#45;&gt;Node10</title>
<g id="a_edge13_Node000012_Node000010"><a xlink:title=" ">
<path fill="none" stroke="#63b8ff" d="M579.77,-54.98C563.82,-46.61 539.22,-33.7 520.62,-23.95"/>
<polygon fill="#63b8ff" stroke="#63b8ff" points="522,-20.72 511.52,-19.17 518.75,-26.92 522,-20.72"/>
</a>
</g>
</g>
<!-- Node13 -->
<g id="Node000013" class="node">
<title>Node13</title>
<g id="a_Node000013"><a xlink:title=" ">
<polygon fill="#e0e0e0" stroke="#999999" points="723.5,-19 670.5,-19 670.5,0 723.5,0 723.5,-19"/>
<text text-anchor="middle" x="697" y="-7" font-family="Helvetica,sans-Serif" font-size="10.00">string.h</text>
</a>
</g>
</g>
<!-- Node12&#45;&gt;Node13 -->
<g id="edge14_Node000012_Node000013" class="edge">
<title>Node12&#45;&gt;Node13</title>
<g id="a_edge14_Node000012_Node000013"><a xlink:title=" ">
<path fill="none" stroke="#63b8ff" d="M612.23,-54.98C628.18,-46.61 652.78,-33.7 671.38,-23.95"/>
<polygon fill="#63b8ff" stroke="#63b8ff" points="673.25,-26.92 680.48,-19.17 670,-20.72 673.25,-26.92"/>
</a>
</g>
</g>
<!-- Node14 -->
<g id="Node000014" class="node">
<title>Node14</title>
<g id="a_Node000014"><a xlink:title=" ">
<polygon fill="#e0e0e0" stroke="#999999" points="844.5,-19 741.5,-19 741.5,0 844.5,0 844.5,-19"/>
<text text-anchor="middle" x="793" y="-7" font-family="Helvetica,sans-Serif" font-size="10.00">freertos/semphr.h</text>
</a>
</g>
</g>
<!-- Node12&#45;&gt;Node14 -->
<g id="edge16_Node000012_Node000014" class="edge">
<title>Node12&#45;&gt;Node14</title>
<g id="a_edge16_Node000012_Node000014"><a xlink:title=" ">
<path fill="none" stroke="#63b8ff" d="M627.65,-54.98C661.16,-45.97 714.2,-31.7 751.14,-21.76"/>
<polygon fill="#63b8ff" stroke="#63b8ff" points="752.35,-25.06 761.1,-19.08 750.53,-18.3 752.35,-25.06"/>
</a>
</g>
</g>
<!-- Node15&#45;&gt;Node6 -->
<g id="edge19_Node000015_Node000006" class="edge">
<title>Node15&#45;&gt;Node6</title>
<g id="a_edge19_Node000015_Node000006"><a xlink:title=" ">
<path fill="none" stroke="#63b8ff" d="M726.94,-54.98C700.97,-46.16 660.19,-32.31 631.04,-22.41"/>
<polygon fill="#63b8ff" stroke="#63b8ff" points="631.85,-18.99 621.26,-19.08 629.6,-25.61 631.85,-18.99"/>
</a>
</g>
</g>
<!-- Node15&#45;&gt;Node11 -->
<g id="edge18_Node000015_Node000011" class="edge">
<title>Node15&#45;&gt;Node11</title>
<g id="a_edge18_Node000015_Node000011"><a xlink:title=" ">
<path fill="none" stroke="#63b8ff" d="M773.85,-54.98C796.12,-46.3 830.9,-32.75 856.22,-22.88"/>
<polygon fill="#63b8ff" stroke="#63b8ff" points="857.71,-26.06 865.75,-19.17 855.16,-19.54 857.71,-26.06"/>
</a>
</g>
</g>
<!-- Node15&#45;&gt;Node14 -->
<g id="edge20_Node000015_Node000014" class="edge">
<title>Node15&#45;&gt;Node14</title>
<g id="a_edge20_Node000015_Node000014"><a xlink:title=" ">
<path fill="none" stroke="#63b8ff" d="M758.77,-54.75C764.56,-47.26 773.06,-36.28 780.14,-27.13"/>
<polygon fill="#63b8ff" stroke="#63b8ff" points="783.01,-29.14 786.36,-19.09 777.47,-24.86 783.01,-29.14"/>
</a>
</g>
</g>
</g>
</svg>
