<?xml version="1.0" encoding="UTF-8" standalone="no"?>
<!DOCTYPE svg PUBLIC "-//W3C//DTD SVG 1.1//EN"
 "http://www.w3.org/Graphics/SVG/1.1/DTD/svg11.dtd">
<!-- Generated by graphviz version 2.43.0 (0)
 -->
<!-- Title: hx711_rtos_median_task Pages: 1 -->
<svg width="496pt" height="138pt"
 viewBox="0.00 0.00 496.00 138.00" xmlns="http://www.w3.org/2000/svg" xmlns:xlink="http://www.w3.org/1999/xlink">
<g id="graph0" class="graph" transform="scale(1 1) rotate(0) translate(4 134)">
<title>hx711_rtos_median_task</title>
<!-- Node1 -->
<g id="Node000001" class="node">
<title>Node1</title>
<g id="a_Node000001"><a xlink:title=" ">
<polygon fill="#999999" stroke="#666666" points="139,-74 0,-74 0,-55 139,-55 139,-74"/>
<text text-anchor="middle" x="69.5" y="-62" font-family="Helvetica,sans-Serif" font-size="10.00">hx711_rtos_median_task</text>
</a>
</g>
</g>
<!-- Node2 -->
<g id="Node000002" class="node">
<title>Node2</title>
<g id="a_Node000002"><a xlink:href="hx711_8c.html#a1a9420f9643f715e8f5e45e342ffbf8a" target="_top" xlink:title=" ">
<polygon fill="white" stroke="#666666" points="315,-74 175,-74 175,-55 315,-55 315,-74"/>
<text text-anchor="middle" x="245" y="-62" font-family="Helvetica,sans-Serif" font-size="10.00">hx711_read_median_rtos</text>
</a>
</g>
</g>
<!-- Node1&#45;&gt;Node2 -->
<g id="edge1_Node000001_Node000002" class="edge">
<title>Node1&#45;&gt;Node2</title>
<g id="a_edge1_Node000001_Node000002"><a xlink:title=" ">
<path fill="none" stroke="#63b8ff" d="M139.07,-64.5C147.51,-64.5 156.2,-64.5 164.78,-64.5"/>
<polygon fill="#63b8ff" stroke="#63b8ff" points="164.79,-68 174.79,-64.5 164.79,-61 164.79,-68"/>
</a>
</g>
</g>
<!-- Node3 -->
<g id="Node000003" class="node">
<title>Node3</title>
<g id="a_Node000003"><a xlink:href="hx711_8c.html#a33bac1c81f0833bc55f0cbbfc34f8c19" target="_top" xlink:title=" ">
<polygon fill="white" stroke="#666666" points="468,-130 371,-130 371,-111 468,-111 468,-130"/>
<text text-anchor="middle" x="419.5" y="-118" font-family="Helvetica,sans-Serif" font-size="10.00">hx711_read_raw</text>
</a>
</g>
</g>
<!-- Node2&#45;&gt;Node3 -->
<g id="edge2_Node000002_Node000003" class="edge">
<title>Node2&#45;&gt;Node3</title>
<g id="a_edge2_Node000002_Node000003"><a xlink:title=" ">
<path fill="none" stroke="#63b8ff" d="M270.41,-74.01C291.56,-82.09 323.07,-93.74 351,-102.5 357.38,-104.5 364.13,-106.47 370.81,-108.34"/>
<polygon fill="#63b8ff" stroke="#63b8ff" points="369.92,-111.72 380.49,-110.98 371.77,-104.97 369.92,-111.72"/>
</a>
</g>
</g>
<!-- Node4 -->
<g id="Node000004" class="node">
<title>Node4</title>
<g id="a_Node000004"><a xlink:href="moving__average_8c.html#a89dd7672eec3d326b5f3ff375c767968" target="_top" xlink:title=" ">
<polygon fill="white" stroke="#666666" points="449,-93 390,-93 390,-74 449,-74 449,-93"/>
<text text-anchor="middle" x="419.5" y="-81" font-family="Helvetica,sans-Serif" font-size="10.00">median3</text>
</a>
</g>
</g>
<!-- Node2&#45;&gt;Node4 -->
<g id="edge3_Node000002_Node000004" class="edge">
<title>Node2&#45;&gt;Node4</title>
<g id="a_edge3_Node000002_Node000004"><a xlink:title=" ">
<path fill="none" stroke="#63b8ff" d="M315.17,-72.12C337.15,-74.54 360.68,-77.13 379.73,-79.23"/>
<polygon fill="#63b8ff" stroke="#63b8ff" points="379.48,-82.72 389.81,-80.34 380.25,-75.77 379.48,-82.72"/>
</a>
</g>
</g>
<!-- Node5 -->
<g id="Node000005" class="node">
<title>Node5</title>
<g id="a_Node000005"><a xlink:href="moving__average_8c.html#a6336a0eede30b660dc06e9b149f6c143" target="_top" xlink:title=" ">
<polygon fill="white" stroke="#666666" points="483.5,-56 355.5,-56 355.5,-37 483.5,-37 483.5,-56"/>
<text text-anchor="middle" x="419.5" y="-44" font-family="Helvetica,sans-Serif" font-size="10.00">moving_average_reset</text>
</a>
</g>
</g>
<!-- Node2&#45;&gt;Node5 -->
<g id="edge4_Node000002_Node000005" class="edge">
<title>Node2&#45;&gt;Node5</title>
<g id="a_edge4_Node000002_Node000005"><a xlink:title=" ">
<path fill="none" stroke="#63b8ff" d="M315.17,-57.28C325.15,-56.24 335.45,-55.17 345.51,-54.12"/>
<polygon fill="#63b8ff" stroke="#63b8ff" points="345.87,-57.6 355.46,-53.08 345.15,-50.64 345.87,-57.6"/>
</a>
</g>
</g>
<!-- Node6 -->
<g id="Node000006" class="node">
<title>Node6</title>
<g id="a_Node000006"><a xlink:href="moving__average_8c.html#ae8fe422690653cafb6e68f34a5ec7658" target="_top" xlink:title=" ">
<polygon fill="white" stroke="#666666" points="488,-19 351,-19 351,0 488,0 488,-19"/>
<text text-anchor="middle" x="419.5" y="-7" font-family="Helvetica,sans-Serif" font-size="10.00">moving_average_update</text>
</a>
</g>
</g>
<!-- Node2&#45;&gt;Node6 -->
<g id="edge5_Node000002_Node000006" class="edge">
<title>Node2&#45;&gt;Node6</title>
<g id="a_edge5_Node000002_Node000006"><a xlink:title=" ">
<path fill="none" stroke="#63b8ff" d="M272.62,-54.91C293.77,-47.41 324.14,-36.88 351,-28.5 358.19,-26.26 365.85,-23.99 373.33,-21.84"/>
<polygon fill="#63b8ff" stroke="#63b8ff" points="374.34,-25.19 383.01,-19.09 372.43,-18.45 374.34,-25.19"/>
</a>
</g>
</g>
</g>
</svg>
