<?xml version="1.0" encoding="UTF-8" standalone="no"?>
<!DOCTYPE svg PUBLIC "-//W3C//DTD SVG 1.1//EN"
 "http://www.w3.org/Graphics/SVG/1.1/DTD/svg11.dtd">
<!-- Generated by graphviz version 2.43.0 (0)
 -->
<!-- Title: hx711_read_filtered_rtos Pages: 1 -->
<svg width="470pt" height="138pt"
 viewBox="0.00 0.00 470.00 138.00" xmlns="http://www.w3.org/2000/svg" xmlns:xlink="http://www.w3.org/1999/xlink">
<g id="graph0" class="graph" transform="scale(1 1) rotate(0) translate(4 134)">
<title>hx711_read_filtered_rtos</title>
<!-- Node1 -->
<g id="Node000001" class="node">
<title>Node1</title>
<g id="a_Node000001"><a xlink:title=" ">
<polygon fill="#999999" stroke="#666666" points="137,-74 0,-74 0,-55 137,-55 137,-74"/>
<text text-anchor="middle" x="68.5" y="-62" font-family="Helvetica,sans-Serif" font-size="10.00">hx711_read_filtered_rtos</text>
</a>
</g>
</g>
<!-- Node2 -->
<g id="Node000002" class="node">
<title>Node2</title>
<g id="a_Node000002"><a xlink:href="hx711_8c.html#af0a6adda73c183ed8b4dbd127ff5b35a" target="_top" xlink:title=" ">
<polygon fill="white" stroke="#666666" points="286,-74 173,-74 173,-55 286,-55 286,-74"/>
<text text-anchor="middle" x="229.5" y="-62" font-family="Helvetica,sans-Serif" font-size="10.00">hx711_read_filtered</text>
</a>
</g>
</g>
<!-- Node1&#45;&gt;Node2 -->
<g id="edge1_Node000001_Node000002" class="edge">
<title>Node1&#45;&gt;Node2</title>
<g id="a_edge1_Node000001_Node000002"><a xlink:title=" ">
<path fill="none" stroke="#63b8ff" d="M137.39,-64.5C145.79,-64.5 154.37,-64.5 162.74,-64.5"/>
<polygon fill="#63b8ff" stroke="#63b8ff" points="162.82,-68 172.82,-64.5 162.82,-61 162.82,-68"/>
</a>
</g>
</g>
<!-- Node3 -->
<g id="Node000003" class="node">
<title>Node3</title>
<g id="a_Node000003"><a xlink:href="hx711_8c.html#a33bac1c81f0833bc55f0cbbfc34f8c19" target="_top" xlink:title=" ">
<polygon fill="white" stroke="#666666" points="440.5,-130 343.5,-130 343.5,-111 440.5,-111 440.5,-130"/>
<text text-anchor="middle" x="392" y="-118" font-family="Helvetica,sans-Serif" font-size="10.00">hx711_read_raw</text>
</a>
</g>
</g>
<!-- Node2&#45;&gt;Node3 -->
<g id="edge2_Node000002_Node000003" class="edge">
<title>Node2&#45;&gt;Node3</title>
<g id="a_edge2_Node000002_Node000003"><a xlink:title=" ">
<path fill="none" stroke="#63b8ff" d="M251.26,-74.09C269.61,-82.33 297.22,-94.17 322,-102.5 328.01,-104.52 334.37,-106.45 340.71,-108.25"/>
<polygon fill="#63b8ff" stroke="#63b8ff" points="340.02,-111.69 350.59,-110.96 341.87,-104.94 340.02,-111.69"/>
</a>
</g>
</g>
<!-- Node4 -->
<g id="Node000004" class="node">
<title>Node4</title>
<g id="a_Node000004"><a xlink:href="kalman__filter_8c.html#a3c43cf9d9c5ec9875bbfcf351235bd12" target="_top" xlink:title=" ">
<polygon fill="white" stroke="#666666" points="462,-93 322,-93 322,-74 462,-74 462,-93"/>
<text text-anchor="middle" x="392" y="-81" font-family="Helvetica,sans-Serif" font-size="10.00">kalman_update_adaptive</text>
</a>
</g>
</g>
<!-- Node2&#45;&gt;Node4 -->
<g id="edge3_Node000002_Node000004" class="edge">
<title>Node2&#45;&gt;Node4</title>
<g id="a_edge3_Node000002_Node000004"><a xlink:title=" ">
<path fill="none" stroke="#63b8ff" d="M286.18,-71.09C294.45,-72.07 303.1,-73.09 311.73,-74.12"/>
<polygon fill="#63b8ff" stroke="#63b8ff" points="311.5,-77.61 321.84,-75.31 312.32,-70.66 311.5,-77.61"/>
</a>
</g>
</g>
<!-- Node5 -->
<g id="Node000005" class="node">
<title>Node5</title>
<g id="a_Node000005"><a xlink:href="moving__average_8c.html#a6336a0eede30b660dc06e9b149f6c143" target="_top" xlink:title=" ">
<polygon fill="white" stroke="#666666" points="456,-56 328,-56 328,-37 456,-37 456,-56"/>
<text text-anchor="middle" x="392" y="-44" font-family="Helvetica,sans-Serif" font-size="10.00">moving_average_reset</text>
</a>
</g>
</g>
<!-- Node2&#45;&gt;Node5 -->
<g id="edge4_Node000002_Node000005" class="edge">
<title>Node2&#45;&gt;Node5</title>
<g id="a_edge4_Node000002_Node000005"><a xlink:title=" ">
<path fill="none" stroke="#63b8ff" d="M286.18,-58.25C296.41,-57.11 307.22,-55.9 317.86,-54.7"/>
<polygon fill="#63b8ff" stroke="#63b8ff" points="318.44,-58.16 327.99,-53.57 317.66,-51.2 318.44,-58.16"/>
</a>
</g>
</g>
<!-- Node6 -->
<g id="Node000006" class="node">
<title>Node6</title>
<g id="a_Node000006"><a xlink:href="moving__average_8c.html#ae8fe422690653cafb6e68f34a5ec7658" target="_top" xlink:title=" ">
<polygon fill="white" stroke="#666666" points="460.5,-19 323.5,-19 323.5,0 460.5,0 460.5,-19"/>
<text text-anchor="middle" x="392" y="-7" font-family="Helvetica,sans-Serif" font-size="10.00">moving_average_update</text>
</a>
</g>
</g>
<!-- Node2&#45;&gt;Node6 -->
<g id="edge5_Node000002_Node000006" class="edge">
<title>Node2&#45;&gt;Node6</title>
<g id="a_edge5_Node000002_Node000006"><a xlink:title=" ">
<path fill="none" stroke="#63b8ff" d="M252.82,-54.95C271.2,-47.27 298.03,-36.49 322,-28.5 328.97,-26.18 336.4,-23.91 343.71,-21.81"/>
<polygon fill="#63b8ff" stroke="#63b8ff" points="344.86,-25.12 353.54,-19.04 342.97,-18.38 344.86,-25.12"/>
</a>
</g>
</g>
</g>
</svg>
