<?xml version="1.0" encoding="UTF-8" standalone="no"?>
<!DOCTYPE svg PUBLIC "-//W3C//DTD SVG 1.1//EN"
 "http://www.w3.org/Graphics/SVG/1.1/DTD/svg11.dtd">
<!-- Generated by graphviz version 2.43.0 (0)
 -->
<!-- Title: hx711_read_raw Pages: 1 -->
<svg width="685pt" height="166pt"
 viewBox="0.00 0.00 685.00 166.43" xmlns="http://www.w3.org/2000/svg" xmlns:xlink="http://www.w3.org/1999/xlink">
<g id="graph0" class="graph" transform="scale(1 1) rotate(0) translate(4 162.43)">
<title>hx711_read_raw</title>
<!-- Node1 -->
<g id="Node000001" class="node">
<title>Node1</title>
<g id="a_Node000001"><a xlink:title=" ">
<polygon fill="#999999" stroke="#666666" points="677,-93 580,-93 580,-74 677,-74 677,-93"/>
<text text-anchor="middle" x="628.5" y="-81" font-family="Helvetica,sans-Serif" font-size="10.00">hx711_read_raw</text>
</a>
</g>
</g>
<!-- Node2 -->
<g id="Node000002" class="node">
<title>Node2</title>
<g id="a_Node000002"><a xlink:href="main_8c.html#a630544a7f0a2cc40d8a7fefab7e2fe70" target="_top" xlink:title=" ">
<polygon fill="white" stroke="#666666" points="65,-131 0,-131 0,-112 65,-112 65,-131"/>
<text text-anchor="middle" x="32.5" y="-119" font-family="Helvetica,sans-Serif" font-size="10.00">app_main</text>
</a>
</g>
</g>
<!-- Node1&#45;&gt;Node2 -->
<g id="edge1_Node000001_Node000002" class="edge">
<title>Node1&#45;&gt;Node2</title>
<g id="a_edge1_Node000001_Node000002"><a xlink:title=" ">
<path fill="none" stroke="#63b8ff" d="M603.03,-98.04C586.85,-106.94 564.84,-117.7 544,-123.5 354.25,-176.32 296.5,-159.43 101,-135.5 89.24,-134.06 76.48,-131.64 65.25,-129.21"/>
<polygon fill="#63b8ff" stroke="#63b8ff" points="604.85,-101.04 611.84,-93.07 601.41,-94.94 604.85,-101.04"/>
</a>
</g>
</g>
<!-- Node3 -->
<g id="Node000003" class="node">
<title>Node3</title>
<g id="a_Node000003"><a xlink:href="hx711_8c.html#af597cc145be81ec0898873fc0a2e8261" target="_top" xlink:title=" ">
<polygon fill="white" stroke="#666666" points="332.5,-131 264.5,-131 264.5,-112 332.5,-112 332.5,-131"/>
<text text-anchor="middle" x="298.5" y="-119" font-family="Helvetica,sans-Serif" font-size="10.00">hx711_init</text>
</a>
</g>
</g>
<!-- Node1&#45;&gt;Node3 -->
<g id="edge2_Node000001_Node000003" class="edge">
<title>Node1&#45;&gt;Node3</title>
<g id="a_edge2_Node000001_Node000003"><a xlink:title=" ">
<path fill="none" stroke="#63b8ff" d="M580.93,-95.36C568.96,-98.06 556.06,-100.67 544,-102.5 469.07,-113.87 380.14,-118.62 332.9,-120.45"/>
<polygon fill="#63b8ff" stroke="#63b8ff" points="581.78,-98.76 590.73,-93.09 580.19,-91.94 581.78,-98.76"/>
</a>
</g>
</g>
<!-- Node5 -->
<g id="Node000005" class="node">
<title>Node5</title>
<g id="a_Node000005"><a xlink:href="hx711_8c.html#af0a6adda73c183ed8b4dbd127ff5b35a" target="_top" xlink:title=" ">
<polygon fill="white" stroke="#666666" points="530.5,-93 417.5,-93 417.5,-74 530.5,-74 530.5,-93"/>
<text text-anchor="middle" x="474" y="-81" font-family="Helvetica,sans-Serif" font-size="10.00">hx711_read_filtered</text>
</a>
</g>
</g>
<!-- Node1&#45;&gt;Node5 -->
<g id="edge6_Node000001_Node000005" class="edge">
<title>Node1&#45;&gt;Node5</title>
<g id="a_edge6_Node000001_Node000005"><a xlink:title=" ">
<path fill="none" stroke="#63b8ff" d="M569.61,-83.5C556.84,-83.5 543.34,-83.5 530.66,-83.5"/>
<polygon fill="#63b8ff" stroke="#63b8ff" points="569.67,-87 579.67,-83.5 569.67,-80 569.67,-87"/>
</a>
</g>
</g>
<!-- Node8 -->
<g id="Node000008" class="node">
<title>Node8</title>
<g id="a_Node000008"><a xlink:href="hx711_8c.html#a1a9420f9643f715e8f5e45e342ffbf8a" target="_top" xlink:title=" ">
<polygon fill="white" stroke="#666666" points="544,-56 404,-56 404,-37 544,-37 544,-56"/>
<text text-anchor="middle" x="474" y="-44" font-family="Helvetica,sans-Serif" font-size="10.00">hx711_read_median_rtos</text>
</a>
</g>
</g>
<!-- Node1&#45;&gt;Node8 -->
<g id="edge10_Node000001_Node000008" class="edge">
<title>Node1&#45;&gt;Node8</title>
<g id="a_edge10_Node000001_Node000008"><a xlink:title=" ">
<path fill="none" stroke="#63b8ff" d="M578.35,-71.57C557.66,-66.56 533.91,-60.79 514.4,-56.06"/>
<polygon fill="#63b8ff" stroke="#63b8ff" points="577.68,-75.02 588.23,-73.97 579.33,-68.21 577.68,-75.02"/>
</a>
</g>
</g>
<!-- Node10 -->
<g id="Node000010" class="node">
<title>Node10</title>
<g id="a_Node000010"><a xlink:href="hx711_8c.html#accaec480bc7eca02008f9bff05a7be9d" target="_top" xlink:title=" ">
<polygon fill="white" stroke="#666666" points="534.5,-19 413.5,-19 413.5,0 534.5,0 534.5,-19"/>
<text text-anchor="middle" x="474" y="-7" font-family="Helvetica,sans-Serif" font-size="10.00">hx711_read_raw_rtos</text>
</a>
</g>
</g>
<!-- Node1&#45;&gt;Node10 -->
<g id="edge12_Node000001_Node000010" class="edge">
<title>Node1&#45;&gt;Node10</title>
<g id="a_edge12_Node000001_Node000010"><a xlink:title=" ">
<path fill="none" stroke="#63b8ff" d="M607.92,-67.58C591.67,-55.08 567.5,-38.08 544,-27.5 536.66,-24.2 528.6,-21.41 520.66,-19.09"/>
<polygon fill="#63b8ff" stroke="#63b8ff" points="606.05,-70.57 616.08,-73.99 610.38,-65.06 606.05,-70.57"/>
</a>
</g>
</g>
<!-- Node3&#45;&gt;Node2 -->
<g id="edge3_Node000003_Node000002" class="edge">
<title>Node3&#45;&gt;Node2</title>
<g id="a_edge3_Node000003_Node000002"><a xlink:title=" ">
<path fill="none" stroke="#63b8ff" d="M254.2,-121.5C201.06,-121.5 112.22,-121.5 65.09,-121.5"/>
<polygon fill="#63b8ff" stroke="#63b8ff" points="254.33,-125 264.33,-121.5 254.33,-118 254.33,-125"/>
</a>
</g>
</g>
<!-- Node4 -->
<g id="Node000004" class="node">
<title>Node4</title>
<g id="a_Node000004"><a xlink:href="hx711_8c.html#aa3f2bd6b7c47bcd3ccbafcad4e942dd3" target="_top" xlink:title=" ">
<polygon fill="white" stroke="#666666" points="193,-93 101,-93 101,-74 193,-74 193,-93"/>
<text text-anchor="middle" x="147" y="-81" font-family="Helvetica,sans-Serif" font-size="10.00">hx711_init_rtos</text>
</a>
</g>
</g>
<!-- Node3&#45;&gt;Node4 -->
<g id="edge4_Node000003_Node000004" class="edge">
<title>Node3&#45;&gt;Node4</title>
<g id="a_edge4_Node000003_Node000004"><a xlink:title=" ">
<path fill="none" stroke="#63b8ff" d="M254.35,-110.53C232.6,-105 206.47,-98.36 185.56,-93.05"/>
<polygon fill="#63b8ff" stroke="#63b8ff" points="253.77,-114 264.32,-113.07 255.49,-107.21 253.77,-114"/>
</a>
</g>
</g>
<!-- Node4&#45;&gt;Node2 -->
<g id="edge5_Node000004_Node000002" class="edge">
<title>Node4&#45;&gt;Node2</title>
<g id="a_edge5_Node000004_Node000002"><a xlink:title=" ">
<path fill="none" stroke="#63b8ff" d="M108.03,-96.33C92.93,-101.42 75.87,-107.19 61.88,-111.91"/>
<polygon fill="#63b8ff" stroke="#63b8ff" points="109.26,-99.61 117.61,-93.09 107.02,-92.97 109.26,-99.61"/>
</a>
</g>
</g>
<!-- Node6 -->
<g id="Node000006" class="node">
<title>Node6</title>
<g id="a_Node000006"><a xlink:href="hx711_8c.html#ac6c8066eeca1a4549359b2da8deda8f9" target="_top" xlink:title=" ">
<polygon fill="white" stroke="#666666" points="367,-94 230,-94 230,-75 367,-75 367,-94"/>
<text text-anchor="middle" x="298.5" y="-82" font-family="Helvetica,sans-Serif" font-size="10.00">hx711_read_filtered_rtos</text>
</a>
</g>
</g>
<!-- Node5&#45;&gt;Node6 -->
<g id="edge7_Node000005_Node000006" class="edge">
<title>Node5&#45;&gt;Node6</title>
<g id="a_edge7_Node000005_Node000006"><a xlink:title=" ">
<path fill="none" stroke="#63b8ff" d="M406.87,-83.88C393.84,-83.96 380.15,-84.04 367.08,-84.11"/>
<polygon fill="#63b8ff" stroke="#63b8ff" points="407.17,-87.38 417.15,-83.82 407.13,-80.38 407.17,-87.38"/>
</a>
</g>
</g>
<!-- Node7 -->
<g id="Node000007" class="node">
<title>Node7</title>
<g id="a_Node000007"><a xlink:href="hx711_8c.html#a985ea3f202ebc30a95f6bc340b15ef1e" target="_top" xlink:title=" ">
<polygon fill="white" stroke="#666666" points="347,-57 250,-57 250,-38 347,-38 347,-57"/>
<text text-anchor="middle" x="298.5" y="-45" font-family="Helvetica,sans-Serif" font-size="10.00">hx711_rtos_task</text>
</a>
</g>
</g>
<!-- Node5&#45;&gt;Node7 -->
<g id="edge8_Node000005_Node000007" class="edge">
<title>Node5&#45;&gt;Node7</title>
<g id="a_edge8_Node000005_Node000007"><a xlink:title=" ">
<path fill="none" stroke="#63b8ff" d="M416.95,-71.87C393.84,-67.07 367.39,-61.59 345.45,-57.03"/>
<polygon fill="#63b8ff" stroke="#63b8ff" points="416.46,-75.34 426.96,-73.95 417.88,-68.49 416.46,-75.34"/>
</a>
</g>
</g>
<!-- Node7&#45;&gt;Node4 -->
<g id="edge9_Node000007_Node000004" class="edge">
<title>Node7&#45;&gt;Node4</title>
<g id="a_edge9_Node000007_Node000004"><a xlink:title=" ">
<path fill="none" stroke="#63b8ff" d="M247.86,-59.45C228.27,-64.17 206.08,-69.52 187.6,-73.97"/>
<polygon fill="#63b8ff" stroke="#63b8ff" points="248.93,-62.8 257.83,-57.05 247.29,-55.99 248.93,-62.8"/>
</a>
</g>
</g>
<!-- Node9 -->
<g id="Node000009" class="node">
<title>Node9</title>
<g id="a_Node000009"><a xlink:href="hx711_8c.html#a46c8262ab336340caa474098f940d2d7" target="_top" xlink:title=" ">
<polygon fill="white" stroke="#666666" points="368,-20 229,-20 229,-1 368,-1 368,-20"/>
<text text-anchor="middle" x="298.5" y="-8" font-family="Helvetica,sans-Serif" font-size="10.00">hx711_rtos_median_task</text>
</a>
</g>
</g>
<!-- Node8&#45;&gt;Node9 -->
<g id="edge11_Node000008_Node000009" class="edge">
<title>Node8&#45;&gt;Node9</title>
<g id="a_edge11_Node000008_Node000009"><a xlink:title=" ">
<path fill="none" stroke="#63b8ff" d="M416.95,-34.87C393.84,-30.07 367.39,-24.59 345.45,-20.03"/>
<polygon fill="#63b8ff" stroke="#63b8ff" points="416.46,-38.34 426.96,-36.95 417.88,-31.49 416.46,-38.34"/>
</a>
</g>
</g>
</g>
</svg>
