<?xml version="1.0" encoding="UTF-8" standalone="no"?>
<!DOCTYPE svg PUBLIC "-//W3C//DTD SVG 1.1//EN"
 "http://www.w3.org/Graphics/SVG/1.1/DTD/svg11.dtd">
<!-- Generated by graphviz version 2.43.0 (0)
 -->
<!-- Title: hx711_read_median_rtos Pages: 1 -->
<svg width="321pt" height="138pt"
 viewBox="0.00 0.00 321.00 138.00" xmlns="http://www.w3.org/2000/svg" xmlns:xlink="http://www.w3.org/1999/xlink">
<g id="graph0" class="graph" transform="scale(1 1) rotate(0) translate(4 134)">
<title>hx711_read_median_rtos</title>
<!-- Node1 -->
<g id="Node000001" class="node">
<title>Node1</title>
<g id="a_Node000001"><a xlink:title=" ">
<polygon fill="#999999" stroke="#666666" points="140,-74 0,-74 0,-55 140,-55 140,-74"/>
<text text-anchor="middle" x="70" y="-62" font-family="Helvetica,sans-Serif" font-size="10.00">hx711_read_median_rtos</text>
</a>
</g>
</g>
<!-- Node2 -->
<g id="Node000002" class="node">
<title>Node2</title>
<g id="a_Node000002"><a xlink:href="hx711_8c.html#a33bac1c81f0833bc55f0cbbfc34f8c19" target="_top" xlink:title=" ">
<polygon fill="white" stroke="#666666" points="293,-130 196,-130 196,-111 293,-111 293,-130"/>
<text text-anchor="middle" x="244.5" y="-118" font-family="Helvetica,sans-Serif" font-size="10.00">hx711_read_raw</text>
</a>
</g>
</g>
<!-- Node1&#45;&gt;Node2 -->
<g id="edge1_Node000001_Node000002" class="edge">
<title>Node1&#45;&gt;Node2</title>
<g id="a_edge1_Node000001_Node000002"><a xlink:title=" ">
<path fill="none" stroke="#63b8ff" d="M95.41,-74.01C116.56,-82.09 148.07,-93.74 176,-102.5 182.38,-104.5 189.13,-106.47 195.81,-108.34"/>
<polygon fill="#63b8ff" stroke="#63b8ff" points="194.92,-111.72 205.49,-110.98 196.77,-104.97 194.92,-111.72"/>
</a>
</g>
</g>
<!-- Node3 -->
<g id="Node000003" class="node">
<title>Node3</title>
<g id="a_Node000003"><a xlink:href="moving__average_8c.html#a89dd7672eec3d326b5f3ff375c767968" target="_top" xlink:title=" ">
<polygon fill="white" stroke="#666666" points="274,-93 215,-93 215,-74 274,-74 274,-93"/>
<text text-anchor="middle" x="244.5" y="-81" font-family="Helvetica,sans-Serif" font-size="10.00">median3</text>
</a>
</g>
</g>
<!-- Node1&#45;&gt;Node3 -->
<g id="edge2_Node000001_Node000003" class="edge">
<title>Node1&#45;&gt;Node3</title>
<g id="a_edge2_Node000001_Node000003"><a xlink:title=" ">
<path fill="none" stroke="#63b8ff" d="M140.17,-72.12C162.15,-74.54 185.68,-77.13 204.73,-79.23"/>
<polygon fill="#63b8ff" stroke="#63b8ff" points="204.48,-82.72 214.81,-80.34 205.25,-75.77 204.48,-82.72"/>
</a>
</g>
</g>
<!-- Node4 -->
<g id="Node000004" class="node">
<title>Node4</title>
<g id="a_Node000004"><a xlink:href="moving__average_8c.html#a6336a0eede30b660dc06e9b149f6c143" target="_top" xlink:title=" ">
<polygon fill="white" stroke="#666666" points="308.5,-56 180.5,-56 180.5,-37 308.5,-37 308.5,-56"/>
<text text-anchor="middle" x="244.5" y="-44" font-family="Helvetica,sans-Serif" font-size="10.00">moving_average_reset</text>
</a>
</g>
</g>
<!-- Node1&#45;&gt;Node4 -->
<g id="edge3_Node000001_Node000004" class="edge">
<title>Node1&#45;&gt;Node4</title>
<g id="a_edge3_Node000001_Node000004"><a xlink:title=" ">
<path fill="none" stroke="#63b8ff" d="M140.17,-57.28C150.15,-56.24 160.45,-55.17 170.51,-54.12"/>
<polygon fill="#63b8ff" stroke="#63b8ff" points="170.87,-57.6 180.46,-53.08 170.15,-50.64 170.87,-57.6"/>
</a>
</g>
</g>
<!-- Node5 -->
<g id="Node000005" class="node">
<title>Node5</title>
<g id="a_Node000005"><a xlink:href="moving__average_8c.html#ae8fe422690653cafb6e68f34a5ec7658" target="_top" xlink:title=" ">
<polygon fill="white" stroke="#666666" points="313,-19 176,-19 176,0 313,0 313,-19"/>
<text text-anchor="middle" x="244.5" y="-7" font-family="Helvetica,sans-Serif" font-size="10.00">moving_average_update</text>
</a>
</g>
</g>
<!-- Node1&#45;&gt;Node5 -->
<g id="edge4_Node000001_Node000005" class="edge">
<title>Node1&#45;&gt;Node5</title>
<g id="a_edge4_Node000001_Node000005"><a xlink:title=" ">
<path fill="none" stroke="#63b8ff" d="M97.62,-54.91C118.77,-47.41 149.14,-36.88 176,-28.5 183.19,-26.26 190.85,-23.99 198.33,-21.84"/>
<polygon fill="#63b8ff" stroke="#63b8ff" points="199.34,-25.19 208.01,-19.09 197.43,-18.45 199.34,-25.19"/>
</a>
</g>
</g>
</g>
</svg>
