<?xml version="1.0" encoding="UTF-8" standalone="no"?>
<!DOCTYPE svg PUBLIC "-//W3C//DTD SVG 1.1//EN"
 "http://www.w3.org/Graphics/SVG/1.1/DTD/svg11.dtd">
<!-- Generated by graphviz version 2.43.0 (0)
 -->
<!-- Title: kalman_init_rtos Pages: 1 -->
<svg width="374pt" height="46pt"
 viewBox="0.00 0.00 374.00 46.00" xmlns="http://www.w3.org/2000/svg" xmlns:xlink="http://www.w3.org/1999/xlink">
<g id="graph0" class="graph" transform="scale(1 1) rotate(0) translate(4 42)">
<title>kalman_init_rtos</title>
<!-- Node1 -->
<g id="Node000001" class="node">
<title>Node1</title>
<g id="a_Node000001"><a xlink:title=" ">
<polygon fill="#999999" stroke="#666666" points="98,-38 0,-38 0,-19 98,-19 98,-38"/>
<text text-anchor="middle" x="49" y="-26" font-family="Helvetica,sans-Serif" font-size="10.00">kalman_init_rtos</text>
</a>
</g>
</g>
<!-- Node2 -->
<g id="Node000002" class="node">
<title>Node2</title>
<g id="a_Node000002"><a xlink:href="kalman__filter_8c.html#ac062a0fa3f2aaa889d7b3534dbbad89e" target="_top" xlink:title=" ">
<polygon fill="white" stroke="#666666" points="366,-38 292,-38 292,-19 366,-19 366,-38"/>
<text text-anchor="middle" x="329" y="-26" font-family="Helvetica,sans-Serif" font-size="10.00">kalman_init</text>
</a>
</g>
</g>
<!-- Node1&#45;&gt;Node2 -->
<g id="edge1_Node000001_Node000002" class="edge">
<title>Node1&#45;&gt;Node2</title>
<g id="a_edge1_Node000001_Node000002"><a xlink:title=" ">
<path fill="none" stroke="#63b8ff" d="M98.11,-28.5C149.72,-28.5 231.11,-28.5 281.92,-28.5"/>
<polygon fill="#63b8ff" stroke="#63b8ff" points="281.97,-32 291.97,-28.5 281.97,-25 281.97,-32"/>
</a>
</g>
</g>
<!-- Node3 -->
<g id="Node000003" class="node">
<title>Node3</title>
<g id="a_Node000003"><a xlink:href="kalman__filter_8c.html#a9343b8ac8c00a1f1b5d288fd921ece81" target="_top" xlink:title=" ">
<polygon fill="white" stroke="#666666" points="256,-19 134,-19 134,0 256,0 256,-19"/>
<text text-anchor="middle" x="195" y="-7" font-family="Helvetica,sans-Serif" font-size="10.00">kalman_init_adaptive</text>
</a>
</g>
</g>
<!-- Node1&#45;&gt;Node3 -->
<g id="edge2_Node000001_Node000003" class="edge">
<title>Node1&#45;&gt;Node3</title>
<g id="a_edge2_Node000001_Node000003"><a xlink:title=" ">
<path fill="none" stroke="#63b8ff" d="M98.35,-22.12C106.51,-21.04 115.13,-19.91 123.72,-18.77"/>
<polygon fill="#63b8ff" stroke="#63b8ff" points="124.3,-22.23 133.75,-17.45 123.38,-15.29 124.3,-22.23"/>
</a>
</g>
</g>
<!-- Node3&#45;&gt;Node2 -->
<g id="edge3_Node000003_Node000002" class="edge">
<title>Node3&#45;&gt;Node2</title>
<g id="a_edge3_Node000003_Node000002"><a xlink:title=" ">
<path fill="none" stroke="#63b8ff" d="M256.21,-18.17C264.72,-19.39 273.36,-20.63 281.55,-21.81"/>
<polygon fill="#63b8ff" stroke="#63b8ff" points="281.26,-25.31 291.66,-23.27 282.26,-18.38 281.26,-25.31"/>
</a>
</g>
</g>
</g>
</svg>
