<?xml version="1.0" encoding="UTF-8" standalone="no"?>
<!DOCTYPE svg PUBLIC "-//W3C//DTD SVG 1.1//EN"
 "http://www.w3.org/Graphics/SVG/1.1/DTD/svg11.dtd">
<!-- Generated by graphviz version 2.43.0 (0)
 -->
<!-- Title: main/kalman_filter/kalman_filter.c Pages: 1 -->
<svg width="311pt" height="148pt"
 viewBox="0.00 0.00 311.00 148.00" xmlns="http://www.w3.org/2000/svg" xmlns:xlink="http://www.w3.org/1999/xlink">
<g id="graph0" class="graph" transform="scale(1 1) rotate(0) translate(4 144)">
<title>main/kalman_filter/kalman_filter.c</title>
<!-- Node1 -->
<g id="Node000001" class="node">
<title>Node1</title>
<g id="a_Node000001"><a xlink:title=" ">
<polygon fill="#999999" stroke="#666666" points="179.5,-140 71.5,-140 71.5,-110 179.5,-110 179.5,-140"/>
<text text-anchor="start" x="79.5" y="-128" font-family="Helvetica,sans-Serif" font-size="10.00">main/kalman_filter</text>
<text text-anchor="middle" x="125.5" y="-117" font-family="Helvetica,sans-Serif" font-size="10.00">/kalman_filter.c</text>
</a>
</g>
</g>
<!-- Node2 -->
<g id="Node000002" class="node">
<title>Node2</title>
<g id="a_Node000002"><a xlink:href="kalman__filter_8h.html" target="_top" xlink:title=" ">
<polygon fill="white" stroke="#666666" points="170,-74 81,-74 81,-55 170,-55 170,-74"/>
<text text-anchor="middle" x="125.5" y="-62" font-family="Helvetica,sans-Serif" font-size="10.00">kalman_filter.h</text>
</a>
</g>
</g>
<!-- Node1&#45;&gt;Node2 -->
<g id="edge1_Node000001_Node000002" class="edge">
<title>Node1&#45;&gt;Node2</title>
<g id="a_edge1_Node000001_Node000002"><a xlink:title=" ">
<path fill="none" stroke="#63b8ff" d="M125.5,-109.84C125.5,-102.21 125.5,-92.7 125.5,-84.45"/>
<polygon fill="#63b8ff" stroke="#63b8ff" points="129,-84.27 125.5,-74.27 122,-84.27 129,-84.27"/>
</a>
</g>
</g>
<!-- Node3 -->
<g id="Node000003" class="node">
<title>Node3</title>
<g id="a_Node000003"><a xlink:title=" ">
<polygon fill="#e0e0e0" stroke="#999999" points="51,-19 0,-19 0,0 51,0 51,-19"/>
<text text-anchor="middle" x="25.5" y="-7" font-family="Helvetica,sans-Serif" font-size="10.00">math.h</text>
</a>
</g>
</g>
<!-- Node2&#45;&gt;Node3 -->
<g id="edge2_Node000002_Node000003" class="edge">
<title>Node2&#45;&gt;Node3</title>
<g id="a_edge2_Node000002_Node000003"><a xlink:title=" ">
<path fill="none" stroke="#63b8ff" d="M109.43,-54.98C93.64,-46.61 69.28,-33.7 50.87,-23.95"/>
<polygon fill="#63b8ff" stroke="#63b8ff" points="52.33,-20.76 41.86,-19.17 49.06,-26.95 52.33,-20.76"/>
</a>
</g>
</g>
<!-- Node4 -->
<g id="Node000004" class="node">
<title>Node4</title>
<g id="a_Node000004"><a xlink:title=" ">
<polygon fill="#e0e0e0" stroke="#999999" points="182,-19 69,-19 69,0 182,0 182,-19"/>
<text text-anchor="middle" x="125.5" y="-7" font-family="Helvetica,sans-Serif" font-size="10.00">freertos/FreeRTOS.h</text>
</a>
</g>
</g>
<!-- Node2&#45;&gt;Node4 -->
<g id="edge3_Node000002_Node000004" class="edge">
<title>Node2&#45;&gt;Node4</title>
<g id="a_edge3_Node000002_Node000004"><a xlink:title=" ">
<path fill="none" stroke="#63b8ff" d="M125.5,-54.75C125.5,-47.8 125.5,-37.85 125.5,-29.13"/>
<polygon fill="#63b8ff" stroke="#63b8ff" points="129,-29.09 125.5,-19.09 122,-29.09 129,-29.09"/>
</a>
</g>
</g>
<!-- Node5 -->
<g id="Node000005" class="node">
<title>Node5</title>
<g id="a_Node000005"><a xlink:title=" ">
<polygon fill="#e0e0e0" stroke="#999999" points="303,-19 200,-19 200,0 303,0 303,-19"/>
<text text-anchor="middle" x="251.5" y="-7" font-family="Helvetica,sans-Serif" font-size="10.00">freertos/semphr.h</text>
</a>
</g>
</g>
<!-- Node2&#45;&gt;Node5 -->
<g id="edge4_Node000002_Node000005" class="edge">
<title>Node2&#45;&gt;Node5</title>
<g id="a_edge4_Node000002_Node000005"><a xlink:title=" ">
<path fill="none" stroke="#63b8ff" d="M145.74,-54.98C166.2,-46.38 198.03,-32.99 221.43,-23.15"/>
<polygon fill="#63b8ff" stroke="#63b8ff" points="223.03,-26.27 230.89,-19.17 220.31,-19.82 223.03,-26.27"/>
</a>
</g>
</g>
</g>
</svg>
