<?xml version="1.0" encoding="UTF-8" standalone="no"?>
<!DOCTYPE svg PUBLIC "-//W3C//DTD SVG 1.1//EN"
 "http://www.w3.org/Graphics/SVG/1.1/DTD/svg11.dtd">
<!-- Generated by graphviz version 2.43.0 (0)
 -->
<!-- Title: kalman_init Pages: 1 -->
<svg width="603pt" height="64pt"
 viewBox="0.00 0.00 603.00 64.00" xmlns="http://www.w3.org/2000/svg" xmlns:xlink="http://www.w3.org/1999/xlink">
<g id="graph0" class="graph" transform="scale(1 1) rotate(0) translate(4 60)">
<title>kalman_init</title>
<!-- Node1 -->
<g id="Node000001" class="node">
<title>Node1</title>
<g id="a_Node000001"><a xlink:title=" ">
<polygon fill="#999999" stroke="#666666" points="595,-37 521,-37 521,-18 595,-18 595,-37"/>
<text text-anchor="middle" x="558" y="-25" font-family="Helvetica,sans-Serif" font-size="10.00">kalman_init</text>
</a>
</g>
</g>
<!-- Node2 -->
<g id="Node000002" class="node">
<title>Node2</title>
<g id="a_Node000002"><a xlink:href="kalman__filter_8c.html#a9343b8ac8c00a1f1b5d288fd921ece81" target="_top" xlink:title=" ">
<polygon fill="white" stroke="#666666" points="485,-56 363,-56 363,-37 485,-37 485,-56"/>
<text text-anchor="middle" x="424" y="-44" font-family="Helvetica,sans-Serif" font-size="10.00">kalman_init_adaptive</text>
</a>
</g>
</g>
<!-- Node1&#45;&gt;Node2 -->
<g id="edge1_Node000001_Node000002" class="edge">
<title>Node1&#45;&gt;Node2</title>
<g id="a_edge1_Node000001_Node000002"><a xlink:title=" ">
<path fill="none" stroke="#63b8ff" d="M511.02,-34.12C502.66,-35.32 493.84,-36.59 485.15,-37.84"/>
<polygon fill="#63b8ff" stroke="#63b8ff" points="511.53,-37.58 520.93,-32.69 510.53,-30.65 511.53,-37.58"/>
</a>
</g>
</g>
<!-- Node6 -->
<g id="Node000006" class="node">
<title>Node6</title>
<g id="a_Node000006"><a xlink:href="kalman__filter_8c.html#a1aac74c0f25a5003407861b074350a1d" target="_top" xlink:title=" ">
<polygon fill="white" stroke="#666666" points="327,-19 229,-19 229,0 327,0 327,-19"/>
<text text-anchor="middle" x="278" y="-7" font-family="Helvetica,sans-Serif" font-size="10.00">kalman_init_rtos</text>
</a>
</g>
</g>
<!-- Node1&#45;&gt;Node6 -->
<g id="edge7_Node000001_Node000006" class="edge">
<title>Node1&#45;&gt;Node6</title>
<g id="a_edge7_Node000001_Node000006"><a xlink:title=" ">
<path fill="none" stroke="#63b8ff" d="M510.89,-24.51C460.08,-21.22 378.72,-15.96 327.12,-12.62"/>
<polygon fill="#63b8ff" stroke="#63b8ff" points="510.74,-28.01 520.94,-25.17 511.19,-21.03 510.74,-28.01"/>
</a>
</g>
</g>
<!-- Node3 -->
<g id="Node000003" class="node">
<title>Node3</title>
<g id="a_Node000003"><a xlink:href="hx711_8c.html#af597cc145be81ec0898873fc0a2e8261" target="_top" xlink:title=" ">
<polygon fill="white" stroke="#666666" points="312,-56 244,-56 244,-37 312,-37 312,-56"/>
<text text-anchor="middle" x="278" y="-44" font-family="Helvetica,sans-Serif" font-size="10.00">hx711_init</text>
</a>
</g>
</g>
<!-- Node2&#45;&gt;Node3 -->
<g id="edge2_Node000002_Node000003" class="edge">
<title>Node2&#45;&gt;Node3</title>
<g id="a_edge2_Node000002_Node000003"><a xlink:title=" ">
<path fill="none" stroke="#63b8ff" d="M352.57,-46.5C338.52,-46.5 324.38,-46.5 312.31,-46.5"/>
<polygon fill="#63b8ff" stroke="#63b8ff" points="352.77,-50 362.77,-46.5 352.77,-43 352.77,-50"/>
</a>
</g>
</g>
<!-- Node2&#45;&gt;Node6 -->
<g id="edge6_Node000002_Node000006" class="edge">
<title>Node2&#45;&gt;Node6</title>
<g id="a_edge6_Node000002_Node000006"><a xlink:title=" ">
<path fill="none" stroke="#63b8ff" d="M376.09,-34.45C356.77,-29.48 334.68,-23.81 316.46,-19.12"/>
<polygon fill="#63b8ff" stroke="#63b8ff" points="375.36,-37.87 385.92,-36.97 377.1,-31.09 375.36,-37.87"/>
</a>
</g>
</g>
<!-- Node4 -->
<g id="Node000004" class="node">
<title>Node4</title>
<g id="a_Node000004"><a xlink:href="main_8c.html#a630544a7f0a2cc40d8a7fefab7e2fe70" target="_top" xlink:title=" ">
<polygon fill="white" stroke="#666666" points="65,-56 0,-56 0,-37 65,-37 65,-56"/>
<text text-anchor="middle" x="32.5" y="-44" font-family="Helvetica,sans-Serif" font-size="10.00">app_main</text>
</a>
</g>
</g>
<!-- Node3&#45;&gt;Node4 -->
<g id="edge3_Node000003_Node000004" class="edge">
<title>Node3&#45;&gt;Node4</title>
<g id="a_edge3_Node000003_Node000004"><a xlink:title=" ">
<path fill="none" stroke="#63b8ff" d="M233.77,-46.5C185.48,-46.5 108.46,-46.5 65.36,-46.5"/>
<polygon fill="#63b8ff" stroke="#63b8ff" points="233.91,-50 243.91,-46.5 233.91,-43 233.91,-50"/>
</a>
</g>
</g>
<!-- Node5 -->
<g id="Node000005" class="node">
<title>Node5</title>
<g id="a_Node000005"><a xlink:href="hx711_8c.html#aa3f2bd6b7c47bcd3ccbafcad4e942dd3" target="_top" xlink:title=" ">
<polygon fill="white" stroke="#666666" points="193,-37 101,-37 101,-18 193,-18 193,-37"/>
<text text-anchor="middle" x="147" y="-25" font-family="Helvetica,sans-Serif" font-size="10.00">hx711_init_rtos</text>
</a>
</g>
</g>
<!-- Node3&#45;&gt;Node5 -->
<g id="edge4_Node000003_Node000005" class="edge">
<title>Node3&#45;&gt;Node5</title>
<g id="a_edge4_Node000003_Node000005"><a xlink:title=" ">
<path fill="none" stroke="#63b8ff" d="M233.68,-40.12C220.68,-38.2 206.38,-36.1 193.26,-34.17"/>
<polygon fill="#63b8ff" stroke="#63b8ff" points="233.38,-43.61 243.78,-41.61 234.4,-36.69 233.38,-43.61"/>
</a>
</g>
</g>
<!-- Node5&#45;&gt;Node4 -->
<g id="edge5_Node000005_Node000004" class="edge">
<title>Node5&#45;&gt;Node4</title>
<g id="a_edge5_Node000005_Node000004"><a xlink:title=" ">
<path fill="none" stroke="#63b8ff" d="M90.95,-36.8C82.09,-38.29 73.19,-39.8 65.13,-41.16"/>
<polygon fill="#63b8ff" stroke="#63b8ff" points="91.61,-40.24 100.89,-35.12 90.45,-33.33 91.61,-40.24"/>
</a>
</g>
</g>
</g>
</svg>
