<?xml version="1.0" encoding="UTF-8" standalone="no"?>
<!DOCTYPE svg PUBLIC "-//W3C//DTD SVG 1.1//EN"
 "http://www.w3.org/Graphics/SVG/1.1/DTD/svg11.dtd">
<!-- Generated by graphviz version 2.43.0 (0)
 -->
<!-- Title: kalman_update_adaptive Pages: 1 -->
<svg width="750pt" height="102pt"
 viewBox="0.00 0.00 750.00 102.00" xmlns="http://www.w3.org/2000/svg" xmlns:xlink="http://www.w3.org/1999/xlink">
<g id="graph0" class="graph" transform="scale(1 1) rotate(0) translate(4 98)">
<title>kalman_update_adaptive</title>
<!-- Node1 -->
<g id="Node000001" class="node">
<title>Node1</title>
<g id="a_Node000001"><a xlink:title=" ">
<polygon fill="#999999" stroke="#666666" points="742,-56 602,-56 602,-37 742,-37 742,-56"/>
<text text-anchor="middle" x="672" y="-44" font-family="Helvetica,sans-Serif" font-size="10.00">kalman_update_adaptive</text>
</a>
</g>
</g>
<!-- Node2 -->
<g id="Node000002" class="node">
<title>Node2</title>
<g id="a_Node000002"><a xlink:href="hx711_8c.html#af597cc145be81ec0898873fc0a2e8261" target="_top" xlink:title=" ">
<polygon fill="white" stroke="#666666" points="331.5,-94 263.5,-94 263.5,-75 331.5,-75 331.5,-94"/>
<text text-anchor="middle" x="297.5" y="-82" font-family="Helvetica,sans-Serif" font-size="10.00">hx711_init</text>
</a>
</g>
</g>
<!-- Node1&#45;&gt;Node2 -->
<g id="edge1_Node000001_Node000002" class="edge">
<title>Node1&#45;&gt;Node2</title>
<g id="a_edge1_Node000001_Node000002"><a xlink:title=" ">
<path fill="none" stroke="#63b8ff" d="M614.57,-57.87C598.9,-60.71 581.83,-63.51 566,-65.5 481.93,-76.06 382.19,-81.21 331.56,-83.3"/>
<polygon fill="#63b8ff" stroke="#63b8ff" points="615.45,-61.26 624.65,-56 614.18,-54.38 615.45,-61.26"/>
</a>
</g>
</g>
<!-- Node5 -->
<g id="Node000005" class="node">
<title>Node5</title>
<g id="a_Node000005"><a xlink:href="hx711_8c.html#af0a6adda73c183ed8b4dbd127ff5b35a" target="_top" xlink:title=" ">
<polygon fill="white" stroke="#666666" points="540.5,-56 427.5,-56 427.5,-37 540.5,-37 540.5,-56"/>
<text text-anchor="middle" x="484" y="-44" font-family="Helvetica,sans-Serif" font-size="10.00">hx711_read_filtered</text>
</a>
</g>
</g>
<!-- Node1&#45;&gt;Node5 -->
<g id="edge5_Node000001_Node000005" class="edge">
<title>Node1&#45;&gt;Node5</title>
<g id="a_edge5_Node000001_Node000005"><a xlink:title=" ">
<path fill="none" stroke="#63b8ff" d="M591.72,-46.5C574.54,-46.5 556.72,-46.5 540.68,-46.5"/>
<polygon fill="#63b8ff" stroke="#63b8ff" points="591.74,-50 601.74,-46.5 591.74,-43 591.74,-50"/>
</a>
</g>
</g>
<!-- Node8 -->
<g id="Node000008" class="node">
<title>Node8</title>
<g id="a_Node000008"><a xlink:href="kalman__filter_8c.html#a6a5c2f67c9e2778a302951971c746815" target="_top" xlink:title=" ">
<polygon fill="white" stroke="#666666" points="566,-19 402,-19 402,0 566,0 566,-19"/>
<text text-anchor="middle" x="484" y="-7" font-family="Helvetica,sans-Serif" font-size="10.00">kalman_update_adaptive_rtos</text>
</a>
</g>
</g>
<!-- Node1&#45;&gt;Node8 -->
<g id="edge9_Node000001_Node000008" class="edge">
<title>Node1&#45;&gt;Node8</title>
<g id="a_edge9_Node000001_Node000008"><a xlink:title=" ">
<path fill="none" stroke="#63b8ff" d="M613.11,-34.98C587.4,-29.87 557.51,-23.92 533.06,-19.06"/>
<polygon fill="#63b8ff" stroke="#63b8ff" points="612.61,-38.45 623.1,-36.97 613.98,-31.59 612.61,-38.45"/>
</a>
</g>
</g>
<!-- Node3 -->
<g id="Node000003" class="node">
<title>Node3</title>
<g id="a_Node000003"><a xlink:href="main_8c.html#a630544a7f0a2cc40d8a7fefab7e2fe70" target="_top" xlink:title=" ">
<polygon fill="white" stroke="#666666" points="65,-75 0,-75 0,-56 65,-56 65,-75"/>
<text text-anchor="middle" x="32.5" y="-63" font-family="Helvetica,sans-Serif" font-size="10.00">app_main</text>
</a>
</g>
</g>
<!-- Node2&#45;&gt;Node3 -->
<g id="edge2_Node000002_Node000003" class="edge">
<title>Node2&#45;&gt;Node3</title>
<g id="a_edge2_Node000002_Node000003"><a xlink:title=" ">
<path fill="none" stroke="#63b8ff" d="M253.39,-81.39C200.61,-77.57 112.44,-71.2 65.38,-67.8"/>
<polygon fill="#63b8ff" stroke="#63b8ff" points="253.23,-84.88 263.46,-82.11 253.74,-77.9 253.23,-84.88"/>
</a>
</g>
</g>
<!-- Node4 -->
<g id="Node000004" class="node">
<title>Node4</title>
<g id="a_Node000004"><a xlink:href="hx711_8c.html#aa3f2bd6b7c47bcd3ccbafcad4e942dd3" target="_top" xlink:title=" ">
<polygon fill="white" stroke="#666666" points="193,-56 101,-56 101,-37 193,-37 193,-56"/>
<text text-anchor="middle" x="147" y="-44" font-family="Helvetica,sans-Serif" font-size="10.00">hx711_init_rtos</text>
</a>
</g>
</g>
<!-- Node2&#45;&gt;Node4 -->
<g id="edge3_Node000002_Node000004" class="edge">
<title>Node2&#45;&gt;Node4</title>
<g id="a_edge3_Node000002_Node000004"><a xlink:title=" ">
<path fill="none" stroke="#63b8ff" d="M253.27,-73.44C231.68,-67.91 205.81,-61.29 185.13,-56"/>
<polygon fill="#63b8ff" stroke="#63b8ff" points="252.62,-76.88 263.17,-75.97 254.35,-70.1 252.62,-76.88"/>
</a>
</g>
</g>
<!-- Node4&#45;&gt;Node3 -->
<g id="edge4_Node000004_Node000003" class="edge">
<title>Node4&#45;&gt;Node3</title>
<g id="a_edge4_Node000004_Node000003"><a xlink:title=" ">
<path fill="none" stroke="#63b8ff" d="M90.95,-55.8C82.09,-57.29 73.19,-58.8 65.13,-60.16"/>
<polygon fill="#63b8ff" stroke="#63b8ff" points="91.61,-59.24 100.89,-54.12 90.45,-52.33 91.61,-59.24"/>
</a>
</g>
</g>
<!-- Node6 -->
<g id="Node000006" class="node">
<title>Node6</title>
<g id="a_Node000006"><a xlink:href="hx711_8c.html#ac6c8066eeca1a4549359b2da8deda8f9" target="_top" xlink:title=" ">
<polygon fill="white" stroke="#666666" points="366,-57 229,-57 229,-38 366,-38 366,-57"/>
<text text-anchor="middle" x="297.5" y="-45" font-family="Helvetica,sans-Serif" font-size="10.00">hx711_read_filtered_rtos</text>
</a>
</g>
</g>
<!-- Node5&#45;&gt;Node6 -->
<g id="edge6_Node000005_Node000006" class="edge">
<title>Node5&#45;&gt;Node6</title>
<g id="a_edge6_Node000005_Node000006"><a xlink:title=" ">
<path fill="none" stroke="#63b8ff" d="M417.23,-46.86C400.62,-46.95 382.75,-47.04 366.05,-47.13"/>
<polygon fill="#63b8ff" stroke="#63b8ff" points="417.41,-50.36 427.39,-46.8 417.37,-43.36 417.41,-50.36"/>
</a>
</g>
</g>
<!-- Node7 -->
<g id="Node000007" class="node">
<title>Node7</title>
<g id="a_Node000007"><a xlink:href="hx711_8c.html#a985ea3f202ebc30a95f6bc340b15ef1e" target="_top" xlink:title=" ">
<polygon fill="white" stroke="#666666" points="346,-20 249,-20 249,-1 346,-1 346,-20"/>
<text text-anchor="middle" x="297.5" y="-8" font-family="Helvetica,sans-Serif" font-size="10.00">hx711_rtos_task</text>
</a>
</g>
</g>
<!-- Node5&#45;&gt;Node7 -->
<g id="edge7_Node000005_Node000007" class="edge">
<title>Node5&#45;&gt;Node7</title>
<g id="a_edge7_Node000005_Node000007"><a xlink:title=" ">
<path fill="none" stroke="#63b8ff" d="M424.22,-35.03C399.01,-30.11 369.93,-24.44 346.09,-19.79"/>
<polygon fill="#63b8ff" stroke="#63b8ff" points="423.56,-38.47 434.04,-36.95 424.9,-31.6 423.56,-38.47"/>
</a>
</g>
</g>
<!-- Node7&#45;&gt;Node4 -->
<g id="edge8_Node000007_Node000004" class="edge">
<title>Node7&#45;&gt;Node4</title>
<g id="a_edge8_Node000007_Node000004"><a xlink:title=" ">
<path fill="none" stroke="#63b8ff" d="M247.19,-22.45C227.73,-27.17 205.69,-32.52 187.33,-36.97"/>
<polygon fill="#63b8ff" stroke="#63b8ff" points="248.2,-25.81 257.09,-20.05 246.55,-19.01 248.2,-25.81"/>
</a>
</g>
</g>
</g>
</svg>
