<?xml version="1.0" encoding="UTF-8" standalone="no"?>
<!DOCTYPE svg PUBLIC "-//W3C//DTD SVG 1.1//EN"
 "http://www.w3.org/Graphics/SVG/1.1/DTD/svg11.dtd">
<!-- Generated by graphviz version 2.43.0 (0)
 -->
<!-- Title: main/log_utils/log_utils.h Pages: 1 -->
<svg width="515pt" height="104pt"
 viewBox="0.00 0.00 514.50 104.00" xmlns="http://www.w3.org/2000/svg" xmlns:xlink="http://www.w3.org/1999/xlink">
<g id="graph0" class="graph" transform="scale(1 1) rotate(0) translate(4 100)">
<title>main/log_utils/log_utils.h</title>
<!-- Node1 -->
<g id="Node000001" class="node">
<title>Node1</title>
<g id="a_Node000001"><a xlink:title=" ">
<polygon fill="#999999" stroke="#666666" points="279.5,-96 175.5,-96 175.5,-66 279.5,-66 279.5,-96"/>
<text text-anchor="start" x="183.5" y="-84" font-family="Helvetica,sans-Serif" font-size="10.00">main/log_utils/log</text>
<text text-anchor="middle" x="227.5" y="-73" font-family="Helvetica,sans-Serif" font-size="10.00">_utils.h</text>
</a>
</g>
</g>
<!-- Node2 -->
<g id="Node000002" class="node">
<title>Node2</title>
<g id="a_Node000002"><a xlink:href="main_8c.html" target="_top" xlink:title=" ">
<polygon fill="white" stroke="#666666" points="77,-24.5 0,-24.5 0,-5.5 77,-5.5 77,-24.5"/>
<text text-anchor="middle" x="38.5" y="-12.5" font-family="Helvetica,sans-Serif" font-size="10.00">main/main.c</text>
</a>
</g>
</g>
<!-- Node1&#45;&gt;Node2 -->
<g id="edge1_Node000001_Node000002" class="edge">
<title>Node1&#45;&gt;Node2</title>
<g id="a_edge1_Node000001_Node000002"><a xlink:title=" ">
<path fill="none" stroke="#63b8ff" d="M176.52,-62.74C139.98,-50.36 92.34,-34.23 63.65,-24.52"/>
<polygon fill="#63b8ff" stroke="#63b8ff" points="175.43,-66.06 186.02,-65.95 177.67,-59.43 175.43,-66.06"/>
</a>
</g>
</g>
<!-- Node3 -->
<g id="Node000003" class="node">
<title>Node3</title>
<g id="a_Node000003"><a xlink:href="sntp__synch_8c.html" target="_top" xlink:title=" ">
<polygon fill="white" stroke="#666666" points="218,-30 95,-30 95,0 218,0 218,-30"/>
<text text-anchor="start" x="103" y="-18" font-family="Helvetica,sans-Serif" font-size="10.00">main/sntp_synch/sntp</text>
<text text-anchor="middle" x="156.5" y="-7" font-family="Helvetica,sans-Serif" font-size="10.00">_synch.c</text>
</a>
</g>
</g>
<!-- Node1&#45;&gt;Node3 -->
<g id="edge2_Node000001_Node000003" class="edge">
<title>Node1&#45;&gt;Node3</title>
<g id="a_edge2_Node000001_Node000003"><a xlink:title=" ">
<path fill="none" stroke="#63b8ff" d="M204.12,-58.92C193.65,-49.49 181.58,-38.61 172.21,-30.16"/>
<polygon fill="#63b8ff" stroke="#63b8ff" points="201.97,-61.7 211.74,-65.8 206.66,-56.5 201.97,-61.7"/>
</a>
</g>
</g>
<!-- Node4 -->
<g id="Node000004" class="node">
<title>Node4</title>
<g id="a_Node000004"><a xlink:href="weight__manager_8c.html" target="_top" xlink:title=" ">
<polygon fill="white" stroke="#666666" points="362.5,-30 236.5,-30 236.5,0 362.5,0 362.5,-30"/>
<text text-anchor="start" x="244.5" y="-18" font-family="Helvetica,sans-Serif" font-size="10.00">main/weight_manager</text>
<text text-anchor="middle" x="299.5" y="-7" font-family="Helvetica,sans-Serif" font-size="10.00">/weight_manager.c</text>
</a>
</g>
</g>
<!-- Node1&#45;&gt;Node4 -->
<g id="edge3_Node000001_Node000004" class="edge">
<title>Node1&#45;&gt;Node4</title>
<g id="a_edge3_Node000001_Node000004"><a xlink:title=" ">
<path fill="none" stroke="#63b8ff" d="M251.21,-58.92C261.83,-49.49 274.07,-38.61 283.57,-30.16"/>
<polygon fill="#63b8ff" stroke="#63b8ff" points="248.63,-56.54 243.48,-65.8 253.28,-61.77 248.63,-56.54"/>
</a>
</g>
</g>
<!-- Node5 -->
<g id="Node000005" class="node">
<title>Node5</title>
<g id="a_Node000005"><a xlink:href="wifi__comm_8c.html" target="_top" xlink:title=" ">
<polygon fill="white" stroke="#666666" points="506.5,-24.5 380.5,-24.5 380.5,-5.5 506.5,-5.5 506.5,-24.5"/>
<text text-anchor="middle" x="443.5" y="-12.5" font-family="Helvetica,sans-Serif" font-size="10.00">main/wifi/wifi_comm.c</text>
</a>
</g>
</g>
<!-- Node1&#45;&gt;Node5 -->
<g id="edge4_Node000001_Node000005" class="edge">
<title>Node1&#45;&gt;Node5</title>
<g id="a_edge4_Node000001_Node000005"><a xlink:title=" ">
<path fill="none" stroke="#63b8ff" d="M284.7,-63.05C326.6,-50.64 381.7,-34.31 414.75,-24.52"/>
<polygon fill="#63b8ff" stroke="#63b8ff" points="283.5,-59.76 274.9,-65.95 285.48,-66.47 283.5,-59.76"/>
</a>
</g>
</g>
</g>
</svg>
