<?xml version="1.0" encoding="UTF-8" standalone="no"?>
<!DOCTYPE svg PUBLIC "-//W3C//DTD SVG 1.1//EN"
 "http://www.w3.org/Graphics/SVG/1.1/DTD/svg11.dtd">
<!-- Generated by graphviz version 2.43.0 (0)
 -->
<!-- Title: main/main.c Pages: 1 -->
<svg width="1017pt" height="192pt"
 viewBox="0.00 0.00 1016.50 192.00" xmlns="http://www.w3.org/2000/svg" xmlns:xlink="http://www.w3.org/1999/xlink">
<g id="graph0" class="graph" transform="scale(1 1) rotate(0) translate(4 188)">
<title>main/main.c</title>
<!-- Node1 -->
<g id="Node000001" class="node">
<title>Node1</title>
<g id="a_Node000001"><a xlink:title=" ">
<polygon fill="#999999" stroke="#666666" points="526.5,-184 449.5,-184 449.5,-165 526.5,-165 526.5,-184"/>
<text text-anchor="middle" x="488" y="-172" font-family="Helvetica,sans-Serif" font-size="10.00">main/main.c</text>
</a>
</g>
</g>
<!-- Node2 -->
<g id="Node000002" class="node">
<title>Node2</title>
<g id="a_Node000002"><a xlink:title=" ">
<polygon fill="#e0e0e0" stroke="#999999" points="50,-74 0,-74 0,-55 50,-55 50,-74"/>
<text text-anchor="middle" x="25" y="-62" font-family="Helvetica,sans-Serif" font-size="10.00">stdio.h</text>
</a>
</g>
</g>
<!-- Node1&#45;&gt;Node2 -->
<g id="edge1_Node000001_Node000002" class="edge">
<title>Node1&#45;&gt;Node2</title>
<g id="a_edge1_Node000001_Node000002"><a xlink:title=" ">
<path fill="none" stroke="#63b8ff" d="M449.32,-171.03C367.91,-165.47 181.52,-150.75 122,-129 91.48,-117.85 60.88,-95.51 42.44,-80.53"/>
<polygon fill="#63b8ff" stroke="#63b8ff" points="44.56,-77.74 34.64,-74.04 40.08,-83.12 44.56,-77.74"/>
</a>
</g>
</g>
<!-- Node3 -->
<g id="Node000003" class="node">
<title>Node3</title>
<g id="a_Node000003"><a xlink:title=" ">
<polygon fill="#e0e0e0" stroke="#999999" points="133.5,-74 68.5,-74 68.5,-55 133.5,-55 133.5,-74"/>
<text text-anchor="middle" x="101" y="-62" font-family="Helvetica,sans-Serif" font-size="10.00">inttypes.h</text>
</a>
</g>
</g>
<!-- Node1&#45;&gt;Node3 -->
<g id="edge2_Node000001_Node000003" class="edge">
<title>Node1&#45;&gt;Node3</title>
<g id="a_edge2_Node000001_Node000003"><a xlink:title=" ">
<path fill="none" stroke="#63b8ff" d="M449.33,-172.32C370.93,-169.32 196.4,-159.34 146,-129 128.51,-118.47 115.98,-98.24 108.66,-83.44"/>
<polygon fill="#63b8ff" stroke="#63b8ff" points="111.79,-81.86 104.42,-74.24 105.43,-84.79 111.79,-81.86"/>
</a>
</g>
</g>
<!-- Node4 -->
<g id="Node000004" class="node">
<title>Node4</title>
<g id="a_Node000004"><a xlink:title=" ">
<polygon fill="#e0e0e0" stroke="#999999" points="816.5,-74 703.5,-74 703.5,-55 816.5,-55 816.5,-74"/>
<text text-anchor="middle" x="760" y="-62" font-family="Helvetica,sans-Serif" font-size="10.00">freertos/FreeRTOS.h</text>
</a>
</g>
</g>
<!-- Node1&#45;&gt;Node4 -->
<g id="edge3_Node000001_Node000004" class="edge">
<title>Node1&#45;&gt;Node4</title>
<g id="a_edge3_Node000001_Node000004"><a xlink:title=" ">
<path fill="none" stroke="#63b8ff" d="M526.97,-170.71C587.35,-165.69 699.79,-153.31 731,-129 745.17,-117.96 752.65,-98.42 756.44,-83.92"/>
<polygon fill="#63b8ff" stroke="#63b8ff" points="759.89,-84.56 758.67,-74.04 753.06,-83.03 759.89,-84.56"/>
</a>
</g>
</g>
<!-- Node5 -->
<g id="Node000005" class="node">
<title>Node5</title>
<g id="a_Node000005"><a xlink:title=" ">
<polygon fill="#e0e0e0" stroke="#999999" points="532,-74 444,-74 444,-55 532,-55 532,-74"/>
<text text-anchor="middle" x="488" y="-62" font-family="Helvetica,sans-Serif" font-size="10.00">freertos/task.h</text>
</a>
</g>
</g>
<!-- Node1&#45;&gt;Node5 -->
<g id="edge4_Node000001_Node000005" class="edge">
<title>Node1&#45;&gt;Node5</title>
<g id="a_edge4_Node000001_Node000005"><a xlink:title=" ">
<path fill="none" stroke="#63b8ff" d="M488,-164.66C488,-147.17 488,-107.8 488,-84.27"/>
<polygon fill="#63b8ff" stroke="#63b8ff" points="491.5,-84.16 488,-74.16 484.5,-84.16 491.5,-84.16"/>
</a>
</g>
</g>
<!-- Node6 -->
<g id="Node000006" class="node">
<title>Node6</title>
<g id="a_Node000006"><a xlink:title=" ">
<polygon fill="#e0e0e0" stroke="#999999" points="307.5,-74 244.5,-74 244.5,-55 307.5,-55 307.5,-74"/>
<text text-anchor="middle" x="276" y="-62" font-family="Helvetica,sans-Serif" font-size="10.00">esp_log.h</text>
</a>
</g>
</g>
<!-- Node1&#45;&gt;Node6 -->
<g id="edge5_Node000001_Node000006" class="edge">
<title>Node1&#45;&gt;Node6</title>
<g id="a_edge5_Node000001_Node000006"><a xlink:title=" ">
<path fill="none" stroke="#63b8ff" d="M449.39,-166.16C419.74,-159.42 378.51,-147.62 346,-129 324.1,-116.46 303.25,-96.06 290.09,-81.78"/>
<polygon fill="#63b8ff" stroke="#63b8ff" points="292.56,-79.29 283.28,-74.18 287.35,-83.97 292.56,-79.29"/>
</a>
</g>
</g>
<!-- Node7 -->
<g id="Node000007" class="node">
<title>Node7</title>
<g id="a_Node000007"><a xlink:href="log__utils_8h.html" target="_top" xlink:title=" ">
<polygon fill="white" stroke="#666666" points="222.5,-129 155.5,-129 155.5,-110 222.5,-110 222.5,-129"/>
<text text-anchor="middle" x="189" y="-117" font-family="Helvetica,sans-Serif" font-size="10.00">log_utils.h</text>
</a>
</g>
</g>
<!-- Node1&#45;&gt;Node7 -->
<g id="edge6_Node000001_Node000007" class="edge">
<title>Node1&#45;&gt;Node7</title>
<g id="a_edge6_Node000001_Node000007"><a xlink:title=" ">
<path fill="none" stroke="#63b8ff" d="M449.22,-166.63C393.47,-156.74 290.99,-138.58 232.65,-128.24"/>
<polygon fill="#63b8ff" stroke="#63b8ff" points="233.1,-124.76 222.64,-126.46 231.88,-131.66 233.1,-124.76"/>
</a>
</g>
</g>
<!-- Node9 -->
<g id="Node000009" class="node">
<title>Node9</title>
<g id="a_Node000009"><a xlink:href="wifi__comm_8h.html" target="_top" xlink:title=" ">
<polygon fill="white" stroke="#666666" points="434.5,-129 355.5,-129 355.5,-110 434.5,-110 434.5,-129"/>
<text text-anchor="middle" x="395" y="-117" font-family="Helvetica,sans-Serif" font-size="10.00">wifi_comm.h</text>
</a>
</g>
</g>
<!-- Node1&#45;&gt;Node9 -->
<g id="edge11_Node000001_Node000009" class="edge">
<title>Node1&#45;&gt;Node9</title>
<g id="a_edge11_Node000001_Node000009"><a xlink:title=" ">
<path fill="none" stroke="#63b8ff" d="M473.06,-164.98C458.5,-156.69 436.13,-143.94 419.07,-134.22"/>
<polygon fill="#63b8ff" stroke="#63b8ff" points="420.64,-131.08 410.21,-129.17 417.17,-137.16 420.64,-131.08"/>
</a>
</g>
</g>
<!-- Node12 -->
<g id="Node000012" class="node">
<title>Node12</title>
<g id="a_Node000012"><a xlink:href="hx711_8h.html" target="_top" xlink:title=" ">
<polygon fill="white" stroke="#666666" points="588,-129 532,-129 532,-110 588,-110 588,-129"/>
<text text-anchor="middle" x="560" y="-117" font-family="Helvetica,sans-Serif" font-size="10.00">hx711.h</text>
</a>
</g>
</g>
<!-- Node1&#45;&gt;Node12 -->
<g id="edge14_Node000001_Node000012" class="edge">
<title>Node1&#45;&gt;Node12</title>
<g id="a_edge14_Node000001_Node000012"><a xlink:title=" ">
<path fill="none" stroke="#63b8ff" d="M499.57,-164.98C510.42,-157 526.88,-144.88 539.88,-135.31"/>
<polygon fill="#63b8ff" stroke="#63b8ff" points="542.24,-137.92 548.22,-129.17 538.09,-132.28 542.24,-137.92"/>
</a>
</g>
</g>
<!-- Node14 -->
<g id="Node000014" class="node">
<title>Node14</title>
<g id="a_Node000014"><a xlink:title=" ">
<polygon fill="#e0e0e0" stroke="#999999" points="913,-74 835,-74 835,-55 913,-55 913,-74"/>
<text text-anchor="middle" x="874" y="-62" font-family="Helvetica,sans-Serif" font-size="10.00">driver/gpio.h</text>
</a>
</g>
</g>
<!-- Node1&#45;&gt;Node14 -->
<g id="edge21_Node000001_Node000014" class="edge">
<title>Node1&#45;&gt;Node14</title>
<g id="a_edge21_Node000001_Node000014"><a xlink:title=" ">
<path fill="none" stroke="#63b8ff" d="M526.51,-170.8C578.74,-166.28 674.44,-155 752,-129 788.98,-116.61 828.43,-94.18 852.15,-79.57"/>
<polygon fill="#63b8ff" stroke="#63b8ff" points="854.1,-82.48 860.72,-74.2 850.38,-76.54 854.1,-82.48"/>
</a>
</g>
</g>
<!-- Node16 -->
<g id="Node000016" class="node">
<title>Node16</title>
<g id="a_Node000016"><a xlink:href="weight__manager_8h.html" target="_top" xlink:title=" ">
<polygon fill="white" stroke="#666666" points="722.5,-129 615.5,-129 615.5,-110 722.5,-110 722.5,-129"/>
<text text-anchor="middle" x="669" y="-117" font-family="Helvetica,sans-Serif" font-size="10.00">weight_manager.h</text>
</a>
</g>
</g>
<!-- Node1&#45;&gt;Node16 -->
<g id="edge22_Node000001_Node000016" class="edge">
<title>Node1&#45;&gt;Node16</title>
<g id="a_edge22_Node000001_Node000016"><a xlink:title=" ">
<path fill="none" stroke="#63b8ff" d="M517.08,-164.98C547.6,-156.05 595.76,-141.94 629.66,-132.02"/>
<polygon fill="#63b8ff" stroke="#63b8ff" points="631.08,-135.25 639.69,-129.08 629.11,-128.53 631.08,-135.25"/>
</a>
</g>
</g>
<!-- Node17 -->
<g id="Node000017" class="node">
<title>Node17</title>
<g id="a_Node000017"><a xlink:href="calibration_8h.html" target="_top" xlink:title=" ">
<polygon fill="white" stroke="#666666" points="1008.5,-74 931.5,-74 931.5,-55 1008.5,-55 1008.5,-74"/>
<text text-anchor="middle" x="970" y="-62" font-family="Helvetica,sans-Serif" font-size="10.00">calibration.h</text>
</a>
</g>
</g>
<!-- Node1&#45;&gt;Node17 -->
<g id="edge28_Node000001_Node000017" class="edge">
<title>Node1&#45;&gt;Node17</title>
<g id="a_edge28_Node000001_Node000017"><a xlink:title=" ">
<path fill="none" stroke="#63b8ff" d="M526.81,-170.1C584.43,-164.53 695.72,-151.73 788,-129 842.95,-115.47 904.72,-92.11 940.32,-77.8"/>
<polygon fill="#63b8ff" stroke="#63b8ff" points="941.69,-81.03 949.64,-74.03 939.06,-74.54 941.69,-81.03"/>
</a>
</g>
</g>
<!-- Node7&#45;&gt;Node2 -->
<g id="edge10_Node000007_Node000002" class="edge">
<title>Node7&#45;&gt;Node2</title>
<g id="a_edge10_Node000007_Node000002"><a xlink:title=" ">
<path fill="none" stroke="#63b8ff" d="M162.65,-109.98C134.83,-100.99 90.83,-86.77 60.08,-76.84"/>
<polygon fill="#63b8ff" stroke="#63b8ff" points="60.8,-73.39 50.21,-73.65 58.65,-80.05 60.8,-73.39"/>
</a>
</g>
</g>
<!-- Node7&#45;&gt;Node3 -->
<g id="edge9_Node000007_Node000003" class="edge">
<title>Node7&#45;&gt;Node3</title>
<g id="a_edge9_Node000007_Node000003"><a xlink:title=" ">
<path fill="none" stroke="#63b8ff" d="M174.86,-109.98C161.21,-101.77 140.31,-89.18 124.22,-79.49"/>
<polygon fill="#63b8ff" stroke="#63b8ff" points="125.77,-76.33 115.4,-74.17 122.16,-82.33 125.77,-76.33"/>
</a>
</g>
</g>
<!-- Node7&#45;&gt;Node6 -->
<g id="edge8_Node000007_Node000006" class="edge">
<title>Node7&#45;&gt;Node6</title>
<g id="a_edge8_Node000007_Node000006"><a xlink:title=" ">
<path fill="none" stroke="#63b8ff" d="M202.98,-109.98C216.47,-101.77 237.13,-89.18 253.04,-79.49"/>
<polygon fill="#63b8ff" stroke="#63b8ff" points="255.05,-82.36 261.77,-74.17 251.41,-76.38 255.05,-82.36"/>
</a>
</g>
</g>
<!-- Node8 -->
<g id="Node000008" class="node">
<title>Node8</title>
<g id="a_Node000008"><a xlink:title=" ">
<polygon fill="#e0e0e0" stroke="#999999" points="226,-74 152,-74 152,-55 226,-55 226,-74"/>
<text text-anchor="middle" x="189" y="-62" font-family="Helvetica,sans-Serif" font-size="10.00">esp_timer.h</text>
</a>
</g>
</g>
<!-- Node7&#45;&gt;Node8 -->
<g id="edge7_Node000007_Node000008" class="edge">
<title>Node7&#45;&gt;Node8</title>
<g id="a_edge7_Node000007_Node000008"><a xlink:title=" ">
<path fill="none" stroke="#63b8ff" d="M189,-109.75C189,-102.8 189,-92.85 189,-84.13"/>
<polygon fill="#63b8ff" stroke="#63b8ff" points="192.5,-84.09 189,-74.09 185.5,-84.09 192.5,-84.09"/>
</a>
</g>
</g>
<!-- Node10 -->
<g id="Node000010" class="node">
<title>Node10</title>
<g id="a_Node000010"><a xlink:title=" ">
<polygon fill="#e0e0e0" stroke="#999999" points="426,-74 364,-74 364,-55 426,-55 426,-74"/>
<text text-anchor="middle" x="395" y="-62" font-family="Helvetica,sans-Serif" font-size="10.00">stdbool.h</text>
</a>
</g>
</g>
<!-- Node9&#45;&gt;Node10 -->
<g id="edge12_Node000009_Node000010" class="edge">
<title>Node9&#45;&gt;Node10</title>
<g id="a_edge12_Node000009_Node000010"><a xlink:title=" ">
<path fill="none" stroke="#63b8ff" d="M395,-109.75C395,-102.8 395,-92.85 395,-84.13"/>
<polygon fill="#63b8ff" stroke="#63b8ff" points="398.5,-84.09 395,-74.09 391.5,-84.09 398.5,-84.09"/>
</a>
</g>
</g>
<!-- Node11 -->
<g id="Node000011" class="node">
<title>Node11</title>
<g id="a_Node000011"><a xlink:title=" ">
<polygon fill="#e0e0e0" stroke="#999999" points="645,-19 589,-19 589,0 645,0 645,-19"/>
<text text-anchor="middle" x="617" y="-7" font-family="Helvetica,sans-Serif" font-size="10.00">stddef.h</text>
</a>
</g>
</g>
<!-- Node9&#45;&gt;Node11 -->
<g id="edge13_Node000009_Node000011" class="edge">
<title>Node9&#45;&gt;Node11</title>
<g id="a_edge13_Node000009_Node000011"><a xlink:title=" ">
<path fill="none" stroke="#63b8ff" d="M382.79,-109.98C366.08,-97.3 339.78,-73.02 355,-55 383.13,-21.69 512.5,-13.31 578.31,-11.2"/>
<polygon fill="#63b8ff" stroke="#63b8ff" points="578.79,-14.69 588.69,-10.91 578.59,-7.7 578.79,-14.69"/>
</a>
</g>
</g>
<!-- Node12&#45;&gt;Node4 -->
<g id="edge18_Node000012_Node000004" class="edge">
<title>Node12&#45;&gt;Node4</title>
<g id="a_edge18_Node000012_Node000004"><a xlink:title=" ">
<path fill="none" stroke="#63b8ff" d="M588.23,-111.02C621.94,-102.09 678.63,-87.06 717.61,-76.73"/>
<polygon fill="#63b8ff" stroke="#63b8ff" points="718.84,-80.03 727.61,-74.08 717.04,-73.26 718.84,-80.03"/>
</a>
</g>
</g>
<!-- Node12&#45;&gt;Node5 -->
<g id="edge19_Node000012_Node000005" class="edge">
<title>Node12&#45;&gt;Node5</title>
<g id="a_edge19_Node000012_Node000005"><a xlink:title=" ">
<path fill="none" stroke="#63b8ff" d="M548.43,-109.98C537.58,-102 521.12,-89.88 508.12,-80.31"/>
<polygon fill="#63b8ff" stroke="#63b8ff" points="509.91,-77.28 499.78,-74.17 505.76,-82.92 509.91,-77.28"/>
</a>
</g>
</g>
<!-- Node12&#45;&gt;Node10 -->
<g id="edge16_Node000012_Node000010" class="edge">
<title>Node12&#45;&gt;Node10</title>
<g id="a_edge16_Node000012_Node000010"><a xlink:title=" ">
<path fill="none" stroke="#63b8ff" d="M533.49,-109.98C505.79,-101.09 462.14,-87.07 431.26,-77.15"/>
<polygon fill="#63b8ff" stroke="#63b8ff" points="432.31,-73.81 421.72,-74.08 430.17,-80.47 432.31,-73.81"/>
</a>
</g>
</g>
<!-- Node13 -->
<g id="Node000013" class="node">
<title>Node13</title>
<g id="a_Node000013"><a xlink:title=" ">
<polygon fill="#e0e0e0" stroke="#999999" points="791.5,-19 738.5,-19 738.5,0 791.5,0 791.5,-19"/>
<text text-anchor="middle" x="765" y="-7" font-family="Helvetica,sans-Serif" font-size="10.00">stdint.h</text>
</a>
</g>
</g>
<!-- Node12&#45;&gt;Node13 -->
<g id="edge15_Node000012_Node000013" class="edge">
<title>Node12&#45;&gt;Node13</title>
<g id="a_edge15_Node000012_Node000013"><a xlink:title=" ">
<path fill="none" stroke="#63b8ff" d="M560.01,-109.71C560.53,-95.99 563.62,-69.55 579,-55 600.3,-34.86 680.68,-21.34 728.52,-14.88"/>
<polygon fill="#63b8ff" stroke="#63b8ff" points="729.03,-18.34 738.5,-13.57 728.13,-11.4 729.03,-18.34"/>
</a>
</g>
</g>
<!-- Node12&#45;&gt;Node14 -->
<g id="edge17_Node000012_Node000014" class="edge">
<title>Node12&#45;&gt;Node14</title>
<g id="a_edge17_Node000012_Node000014"><a xlink:title=" ">
<path fill="none" stroke="#63b8ff" d="M588.2,-113.19C594.08,-112.11 600.24,-111 606,-110 700.46,-93.55 726.66,-90.81 824.91,-74.16"/>
<polygon fill="#63b8ff" stroke="#63b8ff" points="825.7,-77.58 834.97,-72.45 824.53,-70.68 825.7,-77.58"/>
</a>
</g>
</g>
<!-- Node15 -->
<g id="Node000015" class="node">
<title>Node15</title>
<g id="a_Node000015"><a xlink:title=" ">
<polygon fill="#e0e0e0" stroke="#999999" points="685.5,-74 588.5,-74 588.5,-55 685.5,-55 685.5,-74"/>
<text text-anchor="middle" x="637" y="-62" font-family="Helvetica,sans-Serif" font-size="10.00">freertos/queue.h</text>
</a>
</g>
</g>
<!-- Node12&#45;&gt;Node15 -->
<g id="edge20_Node000012_Node000015" class="edge">
<title>Node12&#45;&gt;Node15</title>
<g id="a_edge20_Node000012_Node000015"><a xlink:title=" ">
<path fill="none" stroke="#63b8ff" d="M572.37,-109.98C584.09,-101.92 601.92,-89.65 615.89,-80.03"/>
<polygon fill="#63b8ff" stroke="#63b8ff" points="618.15,-82.72 624.4,-74.17 614.18,-76.96 618.15,-82.72"/>
</a>
</g>
</g>
<!-- Node16&#45;&gt;Node4 -->
<g id="edge23_Node000016_Node000004" class="edge">
<title>Node16&#45;&gt;Node4</title>
<g id="a_edge23_Node000016_Node000004"><a xlink:title=" ">
<path fill="none" stroke="#63b8ff" d="M683.62,-109.98C697.86,-101.69 719.75,-88.94 736.45,-79.22"/>
<polygon fill="#63b8ff" stroke="#63b8ff" points="738.23,-82.23 745.11,-74.17 734.71,-76.18 738.23,-82.23"/>
</a>
</g>
</g>
<!-- Node16&#45;&gt;Node15 -->
<g id="edge24_Node000016_Node000015" class="edge">
<title>Node16&#45;&gt;Node15</title>
<g id="a_edge24_Node000016_Node000015"><a xlink:title=" ">
<path fill="none" stroke="#63b8ff" d="M663.72,-109.75C659.29,-102.42 652.84,-91.73 647.38,-82.7"/>
<polygon fill="#63b8ff" stroke="#63b8ff" points="650.35,-80.84 642.19,-74.09 644.36,-84.46 650.35,-80.84"/>
</a>
</g>
</g>
<!-- Node16&#45;&gt;Node17 -->
<g id="edge25_Node000016_Node000017" class="edge">
<title>Node16&#45;&gt;Node17</title>
<g id="a_edge25_Node000016_Node000017"><a xlink:title=" ">
<path fill="none" stroke="#63b8ff" d="M717.5,-109.99C766.35,-101.41 844.14,-87.74 921.56,-74.08"/>
<polygon fill="#63b8ff" stroke="#63b8ff" points="922.25,-77.51 931.49,-72.32 921.03,-70.62 922.25,-77.51"/>
</a>
</g>
</g>
<!-- Node17&#45;&gt;Node11 -->
<g id="edge27_Node000017_Node000011" class="edge">
<title>Node17&#45;&gt;Node11</title>
<g id="a_edge27_Node000017_Node000011"><a xlink:title=" ">
<path fill="none" stroke="#63b8ff" d="M931.24,-56.53C928.12,-56 925.01,-55.49 922,-55 826.26,-39.54 713.23,-23.67 655.36,-15.72"/>
<polygon fill="#63b8ff" stroke="#63b8ff" points="655.6,-12.22 645.22,-14.32 654.65,-19.15 655.6,-12.22"/>
</a>
</g>
</g>
<!-- Node17&#45;&gt;Node13 -->
<g id="edge26_Node000017_Node000013" class="edge">
<title>Node17&#45;&gt;Node13</title>
<g id="a_edge26_Node000017_Node000013"><a xlink:title=" ">
<path fill="none" stroke="#63b8ff" d="M937.06,-54.98C899.97,-45.4 839.87,-29.86 801.41,-19.91"/>
<polygon fill="#63b8ff" stroke="#63b8ff" points="802.21,-16.5 791.65,-17.39 800.46,-23.28 802.21,-16.5"/>
</a>
</g>
</g>
</g>
</svg>
