<?xml version="1.0" encoding="UTF-8" standalone="no"?>
<!DOCTYPE svg PUBLIC "-//W3C//DTD SVG 1.1//EN"
 "http://www.w3.org/Graphics/SVG/1.1/DTD/svg11.dtd">
<!-- Generated by graphviz version 2.43.0 (0)
 -->
<!-- Title: app_main Pages: 1 -->
<svg width="850pt" height="447pt"
 viewBox="0.00 0.00 850.00 447.17" xmlns="http://www.w3.org/2000/svg" xmlns:xlink="http://www.w3.org/1999/xlink">
<g id="graph0" class="graph" transform="scale(1 1) rotate(0) translate(4 443.17)">
<title>app_main</title>
<!-- Node1 -->
<g id="Node000001" class="node">
<title>Node1</title>
<g id="a_Node000001"><a xlink:title=" ">
<polygon fill="#999999" stroke="#666666" points="65,-306.17 0,-306.17 0,-287.17 65,-287.17 65,-306.17"/>
<text text-anchor="middle" x="32.5" y="-294.17" font-family="Helvetica,sans-Serif" font-size="10.00">app_main</text>
</a>
</g>
</g>
<!-- Node2 -->
<g id="Node000002" class="node">
<title>Node2</title>
<g id="a_Node000002"><a xlink:href="calibration_8c.html#a53e651bc2a9721c33370145ebf5f3fba" target="_top" xlink:title="Single‐point calibration (plus tare).">
<polygon fill="white" stroke="#666666" points="217,-439.17 101,-439.17 101,-420.17 217,-420.17 217,-439.17"/>
<text text-anchor="middle" x="159" y="-427.17" font-family="Helvetica,sans-Serif" font-size="10.00">calibration_compute</text>
</a>
</g>
</g>
<!-- Node1&#45;&gt;Node2 -->
<g id="edge1_Node000001_Node000002" class="edge">
<title>Node1&#45;&gt;Node2</title>
<g id="a_edge1_Node000001_Node000002"><a xlink:title=" ">
<path fill="none" stroke="#63b8ff" d="M36.47,-306.29C43.75,-328.31 64.61,-382.66 101,-411.67 102.75,-413.06 104.6,-414.34 106.54,-415.53"/>
<polygon fill="#63b8ff" stroke="#63b8ff" points="104.94,-418.65 115.43,-420.13 108.16,-412.43 104.94,-418.65"/>
</a>
</g>
</g>
<!-- Node3 -->
<g id="Node000003" class="node">
<title>Node3</title>
<g id="a_Node000003"><a xlink:href="calibration_8c.html#aa712561d2b5257a7596e28d05ddf610a" target="_top" xlink:title="Compute the zero‐offset (tare) by averaging length samples.">
<polygon fill="white" stroke="#666666" points="205.5,-402.17 112.5,-402.17 112.5,-383.17 205.5,-383.17 205.5,-402.17"/>
<text text-anchor="middle" x="159" y="-390.17" font-family="Helvetica,sans-Serif" font-size="10.00">calibration_tare</text>
</a>
</g>
</g>
<!-- Node1&#45;&gt;Node3 -->
<g id="edge2_Node000001_Node000003" class="edge">
<title>Node1&#45;&gt;Node3</title>
<g id="a_edge2_Node000001_Node000003"><a xlink:title=" ">
<path fill="none" stroke="#63b8ff" d="M40.37,-306.27C51.57,-321.34 75.12,-350.66 101,-368.67 106.68,-372.62 113.12,-376.11 119.57,-379.11"/>
<polygon fill="#63b8ff" stroke="#63b8ff" points="118.38,-382.41 128.95,-383.16 121.16,-375.98 118.38,-382.41"/>
</a>
</g>
</g>
<!-- Node4 -->
<g id="Node000004" class="node">
<title>Node4</title>
<g id="a_Node000004"><a xlink:href="hx711_8c.html#a32b4a242719d0a006643ef6fe66650b6" target="_top" xlink:title=" ">
<polygon fill="white" stroke="#666666" points="509,-364.17 406,-364.17 406,-345.17 509,-345.17 509,-364.17"/>
<text text-anchor="middle" x="457.5" y="-352.17" font-family="Helvetica,sans-Serif" font-size="10.00">hx711_get_queue</text>
</a>
</g>
</g>
<!-- Node1&#45;&gt;Node4 -->
<g id="edge3_Node000001_Node000004" class="edge">
<title>Node1&#45;&gt;Node4</title>
<g id="a_edge3_Node000001_Node000004"><a xlink:title=" ">
<path fill="none" stroke="#63b8ff" d="M61.46,-306.19C73.5,-309.97 87.82,-314.03 101,-316.67 203.25,-337.1 324.38,-347.08 395.59,-351.53"/>
<polygon fill="#63b8ff" stroke="#63b8ff" points="395.53,-355.03 405.73,-352.14 395.96,-348.04 395.53,-355.03"/>
</a>
</g>
</g>
<!-- Node5 -->
<g id="Node000005" class="node">
<title>Node5</title>
<g id="a_Node000005"><a xlink:href="hx711_8c.html#af597cc145be81ec0898873fc0a2e8261" target="_top" xlink:title=" ">
<polygon fill="white" stroke="#666666" points="491.5,-156.17 423.5,-156.17 423.5,-137.17 491.5,-137.17 491.5,-156.17"/>
<text text-anchor="middle" x="457.5" y="-144.17" font-family="Helvetica,sans-Serif" font-size="10.00">hx711_init</text>
</a>
</g>
</g>
<!-- Node1&#45;&gt;Node5 -->
<g id="edge4_Node000001_Node000005" class="edge">
<title>Node1&#45;&gt;Node5</title>
<g id="a_edge4_Node000001_Node000005"><a xlink:title=" ">
<path fill="none" stroke="#63b8ff" d="M43.23,-286.93C55.68,-274.9 78.38,-254.48 101,-241.67 203.7,-183.48 343.34,-159.8 413.1,-151.12"/>
<polygon fill="#63b8ff" stroke="#63b8ff" points="413.76,-154.57 423.27,-149.9 412.93,-147.62 413.76,-154.57"/>
</a>
</g>
</g>
<!-- Node7 -->
<g id="Node000007" class="node">
<title>Node7</title>
<g id="a_Node000007"><a xlink:href="hx711_8c.html#a33bac1c81f0833bc55f0cbbfc34f8c19" target="_top" xlink:title=" ">
<polygon fill="white" stroke="#666666" points="673,-21.17 576,-21.17 576,-2.17 673,-2.17 673,-21.17"/>
<text text-anchor="middle" x="624.5" y="-9.17" font-family="Helvetica,sans-Serif" font-size="10.00">hx711_read_raw</text>
</a>
</g>
</g>
<!-- Node1&#45;&gt;Node7 -->
<g id="edge20_Node000001_Node000007" class="edge">
<title>Node1&#45;&gt;Node7</title>
<g id="a_edge20_Node000001_Node000007"><a xlink:title=" ">
<path fill="none" stroke="#63b8ff" d="M34.03,-286.89C36.22,-256.12 47.27,-160.33 101,-110.67 230.91,9.42 459.08,5.2 565.63,-4.52"/>
<polygon fill="#63b8ff" stroke="#63b8ff" points="565.57,-8.03 575.86,-5.5 566.25,-1.06 565.57,-8.03"/>
</a>
</g>
</g>
<!-- Node13 -->
<g id="Node000013" class="node">
<title>Node13</title>
<g id="a_Node000013"><a xlink:href="hx711_8c.html#aa3f2bd6b7c47bcd3ccbafcad4e942dd3" target="_top" xlink:title=" ">
<polygon fill="white" stroke="#666666" points="205,-138.17 113,-138.17 113,-119.17 205,-119.17 205,-138.17"/>
<text text-anchor="middle" x="159" y="-126.17" font-family="Helvetica,sans-Serif" font-size="10.00">hx711_init_rtos</text>
</a>
</g>
</g>
<!-- Node1&#45;&gt;Node13 -->
<g id="edge12_Node000001_Node000013" class="edge">
<title>Node1&#45;&gt;Node13</title>
<g id="a_edge12_Node000001_Node000013"><a xlink:title=" ">
<path fill="none" stroke="#63b8ff" d="M35.53,-286.84C41.27,-261.3 59.99,-192.08 101,-152.67 105.02,-148.81 109.75,-145.53 114.73,-142.75"/>
<polygon fill="#63b8ff" stroke="#63b8ff" points="116.44,-145.81 123.89,-138.27 113.37,-139.52 116.44,-145.81"/>
</a>
</g>
</g>
<!-- Node17 -->
<g id="Node000017" class="node">
<title>Node17</title>
<g id="a_Node000017"><a xlink:href="weight__manager_8c.html#af363d5c833e2bc81e4ed46769ed2eb08" target="_top" xlink:title="Initialize the weight manager.">
<polygon fill="white" stroke="#666666" points="517,-327.17 398,-327.17 398,-308.17 517,-308.17 517,-327.17"/>
<text text-anchor="middle" x="457.5" y="-315.17" font-family="Helvetica,sans-Serif" font-size="10.00">weight_manager_init</text>
</a>
</g>
</g>
<!-- Node1&#45;&gt;Node17 -->
<g id="edge21_Node000001_Node000017" class="edge">
<title>Node1&#45;&gt;Node17</title>
<g id="a_edge21_Node000001_Node000017"><a xlink:title=" ">
<path fill="none" stroke="#63b8ff" d="M65.29,-298.24C133.44,-301.63 294.93,-309.64 387.71,-314.25"/>
<polygon fill="#63b8ff" stroke="#63b8ff" points="387.69,-317.75 397.85,-314.75 388.04,-310.76 387.69,-317.75"/>
</a>
</g>
</g>
<!-- Node21 -->
<g id="Node000021" class="node">
<title>Node21</title>
<g id="a_Node000021"><a xlink:href="wifi__comm_8c.html#ac491034a906f7c44bb351a13b4cdd08d" target="_top" xlink:title="Initialise Wi‑Fi in STA mode, scan for APs, connect to the given SSID/password, and (optionally) star...">
<polygon fill="white" stroke="#666666" points="208,-269.17 110,-269.17 110,-250.17 208,-250.17 208,-269.17"/>
<text text-anchor="middle" x="159" y="-257.17" font-family="Helvetica,sans-Serif" font-size="10.00">wifi_comm_start</text>
</a>
</g>
</g>
<!-- Node1&#45;&gt;Node21 -->
<g id="edge25_Node000001_Node000021" class="edge">
<title>Node1&#45;&gt;Node21</title>
<g id="a_edge25_Node000001_Node000021"><a xlink:title=" ">
<path fill="none" stroke="#63b8ff" d="M65.24,-287.23C80.63,-282.66 99.33,-277.1 115.9,-272.18"/>
<polygon fill="#63b8ff" stroke="#63b8ff" points="117.3,-275.41 125.89,-269.21 115.3,-268.7 117.3,-275.41"/>
</a>
</g>
</g>
<!-- Node6 -->
<g id="Node000006" class="node">
<title>Node6</title>
<g id="a_Node000006"><a xlink:href="hx711_8c.html#a4990d54a108524be3776bdca31a1e1bd" target="_top" xlink:title=" ">
<polygon fill="white" stroke="#666666" points="684,-254.67 565,-254.67 565,-224.67 684,-224.67 684,-254.67"/>
<text text-anchor="start" x="573" y="-242.67" font-family="Helvetica,sans-Serif" font-size="10.00">get_moving_average</text>
<text text-anchor="middle" x="624.5" y="-231.67" font-family="Helvetica,sans-Serif" font-size="10.00">_value</text>
</a>
</g>
</g>
<!-- Node5&#45;&gt;Node6 -->
<g id="edge5_Node000005_Node000006" class="edge">
<title>Node5&#45;&gt;Node6</title>
<g id="a_edge5_Node000005_Node000006"><a xlink:title=" ">
<path fill="none" stroke="#63b8ff" d="M472.03,-156.26C483.93,-164.72 501.68,-177.42 517,-188.67 533.12,-200.5 535.31,-206.33 553,-215.67 556.44,-217.48 560.04,-219.2 563.73,-220.82"/>
<polygon fill="#63b8ff" stroke="#63b8ff" points="562.42,-224.07 572.99,-224.65 565.09,-217.6 562.42,-224.07"/>
</a>
</g>
</g>
<!-- Node5&#45;&gt;Node7 -->
<g id="edge6_Node000005_Node000007" class="edge">
<title>Node5&#45;&gt;Node7</title>
<g id="a_edge6_Node000005_Node000007"><a xlink:title=" ">
<path fill="none" stroke="#63b8ff" d="M476.45,-137.03C489.08,-129.54 505.67,-118.17 517,-104.67 540.76,-76.33 524.4,-53.11 553,-29.67 556.99,-26.4 561.5,-23.71 566.26,-21.51"/>
<polygon fill="#63b8ff" stroke="#63b8ff" points="567.62,-24.74 575.66,-17.84 565.07,-18.22 567.62,-24.74"/>
</a>
</g>
</g>
<!-- Node8 -->
<g id="Node000008" class="node">
<title>Node8</title>
<g id="a_Node000008"><a xlink:href="kalman__filter_8c.html#a9343b8ac8c00a1f1b5d288fd921ece81" target="_top" xlink:title=" ">
<polygon fill="white" stroke="#666666" points="685.5,-206.17 563.5,-206.17 563.5,-187.17 685.5,-187.17 685.5,-206.17"/>
<text text-anchor="middle" x="624.5" y="-194.17" font-family="Helvetica,sans-Serif" font-size="10.00">kalman_init_adaptive</text>
</a>
</g>
</g>
<!-- Node5&#45;&gt;Node8 -->
<g id="edge7_Node000005_Node000008" class="edge">
<title>Node5&#45;&gt;Node8</title>
<g id="a_edge7_Node000005_Node000008"><a xlink:title=" ">
<path fill="none" stroke="#63b8ff" d="M484.8,-156.18C503.67,-162.85 529.75,-171.77 553,-178.67 559.67,-180.64 566.74,-182.61 573.72,-184.46"/>
<polygon fill="#63b8ff" stroke="#63b8ff" points="573.27,-187.96 583.83,-187.1 575.04,-181.19 573.27,-187.96"/>
</a>
</g>
</g>
<!-- Node10 -->
<g id="Node000010" class="node">
<title>Node10</title>
<g id="a_Node000010"><a xlink:href="kalman__filter_8c.html#a3c43cf9d9c5ec9875bbfcf351235bd12" target="_top" xlink:title=" ">
<polygon fill="white" stroke="#666666" points="694.5,-95.17 554.5,-95.17 554.5,-76.17 694.5,-76.17 694.5,-95.17"/>
<text text-anchor="middle" x="624.5" y="-83.17" font-family="Helvetica,sans-Serif" font-size="10.00">kalman_update_adaptive</text>
</a>
</g>
</g>
<!-- Node5&#45;&gt;Node10 -->
<g id="edge9_Node000005_Node000010" class="edge">
<title>Node5&#45;&gt;Node10</title>
<g id="a_edge9_Node000005_Node000010"><a xlink:title=" ">
<path fill="none" stroke="#63b8ff" d="M477.69,-137.08C496.53,-127.92 526.26,-114.15 553,-104.67 559.58,-102.33 566.6,-100.12 573.55,-98.09"/>
<polygon fill="#63b8ff" stroke="#63b8ff" points="574.97,-101.33 583.64,-95.25 573.07,-94.59 574.97,-101.33"/>
</a>
</g>
</g>
<!-- Node11 -->
<g id="Node000011" class="node">
<title>Node11</title>
<g id="a_Node000011"><a xlink:href="moving__average_8c.html#a5b4f3147f4bc47ab394e00ab409c13ce" target="_top" xlink:title=" ">
<polygon fill="white" stroke="#666666" points="684,-169.17 565,-169.17 565,-150.17 684,-150.17 684,-169.17"/>
<text text-anchor="middle" x="624.5" y="-157.17" font-family="Helvetica,sans-Serif" font-size="10.00">moving_average_init</text>
</a>
</g>
</g>
<!-- Node5&#45;&gt;Node11 -->
<g id="edge10_Node000005_Node000011" class="edge">
<title>Node5&#45;&gt;Node11</title>
<g id="a_edge10_Node000005_Node000011"><a xlink:title=" ">
<path fill="none" stroke="#63b8ff" d="M491.89,-149.3C509.94,-150.72 532.91,-152.53 554.6,-154.24"/>
<polygon fill="#63b8ff" stroke="#63b8ff" points="554.54,-157.74 564.78,-155.04 555.09,-150.77 554.54,-157.74"/>
</a>
</g>
</g>
<!-- Node12 -->
<g id="Node000012" class="node">
<title>Node12</title>
<g id="a_Node000012"><a xlink:href="moving__average_8c.html#ae8fe422690653cafb6e68f34a5ec7658" target="_top" xlink:title=" ">
<polygon fill="white" stroke="#666666" points="693,-132.17 556,-132.17 556,-113.17 693,-113.17 693,-132.17"/>
<text text-anchor="middle" x="624.5" y="-120.17" font-family="Helvetica,sans-Serif" font-size="10.00">moving_average_update</text>
</a>
</g>
</g>
<!-- Node5&#45;&gt;Node12 -->
<g id="edge11_Node000005_Node000012" class="edge">
<title>Node5&#45;&gt;Node12</title>
<g id="a_edge11_Node000005_Node000012"><a xlink:title=" ">
<path fill="none" stroke="#63b8ff" d="M491.89,-141.81C508.16,-139.44 528.44,-136.49 548.17,-133.62"/>
<polygon fill="#63b8ff" stroke="#63b8ff" points="548.71,-137.08 558.1,-132.18 547.7,-130.15 548.71,-137.08"/>
</a>
</g>
</g>
<!-- Node9 -->
<g id="Node000009" class="node">
<title>Node9</title>
<g id="a_Node000009"><a xlink:href="kalman__filter_8c.html#ac062a0fa3f2aaa889d7b3534dbbad89e" target="_top" xlink:title=" ">
<polygon fill="white" stroke="#666666" points="824,-206.17 750,-206.17 750,-187.17 824,-187.17 824,-206.17"/>
<text text-anchor="middle" x="787" y="-194.17" font-family="Helvetica,sans-Serif" font-size="10.00">kalman_init</text>
</a>
</g>
</g>
<!-- Node8&#45;&gt;Node9 -->
<g id="edge8_Node000008_Node000009" class="edge">
<title>Node8&#45;&gt;Node9</title>
<g id="a_edge8_Node000008_Node000009"><a xlink:title=" ">
<path fill="none" stroke="#63b8ff" d="M685.72,-196.67C703.55,-196.67 722.78,-196.67 739.59,-196.67"/>
<polygon fill="#63b8ff" stroke="#63b8ff" points="739.71,-200.17 749.71,-196.67 739.71,-193.17 739.71,-200.17"/>
</a>
</g>
</g>
<!-- Node13&#45;&gt;Node5 -->
<g id="edge13_Node000013_Node000005" class="edge">
<title>Node13&#45;&gt;Node5</title>
<g id="a_edge13_Node000013_Node000005"><a xlink:title=" ">
<path fill="none" stroke="#63b8ff" d="M205.03,-131.4C261.5,-134.83 357.62,-140.66 413.24,-144.04"/>
<polygon fill="#63b8ff" stroke="#63b8ff" points="413.27,-147.55 423.46,-144.66 413.7,-140.56 413.27,-147.55"/>
</a>
</g>
</g>
<!-- Node14 -->
<g id="Node000014" class="node">
<title>Node14</title>
<g id="a_Node000014"><a xlink:href="hx711_8c.html#a985ea3f202ebc30a95f6bc340b15ef1e" target="_top" xlink:title=" ">
<polygon fill="white" stroke="#666666" points="356,-97.17 259,-97.17 259,-78.17 356,-78.17 356,-97.17"/>
<text text-anchor="middle" x="307.5" y="-85.17" font-family="Helvetica,sans-Serif" font-size="10.00">hx711_rtos_task</text>
</a>
</g>
</g>
<!-- Node13&#45;&gt;Node14 -->
<g id="edge14_Node000013_Node000014" class="edge">
<title>Node13&#45;&gt;Node14</title>
<g id="a_edge14_Node000013_Node000014"><a xlink:title=" ">
<path fill="none" stroke="#63b8ff" d="M193.98,-119.16C214.43,-113.43 240.68,-106.09 262.68,-99.93"/>
<polygon fill="#63b8ff" stroke="#63b8ff" points="263.77,-103.26 272.45,-97.19 261.88,-96.52 263.77,-103.26"/>
</a>
</g>
</g>
<!-- Node15 -->
<g id="Node000015" class="node">
<title>Node15</title>
<g id="a_Node000015"><a xlink:href="hx711_8c.html#af0a6adda73c183ed8b4dbd127ff5b35a" target="_top" xlink:title=" ">
<polygon fill="white" stroke="#666666" points="514,-95.17 401,-95.17 401,-76.17 514,-76.17 514,-95.17"/>
<text text-anchor="middle" x="457.5" y="-83.17" font-family="Helvetica,sans-Serif" font-size="10.00">hx711_read_filtered</text>
</a>
</g>
</g>
<!-- Node14&#45;&gt;Node15 -->
<g id="edge15_Node000014_Node000015" class="edge">
<title>Node14&#45;&gt;Node15</title>
<g id="a_edge15_Node000014_Node000015"><a xlink:title=" ">
<path fill="none" stroke="#63b8ff" d="M356.14,-87.02C367.19,-86.87 379.13,-86.71 390.8,-86.55"/>
<polygon fill="#63b8ff" stroke="#63b8ff" points="391,-90.05 400.95,-86.42 390.91,-83.05 391,-90.05"/>
</a>
</g>
</g>
<!-- Node15&#45;&gt;Node7 -->
<g id="edge16_Node000015_Node000007" class="edge">
<title>Node15&#45;&gt;Node7</title>
<g id="a_edge16_Node000015_Node000007"><a xlink:title=" ">
<path fill="none" stroke="#63b8ff" d="M471.94,-76.02C489.7,-63.67 522.34,-42.36 553,-29.67 557.84,-27.66 562.95,-25.84 568.14,-24.19"/>
<polygon fill="#63b8ff" stroke="#63b8ff" points="569.53,-27.42 578.12,-21.22 567.54,-20.71 569.53,-27.42"/>
</a>
</g>
</g>
<!-- Node15&#45;&gt;Node10 -->
<g id="edge17_Node000015_Node000010" class="edge">
<title>Node15&#45;&gt;Node10</title>
<g id="a_edge17_Node000015_Node000010"><a xlink:title=" ">
<path fill="none" stroke="#63b8ff" d="M514.36,-85.67C523.97,-85.67 534.11,-85.67 544.2,-85.67"/>
<polygon fill="#63b8ff" stroke="#63b8ff" points="544.23,-89.17 554.23,-85.67 544.23,-82.17 544.23,-89.17"/>
</a>
</g>
</g>
<!-- Node15&#45;&gt;Node12 -->
<g id="edge19_Node000015_Node000012" class="edge">
<title>Node15&#45;&gt;Node12</title>
<g id="a_edge19_Node000015_Node000012"><a xlink:title=" ">
<path fill="none" stroke="#63b8ff" d="M500.99,-95.19C522.37,-99.99 548.47,-105.84 571.08,-110.91"/>
<polygon fill="#63b8ff" stroke="#63b8ff" points="570.34,-114.33 580.87,-113.11 571.87,-107.5 570.34,-114.33"/>
</a>
</g>
</g>
<!-- Node16 -->
<g id="Node000016" class="node">
<title>Node16</title>
<g id="a_Node000016"><a xlink:href="moving__average_8c.html#a6336a0eede30b660dc06e9b149f6c143" target="_top" xlink:title=" ">
<polygon fill="white" stroke="#666666" points="688.5,-58.17 560.5,-58.17 560.5,-39.17 688.5,-39.17 688.5,-58.17"/>
<text text-anchor="middle" x="624.5" y="-46.17" font-family="Helvetica,sans-Serif" font-size="10.00">moving_average_reset</text>
</a>
</g>
</g>
<!-- Node15&#45;&gt;Node16 -->
<g id="edge18_Node000015_Node000016" class="edge">
<title>Node15&#45;&gt;Node16</title>
<g id="a_edge18_Node000015_Node000016"><a xlink:title=" ">
<path fill="none" stroke="#63b8ff" d="M500.99,-76.14C522.37,-71.34 548.47,-65.49 571.08,-60.42"/>
<polygon fill="#63b8ff" stroke="#63b8ff" points="571.87,-63.83 580.87,-58.23 570.34,-57 571.87,-63.83"/>
</a>
</g>
</g>
<!-- Node18 -->
<g id="Node000018" class="node">
<title>Node18</title>
<g id="a_Node000018"><a xlink:href="weight__manager_8c.html#a5427a48300064edb414c8c35b830fadb" target="_top" xlink:title=" ">
<polygon fill="white" stroke="#666666" points="687,-329.17 562,-329.17 562,-310.17 687,-310.17 687,-329.17"/>
<text text-anchor="middle" x="624.5" y="-317.17" font-family="Helvetica,sans-Serif" font-size="10.00">weight_manager_task</text>
</a>
</g>
</g>
<!-- Node17&#45;&gt;Node18 -->
<g id="edge22_Node000017_Node000018" class="edge">
<title>Node17&#45;&gt;Node18</title>
<g id="a_edge22_Node000017_Node000018"><a xlink:title=" ">
<path fill="none" stroke="#63b8ff" d="M517.14,-318.38C528.39,-318.51 540.28,-318.66 551.88,-318.8"/>
<polygon fill="#63b8ff" stroke="#63b8ff" points="551.94,-322.3 561.98,-318.92 552.02,-315.3 551.94,-322.3"/>
</a>
</g>
</g>
<!-- Node19 -->
<g id="Node000019" class="node">
<title>Node19</title>
<g id="a_Node000019"><a xlink:href="calibration_8c.html#a290a80f0669ce6f3a5a761650b2cbb28" target="_top" xlink:title="Convert a raw ADC value into weight using the computed model.">
<polygon fill="white" stroke="#666666" points="842,-310.17 732,-310.17 732,-291.17 842,-291.17 842,-310.17"/>
<text text-anchor="middle" x="787" y="-298.17" font-family="Helvetica,sans-Serif" font-size="10.00">calibration_convert</text>
</a>
</g>
</g>
<!-- Node18&#45;&gt;Node19 -->
<g id="edge23_Node000018_Node000019" class="edge">
<title>Node18&#45;&gt;Node19</title>
<g id="a_edge23_Node000018_Node000019"><a xlink:title=" ">
<path fill="none" stroke="#63b8ff" d="M687.09,-312.37C698.51,-311.02 710.46,-309.61 721.95,-308.25"/>
<polygon fill="#63b8ff" stroke="#63b8ff" points="722.39,-311.72 731.91,-307.07 721.56,-304.77 722.39,-311.72"/>
</a>
</g>
</g>
<!-- Node20 -->
<g id="Node000020" class="node">
<title>Node20</title>
<g id="a_Node000020"><a xlink:href="weight__manager_8c.html#adedf53bed0b45630ae2b4c1239517b37" target="_top" xlink:title=" ">
<polygon fill="white" stroke="#666666" points="810,-347.17 764,-347.17 764,-328.17 810,-328.17 810,-347.17"/>
<text text-anchor="middle" x="787" y="-335.17" font-family="Helvetica,sans-Serif" font-size="10.00">log_ts</text>
</a>
</g>
</g>
<!-- Node18&#45;&gt;Node20 -->
<g id="edge24_Node000018_Node000020" class="edge">
<title>Node18&#45;&gt;Node20</title>
<g id="a_edge24_Node000018_Node000020"><a xlink:title=" ">
<path fill="none" stroke="#63b8ff" d="M687.09,-326.57C709.92,-329.13 734.87,-331.93 754.01,-334.08"/>
<polygon fill="#63b8ff" stroke="#63b8ff" points="753.66,-337.56 763.99,-335.2 754.44,-330.6 753.66,-337.56"/>
</a>
</g>
</g>
<!-- Node22 -->
<g id="Node000022" class="node">
<title>Node22</title>
<g id="a_Node000022"><a xlink:href="wifi__comm_8c.html#a26f0211cd2ec06e31508899b0eae707d" target="_top" xlink:title=" ">
<polygon fill="white" stroke="#666666" points="359.5,-251.17 255.5,-251.17 255.5,-232.17 359.5,-232.17 359.5,-251.17"/>
<text text-anchor="middle" x="307.5" y="-239.17" font-family="Helvetica,sans-Serif" font-size="10.00">wifi_connect_task</text>
</a>
</g>
</g>
<!-- Node21&#45;&gt;Node22 -->
<g id="edge26_Node000021_Node000022" class="edge">
<title>Node21&#45;&gt;Node22</title>
<g id="a_edge26_Node000021_Node000022"><a xlink:title=" ">
<path fill="none" stroke="#63b8ff" d="M208.38,-253.72C220.16,-252.27 232.92,-250.71 245.22,-249.2"/>
<polygon fill="#63b8ff" stroke="#63b8ff" points="245.91,-252.64 255.41,-247.94 245.06,-245.69 245.91,-252.64"/>
</a>
</g>
</g>
<!-- Node23 -->
<g id="Node000023" class="node">
<title>Node23</title>
<g id="a_Node000023"><a xlink:href="wifi__comm_8c.html#af00a27b9e490096d5767f48feed1d3ae" target="_top" xlink:title=" ">
<polygon fill="white" stroke="#666666" points="362,-288.17 253,-288.17 253,-269.17 362,-269.17 362,-288.17"/>
<text text-anchor="middle" x="307.5" y="-276.17" font-family="Helvetica,sans-Serif" font-size="10.00">wifi_event_handler</text>
</a>
</g>
</g>
<!-- Node21&#45;&gt;Node23 -->
<g id="edge27_Node000021_Node000023" class="edge">
<title>Node21&#45;&gt;Node23</title>
<g id="a_edge27_Node000021_Node000023"><a xlink:title=" ">
<path fill="none" stroke="#63b8ff" d="M208.38,-265.94C219.4,-267.37 231.27,-268.91 242.83,-270.41"/>
<polygon fill="#63b8ff" stroke="#63b8ff" points="242.5,-273.89 252.87,-271.71 243.4,-266.95 242.5,-273.89"/>
</a>
</g>
</g>
<!-- Node28 -->
<g id="Node000028" class="node">
<title>Node28</title>
<g id="a_Node000028"><a xlink:href="wifi__comm_8c.html#a2064b14d9080d81897b7ecda58cb4707" target="_top" xlink:title=" ">
<polygon fill="white" stroke="#666666" points="351.5,-214.17 263.5,-214.17 263.5,-195.17 351.5,-195.17 351.5,-214.17"/>
<text text-anchor="middle" x="307.5" y="-202.17" font-family="Helvetica,sans-Serif" font-size="10.00">wifi_scan_task</text>
</a>
</g>
</g>
<!-- Node21&#45;&gt;Node28 -->
<g id="edge34_Node000021_Node000028" class="edge">
<title>Node21&#45;&gt;Node28</title>
<g id="a_edge34_Node000021_Node000028"><a xlink:title=" ">
<path fill="none" stroke="#63b8ff" d="M184.02,-250.16C202.75,-242.79 229.46,-232.4 253,-223.67 258.31,-221.69 263.94,-219.65 269.47,-217.67"/>
<polygon fill="#63b8ff" stroke="#63b8ff" points="270.99,-220.84 279.23,-214.18 268.64,-214.25 270.99,-220.84"/>
</a>
</g>
</g>
<!-- Node23&#45;&gt;Node4 -->
<g id="edge28_Node000023_Node000004" class="edge">
<title>Node23&#45;&gt;Node4</title>
<g id="a_edge28_Node000023_Node000004"><a xlink:title=" ">
<path fill="none" stroke="#63b8ff" d="M320.89,-288.29C337.6,-300.89 368.64,-322.96 398,-336.67 402.01,-338.54 406.26,-340.28 410.57,-341.88"/>
<polygon fill="#63b8ff" stroke="#63b8ff" points="409.43,-345.18 420.02,-345.15 411.72,-338.57 409.43,-345.18"/>
</a>
</g>
</g>
<!-- Node23&#45;&gt;Node17 -->
<g id="edge33_Node000023_Node000017" class="edge">
<title>Node23&#45;&gt;Node17</title>
<g id="a_edge33_Node000023_Node000017"><a xlink:title=" ">
<path fill="none" stroke="#63b8ff" d="M344.7,-288.21C364.58,-293.44 389.42,-299.99 410.64,-305.58"/>
<polygon fill="#63b8ff" stroke="#63b8ff" points="409.85,-308.99 420.41,-308.16 411.63,-302.22 409.85,-308.99"/>
</a>
</g>
</g>
<!-- Node24 -->
<g id="Node000024" class="node">
<title>Node24</title>
<g id="a_Node000024"><a xlink:href="sntp__synch_8c.html#a78e6192b5fb97b2676f845179584cd4d" target="_top" xlink:title=" ">
<polygon fill="white" stroke="#666666" points="504,-290.17 411,-290.17 411,-271.17 504,-271.17 504,-290.17"/>
<text text-anchor="middle" x="457.5" y="-278.17" font-family="Helvetica,sans-Serif" font-size="10.00">sntp_sync_start</text>
</a>
</g>
</g>
<!-- Node23&#45;&gt;Node24 -->
<g id="edge29_Node000023_Node000024" class="edge">
<title>Node23&#45;&gt;Node24</title>
<g id="a_edge29_Node000023_Node000024"><a xlink:title=" ">
<path fill="none" stroke="#63b8ff" d="M362.35,-279.39C374.75,-279.56 387.96,-279.74 400.45,-279.91"/>
<polygon fill="#63b8ff" stroke="#63b8ff" points="400.69,-283.41 410.74,-280.05 400.78,-276.41 400.69,-283.41"/>
</a>
</g>
</g>
<!-- Node26 -->
<g id="Node000026" class="node">
<title>Node26</title>
<g id="a_Node000026"><a xlink:href="sntp__synch_8c.html#a163c19382a04ea22327cebd45733f579" target="_top" xlink:title=" ">
<polygon fill="white" stroke="#666666" points="515.5,-253.17 399.5,-253.17 399.5,-234.17 515.5,-234.17 515.5,-253.17"/>
<text text-anchor="middle" x="457.5" y="-241.17" font-family="Helvetica,sans-Serif" font-size="10.00">sntp_time_available</text>
</a>
</g>
</g>
<!-- Node23&#45;&gt;Node26 -->
<g id="edge31_Node000023_Node000026" class="edge">
<title>Node23&#45;&gt;Node26</title>
<g id="a_edge31_Node000023_Node000026"><a xlink:title=" ">
<path fill="none" stroke="#63b8ff" d="M348.94,-269.1C366.64,-264.92 387.6,-259.96 406.28,-255.54"/>
<polygon fill="#63b8ff" stroke="#63b8ff" points="407.18,-258.93 416.11,-253.22 405.57,-252.11 407.18,-258.93"/>
</a>
</g>
</g>
<!-- Node27 -->
<g id="Node000027" class="node">
<title>Node27</title>
<g id="a_Node000027"><a xlink:href="wifi__comm_8c.html#a61c868bc85ed2ebbea39dba6aab3ae55" target="_top" xlink:title=" ">
<polygon fill="white" stroke="#666666" points="504.5,-216.17 410.5,-216.17 410.5,-197.17 504.5,-197.17 504.5,-216.17"/>
<text text-anchor="middle" x="457.5" y="-204.17" font-family="Helvetica,sans-Serif" font-size="10.00">tcp_server_task</text>
</a>
</g>
</g>
<!-- Node23&#45;&gt;Node27 -->
<g id="edge32_Node000023_Node000027" class="edge">
<title>Node23&#45;&gt;Node27</title>
<g id="a_edge32_Node000023_Node000027"><a xlink:title=" ">
<path fill="none" stroke="#63b8ff" d="M344.32,-269.1C350.44,-266.78 356.56,-263.98 362,-260.67 381.05,-249.04 378.89,-237.19 398,-225.67 401.45,-223.59 405.15,-221.71 408.96,-220.01"/>
<polygon fill="#63b8ff" stroke="#63b8ff" points="410.57,-223.14 418.56,-216.18 407.97,-216.64 410.57,-223.14"/>
</a>
</g>
</g>
<!-- Node25 -->
<g id="Node000025" class="node">
<title>Node25</title>
<g id="a_Node000025"><a xlink:href="sntp__synch_8c.html#ad0458e91b8c3a87fcacba336d2ce8d16" target="_top" xlink:title=" ">
<polygon fill="white" stroke="#666666" points="696,-292.17 553,-292.17 553,-273.17 696,-273.17 696,-292.17"/>
<text text-anchor="middle" x="624.5" y="-280.17" font-family="Helvetica,sans-Serif" font-size="10.00">time_sync_notification_cb</text>
</a>
</g>
</g>
<!-- Node24&#45;&gt;Node25 -->
<g id="edge30_Node000024_Node000025" class="edge">
<title>Node24&#45;&gt;Node25</title>
<g id="a_edge30_Node000024_Node000025"><a xlink:title=" ">
<path fill="none" stroke="#63b8ff" d="M504.02,-281.22C516.03,-281.36 529.36,-281.53 542.63,-281.69"/>
<polygon fill="#63b8ff" stroke="#63b8ff" points="542.71,-285.19 552.75,-281.81 542.79,-278.19 542.71,-285.19"/>
</a>
</g>
</g>
</g>
</svg>
