<?xml version="1.0" encoding="UTF-8" standalone="no"?>
<!DOCTYPE svg PUBLIC "-//W3C//DTD SVG 1.1//EN"
 "http://www.w3.org/Graphics/SVG/1.1/DTD/svg11.dtd">
<!-- Generated by graphviz version 2.43.0 (0)
 -->
<!-- Title: moving_average_update_median3_rtos Pages: 1 -->
<svg width="491pt" height="64pt"
 viewBox="0.00 0.00 491.00 64.00" xmlns="http://www.w3.org/2000/svg" xmlns:xlink="http://www.w3.org/1999/xlink">
<g id="graph0" class="graph" transform="scale(1 1) rotate(0) translate(4 60)">
<title>moving_average_update_median3_rtos</title>
<!-- Node1 -->
<g id="Node000001" class="node">
<title>Node1</title>
<g id="a_Node000001"><a xlink:title=" ">
<polygon fill="#999999" stroke="#666666" points="137,-42.5 0,-42.5 0,-12.5 137,-12.5 137,-42.5"/>
<text text-anchor="start" x="8" y="-30.5" font-family="Helvetica,sans-Serif" font-size="10.00">moving_average_update</text>
<text text-anchor="middle" x="68.5" y="-19.5" font-family="Helvetica,sans-Serif" font-size="10.00">_median3_rtos</text>
</a>
</g>
</g>
<!-- Node2 -->
<g id="Node000002" class="node">
<title>Node2</title>
<g id="a_Node000002"><a xlink:href="moving__average_8c.html#a1660b641ce379ad5bc797ce9da11d810" target="_top" xlink:title=" ">
<polygon fill="white" stroke="#666666" points="310,-42.5 173,-42.5 173,-12.5 310,-12.5 310,-42.5"/>
<text text-anchor="start" x="181" y="-30.5" font-family="Helvetica,sans-Serif" font-size="10.00">moving_average_update</text>
<text text-anchor="middle" x="241.5" y="-19.5" font-family="Helvetica,sans-Serif" font-size="10.00">_median3</text>
</a>
</g>
</g>
<!-- Node1&#45;&gt;Node2 -->
<g id="edge1_Node000001_Node000002" class="edge">
<title>Node1&#45;&gt;Node2</title>
<g id="a_edge1_Node000001_Node000002"><a xlink:title=" ">
<path fill="none" stroke="#63b8ff" d="M137.08,-27.5C145.54,-27.5 154.24,-27.5 162.83,-27.5"/>
<polygon fill="#63b8ff" stroke="#63b8ff" points="162.85,-31 172.85,-27.5 162.85,-24 162.85,-31"/>
</a>
</g>
</g>
<!-- Node3 -->
<g id="Node000003" class="node">
<title>Node3</title>
<g id="a_Node000003"><a xlink:href="moving__average_8c.html#a89dd7672eec3d326b5f3ff375c767968" target="_top" xlink:title=" ">
<polygon fill="white" stroke="#666666" points="444,-56 385,-56 385,-37 444,-37 444,-56"/>
<text text-anchor="middle" x="414.5" y="-44" font-family="Helvetica,sans-Serif" font-size="10.00">median3</text>
</a>
</g>
</g>
<!-- Node2&#45;&gt;Node3 -->
<g id="edge2_Node000002_Node000003" class="edge">
<title>Node2&#45;&gt;Node3</title>
<g id="a_edge2_Node000002_Node000003"><a xlink:title=" ">
<path fill="none" stroke="#63b8ff" d="M310.08,-35.01C331.98,-37.44 355.52,-40.06 374.6,-42.18"/>
<polygon fill="#63b8ff" stroke="#63b8ff" points="374.38,-45.67 384.7,-43.3 375.15,-38.72 374.38,-45.67"/>
</a>
</g>
</g>
<!-- Node4 -->
<g id="Node000004" class="node">
<title>Node4</title>
<g id="a_Node000004"><a xlink:href="moving__average_8c.html#ae8fe422690653cafb6e68f34a5ec7658" target="_top" xlink:title=" ">
<polygon fill="white" stroke="#666666" points="483,-19 346,-19 346,0 483,0 483,-19"/>
<text text-anchor="middle" x="414.5" y="-7" font-family="Helvetica,sans-Serif" font-size="10.00">moving_average_update</text>
</a>
</g>
</g>
<!-- Node2&#45;&gt;Node4 -->
<g id="edge3_Node000002_Node000004" class="edge">
<title>Node2&#45;&gt;Node4</title>
<g id="a_edge3_Node000002_Node000004"><a xlink:title=" ">
<path fill="none" stroke="#63b8ff" d="M310.08,-20.39C318.54,-19.5 327.24,-18.58 335.83,-17.68"/>
<polygon fill="#63b8ff" stroke="#63b8ff" points="336.27,-21.15 345.85,-16.62 335.54,-14.19 336.27,-21.15"/>
</a>
</g>
</g>
</g>
</svg>
