<?xml version="1.0" encoding="UTF-8" standalone="no"?>
<!DOCTYPE svg PUBLIC "-//W3C//DTD SVG 1.1//EN"
 "http://www.w3.org/Graphics/SVG/1.1/DTD/svg11.dtd">
<!-- Generated by graphviz version 2.43.0 (0)
 -->
<!-- Title: moving_average_reset Pages: 1 -->
<svg width="728pt" height="138pt"
 viewBox="0.00 0.00 728.00 138.00" xmlns="http://www.w3.org/2000/svg" xmlns:xlink="http://www.w3.org/1999/xlink">
<g id="graph0" class="graph" transform="scale(1 1) rotate(0) translate(4 134)">
<title>moving_average_reset</title>
<!-- Node1 -->
<g id="Node000001" class="node">
<title>Node1</title>
<g id="a_Node000001"><a xlink:title=" ">
<polygon fill="#999999" stroke="#666666" points="720,-56 592,-56 592,-37 720,-37 720,-56"/>
<text text-anchor="middle" x="656" y="-44" font-family="Helvetica,sans-Serif" font-size="10.00">moving_average_reset</text>
</a>
</g>
</g>
<!-- Node2 -->
<g id="Node000002" class="node">
<title>Node2</title>
<g id="a_Node000002"><a xlink:href="hx711_8c.html#af0a6adda73c183ed8b4dbd127ff5b35a" target="_top" xlink:title=" ">
<polygon fill="white" stroke="#666666" points="536.5,-93 423.5,-93 423.5,-74 536.5,-74 536.5,-93"/>
<text text-anchor="middle" x="480" y="-81" font-family="Helvetica,sans-Serif" font-size="10.00">hx711_read_filtered</text>
</a>
</g>
</g>
<!-- Node1&#45;&gt;Node2 -->
<g id="edge1_Node000001_Node000002" class="edge">
<title>Node1&#45;&gt;Node2</title>
<g id="a_edge1_Node000001_Node000002"><a xlink:title=" ">
<path fill="none" stroke="#63b8ff" d="M600.2,-58.15C576.3,-63.23 548.63,-69.12 525.96,-73.94"/>
<polygon fill="#63b8ff" stroke="#63b8ff" points="601.14,-61.53 610.19,-56.03 599.68,-54.68 601.14,-61.53"/>
</a>
</g>
</g>
<!-- Node7 -->
<g id="Node000007" class="node">
<title>Node7</title>
<g id="a_Node000007"><a xlink:href="hx711_8c.html#a1a9420f9643f715e8f5e45e342ffbf8a" target="_top" xlink:title=" ">
<polygon fill="white" stroke="#666666" points="550,-56 410,-56 410,-37 550,-37 550,-56"/>
<text text-anchor="middle" x="480" y="-44" font-family="Helvetica,sans-Serif" font-size="10.00">hx711_read_median_rtos</text>
</a>
</g>
</g>
<!-- Node1&#45;&gt;Node7 -->
<g id="edge6_Node000001_Node000007" class="edge">
<title>Node1&#45;&gt;Node7</title>
<g id="a_edge6_Node000001_Node000007"><a xlink:title=" ">
<path fill="none" stroke="#63b8ff" d="M581.43,-46.5C571.06,-46.5 560.42,-46.5 550.14,-46.5"/>
<polygon fill="#63b8ff" stroke="#63b8ff" points="581.69,-50 591.69,-46.5 581.69,-43 581.69,-50"/>
</a>
</g>
</g>
<!-- Node9 -->
<g id="Node000009" class="node">
<title>Node9</title>
<g id="a_Node000009"><a xlink:href="moving__average_8c.html#a48eb0f6326626f77ecbd420f8706b0c2" target="_top" xlink:title=" ">
<polygon fill="white" stroke="#666666" points="556,-19 404,-19 404,0 556,0 556,-19"/>
<text text-anchor="middle" x="480" y="-7" font-family="Helvetica,sans-Serif" font-size="10.00">moving_average_reset_rtos</text>
</a>
</g>
</g>
<!-- Node1&#45;&gt;Node9 -->
<g id="edge8_Node000001_Node000009" class="edge">
<title>Node1&#45;&gt;Node9</title>
<g id="a_edge8_Node000001_Node000009"><a xlink:title=" ">
<path fill="none" stroke="#63b8ff" d="M600.2,-34.85C576.3,-29.77 548.63,-23.88 525.96,-19.06"/>
<polygon fill="#63b8ff" stroke="#63b8ff" points="599.68,-38.32 610.19,-36.97 601.14,-31.47 599.68,-38.32"/>
</a>
</g>
</g>
<!-- Node3 -->
<g id="Node000003" class="node">
<title>Node3</title>
<g id="a_Node000003"><a xlink:href="hx711_8c.html#ac6c8066eeca1a4549359b2da8deda8f9" target="_top" xlink:title=" ">
<polygon fill="white" stroke="#666666" points="367,-130 230,-130 230,-111 367,-111 367,-130"/>
<text text-anchor="middle" x="298.5" y="-118" font-family="Helvetica,sans-Serif" font-size="10.00">hx711_read_filtered_rtos</text>
</a>
</g>
</g>
<!-- Node2&#45;&gt;Node3 -->
<g id="edge2_Node000002_Node000003" class="edge">
<title>Node2&#45;&gt;Node3</title>
<g id="a_edge2_Node000002_Node000003"><a xlink:title=" ">
<path fill="none" stroke="#63b8ff" d="M422.8,-95.08C398.07,-100.18 369.37,-106.1 345.88,-110.94"/>
<polygon fill="#63b8ff" stroke="#63b8ff" points="423.69,-98.48 432.77,-93.03 422.27,-91.62 423.69,-98.48"/>
</a>
</g>
</g>
<!-- Node4 -->
<g id="Node000004" class="node">
<title>Node4</title>
<g id="a_Node000004"><a xlink:href="hx711_8c.html#a985ea3f202ebc30a95f6bc340b15ef1e" target="_top" xlink:title=" ">
<polygon fill="white" stroke="#666666" points="347,-93 250,-93 250,-74 347,-74 347,-93"/>
<text text-anchor="middle" x="298.5" y="-81" font-family="Helvetica,sans-Serif" font-size="10.00">hx711_rtos_task</text>
</a>
</g>
</g>
<!-- Node2&#45;&gt;Node4 -->
<g id="edge3_Node000002_Node000004" class="edge">
<title>Node2&#45;&gt;Node4</title>
<g id="a_edge3_Node000002_Node000004"><a xlink:title=" ">
<path fill="none" stroke="#63b8ff" d="M412.99,-83.5C391.15,-83.5 367.29,-83.5 347.11,-83.5"/>
<polygon fill="#63b8ff" stroke="#63b8ff" points="413.19,-87 423.19,-83.5 413.19,-80 413.19,-87"/>
</a>
</g>
</g>
<!-- Node5 -->
<g id="Node000005" class="node">
<title>Node5</title>
<g id="a_Node000005"><a xlink:href="hx711_8c.html#aa3f2bd6b7c47bcd3ccbafcad4e942dd3" target="_top" xlink:title=" ">
<polygon fill="white" stroke="#666666" points="193,-93 101,-93 101,-74 193,-74 193,-93"/>
<text text-anchor="middle" x="147" y="-81" font-family="Helvetica,sans-Serif" font-size="10.00">hx711_init_rtos</text>
</a>
</g>
</g>
<!-- Node4&#45;&gt;Node5 -->
<g id="edge4_Node000004_Node000005" class="edge">
<title>Node4&#45;&gt;Node5</title>
<g id="a_edge4_Node000004_Node000005"><a xlink:title=" ">
<path fill="none" stroke="#63b8ff" d="M239.37,-83.5C224.05,-83.5 207.75,-83.5 193.23,-83.5"/>
<polygon fill="#63b8ff" stroke="#63b8ff" points="239.79,-87 249.79,-83.5 239.79,-80 239.79,-87"/>
</a>
</g>
</g>
<!-- Node6 -->
<g id="Node000006" class="node">
<title>Node6</title>
<g id="a_Node000006"><a xlink:href="main_8c.html#a630544a7f0a2cc40d8a7fefab7e2fe70" target="_top" xlink:title=" ">
<polygon fill="white" stroke="#666666" points="65,-93 0,-93 0,-74 65,-74 65,-93"/>
<text text-anchor="middle" x="32.5" y="-81" font-family="Helvetica,sans-Serif" font-size="10.00">app_main</text>
</a>
</g>
</g>
<!-- Node5&#45;&gt;Node6 -->
<g id="edge5_Node000005_Node000006" class="edge">
<title>Node5&#45;&gt;Node6</title>
<g id="a_edge5_Node000005_Node000006"><a xlink:title=" ">
<path fill="none" stroke="#63b8ff" d="M90.67,-83.5C81.9,-83.5 73.11,-83.5 65.13,-83.5"/>
<polygon fill="#63b8ff" stroke="#63b8ff" points="90.89,-87 100.89,-83.5 90.89,-80 90.89,-87"/>
</a>
</g>
</g>
<!-- Node8 -->
<g id="Node000008" class="node">
<title>Node8</title>
<g id="a_Node000008"><a xlink:href="hx711_8c.html#a46c8262ab336340caa474098f940d2d7" target="_top" xlink:title=" ">
<polygon fill="white" stroke="#666666" points="368,-56 229,-56 229,-37 368,-37 368,-56"/>
<text text-anchor="middle" x="298.5" y="-44" font-family="Helvetica,sans-Serif" font-size="10.00">hx711_rtos_median_task</text>
</a>
</g>
</g>
<!-- Node7&#45;&gt;Node8 -->
<g id="edge7_Node000007_Node000008" class="edge">
<title>Node7&#45;&gt;Node8</title>
<g id="a_edge7_Node000007_Node000008"><a xlink:title=" ">
<path fill="none" stroke="#63b8ff" d="M399.78,-46.5C389.19,-46.5 378.4,-46.5 368.01,-46.5"/>
<polygon fill="#63b8ff" stroke="#63b8ff" points="399.86,-50 409.86,-46.5 399.86,-43 399.86,-50"/>
</a>
</g>
</g>
</g>
</svg>
