<?xml version="1.0" encoding="UTF-8" standalone="no"?>
<!DOCTYPE svg PUBLIC "-//W3C//DTD SVG 1.1//EN"
 "http://www.w3.org/Graphics/SVG/1.1/DTD/svg11.dtd">
<!-- Generated by graphviz version 2.43.0 (0)
 -->
<!-- Title: moving_average_init Pages: 1 -->
<svg width="535pt" height="64pt"
 viewBox="0.00 0.00 535.00 64.00" xmlns="http://www.w3.org/2000/svg" xmlns:xlink="http://www.w3.org/1999/xlink">
<g id="graph0" class="graph" transform="scale(1 1) rotate(0) translate(4 60)">
<title>moving_average_init</title>
<!-- Node1 -->
<g id="Node000001" class="node">
<title>Node1</title>
<g id="a_Node000001"><a xlink:title=" ">
<polygon fill="#999999" stroke="#666666" points="527,-37 408,-37 408,-18 527,-18 527,-37"/>
<text text-anchor="middle" x="467.5" y="-25" font-family="Helvetica,sans-Serif" font-size="10.00">moving_average_init</text>
</a>
</g>
</g>
<!-- Node2 -->
<g id="Node000002" class="node">
<title>Node2</title>
<g id="a_Node000002"><a xlink:href="hx711_8c.html#af597cc145be81ec0898873fc0a2e8261" target="_top" xlink:title=" ">
<polygon fill="white" stroke="#666666" points="334.5,-56 266.5,-56 266.5,-37 334.5,-37 334.5,-56"/>
<text text-anchor="middle" x="300.5" y="-44" font-family="Helvetica,sans-Serif" font-size="10.00">hx711_init</text>
</a>
</g>
</g>
<!-- Node1&#45;&gt;Node2 -->
<g id="edge1_Node000001_Node000002" class="edge">
<title>Node1&#45;&gt;Node2</title>
<g id="a_edge1_Node000001_Node000002"><a xlink:title=" ">
<path fill="none" stroke="#63b8ff" d="M397.9,-35.4C375.97,-37.92 352.69,-40.61 334.5,-42.7"/>
<polygon fill="#63b8ff" stroke="#63b8ff" points="398.33,-38.87 407.86,-34.25 397.53,-31.92 398.33,-38.87"/>
</a>
</g>
</g>
<!-- Node5 -->
<g id="Node000005" class="node">
<title>Node5</title>
<g id="a_Node000005"><a xlink:href="moving__average_8c.html#aa3ba7da270cee9fbe2c795d83e4c5ef1" target="_top" xlink:title=" ">
<polygon fill="white" stroke="#666666" points="372,-19 229,-19 229,0 372,0 372,-19"/>
<text text-anchor="middle" x="300.5" y="-7" font-family="Helvetica,sans-Serif" font-size="10.00">moving_average_init_rtos</text>
</a>
</g>
</g>
<!-- Node1&#45;&gt;Node5 -->
<g id="edge5_Node000001_Node000005" class="edge">
<title>Node1&#45;&gt;Node5</title>
<g id="a_edge5_Node000001_Node000005"><a xlink:title=" ">
<path fill="none" stroke="#63b8ff" d="M397.67,-19.99C389.22,-19.07 380.57,-18.13 372.09,-17.2"/>
<polygon fill="#63b8ff" stroke="#63b8ff" points="397.54,-23.5 407.86,-21.1 398.3,-16.54 397.54,-23.5"/>
</a>
</g>
</g>
<!-- Node3 -->
<g id="Node000003" class="node">
<title>Node3</title>
<g id="a_Node000003"><a xlink:href="main_8c.html#a630544a7f0a2cc40d8a7fefab7e2fe70" target="_top" xlink:title=" ">
<polygon fill="white" stroke="#666666" points="65,-56 0,-56 0,-37 65,-37 65,-56"/>
<text text-anchor="middle" x="32.5" y="-44" font-family="Helvetica,sans-Serif" font-size="10.00">app_main</text>
</a>
</g>
</g>
<!-- Node2&#45;&gt;Node3 -->
<g id="edge2_Node000002_Node000003" class="edge">
<title>Node2&#45;&gt;Node3</title>
<g id="a_edge2_Node000002_Node000003"><a xlink:title=" ">
<path fill="none" stroke="#63b8ff" d="M256.16,-46.5C202.67,-46.5 112.99,-46.5 65.41,-46.5"/>
<polygon fill="#63b8ff" stroke="#63b8ff" points="256.35,-50 266.35,-46.5 256.35,-43 256.35,-50"/>
</a>
</g>
</g>
<!-- Node4 -->
<g id="Node000004" class="node">
<title>Node4</title>
<g id="a_Node000004"><a xlink:href="hx711_8c.html#aa3f2bd6b7c47bcd3ccbafcad4e942dd3" target="_top" xlink:title=" ">
<polygon fill="white" stroke="#666666" points="193,-37 101,-37 101,-18 193,-18 193,-37"/>
<text text-anchor="middle" x="147" y="-25" font-family="Helvetica,sans-Serif" font-size="10.00">hx711_init_rtos</text>
</a>
</g>
</g>
<!-- Node2&#45;&gt;Node4 -->
<g id="edge3_Node000002_Node000004" class="edge">
<title>Node2&#45;&gt;Node4</title>
<g id="a_edge3_Node000002_Node000004"><a xlink:title=" ">
<path fill="none" stroke="#63b8ff" d="M256.3,-41.08C236.58,-38.61 213.21,-35.68 193.24,-33.17"/>
<polygon fill="#63b8ff" stroke="#63b8ff" points="255.89,-44.56 266.25,-42.33 256.77,-37.61 255.89,-44.56"/>
</a>
</g>
</g>
<!-- Node4&#45;&gt;Node3 -->
<g id="edge4_Node000004_Node000003" class="edge">
<title>Node4&#45;&gt;Node3</title>
<g id="a_edge4_Node000004_Node000003"><a xlink:title=" ">
<path fill="none" stroke="#63b8ff" d="M90.95,-36.8C82.09,-38.29 73.19,-39.8 65.13,-41.16"/>
<polygon fill="#63b8ff" stroke="#63b8ff" points="91.61,-40.24 100.89,-35.12 90.45,-33.33 91.61,-40.24"/>
</a>
</g>
</g>
</g>
</svg>
