<?xml version="1.0" encoding="UTF-8" standalone="no"?>
<!DOCTYPE svg PUBLIC "-//W3C//DTD SVG 1.1//EN"
 "http://www.w3.org/Graphics/SVG/1.1/DTD/svg11.dtd">
<!-- Generated by graphviz version 2.43.0 (0)
 -->
<!-- Title: moving_average_update Pages: 1 -->
<svg width="746pt" height="224pt"
 viewBox="0.00 0.00 746.00 224.00" xmlns="http://www.w3.org/2000/svg" xmlns:xlink="http://www.w3.org/1999/xlink">
<g id="graph0" class="graph" transform="scale(1 1) rotate(0) translate(4 220)">
<title>moving_average_update</title>
<!-- Node1 -->
<g id="Node000001" class="node">
<title>Node1</title>
<g id="a_Node000001"><a xlink:title=" ">
<polygon fill="#999999" stroke="#666666" points="738,-105 601,-105 601,-86 738,-86 738,-105"/>
<text text-anchor="middle" x="669.5" y="-93" font-family="Helvetica,sans-Serif" font-size="10.00">moving_average_update</text>
</a>
</g>
</g>
<!-- Node2 -->
<g id="Node000002" class="node">
<title>Node2</title>
<g id="a_Node000002"><a xlink:href="hx711_8c.html#af597cc145be81ec0898873fc0a2e8261" target="_top" xlink:title=" ">
<polygon fill="white" stroke="#666666" points="332.5,-216 264.5,-216 264.5,-197 332.5,-197 332.5,-216"/>
<text text-anchor="middle" x="298.5" y="-204" font-family="Helvetica,sans-Serif" font-size="10.00">hx711_init</text>
</a>
</g>
</g>
<!-- Node1&#45;&gt;Node2 -->
<g id="edge1_Node000001_Node000002" class="edge">
<title>Node1&#45;&gt;Node2</title>
<g id="a_edge1_Node000001_Node000002"><a xlink:title=" ">
<path fill="none" stroke="#63b8ff" d="M645.48,-110.5C625.09,-123.16 594.12,-140.87 565,-151.5 484.3,-180.97 383.73,-196.37 332.63,-202.79"/>
<polygon fill="#63b8ff" stroke="#63b8ff" points="647.47,-113.39 654.06,-105.09 643.73,-107.47 647.47,-113.39"/>
</a>
</g>
</g>
<!-- Node5 -->
<g id="Node000005" class="node">
<title>Node5</title>
<g id="a_Node000005"><a xlink:href="hx711_8c.html#af0a6adda73c183ed8b4dbd127ff5b35a" target="_top" xlink:title=" ">
<polygon fill="white" stroke="#666666" points="541,-142 428,-142 428,-123 541,-123 541,-142"/>
<text text-anchor="middle" x="484.5" y="-130" font-family="Helvetica,sans-Serif" font-size="10.00">hx711_read_filtered</text>
</a>
</g>
</g>
<!-- Node1&#45;&gt;Node5 -->
<g id="edge5_Node000001_Node000005" class="edge">
<title>Node1&#45;&gt;Node5</title>
<g id="a_edge5_Node000001_Node000005"><a xlink:title=" ">
<path fill="none" stroke="#63b8ff" d="M611.54,-107.02C586.25,-112.13 556.84,-118.08 532.79,-122.94"/>
<polygon fill="#63b8ff" stroke="#63b8ff" points="612.26,-110.44 621.37,-105.03 610.88,-103.58 612.26,-110.44"/>
</a>
</g>
</g>
<!-- Node8 -->
<g id="Node000008" class="node">
<title>Node8</title>
<g id="a_Node000008"><a xlink:href="hx711_8c.html#a1a9420f9643f715e8f5e45e342ffbf8a" target="_top" xlink:title=" ">
<polygon fill="white" stroke="#666666" points="554.5,-105 414.5,-105 414.5,-86 554.5,-86 554.5,-105"/>
<text text-anchor="middle" x="484.5" y="-93" font-family="Helvetica,sans-Serif" font-size="10.00">hx711_read_median_rtos</text>
</a>
</g>
</g>
<!-- Node1&#45;&gt;Node8 -->
<g id="edge9_Node000001_Node000008" class="edge">
<title>Node1&#45;&gt;Node8</title>
<g id="a_edge9_Node000001_Node000008"><a xlink:title=" ">
<path fill="none" stroke="#63b8ff" d="M590.87,-95.5C578.85,-95.5 566.5,-95.5 554.68,-95.5"/>
<polygon fill="#63b8ff" stroke="#63b8ff" points="590.88,-99 600.88,-95.5 590.88,-92 590.88,-99"/>
</a>
</g>
</g>
<!-- Node10 -->
<g id="Node000010" class="node">
<title>Node10</title>
<g id="a_Node000010"><a xlink:href="moving__average_8c.html#a1660b641ce379ad5bc797ce9da11d810" target="_top" xlink:title=" ">
<polygon fill="white" stroke="#666666" points="553,-67.5 416,-67.5 416,-37.5 553,-37.5 553,-67.5"/>
<text text-anchor="start" x="424" y="-55.5" font-family="Helvetica,sans-Serif" font-size="10.00">moving_average_update</text>
<text text-anchor="middle" x="484.5" y="-44.5" font-family="Helvetica,sans-Serif" font-size="10.00">_median3</text>
</a>
</g>
</g>
<!-- Node1&#45;&gt;Node10 -->
<g id="edge11_Node000001_Node000010" class="edge">
<title>Node1&#45;&gt;Node10</title>
<g id="a_edge11_Node000001_Node000010"><a xlink:title=" ">
<path fill="none" stroke="#63b8ff" d="M618.1,-83.66C596.85,-78.66 571.88,-72.8 549.36,-67.51"/>
<polygon fill="#63b8ff" stroke="#63b8ff" points="617.35,-87.08 627.89,-85.96 618.95,-80.26 617.35,-87.08"/>
</a>
</g>
</g>
<!-- Node12 -->
<g id="Node000012" class="node">
<title>Node12</title>
<g id="a_Node000012"><a xlink:href="moving__average_8c.html#a21653a3c2898a3d5cbddb4ed934cb2c3" target="_top" xlink:title=" ">
<polygon fill="white" stroke="#666666" points="565,-19 404,-19 404,0 565,0 565,-19"/>
<text text-anchor="middle" x="484.5" y="-7" font-family="Helvetica,sans-Serif" font-size="10.00">moving_average_update_rtos</text>
</a>
</g>
</g>
<!-- Node1&#45;&gt;Node12 -->
<g id="edge13_Node000001_Node000012" class="edge">
<title>Node1&#45;&gt;Node12</title>
<g id="a_edge13_Node000001_Node000012"><a xlink:title=" ">
<path fill="none" stroke="#63b8ff" d="M648.48,-79.57C628.45,-64.37 596.2,-41.86 565,-28.5 556.13,-24.7 546.36,-21.58 536.8,-19.05"/>
<polygon fill="#63b8ff" stroke="#63b8ff" points="646.48,-82.44 656.53,-85.79 650.76,-76.9 646.48,-82.44"/>
</a>
</g>
</g>
<!-- Node3 -->
<g id="Node000003" class="node">
<title>Node3</title>
<g id="a_Node000003"><a xlink:href="main_8c.html#a630544a7f0a2cc40d8a7fefab7e2fe70" target="_top" xlink:title=" ">
<polygon fill="white" stroke="#666666" points="65,-197 0,-197 0,-178 65,-178 65,-197"/>
<text text-anchor="middle" x="32.5" y="-185" font-family="Helvetica,sans-Serif" font-size="10.00">app_main</text>
</a>
</g>
</g>
<!-- Node2&#45;&gt;Node3 -->
<g id="edge2_Node000002_Node000003" class="edge">
<title>Node2&#45;&gt;Node3</title>
<g id="a_edge2_Node000002_Node000003"><a xlink:title=" ">
<path fill="none" stroke="#63b8ff" d="M254.2,-203.38C201.06,-199.56 112.22,-193.17 65.09,-189.77"/>
<polygon fill="#63b8ff" stroke="#63b8ff" points="254.11,-206.89 264.33,-204.11 254.61,-199.9 254.11,-206.89"/>
</a>
</g>
</g>
<!-- Node4 -->
<g id="Node000004" class="node">
<title>Node4</title>
<g id="a_Node000004"><a xlink:href="hx711_8c.html#aa3f2bd6b7c47bcd3ccbafcad4e942dd3" target="_top" xlink:title=" ">
<polygon fill="white" stroke="#666666" points="193,-178 101,-178 101,-159 193,-159 193,-178"/>
<text text-anchor="middle" x="147" y="-166" font-family="Helvetica,sans-Serif" font-size="10.00">hx711_init_rtos</text>
</a>
</g>
</g>
<!-- Node2&#45;&gt;Node4 -->
<g id="edge3_Node000002_Node000004" class="edge">
<title>Node2&#45;&gt;Node4</title>
<g id="a_edge3_Node000002_Node000004"><a xlink:title=" ">
<path fill="none" stroke="#63b8ff" d="M254.35,-195.53C232.6,-190 206.47,-183.36 185.56,-178.05"/>
<polygon fill="#63b8ff" stroke="#63b8ff" points="253.77,-199 264.32,-198.07 255.49,-192.21 253.77,-199"/>
</a>
</g>
</g>
<!-- Node4&#45;&gt;Node3 -->
<g id="edge4_Node000004_Node000003" class="edge">
<title>Node4&#45;&gt;Node3</title>
<g id="a_edge4_Node000004_Node000003"><a xlink:title=" ">
<path fill="none" stroke="#63b8ff" d="M90.95,-177.8C82.09,-179.29 73.19,-180.8 65.13,-182.16"/>
<polygon fill="#63b8ff" stroke="#63b8ff" points="91.61,-181.24 100.89,-176.12 90.45,-174.33 91.61,-181.24"/>
</a>
</g>
</g>
<!-- Node6 -->
<g id="Node000006" class="node">
<title>Node6</title>
<g id="a_Node000006"><a xlink:href="hx711_8c.html#ac6c8066eeca1a4549359b2da8deda8f9" target="_top" xlink:title=" ">
<polygon fill="white" stroke="#666666" points="367,-179 230,-179 230,-160 367,-160 367,-179"/>
<text text-anchor="middle" x="298.5" y="-167" font-family="Helvetica,sans-Serif" font-size="10.00">hx711_read_filtered_rtos</text>
</a>
</g>
</g>
<!-- Node5&#45;&gt;Node6 -->
<g id="edge6_Node000005_Node000006" class="edge">
<title>Node5&#45;&gt;Node6</title>
<g id="a_edge6_Node000005_Node000006"><a xlink:title=" ">
<path fill="none" stroke="#63b8ff" d="M426.23,-144.02C400.8,-149.13 371.23,-155.08 347.04,-159.94"/>
<polygon fill="#63b8ff" stroke="#63b8ff" points="427,-147.43 436.12,-142.03 425.62,-140.57 427,-147.43"/>
</a>
</g>
</g>
<!-- Node7 -->
<g id="Node000007" class="node">
<title>Node7</title>
<g id="a_Node000007"><a xlink:href="hx711_8c.html#a985ea3f202ebc30a95f6bc340b15ef1e" target="_top" xlink:title=" ">
<polygon fill="white" stroke="#666666" points="347,-142 250,-142 250,-123 347,-123 347,-142"/>
<text text-anchor="middle" x="298.5" y="-130" font-family="Helvetica,sans-Serif" font-size="10.00">hx711_rtos_task</text>
</a>
</g>
</g>
<!-- Node5&#45;&gt;Node7 -->
<g id="edge7_Node000005_Node000007" class="edge">
<title>Node5&#45;&gt;Node7</title>
<g id="a_edge7_Node000005_Node000007"><a xlink:title=" ">
<path fill="none" stroke="#63b8ff" d="M417.65,-132.5C394.4,-132.5 368.71,-132.5 347.24,-132.5"/>
<polygon fill="#63b8ff" stroke="#63b8ff" points="417.79,-136 427.79,-132.5 417.79,-129 417.79,-136"/>
</a>
</g>
</g>
<!-- Node7&#45;&gt;Node4 -->
<g id="edge8_Node000007_Node000004" class="edge">
<title>Node7&#45;&gt;Node4</title>
<g id="a_edge8_Node000007_Node000004"><a xlink:title=" ">
<path fill="none" stroke="#63b8ff" d="M247.86,-144.45C228.27,-149.17 206.08,-154.52 187.6,-158.97"/>
<polygon fill="#63b8ff" stroke="#63b8ff" points="248.93,-147.8 257.83,-142.05 247.29,-140.99 248.93,-147.8"/>
</a>
</g>
</g>
<!-- Node9 -->
<g id="Node000009" class="node">
<title>Node9</title>
<g id="a_Node000009"><a xlink:href="hx711_8c.html#a46c8262ab336340caa474098f940d2d7" target="_top" xlink:title=" ">
<polygon fill="white" stroke="#666666" points="368,-105 229,-105 229,-86 368,-86 368,-105"/>
<text text-anchor="middle" x="298.5" y="-93" font-family="Helvetica,sans-Serif" font-size="10.00">hx711_rtos_median_task</text>
</a>
</g>
</g>
<!-- Node8&#45;&gt;Node9 -->
<g id="edge10_Node000008_Node000009" class="edge">
<title>Node8&#45;&gt;Node9</title>
<g id="a_edge10_Node000008_Node000009"><a xlink:title=" ">
<path fill="none" stroke="#63b8ff" d="M404.38,-95.5C392.27,-95.5 379.86,-95.5 368.01,-95.5"/>
<polygon fill="#63b8ff" stroke="#63b8ff" points="404.46,-99 414.46,-95.5 404.46,-92 404.46,-99"/>
</a>
</g>
</g>
<!-- Node11 -->
<g id="Node000011" class="node">
<title>Node11</title>
<g id="a_Node000011"><a xlink:href="moving__average_8c.html#a01bb025bfad256b07b248a5cebd569c2" target="_top" xlink:title=" ">
<polygon fill="white" stroke="#666666" points="367,-67.5 230,-67.5 230,-37.5 367,-37.5 367,-67.5"/>
<text text-anchor="start" x="238" y="-55.5" font-family="Helvetica,sans-Serif" font-size="10.00">moving_average_update</text>
<text text-anchor="middle" x="298.5" y="-44.5" font-family="Helvetica,sans-Serif" font-size="10.00">_median3_rtos</text>
</a>
</g>
</g>
<!-- Node10&#45;&gt;Node11 -->
<g id="edge12_Node000010_Node000011" class="edge">
<title>Node10&#45;&gt;Node11</title>
<g id="a_edge12_Node000010_Node000011"><a xlink:title=" ">
<path fill="none" stroke="#63b8ff" d="M405.6,-52.5C392.79,-52.5 379.62,-52.5 367.09,-52.5"/>
<polygon fill="#63b8ff" stroke="#63b8ff" points="405.77,-56 415.77,-52.5 405.77,-49 405.77,-56"/>
</a>
</g>
</g>
</g>
</svg>
