<?xml version="1.0" encoding="UTF-8" standalone="no"?>
<!DOCTYPE svg PUBLIC "-//W3C//DTD SVG 1.1//EN"
 "http://www.w3.org/Graphics/SVG/1.1/DTD/svg11.dtd">
<!-- Generated by graphviz version 2.43.0 (0)
 -->
<!-- Title: median3 Pages: 1 -->
<svg width="418pt" height="76pt"
 viewBox="0.00 0.00 418.00 75.50" xmlns="http://www.w3.org/2000/svg" xmlns:xlink="http://www.w3.org/1999/xlink">
<g id="graph0" class="graph" transform="scale(1 1) rotate(0) translate(4 71.5)">
<title>median3</title>
<!-- Node1 -->
<g id="Node000001" class="node">
<title>Node1</title>
<g id="a_Node000001"><a xlink:title=" ">
<polygon fill="#999999" stroke="#666666" points="410,-45.5 351,-45.5 351,-26.5 410,-26.5 410,-45.5"/>
<text text-anchor="middle" x="380.5" y="-33.5" font-family="Helvetica,sans-Serif" font-size="10.00">median3</text>
</a>
</g>
</g>
<!-- Node2 -->
<g id="Node000002" class="node">
<title>Node2</title>
<g id="a_Node000002"><a xlink:href="hx711_8c.html#a1a9420f9643f715e8f5e45e342ffbf8a" target="_top" xlink:title=" ">
<polygon fill="white" stroke="#666666" points="315,-67.5 175,-67.5 175,-48.5 315,-48.5 315,-67.5"/>
<text text-anchor="middle" x="245" y="-55.5" font-family="Helvetica,sans-Serif" font-size="10.00">hx711_read_median_rtos</text>
</a>
</g>
</g>
<!-- Node1&#45;&gt;Node2 -->
<g id="edge1_Node000001_Node000002" class="edge">
<title>Node1&#45;&gt;Node2</title>
<g id="a_edge1_Node000001_Node000002"><a xlink:title=" ">
<path fill="none" stroke="#63b8ff" d="M340.68,-42.4C329.12,-44.3 316.19,-46.43 303.7,-48.49"/>
<polygon fill="#63b8ff" stroke="#63b8ff" points="341.56,-45.8 350.86,-40.72 340.42,-38.89 341.56,-45.8"/>
</a>
</g>
</g>
<!-- Node4 -->
<g id="Node000004" class="node">
<title>Node4</title>
<g id="a_Node000004"><a xlink:href="moving__average_8c.html#a1660b641ce379ad5bc797ce9da11d810" target="_top" xlink:title=" ">
<polygon fill="white" stroke="#666666" points="313.5,-30 176.5,-30 176.5,0 313.5,0 313.5,-30"/>
<text text-anchor="start" x="184.5" y="-18" font-family="Helvetica,sans-Serif" font-size="10.00">moving_average_update</text>
<text text-anchor="middle" x="245" y="-7" font-family="Helvetica,sans-Serif" font-size="10.00">_median3</text>
</a>
</g>
</g>
<!-- Node1&#45;&gt;Node4 -->
<g id="edge3_Node000001_Node000004" class="edge">
<title>Node1&#45;&gt;Node4</title>
<g id="a_edge3_Node000001_Node000004"><a xlink:title=" ">
<path fill="none" stroke="#63b8ff" d="M340.82,-29.92C332.24,-28.57 322.9,-27.1 313.54,-25.62"/>
<polygon fill="#63b8ff" stroke="#63b8ff" points="340.44,-33.4 350.86,-31.49 341.53,-26.48 340.44,-33.4"/>
</a>
</g>
</g>
<!-- Node3 -->
<g id="Node000003" class="node">
<title>Node3</title>
<g id="a_Node000003"><a xlink:href="hx711_8c.html#a46c8262ab336340caa474098f940d2d7" target="_top" xlink:title=" ">
<polygon fill="white" stroke="#666666" points="139,-67.5 0,-67.5 0,-48.5 139,-48.5 139,-67.5"/>
<text text-anchor="middle" x="69.5" y="-55.5" font-family="Helvetica,sans-Serif" font-size="10.00">hx711_rtos_median_task</text>
</a>
</g>
</g>
<!-- Node2&#45;&gt;Node3 -->
<g id="edge2_Node000002_Node000003" class="edge">
<title>Node2&#45;&gt;Node3</title>
<g id="a_edge2_Node000002_Node000003"><a xlink:title=" ">
<path fill="none" stroke="#63b8ff" d="M164.88,-58C156.25,-58 147.53,-58 139.05,-58"/>
<polygon fill="#63b8ff" stroke="#63b8ff" points="164.93,-61.5 174.93,-58 164.93,-54.5 164.93,-61.5"/>
</a>
</g>
</g>
<!-- Node5 -->
<g id="Node000005" class="node">
<title>Node5</title>
<g id="a_Node000005"><a xlink:href="moving__average_8c.html#a01bb025bfad256b07b248a5cebd569c2" target="_top" xlink:title=" ">
<polygon fill="white" stroke="#666666" points="138,-30 1,-30 1,0 138,0 138,-30"/>
<text text-anchor="start" x="9" y="-18" font-family="Helvetica,sans-Serif" font-size="10.00">moving_average_update</text>
<text text-anchor="middle" x="69.5" y="-7" font-family="Helvetica,sans-Serif" font-size="10.00">_median3_rtos</text>
</a>
</g>
</g>
<!-- Node4&#45;&gt;Node5 -->
<g id="edge4_Node000004_Node000005" class="edge">
<title>Node4&#45;&gt;Node5</title>
<g id="a_edge4_Node000004_Node000005"><a xlink:title=" ">
<path fill="none" stroke="#63b8ff" d="M166.32,-15C156.93,-15 147.4,-15 138.18,-15"/>
<polygon fill="#63b8ff" stroke="#63b8ff" points="166.42,-18.5 176.42,-15 166.42,-11.5 166.42,-18.5"/>
</a>
</g>
</g>
</g>
</svg>
