<?xml version="1.0" encoding="UTF-8" standalone="no"?>
<!DOCTYPE svg PUBLIC "-//W3C//DTD SVG 1.1//EN"
 "http://www.w3.org/Graphics/SVG/1.1/DTD/svg11.dtd">
<!-- Generated by graphviz version 2.43.0 (0)
 -->
<!-- Title: main/moving_avg/moving_average.c Pages: 1 -->
<svg width="384pt" height="148pt"
 viewBox="0.00 0.00 384.00 148.00" xmlns="http://www.w3.org/2000/svg" xmlns:xlink="http://www.w3.org/1999/xlink">
<g id="graph0" class="graph" transform="scale(1 1) rotate(0) translate(4 144)">
<title>main/moving_avg/moving_average.c</title>
<!-- Node1 -->
<g id="Node000001" class="node">
<title>Node1</title>
<g id="a_Node000001"><a xlink:title=" ">
<polygon fill="#999999" stroke="#666666" points="242.5,-140 98.5,-140 98.5,-110 242.5,-110 242.5,-140"/>
<text text-anchor="start" x="106.5" y="-128" font-family="Helvetica,sans-Serif" font-size="10.00">main/moving_avg/moving</text>
<text text-anchor="middle" x="170.5" y="-117" font-family="Helvetica,sans-Serif" font-size="10.00">_average.c</text>
</a>
</g>
</g>
<!-- Node2 -->
<g id="Node000002" class="node">
<title>Node2</title>
<g id="a_Node000002"><a xlink:href="moving__average_8h.html" target="_top" xlink:title=" ">
<polygon fill="white" stroke="#666666" points="224,-74 117,-74 117,-55 224,-55 224,-74"/>
<text text-anchor="middle" x="170.5" y="-62" font-family="Helvetica,sans-Serif" font-size="10.00">moving_average.h</text>
</a>
</g>
</g>
<!-- Node1&#45;&gt;Node2 -->
<g id="edge1_Node000001_Node000002" class="edge">
<title>Node1&#45;&gt;Node2</title>
<g id="a_edge1_Node000001_Node000002"><a xlink:title=" ">
<path fill="none" stroke="#63b8ff" d="M170.5,-109.84C170.5,-102.21 170.5,-92.7 170.5,-84.45"/>
<polygon fill="#63b8ff" stroke="#63b8ff" points="174,-84.27 170.5,-74.27 167,-84.27 174,-84.27"/>
</a>
</g>
</g>
<!-- Node3 -->
<g id="Node000003" class="node">
<title>Node3</title>
<g id="a_Node000003"><a xlink:title=" ">
<polygon fill="#e0e0e0" stroke="#999999" points="53,-19 0,-19 0,0 53,0 53,-19"/>
<text text-anchor="middle" x="26.5" y="-7" font-family="Helvetica,sans-Serif" font-size="10.00">stdlib.h</text>
</a>
</g>
</g>
<!-- Node1&#45;&gt;Node3 -->
<g id="edge6_Node000001_Node000003" class="edge">
<title>Node1&#45;&gt;Node3</title>
<g id="a_edge6_Node000001_Node000003"><a xlink:title=" ">
<path fill="none" stroke="#63b8ff" d="M147.9,-109.92C132.94,-100.32 113.09,-87.02 96.5,-74 77.08,-58.76 56.31,-39.49 42.48,-26.2"/>
<polygon fill="#63b8ff" stroke="#63b8ff" points="44.82,-23.6 35.2,-19.15 39.94,-28.62 44.82,-23.6"/>
</a>
</g>
</g>
<!-- Node4 -->
<g id="Node000004" class="node">
<title>Node4</title>
<g id="a_Node000004"><a xlink:title=" ">
<polygon fill="#e0e0e0" stroke="#999999" points="124,-19 71,-19 71,0 124,0 124,-19"/>
<text text-anchor="middle" x="97.5" y="-7" font-family="Helvetica,sans-Serif" font-size="10.00">string.h</text>
</a>
</g>
</g>
<!-- Node1&#45;&gt;Node4 -->
<g id="edge7_Node000001_Node000004" class="edge">
<title>Node1&#45;&gt;Node4</title>
<g id="a_edge7_Node000001_Node000004"><a xlink:title=" ">
<path fill="none" stroke="#63b8ff" d="M144.8,-109.97C131.52,-101.35 116.29,-89.08 107.5,-74 99.67,-60.58 97.4,-42.98 96.96,-29.71"/>
<polygon fill="#63b8ff" stroke="#63b8ff" points="100.46,-29.37 96.94,-19.38 93.46,-29.38 100.46,-29.37"/>
</a>
</g>
</g>
<!-- Node5 -->
<g id="Node000005" class="node">
<title>Node5</title>
<g id="a_Node000005"><a xlink:title=" ">
<polygon fill="#e0e0e0" stroke="#999999" points="255,-19 142,-19 142,0 255,0 255,-19"/>
<text text-anchor="middle" x="198.5" y="-7" font-family="Helvetica,sans-Serif" font-size="10.00">freertos/FreeRTOS.h</text>
</a>
</g>
</g>
<!-- Node1&#45;&gt;Node5 -->
<g id="edge8_Node000001_Node000005" class="edge">
<title>Node1&#45;&gt;Node5</title>
<g id="a_edge8_Node000001_Node000005"><a xlink:title=" ">
<path fill="none" stroke="#63b8ff" d="M197.37,-109.96C210.56,-101.49 225.16,-89.34 232.5,-74 240.45,-57.37 227.97,-38.84 215.96,-26.11"/>
<polygon fill="#63b8ff" stroke="#63b8ff" points="218.31,-23.51 208.72,-19 213.4,-28.5 218.31,-23.51"/>
</a>
</g>
</g>
<!-- Node6 -->
<g id="Node000006" class="node">
<title>Node6</title>
<g id="a_Node000006"><a xlink:title=" ">
<polygon fill="#e0e0e0" stroke="#999999" points="376,-19 273,-19 273,0 376,0 376,-19"/>
<text text-anchor="middle" x="324.5" y="-7" font-family="Helvetica,sans-Serif" font-size="10.00">freertos/semphr.h</text>
</a>
</g>
</g>
<!-- Node1&#45;&gt;Node6 -->
<g id="edge9_Node000001_Node000006" class="edge">
<title>Node1&#45;&gt;Node6</title>
<g id="a_edge9_Node000001_Node000006"><a xlink:title=" ">
<path fill="none" stroke="#63b8ff" d="M194.22,-109.87C209.95,-100.24 230.86,-86.94 248.5,-74 269.55,-58.55 292.38,-39.08 307.46,-25.8"/>
<polygon fill="#63b8ff" stroke="#63b8ff" points="309.82,-28.38 314.98,-19.13 305.18,-23.15 309.82,-28.38"/>
</a>
</g>
</g>
<!-- Node2&#45;&gt;Node3 -->
<g id="edge2_Node000002_Node000003" class="edge">
<title>Node2&#45;&gt;Node3</title>
<g id="a_edge2_Node000002_Node000003"><a xlink:title=" ">
<path fill="none" stroke="#63b8ff" d="M147.36,-54.98C123.68,-46.27 86.63,-32.63 59.79,-22.75"/>
<polygon fill="#63b8ff" stroke="#63b8ff" points="60.65,-19.34 50.06,-19.17 58.23,-25.91 60.65,-19.34"/>
</a>
</g>
</g>
<!-- Node2&#45;&gt;Node4 -->
<g id="edge3_Node000002_Node000004" class="edge">
<title>Node2&#45;&gt;Node4</title>
<g id="a_edge3_Node000002_Node000004"><a xlink:title=" ">
<path fill="none" stroke="#63b8ff" d="M158.77,-54.98C147.77,-47 131.08,-34.88 117.9,-25.31"/>
<polygon fill="#63b8ff" stroke="#63b8ff" points="119.59,-22.21 109.44,-19.17 115.48,-27.88 119.59,-22.21"/>
</a>
</g>
</g>
<!-- Node2&#45;&gt;Node5 -->
<g id="edge4_Node000002_Node000005" class="edge">
<title>Node2&#45;&gt;Node5</title>
<g id="a_edge4_Node000002_Node000005"><a xlink:title=" ">
<path fill="none" stroke="#63b8ff" d="M175.12,-54.75C178.96,-47.49 184.52,-36.95 189.26,-27.98"/>
<polygon fill="#63b8ff" stroke="#63b8ff" points="192.39,-29.57 193.96,-19.09 186.2,-26.3 192.39,-29.57"/>
</a>
</g>
</g>
<!-- Node2&#45;&gt;Node6 -->
<g id="edge5_Node000002_Node000006" class="edge">
<title>Node2&#45;&gt;Node6</title>
<g id="a_edge5_Node000002_Node000006"><a xlink:title=" ">
<path fill="none" stroke="#63b8ff" d="M195.24,-54.98C220.87,-46.16 261.13,-32.31 289.91,-22.41"/>
<polygon fill="#63b8ff" stroke="#63b8ff" points="291.25,-25.65 299.56,-19.08 288.97,-19.03 291.25,-25.65"/>
</a>
</g>
</g>
</g>
</svg>
