<?xml version="1.0" encoding="UTF-8" standalone="no"?>
<!DOCTYPE svg PUBLIC "-//W3C//DTD SVG 1.1//EN"
 "http://www.w3.org/Graphics/SVG/1.1/DTD/svg11.dtd">
<!-- Generated by graphviz version 2.43.0 (0)
 -->
<!-- Title: main/sntp_synch/sntp_synch.c Pages: 1 -->
<svg width="770pt" height="148pt"
 viewBox="0.00 0.00 770.00 148.00" xmlns="http://www.w3.org/2000/svg" xmlns:xlink="http://www.w3.org/1999/xlink">
<g id="graph0" class="graph" transform="scale(1 1) rotate(0) translate(4 144)">
<title>main/sntp_synch/sntp_synch.c</title>
<!-- Node1 -->
<g id="Node000001" class="node">
<title>Node1</title>
<g id="a_Node000001"><a xlink:title=" ">
<polygon fill="#999999" stroke="#666666" points="469.5,-140 346.5,-140 346.5,-110 469.5,-110 469.5,-140"/>
<text text-anchor="start" x="354.5" y="-128" font-family="Helvetica,sans-Serif" font-size="10.00">main/sntp_synch/sntp</text>
<text text-anchor="middle" x="408" y="-117" font-family="Helvetica,sans-Serif" font-size="10.00">_synch.c</text>
</a>
</g>
</g>
<!-- Node2 -->
<g id="Node000002" class="node">
<title>Node2</title>
<g id="a_Node000002"><a xlink:href="sntp__synch_8h.html" target="_top" xlink:title=" ">
<polygon fill="white" stroke="#666666" points="177,-74 97,-74 97,-55 177,-55 177,-74"/>
<text text-anchor="middle" x="137" y="-62" font-family="Helvetica,sans-Serif" font-size="10.00">sntp_synch.h</text>
</a>
</g>
</g>
<!-- Node1&#45;&gt;Node2 -->
<g id="edge1_Node000001_Node000002" class="edge">
<title>Node1&#45;&gt;Node2</title>
<g id="a_edge1_Node000001_Node000002"><a xlink:title=" ">
<path fill="none" stroke="#63b8ff" d="M346.17,-110.65C297.8,-100.21 231.45,-85.89 186.55,-76.2"/>
<polygon fill="#63b8ff" stroke="#63b8ff" points="187.26,-72.77 176.75,-74.08 185.78,-79.61 187.26,-72.77"/>
</a>
</g>
</g>
<!-- Node6 -->
<g id="Node000006" class="node">
<title>Node6</title>
<g id="a_Node000006"><a xlink:title=" ">
<polygon fill="#e0e0e0" stroke="#999999" points="264.5,-74 195.5,-74 195.5,-55 264.5,-55 264.5,-74"/>
<text text-anchor="middle" x="230" y="-62" font-family="Helvetica,sans-Serif" font-size="10.00">esp_sntp.h</text>
</a>
</g>
</g>
<!-- Node1&#45;&gt;Node6 -->
<g id="edge5_Node000001_Node000006" class="edge">
<title>Node1&#45;&gt;Node6</title>
<g id="a_edge5_Node000001_Node000006"><a xlink:title=" ">
<path fill="none" stroke="#63b8ff" d="M365.36,-109.99C334.91,-99.98 294.41,-86.67 265.67,-77.22"/>
<polygon fill="#63b8ff" stroke="#63b8ff" points="266.62,-73.85 256.03,-74.05 264.43,-80.5 266.62,-73.85"/>
</a>
</g>
</g>
<!-- Node7 -->
<g id="Node000007" class="node">
<title>Node7</title>
<g id="a_Node000007"><a xlink:title=" ">
<polygon fill="#e0e0e0" stroke="#999999" points="415.5,-74 282.5,-74 282.5,-55 415.5,-55 415.5,-74"/>
<text text-anchor="middle" x="349" y="-62" font-family="Helvetica,sans-Serif" font-size="10.00">freertos/event_groups.h</text>
</a>
</g>
</g>
<!-- Node1&#45;&gt;Node7 -->
<g id="edge6_Node000001_Node000007" class="edge">
<title>Node1&#45;&gt;Node7</title>
<g id="a_edge6_Node000001_Node000007"><a xlink:title=" ">
<path fill="none" stroke="#63b8ff" d="M393.72,-109.84C385.07,-101.26 374.01,-90.3 365.06,-81.42"/>
<polygon fill="#63b8ff" stroke="#63b8ff" points="367.41,-78.82 357.84,-74.27 362.48,-83.79 367.41,-78.82"/>
</a>
</g>
</g>
<!-- Node8 -->
<g id="Node000008" class="node">
<title>Node8</title>
<g id="a_Node000008"><a xlink:title=" ">
<polygon fill="#e0e0e0" stroke="#999999" points="502,-74 434,-74 434,-55 502,-55 502,-74"/>
<text text-anchor="middle" x="468" y="-62" font-family="Helvetica,sans-Serif" font-size="10.00">sys/time.h</text>
</a>
</g>
</g>
<!-- Node1&#45;&gt;Node8 -->
<g id="edge7_Node000001_Node000008" class="edge">
<title>Node1&#45;&gt;Node8</title>
<g id="a_edge7_Node000001_Node000008"><a xlink:title=" ">
<path fill="none" stroke="#63b8ff" d="M422.52,-109.84C431.32,-101.26 442.57,-90.3 451.67,-81.42"/>
<polygon fill="#63b8ff" stroke="#63b8ff" points="454.29,-83.75 459.01,-74.27 449.41,-78.74 454.29,-83.75"/>
</a>
</g>
</g>
<!-- Node9 -->
<g id="Node000009" class="node">
<title>Node9</title>
<g id="a_Node000009"><a xlink:title=" ">
<polygon fill="#e0e0e0" stroke="#999999" points="568,-74 520,-74 520,-55 568,-55 568,-74"/>
<text text-anchor="middle" x="544" y="-62" font-family="Helvetica,sans-Serif" font-size="10.00">time.h</text>
</a>
</g>
</g>
<!-- Node1&#45;&gt;Node9 -->
<g id="edge8_Node000001_Node000009" class="edge">
<title>Node1&#45;&gt;Node9</title>
<g id="a_edge8_Node000001_Node000009"><a xlink:title=" ">
<path fill="none" stroke="#63b8ff" d="M440.58,-109.99C463.06,-100.31 492.72,-87.56 514.51,-78.18"/>
<polygon fill="#63b8ff" stroke="#63b8ff" points="516.11,-81.31 523.92,-74.14 513.35,-74.88 516.11,-81.31"/>
</a>
</g>
</g>
<!-- Node10 -->
<g id="Node000010" class="node">
<title>Node10</title>
<g id="a_Node000010"><a xlink:href="log__utils_8h.html" target="_top" xlink:title=" ">
<polygon fill="white" stroke="#666666" points="653.5,-74 586.5,-74 586.5,-55 653.5,-55 653.5,-74"/>
<text text-anchor="middle" x="620" y="-62" font-family="Helvetica,sans-Serif" font-size="10.00">log_utils.h</text>
</a>
</g>
</g>
<!-- Node1&#45;&gt;Node10 -->
<g id="edge9_Node000001_Node000010" class="edge">
<title>Node1&#45;&gt;Node10</title>
<g id="a_edge9_Node000001_Node000010"><a xlink:title=" ">
<path fill="none" stroke="#63b8ff" d="M458.78,-109.99C495.68,-99.8 544.98,-86.2 579.3,-76.73"/>
<polygon fill="#63b8ff" stroke="#63b8ff" points="580.29,-80.09 589,-74.05 578.43,-73.34 580.29,-80.09"/>
</a>
</g>
</g>
<!-- Node3 -->
<g id="Node000003" class="node">
<title>Node3</title>
<g id="a_Node000003"><a xlink:title=" ">
<polygon fill="#e0e0e0" stroke="#999999" points="62,-19 0,-19 0,0 62,0 62,-19"/>
<text text-anchor="middle" x="31" y="-7" font-family="Helvetica,sans-Serif" font-size="10.00">stdbool.h</text>
</a>
</g>
</g>
<!-- Node2&#45;&gt;Node3 -->
<g id="edge2_Node000002_Node000003" class="edge">
<title>Node2&#45;&gt;Node3</title>
<g id="a_edge2_Node000002_Node000003"><a xlink:title=" ">
<path fill="none" stroke="#63b8ff" d="M119.97,-54.98C103.07,-46.54 76.94,-33.47 57.36,-23.68"/>
<polygon fill="#63b8ff" stroke="#63b8ff" points="58.85,-20.51 48.34,-19.17 55.72,-26.77 58.85,-20.51"/>
</a>
</g>
</g>
<!-- Node4 -->
<g id="Node000004" class="node">
<title>Node4</title>
<g id="a_Node000004"><a xlink:title=" ">
<polygon fill="#e0e0e0" stroke="#999999" points="193.5,-19 80.5,-19 80.5,0 193.5,0 193.5,-19"/>
<text text-anchor="middle" x="137" y="-7" font-family="Helvetica,sans-Serif" font-size="10.00">freertos/FreeRTOS.h</text>
</a>
</g>
</g>
<!-- Node2&#45;&gt;Node4 -->
<g id="edge3_Node000002_Node000004" class="edge">
<title>Node2&#45;&gt;Node4</title>
<g id="a_edge3_Node000002_Node000004"><a xlink:title=" ">
<path fill="none" stroke="#63b8ff" d="M137,-54.75C137,-47.8 137,-37.85 137,-29.13"/>
<polygon fill="#63b8ff" stroke="#63b8ff" points="140.5,-29.09 137,-19.09 133.5,-29.09 140.5,-29.09"/>
</a>
</g>
</g>
<!-- Node5 -->
<g id="Node000005" class="node">
<title>Node5</title>
<g id="a_Node000005"><a xlink:title=" ">
<polygon fill="#e0e0e0" stroke="#999999" points="314.5,-19 211.5,-19 211.5,0 314.5,0 314.5,-19"/>
<text text-anchor="middle" x="263" y="-7" font-family="Helvetica,sans-Serif" font-size="10.00">freertos/semphr.h</text>
</a>
</g>
</g>
<!-- Node2&#45;&gt;Node5 -->
<g id="edge4_Node000002_Node000005" class="edge">
<title>Node2&#45;&gt;Node5</title>
<g id="a_edge4_Node000002_Node000005"><a xlink:title=" ">
<path fill="none" stroke="#63b8ff" d="M157.24,-54.98C177.7,-46.38 209.53,-32.99 232.93,-23.15"/>
<polygon fill="#63b8ff" stroke="#63b8ff" points="234.53,-26.27 242.39,-19.17 231.81,-19.82 234.53,-26.27"/>
</a>
</g>
</g>
<!-- Node11 -->
<g id="Node000011" class="node">
<title>Node11</title>
<g id="a_Node000011"><a xlink:title=" ">
<polygon fill="#e0e0e0" stroke="#999999" points="529,-19 455,-19 455,0 529,0 529,-19"/>
<text text-anchor="middle" x="492" y="-7" font-family="Helvetica,sans-Serif" font-size="10.00">esp_timer.h</text>
</a>
</g>
</g>
<!-- Node10&#45;&gt;Node11 -->
<g id="edge10_Node000010_Node000011" class="edge">
<title>Node10&#45;&gt;Node11</title>
<g id="a_edge10_Node000010_Node000011"><a xlink:title=" ">
<path fill="none" stroke="#63b8ff" d="M599.43,-54.98C578.57,-46.34 546.03,-32.87 522.23,-23.02"/>
<polygon fill="#63b8ff" stroke="#63b8ff" points="523.52,-19.76 512.94,-19.17 520.84,-26.23 523.52,-19.76"/>
</a>
</g>
</g>
<!-- Node12 -->
<g id="Node000012" class="node">
<title>Node12</title>
<g id="a_Node000012"><a xlink:title=" ">
<polygon fill="#e0e0e0" stroke="#999999" points="610.5,-19 547.5,-19 547.5,0 610.5,0 610.5,-19"/>
<text text-anchor="middle" x="579" y="-7" font-family="Helvetica,sans-Serif" font-size="10.00">esp_log.h</text>
</a>
</g>
</g>
<!-- Node10&#45;&gt;Node12 -->
<g id="edge11_Node000010_Node000012" class="edge">
<title>Node10&#45;&gt;Node12</title>
<g id="a_edge11_Node000010_Node000012"><a xlink:title=" ">
<path fill="none" stroke="#63b8ff" d="M613.23,-54.75C607.44,-47.26 598.94,-36.28 591.86,-27.13"/>
<polygon fill="#63b8ff" stroke="#63b8ff" points="594.53,-24.86 585.64,-19.09 588.99,-29.14 594.53,-24.86"/>
</a>
</g>
</g>
<!-- Node13 -->
<g id="Node000013" class="node">
<title>Node13</title>
<g id="a_Node000013"><a xlink:title=" ">
<polygon fill="#e0e0e0" stroke="#999999" points="693.5,-19 628.5,-19 628.5,0 693.5,0 693.5,-19"/>
<text text-anchor="middle" x="661" y="-7" font-family="Helvetica,sans-Serif" font-size="10.00">inttypes.h</text>
</a>
</g>
</g>
<!-- Node10&#45;&gt;Node13 -->
<g id="edge12_Node000010_Node000013" class="edge">
<title>Node10&#45;&gt;Node13</title>
<g id="a_edge12_Node000010_Node000013"><a xlink:title=" ">
<path fill="none" stroke="#63b8ff" d="M626.77,-54.75C632.56,-47.26 641.06,-36.28 648.14,-27.13"/>
<polygon fill="#63b8ff" stroke="#63b8ff" points="651.01,-29.14 654.36,-19.09 645.47,-24.86 651.01,-29.14"/>
</a>
</g>
</g>
<!-- Node14 -->
<g id="Node000014" class="node">
<title>Node14</title>
<g id="a_Node000014"><a xlink:title=" ">
<polygon fill="#e0e0e0" stroke="#999999" points="762,-19 712,-19 712,0 762,0 762,-19"/>
<text text-anchor="middle" x="737" y="-7" font-family="Helvetica,sans-Serif" font-size="10.00">stdio.h</text>
</a>
</g>
</g>
<!-- Node10&#45;&gt;Node14 -->
<g id="edge13_Node000010_Node000014" class="edge">
<title>Node10&#45;&gt;Node14</title>
<g id="a_edge13_Node000010_Node000014"><a xlink:title=" ">
<path fill="none" stroke="#63b8ff" d="M638.8,-54.98C657.62,-46.46 686.82,-33.23 708.5,-23.41"/>
<polygon fill="#63b8ff" stroke="#63b8ff" points="710.2,-26.48 717.86,-19.17 707.31,-20.11 710.2,-26.48"/>
</a>
</g>
</g>
</g>
</svg>
