<?xml version="1.0" encoding="UTF-8" standalone="no"?>
<!DOCTYPE svg PUBLIC "-//W3C//DTD SVG 1.1//EN"
 "http://www.w3.org/Graphics/SVG/1.1/DTD/svg11.dtd">
<!-- Generated by graphviz version 2.43.0 (0)
 -->
<!-- Title: time_sync_notification_cb Pages: 1 -->
<svg width="660pt" height="27pt"
 viewBox="0.00 0.00 660.00 27.00" xmlns="http://www.w3.org/2000/svg" xmlns:xlink="http://www.w3.org/1999/xlink">
<g id="graph0" class="graph" transform="scale(1 1) rotate(0) translate(4 23)">
<title>time_sync_notification_cb</title>
<!-- Node1 -->
<g id="Node000001" class="node">
<title>Node1</title>
<g id="a_Node000001"><a xlink:title=" ">
<polygon fill="#999999" stroke="#666666" points="652,-19 509,-19 509,0 652,0 652,-19"/>
<text text-anchor="middle" x="580.5" y="-7" font-family="Helvetica,sans-Serif" font-size="10.00">time_sync_notification_cb</text>
</a>
</g>
</g>
<!-- Node2 -->
<g id="Node000002" class="node">
<title>Node2</title>
<g id="a_Node000002"><a xlink:href="sntp__synch_8c.html#a78e6192b5fb97b2676f845179584cd4d" target="_top" xlink:title=" ">
<polygon fill="white" stroke="#666666" points="473,-19 380,-19 380,0 473,0 473,-19"/>
<text text-anchor="middle" x="426.5" y="-7" font-family="Helvetica,sans-Serif" font-size="10.00">sntp_sync_start</text>
</a>
</g>
</g>
<!-- Node1&#45;&gt;Node2 -->
<g id="edge1_Node000001_Node000002" class="edge">
<title>Node1&#45;&gt;Node2</title>
<g id="a_edge1_Node000001_Node000002"><a xlink:title=" ">
<path fill="none" stroke="#63b8ff" d="M498.62,-9.5C489.92,-9.5 481.31,-9.5 473.25,-9.5"/>
<polygon fill="#63b8ff" stroke="#63b8ff" points="498.84,-13 508.84,-9.5 498.84,-6 498.84,-13"/>
</a>
</g>
</g>
<!-- Node3 -->
<g id="Node000003" class="node">
<title>Node3</title>
<g id="a_Node000003"><a xlink:href="wifi__comm_8c.html#af00a27b9e490096d5767f48feed1d3ae" target="_top" xlink:title=" ">
<polygon fill="white" stroke="#666666" points="344,-19 235,-19 235,0 344,0 344,-19"/>
<text text-anchor="middle" x="289.5" y="-7" font-family="Helvetica,sans-Serif" font-size="10.00">wifi_event_handler</text>
</a>
</g>
</g>
<!-- Node2&#45;&gt;Node3 -->
<g id="edge2_Node000002_Node000003" class="edge">
<title>Node2&#45;&gt;Node3</title>
<g id="a_edge2_Node000002_Node000003"><a xlink:title=" ">
<path fill="none" stroke="#63b8ff" d="M369.65,-9.5C361.19,-9.5 352.49,-9.5 344.09,-9.5"/>
<polygon fill="#63b8ff" stroke="#63b8ff" points="369.8,-13 379.8,-9.5 369.8,-6 369.8,-13"/>
</a>
</g>
</g>
<!-- Node4 -->
<g id="Node000004" class="node">
<title>Node4</title>
<g id="a_Node000004"><a xlink:href="wifi__comm_8c.html#ac491034a906f7c44bb351a13b4cdd08d" target="_top" xlink:title="Initialise Wi‑Fi in STA mode, scan for APs, connect to the given SSID/password, and (optionally) star...">
<polygon fill="white" stroke="#666666" points="199,-19 101,-19 101,0 199,0 199,-19"/>
<text text-anchor="middle" x="150" y="-7" font-family="Helvetica,sans-Serif" font-size="10.00">wifi_comm_start</text>
</a>
</g>
</g>
<!-- Node3&#45;&gt;Node4 -->
<g id="edge3_Node000003_Node000004" class="edge">
<title>Node3&#45;&gt;Node4</title>
<g id="a_edge3_Node000003_Node000004"><a xlink:title=" ">
<path fill="none" stroke="#63b8ff" d="M224.9,-9.5C216.28,-9.5 207.55,-9.5 199.25,-9.5"/>
<polygon fill="#63b8ff" stroke="#63b8ff" points="224.95,-13 234.95,-9.5 224.95,-6 224.95,-13"/>
</a>
</g>
</g>
<!-- Node5 -->
<g id="Node000005" class="node">
<title>Node5</title>
<g id="a_Node000005"><a xlink:href="main_8c.html#a630544a7f0a2cc40d8a7fefab7e2fe70" target="_top" xlink:title=" ">
<polygon fill="white" stroke="#666666" points="65,-19 0,-19 0,0 65,0 65,-19"/>
<text text-anchor="middle" x="32.5" y="-7" font-family="Helvetica,sans-Serif" font-size="10.00">app_main</text>
</a>
</g>
</g>
<!-- Node4&#45;&gt;Node5 -->
<g id="edge4_Node000004_Node000005" class="edge">
<title>Node4&#45;&gt;Node5</title>
<g id="a_edge4_Node000004_Node000005"><a xlink:title=" ">
<path fill="none" stroke="#63b8ff" d="M90.48,-9.5C81.76,-9.5 73.06,-9.5 65.18,-9.5"/>
<polygon fill="#63b8ff" stroke="#63b8ff" points="90.69,-13 100.69,-9.5 90.69,-6 90.69,-13"/>
</a>
</g>
</g>
</g>
</svg>
