<?xml version="1.0" encoding="UTF-8" standalone="no"?>
<!DOCTYPE svg PUBLIC "-//W3C//DTD SVG 1.1//EN"
 "http://www.w3.org/Graphics/SVG/1.1/DTD/svg11.dtd">
<!-- Generated by graphviz version 2.43.0 (0)
 -->
<!-- Title: main/sntp_synch/sntp_synch.h Pages: 1 -->
<svg width="420pt" height="104pt"
 viewBox="0.00 0.00 419.50 104.00" xmlns="http://www.w3.org/2000/svg" xmlns:xlink="http://www.w3.org/1999/xlink">
<g id="graph0" class="graph" transform="scale(1 1) rotate(0) translate(4 100)">
<title>main/sntp_synch/sntp_synch.h</title>
<!-- Node1 -->
<g id="Node000001" class="node">
<title>Node1</title>
<g id="a_Node000001"><a xlink:title=" ">
<polygon fill="#999999" stroke="#666666" points="266,-96 143,-96 143,-66 266,-66 266,-96"/>
<text text-anchor="start" x="151" y="-84" font-family="Helvetica,sans-Serif" font-size="10.00">main/sntp_synch/sntp</text>
<text text-anchor="middle" x="204.5" y="-73" font-family="Helvetica,sans-Serif" font-size="10.00">_synch.h</text>
</a>
</g>
</g>
<!-- Node2 -->
<g id="Node000002" class="node">
<title>Node2</title>
<g id="a_Node000002"><a xlink:href="sntp__synch_8c.html" target="_top" xlink:title=" ">
<polygon fill="white" stroke="#666666" points="123,-30 0,-30 0,0 123,0 123,-30"/>
<text text-anchor="start" x="8" y="-18" font-family="Helvetica,sans-Serif" font-size="10.00">main/sntp_synch/sntp</text>
<text text-anchor="middle" x="61.5" y="-7" font-family="Helvetica,sans-Serif" font-size="10.00">_synch.c</text>
</a>
</g>
</g>
<!-- Node1&#45;&gt;Node2 -->
<g id="edge1_Node000001_Node000002" class="edge">
<title>Node1&#45;&gt;Node2</title>
<g id="a_edge1_Node000001_Node000002"><a xlink:title=" ">
<path fill="none" stroke="#63b8ff" d="M163.8,-61.78C141.25,-51.69 113.66,-39.34 92.81,-30.01"/>
<polygon fill="#63b8ff" stroke="#63b8ff" points="162.56,-65.06 173.12,-65.95 165.42,-58.68 162.56,-65.06"/>
</a>
</g>
</g>
<!-- Node3 -->
<g id="Node000003" class="node">
<title>Node3</title>
<g id="a_Node000003"><a xlink:href="weight__manager_8c.html" target="_top" xlink:title=" ">
<polygon fill="white" stroke="#666666" points="267.5,-30 141.5,-30 141.5,0 267.5,0 267.5,-30"/>
<text text-anchor="start" x="149.5" y="-18" font-family="Helvetica,sans-Serif" font-size="10.00">main/weight_manager</text>
<text text-anchor="middle" x="204.5" y="-7" font-family="Helvetica,sans-Serif" font-size="10.00">/weight_manager.c</text>
</a>
</g>
</g>
<!-- Node1&#45;&gt;Node3 -->
<g id="edge2_Node000001_Node000003" class="edge">
<title>Node1&#45;&gt;Node3</title>
<g id="a_edge2_Node000001_Node000003"><a xlink:title=" ">
<path fill="none" stroke="#63b8ff" d="M204.5,-55.54C204.5,-46.96 204.5,-37.61 204.5,-30.16"/>
<polygon fill="#63b8ff" stroke="#63b8ff" points="201,-55.8 204.5,-65.8 208,-55.8 201,-55.8"/>
</a>
</g>
</g>
<!-- Node4 -->
<g id="Node000004" class="node">
<title>Node4</title>
<g id="a_Node000004"><a xlink:href="wifi__comm_8c.html" target="_top" xlink:title=" ">
<polygon fill="white" stroke="#666666" points="411.5,-24.5 285.5,-24.5 285.5,-5.5 411.5,-5.5 411.5,-24.5"/>
<text text-anchor="middle" x="348.5" y="-12.5" font-family="Helvetica,sans-Serif" font-size="10.00">main/wifi/wifi_comm.c</text>
</a>
</g>
</g>
<!-- Node1&#45;&gt;Node4 -->
<g id="edge3_Node000001_Node000004" class="edge">
<title>Node1&#45;&gt;Node4</title>
<g id="a_edge3_Node000001_Node000004"><a xlink:title=" ">
<path fill="none" stroke="#63b8ff" d="M245.49,-61.78C273.03,-49.54 308.04,-33.98 329.34,-24.52"/>
<polygon fill="#63b8ff" stroke="#63b8ff" points="243.82,-58.7 236.1,-65.95 246.66,-65.09 243.82,-58.7"/>
</a>
</g>
</g>
</g>
</svg>
