<?xml version="1.0" encoding="UTF-8" standalone="no"?>
<!DOCTYPE svg PUBLIC "-//W3C//DTD SVG 1.1//EN"
 "http://www.w3.org/Graphics/SVG/1.1/DTD/svg11.dtd">
<!-- Generated by graphviz version 2.43.0 (0)
 -->
<!-- Title: spiffs_get_current_timestamp Pages: 1 -->
<svg width="425pt" height="38pt"
 viewBox="0.00 0.00 425.00 38.00" xmlns="http://www.w3.org/2000/svg" xmlns:xlink="http://www.w3.org/1999/xlink">
<g id="graph0" class="graph" transform="scale(1 1) rotate(0) translate(4 34)">
<title>spiffs_get_current_timestamp</title>
<!-- Node1 -->
<g id="Node000001" class="node">
<title>Node1</title>
<g id="a_Node000001"><a xlink:title=" ">
<polygon fill="#999999" stroke="#666666" points="417,-30 313,-30 313,0 417,0 417,-30"/>
<text text-anchor="start" x="321" y="-18" font-family="Helvetica,sans-Serif" font-size="10.00">spiffs_get_current</text>
<text text-anchor="middle" x="365" y="-7" font-family="Helvetica,sans-Serif" font-size="10.00">_timestamp</text>
</a>
</g>
</g>
<!-- Node2 -->
<g id="Node000002" class="node">
<title>Node2</title>
<g id="a_Node000002"><a xlink:href="spiffs__manager_8c.html#a5ceda64c1372b809cf0a167b35582498" target="_top" xlink:title=" ">
<polygon fill="white" stroke="#666666" points="277,-24.5 170,-24.5 170,-5.5 277,-5.5 277,-24.5"/>
<text text-anchor="middle" x="223.5" y="-12.5" font-family="Helvetica,sans-Serif" font-size="10.00">time_logging_task</text>
</a>
</g>
</g>
<!-- Node1&#45;&gt;Node2 -->
<g id="edge1_Node000001_Node000002" class="edge">
<title>Node1&#45;&gt;Node2</title>
<g id="a_edge1_Node000001_Node000002"><a xlink:title=" ">
<path fill="none" stroke="#63b8ff" d="M302.58,-15C294.07,-15 285.38,-15 277.05,-15"/>
<polygon fill="#63b8ff" stroke="#63b8ff" points="302.85,-18.5 312.85,-15 302.85,-11.5 302.85,-18.5"/>
</a>
</g>
</g>
<!-- Node3 -->
<g id="Node000003" class="node">
<title>Node3</title>
<g id="a_Node000003"><a xlink:href="spiffs__manager_8c.html#a9528a6849b77a9bba4b5621854fd3532" target="_top" xlink:title=" ">
<polygon fill="white" stroke="#666666" points="134,-24.5 0,-24.5 0,-5.5 134,-5.5 134,-24.5"/>
<text text-anchor="middle" x="67" y="-12.5" font-family="Helvetica,sans-Serif" font-size="10.00">start_time_logging_task</text>
</a>
</g>
</g>
<!-- Node2&#45;&gt;Node3 -->
<g id="edge2_Node000002_Node000003" class="edge">
<title>Node2&#45;&gt;Node3</title>
<g id="a_edge2_Node000002_Node000003"><a xlink:title=" ">
<path fill="none" stroke="#63b8ff" d="M159.66,-15C151.26,-15 142.62,-15 134.16,-15"/>
<polygon fill="#63b8ff" stroke="#63b8ff" points="159.76,-18.5 169.76,-15 159.76,-11.5 159.76,-18.5"/>
</a>
</g>
</g>
</g>
</svg>
