<?xml version="1.0" encoding="UTF-8" standalone="no"?>
<!DOCTYPE svg PUBLIC "-//W3C//DTD SVG 1.1//EN"
 "http://www.w3.org/Graphics/SVG/1.1/DTD/svg11.dtd">
<!-- Generated by graphviz version 2.43.0 (0)
 -->
<!-- Title: main/spiffs_manager/spiffs_manager.c Pages: 1 -->
<svg width="1140pt" height="148pt"
 viewBox="0.00 0.00 1139.50 148.00" xmlns="http://www.w3.org/2000/svg" xmlns:xlink="http://www.w3.org/1999/xlink">
<g id="graph0" class="graph" transform="scale(1 1) rotate(0) translate(4 144)">
<title>main/spiffs_manager/spiffs_manager.c</title>
<!-- Node1 -->
<g id="Node000001" class="node">
<title>Node1</title>
<g id="a_Node000001"><a xlink:title=" ">
<polygon fill="#999999" stroke="#666666" points="718.5,-140 599.5,-140 599.5,-110 718.5,-110 718.5,-140"/>
<text text-anchor="start" x="607.5" y="-128" font-family="Helvetica,sans-Serif" font-size="10.00">main/spiffs_manager</text>
<text text-anchor="middle" x="659" y="-117" font-family="Helvetica,sans-Serif" font-size="10.00">/spiffs_manager.c</text>
</a>
</g>
</g>
<!-- Node2 -->
<g id="Node000002" class="node">
<title>Node2</title>
<g id="a_Node000002"><a xlink:href="spiffs__manager_8h.html" target="_top" xlink:title=" ">
<polygon fill="white" stroke="#666666" points="119,-74 19,-74 19,-55 119,-55 119,-74"/>
<text text-anchor="middle" x="69" y="-62" font-family="Helvetica,sans-Serif" font-size="10.00">spiffs_manager.h</text>
</a>
</g>
</g>
<!-- Node1&#45;&gt;Node2 -->
<g id="edge1_Node000001_Node000002" class="edge">
<title>Node1&#45;&gt;Node2</title>
<g id="a_edge1_Node000001_Node000002"><a xlink:title=" ">
<path fill="none" stroke="#63b8ff" d="M599.17,-119.33C502.57,-111.58 306.03,-94.94 129.2,-74.09"/>
<polygon fill="#63b8ff" stroke="#63b8ff" points="129.53,-70.6 119.19,-72.9 128.71,-77.56 129.53,-70.6"/>
</a>
</g>
</g>
<!-- Node5 -->
<g id="Node000005" class="node">
<title>Node5</title>
<g id="a_Node000005"><a xlink:title=" ">
<polygon fill="#e0e0e0" stroke="#999999" points="211,-74 137,-74 137,-55 211,-55 211,-74"/>
<text text-anchor="middle" x="174" y="-62" font-family="Helvetica,sans-Serif" font-size="10.00">esp_spiffs.h</text>
</a>
</g>
</g>
<!-- Node1&#45;&gt;Node5 -->
<g id="edge4_Node000001_Node000005" class="edge">
<title>Node1&#45;&gt;Node5</title>
<g id="a_edge4_Node000001_Node000005"><a xlink:title=" ">
<path fill="none" stroke="#63b8ff" d="M599.33,-118.43C516.86,-110.47 363.2,-94.62 221.35,-73.95"/>
<polygon fill="#63b8ff" stroke="#63b8ff" points="221.57,-70.44 211.16,-72.45 220.55,-77.37 221.57,-70.44"/>
</a>
</g>
</g>
<!-- Node6 -->
<g id="Node000006" class="node">
<title>Node6</title>
<g id="a_Node000006"><a xlink:title=" ">
<polygon fill="#e0e0e0" stroke="#999999" points="292.5,-74 229.5,-74 229.5,-55 292.5,-55 292.5,-74"/>
<text text-anchor="middle" x="261" y="-62" font-family="Helvetica,sans-Serif" font-size="10.00">esp_log.h</text>
</a>
</g>
</g>
<!-- Node1&#45;&gt;Node6 -->
<g id="edge5_Node000001_Node000006" class="edge">
<title>Node1&#45;&gt;Node6</title>
<g id="a_edge5_Node000001_Node000006"><a xlink:title=" ">
<path fill="none" stroke="#63b8ff" d="M599.44,-116.87C530.49,-108.34 413.33,-93.01 302.74,-74.02"/>
<polygon fill="#63b8ff" stroke="#63b8ff" points="303.2,-70.55 292.75,-72.29 302,-77.45 303.2,-70.55"/>
</a>
</g>
</g>
<!-- Node7 -->
<g id="Node000007" class="node">
<title>Node7</title>
<g id="a_Node000007"><a xlink:title=" ">
<polygon fill="#e0e0e0" stroke="#999999" points="379.5,-74 310.5,-74 310.5,-55 379.5,-55 379.5,-74"/>
<text text-anchor="middle" x="345" y="-62" font-family="Helvetica,sans-Serif" font-size="10.00">esp_sntp.h</text>
</a>
</g>
</g>
<!-- Node1&#45;&gt;Node7 -->
<g id="edge6_Node000001_Node000007" class="edge">
<title>Node1&#45;&gt;Node7</title>
<g id="a_edge6_Node000001_Node000007"><a xlink:title=" ">
<path fill="none" stroke="#63b8ff" d="M599.45,-113.11C546.97,-103.48 468.16,-88.94 389.65,-74.11"/>
<polygon fill="#63b8ff" stroke="#63b8ff" points="390.06,-70.63 379.58,-72.21 388.76,-77.5 390.06,-70.63"/>
</a>
</g>
</g>
<!-- Node8 -->
<g id="Node000008" class="node">
<title>Node8</title>
<g id="a_Node000008"><a xlink:title=" ">
<polygon fill="#e0e0e0" stroke="#999999" points="510.5,-74 397.5,-74 397.5,-55 510.5,-55 510.5,-74"/>
<text text-anchor="middle" x="454" y="-62" font-family="Helvetica,sans-Serif" font-size="10.00">freertos/FreeRTOS.h</text>
</a>
</g>
</g>
<!-- Node1&#45;&gt;Node8 -->
<g id="edge7_Node000001_Node000008" class="edge">
<title>Node1&#45;&gt;Node8</title>
<g id="a_edge7_Node000001_Node000008"><a xlink:title=" ">
<path fill="none" stroke="#63b8ff" d="M609.9,-109.99C574.37,-99.85 526.96,-86.32 493.78,-76.85"/>
<polygon fill="#63b8ff" stroke="#63b8ff" points="494.55,-73.43 483.97,-74.05 492.63,-80.16 494.55,-73.43"/>
</a>
</g>
</g>
<!-- Node9 -->
<g id="Node000009" class="node">
<title>Node9</title>
<g id="a_Node000009"><a xlink:title=" ">
<polygon fill="#e0e0e0" stroke="#999999" points="617,-74 529,-74 529,-55 617,-55 617,-74"/>
<text text-anchor="middle" x="573" y="-62" font-family="Helvetica,sans-Serif" font-size="10.00">freertos/task.h</text>
</a>
</g>
</g>
<!-- Node1&#45;&gt;Node9 -->
<g id="edge8_Node000001_Node000009" class="edge">
<title>Node1&#45;&gt;Node9</title>
<g id="a_edge8_Node000001_Node000009"><a xlink:title=" ">
<path fill="none" stroke="#63b8ff" d="M638.18,-109.84C624.85,-100.77 607.61,-89.04 594.21,-79.92"/>
<polygon fill="#63b8ff" stroke="#63b8ff" points="595.87,-76.83 585.63,-74.09 591.93,-82.61 595.87,-76.83"/>
</a>
</g>
</g>
<!-- Node10 -->
<g id="Node000010" class="node">
<title>Node10</title>
<g id="a_Node000010"><a xlink:title=" ">
<polygon fill="#e0e0e0" stroke="#999999" points="683,-74 635,-74 635,-55 683,-55 683,-74"/>
<text text-anchor="middle" x="659" y="-62" font-family="Helvetica,sans-Serif" font-size="10.00">time.h</text>
</a>
</g>
</g>
<!-- Node1&#45;&gt;Node10 -->
<g id="edge9_Node000001_Node000010" class="edge">
<title>Node1&#45;&gt;Node10</title>
<g id="a_edge9_Node000001_Node000010"><a xlink:title=" ">
<path fill="none" stroke="#63b8ff" d="M659,-109.84C659,-102.21 659,-92.7 659,-84.45"/>
<polygon fill="#63b8ff" stroke="#63b8ff" points="662.5,-84.27 659,-74.27 655.5,-84.27 662.5,-84.27"/>
</a>
</g>
</g>
<!-- Node11 -->
<g id="Node000011" class="node">
<title>Node11</title>
<g id="a_Node000011"><a xlink:title=" ">
<polygon fill="#e0e0e0" stroke="#999999" points="756.5,-74 701.5,-74 701.5,-55 756.5,-55 756.5,-74"/>
<text text-anchor="middle" x="729" y="-62" font-family="Helvetica,sans-Serif" font-size="10.00">cJSON.h</text>
</a>
</g>
</g>
<!-- Node1&#45;&gt;Node11 -->
<g id="edge10_Node000001_Node000011" class="edge">
<title>Node1&#45;&gt;Node11</title>
<g id="a_edge10_Node000001_Node000011"><a xlink:title=" ">
<path fill="none" stroke="#63b8ff" d="M675.95,-109.84C686.42,-101.09 699.86,-89.85 710.59,-80.88"/>
<polygon fill="#63b8ff" stroke="#63b8ff" points="713.08,-83.36 718.51,-74.27 708.59,-77.99 713.08,-83.36"/>
</a>
</g>
</g>
<!-- Node12 -->
<g id="Node000012" class="node">
<title>Node12</title>
<g id="a_Node000012"><a xlink:title=" ">
<polygon fill="#e0e0e0" stroke="#999999" points="837,-74 775,-74 775,-55 837,-55 837,-74"/>
<text text-anchor="middle" x="806" y="-62" font-family="Helvetica,sans-Serif" font-size="10.00">lwip/err.h</text>
</a>
</g>
</g>
<!-- Node1&#45;&gt;Node12 -->
<g id="edge11_Node000001_Node000012" class="edge">
<title>Node1&#45;&gt;Node12</title>
<g id="a_edge11_Node000001_Node000012"><a xlink:title=" ">
<path fill="none" stroke="#63b8ff" d="M694.21,-109.99C718.74,-100.23 751.15,-87.33 774.76,-77.93"/>
<polygon fill="#63b8ff" stroke="#63b8ff" points="776.29,-81.09 784.29,-74.14 773.71,-74.58 776.29,-81.09"/>
</a>
</g>
</g>
<!-- Node13 -->
<g id="Node000013" class="node">
<title>Node13</title>
<g id="a_Node000013"><a xlink:title=" ">
<polygon fill="#e0e0e0" stroke="#999999" points="920.5,-74 855.5,-74 855.5,-55 920.5,-55 920.5,-74"/>
<text text-anchor="middle" x="888" y="-62" font-family="Helvetica,sans-Serif" font-size="10.00">lwip/sys.h</text>
</a>
</g>
</g>
<!-- Node1&#45;&gt;Node13 -->
<g id="edge12_Node000001_Node000013" class="edge">
<title>Node1&#45;&gt;Node13</title>
<g id="a_edge12_Node000001_Node000013"><a xlink:title=" ">
<path fill="none" stroke="#63b8ff" d="M713.85,-109.99C754.13,-99.7 808.06,-85.92 845.18,-76.44"/>
<polygon fill="#63b8ff" stroke="#63b8ff" points="846.36,-79.75 855.18,-73.88 844.63,-72.97 846.36,-79.75"/>
</a>
</g>
</g>
<!-- Node14 -->
<g id="Node000014" class="node">
<title>Node14</title>
<g id="a_Node000014"><a xlink:title=" ">
<polygon fill="#e0e0e0" stroke="#999999" points="989,-74 939,-74 939,-55 989,-55 989,-74"/>
<text text-anchor="middle" x="964" y="-62" font-family="Helvetica,sans-Serif" font-size="10.00">stdio.h</text>
</a>
</g>
</g>
<!-- Node1&#45;&gt;Node14 -->
<g id="edge13_Node000001_Node000014" class="edge">
<title>Node1&#45;&gt;Node14</title>
<g id="a_edge13_Node000001_Node000014"><a xlink:title=" ">
<path fill="none" stroke="#63b8ff" d="M718.69,-114.09C771.48,-105.08 850.81,-90.92 928.79,-74.15"/>
<polygon fill="#63b8ff" stroke="#63b8ff" points="929.76,-77.53 938.79,-71.99 928.28,-70.69 929.76,-77.53"/>
</a>
</g>
</g>
<!-- Node15 -->
<g id="Node000015" class="node">
<title>Node15</title>
<g id="a_Node000015"><a xlink:title=" ">
<polygon fill="#e0e0e0" stroke="#999999" points="1060.5,-74 1007.5,-74 1007.5,-55 1060.5,-55 1060.5,-74"/>
<text text-anchor="middle" x="1034" y="-62" font-family="Helvetica,sans-Serif" font-size="10.00">stdlib.h</text>
</a>
</g>
</g>
<!-- Node1&#45;&gt;Node15 -->
<g id="edge14_Node000001_Node000015" class="edge">
<title>Node1&#45;&gt;Node15</title>
<g id="a_edge14_Node000001_Node000015"><a xlink:title=" ">
<path fill="none" stroke="#63b8ff" d="M718.66,-116.77C784.45,-108.44 893.63,-93.59 997.3,-73.98"/>
<polygon fill="#63b8ff" stroke="#63b8ff" points="998.15,-77.38 1007.32,-72.07 996.84,-70.51 998.15,-77.38"/>
</a>
</g>
</g>
<!-- Node16 -->
<g id="Node000016" class="node">
<title>Node16</title>
<g id="a_Node000016"><a xlink:title=" ">
<polygon fill="#e0e0e0" stroke="#999999" points="1131.5,-74 1078.5,-74 1078.5,-55 1131.5,-55 1131.5,-74"/>
<text text-anchor="middle" x="1105" y="-62" font-family="Helvetica,sans-Serif" font-size="10.00">string.h</text>
</a>
</g>
</g>
<!-- Node1&#45;&gt;Node16 -->
<g id="edge15_Node000001_Node000016" class="edge">
<title>Node1&#45;&gt;Node16</title>
<g id="a_edge15_Node000001_Node000016"><a xlink:title=" ">
<path fill="none" stroke="#63b8ff" d="M718.54,-118.96C796.74,-111.86 938.45,-97.3 1068.2,-74.15"/>
<polygon fill="#63b8ff" stroke="#63b8ff" points="1069.1,-77.54 1078.32,-72.32 1067.85,-70.66 1069.1,-77.54"/>
</a>
</g>
</g>
<!-- Node3 -->
<g id="Node000003" class="node">
<title>Node3</title>
<g id="a_Node000003"><a xlink:title=" ">
<polygon fill="#e0e0e0" stroke="#999999" points="62,-19 0,-19 0,0 62,0 62,-19"/>
<text text-anchor="middle" x="31" y="-7" font-family="Helvetica,sans-Serif" font-size="10.00">stdbool.h</text>
</a>
</g>
</g>
<!-- Node2&#45;&gt;Node3 -->
<g id="edge2_Node000002_Node000003" class="edge">
<title>Node2&#45;&gt;Node3</title>
<g id="a_edge2_Node000002_Node000003"><a xlink:title=" ">
<path fill="none" stroke="#63b8ff" d="M62.73,-54.75C57.41,-47.34 49.64,-36.5 43.12,-27.41"/>
<polygon fill="#63b8ff" stroke="#63b8ff" points="45.83,-25.18 37.16,-19.09 40.14,-29.26 45.83,-25.18"/>
</a>
</g>
</g>
<!-- Node4 -->
<g id="Node000004" class="node">
<title>Node4</title>
<g id="a_Node000004"><a xlink:title=" ">
<polygon fill="#e0e0e0" stroke="#999999" points="136,-19 80,-19 80,0 136,0 136,-19"/>
<text text-anchor="middle" x="108" y="-7" font-family="Helvetica,sans-Serif" font-size="10.00">stddef.h</text>
</a>
</g>
</g>
<!-- Node2&#45;&gt;Node4 -->
<g id="edge3_Node000002_Node000004" class="edge">
<title>Node2&#45;&gt;Node4</title>
<g id="a_edge3_Node000002_Node000004"><a xlink:title=" ">
<path fill="none" stroke="#63b8ff" d="M75.44,-54.75C80.89,-47.34 88.86,-36.5 95.56,-27.41"/>
<polygon fill="#63b8ff" stroke="#63b8ff" points="98.57,-29.22 101.68,-19.09 92.93,-25.07 98.57,-29.22"/>
</a>
</g>
</g>
</g>
</svg>
