<?xml version="1.0" encoding="UTF-8" standalone="no"?>
<!DOCTYPE svg PUBLIC "-//W3C//DTD SVG 1.1//EN"
 "http://www.w3.org/Graphics/SVG/1.1/DTD/svg11.dtd">
<!-- Generated by graphviz version 2.43.0 (0)
 -->
<!-- Title: weight_manager_init Pages: 1 -->
<svg width="434pt" height="64pt"
 viewBox="0.00 0.00 434.00 64.00" xmlns="http://www.w3.org/2000/svg" xmlns:xlink="http://www.w3.org/1999/xlink">
<g id="graph0" class="graph" transform="scale(1 1) rotate(0) translate(4 60)">
<title>weight_manager_init</title>
<!-- Node1 -->
<g id="Node000001" class="node">
<title>Node1</title>
<g id="a_Node000001"><a xlink:title="Initialize the weight manager.">
<polygon fill="#999999" stroke="#666666" points="119,-37 0,-37 0,-18 119,-18 119,-37"/>
<text text-anchor="middle" x="59.5" y="-25" font-family="Helvetica,sans-Serif" font-size="10.00">weight_manager_init</text>
</a>
</g>
</g>
<!-- Node2 -->
<g id="Node000002" class="node">
<title>Node2</title>
<g id="a_Node000002"><a xlink:href="weight__manager_8c.html#a5427a48300064edb414c8c35b830fadb" target="_top" xlink:title=" ">
<polygon fill="white" stroke="#666666" points="280,-37 155,-37 155,-18 280,-18 280,-37"/>
<text text-anchor="middle" x="217.5" y="-25" font-family="Helvetica,sans-Serif" font-size="10.00">weight_manager_task</text>
</a>
</g>
</g>
<!-- Node1&#45;&gt;Node2 -->
<g id="edge1_Node000001_Node000002" class="edge">
<title>Node1&#45;&gt;Node2</title>
<g id="a_edge1_Node000001_Node000002"><a xlink:title=" ">
<path fill="none" stroke="#63b8ff" d="M119.03,-27.5C127.42,-27.5 136.13,-27.5 144.74,-27.5"/>
<polygon fill="#63b8ff" stroke="#63b8ff" points="144.77,-31 154.77,-27.5 144.77,-24 144.77,-31"/>
</a>
</g>
</g>
<!-- Node3 -->
<g id="Node000003" class="node">
<title>Node3</title>
<g id="a_Node000003"><a xlink:href="calibration_8c.html#a290a80f0669ce6f3a5a761650b2cbb28" target="_top" xlink:title="Convert a raw ADC value into weight using the computed model.">
<polygon fill="white" stroke="#666666" points="426,-56 316,-56 316,-37 426,-37 426,-56"/>
<text text-anchor="middle" x="371" y="-44" font-family="Helvetica,sans-Serif" font-size="10.00">calibration_convert</text>
</a>
</g>
</g>
<!-- Node2&#45;&gt;Node3 -->
<g id="edge2_Node000002_Node000003" class="edge">
<title>Node2&#45;&gt;Node3</title>
<g id="a_edge2_Node000002_Node000003"><a xlink:title=" ">
<path fill="none" stroke="#63b8ff" d="M280.12,-35.23C288.51,-36.28 297.13,-37.36 305.57,-38.42"/>
<polygon fill="#63b8ff" stroke="#63b8ff" points="305.38,-41.92 315.73,-39.69 306.25,-34.98 305.38,-41.92"/>
</a>
</g>
</g>
<!-- Node4 -->
<g id="Node000004" class="node">
<title>Node4</title>
<g id="a_Node000004"><a xlink:href="weight__manager_8c.html#adedf53bed0b45630ae2b4c1239517b37" target="_top" xlink:title=" ">
<polygon fill="white" stroke="#666666" points="394,-19 348,-19 348,0 394,0 394,-19"/>
<text text-anchor="middle" x="371" y="-7" font-family="Helvetica,sans-Serif" font-size="10.00">log_ts</text>
</a>
</g>
</g>
<!-- Node2&#45;&gt;Node4 -->
<g id="edge3_Node000002_Node000004" class="edge">
<title>Node2&#45;&gt;Node4</title>
<g id="a_edge3_Node000002_Node000004"><a xlink:title=" ">
<path fill="none" stroke="#63b8ff" d="M280.12,-20.18C299.74,-17.85 320.68,-15.36 337.4,-13.37"/>
<polygon fill="#63b8ff" stroke="#63b8ff" points="338.21,-16.8 347.73,-12.15 337.38,-9.85 338.21,-16.8"/>
</a>
</g>
</g>
</g>
</svg>
