<?xml version="1.0" encoding="UTF-8" standalone="no"?>
<!DOCTYPE svg PUBLIC "-//W3C//DTD SVG 1.1//EN"
 "http://www.w3.org/Graphics/SVG/1.1/DTD/svg11.dtd">
<!-- Generated by graphviz version 2.43.0 (0)
 -->
<!-- Title: weight_manager_init Pages: 1 -->
<svg width="507pt" height="46pt"
 viewBox="0.00 0.00 507.00 46.00" xmlns="http://www.w3.org/2000/svg" xmlns:xlink="http://www.w3.org/1999/xlink">
<g id="graph0" class="graph" transform="scale(1 1) rotate(0) translate(4 42)">
<title>weight_manager_init</title>
<!-- Node1 -->
<g id="Node000001" class="node">
<title>Node1</title>
<g id="a_Node000001"><a xlink:title="Initialize the weight manager.">
<polygon fill="#999999" stroke="#666666" points="499,-38 380,-38 380,-19 499,-19 499,-38"/>
<text text-anchor="middle" x="439.5" y="-26" font-family="Helvetica,sans-Serif" font-size="10.00">weight_manager_init</text>
</a>
</g>
</g>
<!-- Node2 -->
<g id="Node000002" class="node">
<title>Node2</title>
<g id="a_Node000002"><a xlink:href="main_8c.html#a630544a7f0a2cc40d8a7fefab7e2fe70" target="_top" xlink:title=" ">
<polygon fill="white" stroke="#666666" points="65,-38 0,-38 0,-19 65,-19 65,-38"/>
<text text-anchor="middle" x="32.5" y="-26" font-family="Helvetica,sans-Serif" font-size="10.00">app_main</text>
</a>
</g>
</g>
<!-- Node1&#45;&gt;Node2 -->
<g id="edge1_Node000001_Node000002" class="edge">
<title>Node1&#45;&gt;Node2</title>
<g id="a_edge1_Node000001_Node000002"><a xlink:title=" ">
<path fill="none" stroke="#63b8ff" d="M369.36,-28.5C280.58,-28.5 130.22,-28.5 65.11,-28.5"/>
<polygon fill="#63b8ff" stroke="#63b8ff" points="369.61,-32 379.61,-28.5 369.61,-25 369.61,-32"/>
</a>
</g>
</g>
<!-- Node3 -->
<g id="Node000003" class="node">
<title>Node3</title>
<g id="a_Node000003"><a xlink:href="wifi__comm_8c.html#af00a27b9e490096d5767f48feed1d3ae" target="_top" xlink:title=" ">
<polygon fill="white" stroke="#666666" points="344,-19 235,-19 235,0 344,0 344,-19"/>
<text text-anchor="middle" x="289.5" y="-7" font-family="Helvetica,sans-Serif" font-size="10.00">wifi_event_handler</text>
</a>
</g>
</g>
<!-- Node1&#45;&gt;Node3 -->
<g id="edge2_Node000001_Node000003" class="edge">
<title>Node1&#45;&gt;Node3</title>
<g id="a_edge2_Node000001_Node000003"><a xlink:title=" ">
<path fill="none" stroke="#63b8ff" d="M369.41,-19.63C361.02,-18.55 352.54,-17.47 344.42,-16.42"/>
<polygon fill="#63b8ff" stroke="#63b8ff" points="369.22,-23.13 379.58,-20.94 370.11,-16.19 369.22,-23.13"/>
</a>
</g>
</g>
<!-- Node4 -->
<g id="Node000004" class="node">
<title>Node4</title>
<g id="a_Node000004"><a xlink:href="wifi__comm_8c.html#ac491034a906f7c44bb351a13b4cdd08d" target="_top" xlink:title="Initialise Wi‑Fi in STA mode, scan for APs, connect to the given SSID/password, and (optionally) star...">
<polygon fill="white" stroke="#666666" points="199,-19 101,-19 101,0 199,0 199,-19"/>
<text text-anchor="middle" x="150" y="-7" font-family="Helvetica,sans-Serif" font-size="10.00">wifi_comm_start</text>
</a>
</g>
</g>
<!-- Node3&#45;&gt;Node4 -->
<g id="edge3_Node000003_Node000004" class="edge">
<title>Node3&#45;&gt;Node4</title>
<g id="a_edge3_Node000003_Node000004"><a xlink:title=" ">
<path fill="none" stroke="#63b8ff" d="M224.9,-9.5C216.28,-9.5 207.55,-9.5 199.25,-9.5"/>
<polygon fill="#63b8ff" stroke="#63b8ff" points="224.95,-13 234.95,-9.5 224.95,-6 224.95,-13"/>
</a>
</g>
</g>
<!-- Node4&#45;&gt;Node2 -->
<g id="edge4_Node000004_Node000002" class="edge">
<title>Node4&#45;&gt;Node2</title>
<g id="a_edge4_Node000004_Node000002"><a xlink:title=" ">
<path fill="none" stroke="#63b8ff" d="M90.77,-19.08C81.95,-20.53 73.15,-21.98 65.18,-23.29"/>
<polygon fill="#63b8ff" stroke="#63b8ff" points="91.39,-22.52 100.69,-17.45 90.25,-15.62 91.39,-22.52"/>
</a>
</g>
</g>
</g>
</svg>
