<?xml version="1.0" encoding="UTF-8" standalone="no"?>
<!DOCTYPE svg PUBLIC "-//W3C//DTD SVG 1.1//EN"
 "http://www.w3.org/Graphics/SVG/1.1/DTD/svg11.dtd">
<!-- Generated by graphviz version 2.43.0 (0)
 -->
<!-- Title: main/weight_manager/weight_manager.h Pages: 1 -->
<svg width="357pt" height="148pt"
 viewBox="0.00 0.00 356.50 148.00" xmlns="http://www.w3.org/2000/svg" xmlns:xlink="http://www.w3.org/1999/xlink">
<g id="graph0" class="graph" transform="scale(1 1) rotate(0) translate(4 144)">
<title>main/weight_manager/weight_manager.h</title>
<!-- Node1 -->
<g id="Node000001" class="node">
<title>Node1</title>
<g id="a_Node000001"><a xlink:title=" ">
<polygon fill="#999999" stroke="#666666" points="242.5,-140 116.5,-140 116.5,-110 242.5,-110 242.5,-140"/>
<text text-anchor="start" x="124.5" y="-128" font-family="Helvetica,sans-Serif" font-size="10.00">main/weight_manager</text>
<text text-anchor="middle" x="179.5" y="-117" font-family="Helvetica,sans-Serif" font-size="10.00">/weight_manager.h</text>
</a>
</g>
</g>
<!-- Node2 -->
<g id="Node000002" class="node">
<title>Node2</title>
<g id="a_Node000002"><a xlink:title=" ">
<polygon fill="#e0e0e0" stroke="#999999" points="113,-74 0,-74 0,-55 113,-55 113,-74"/>
<text text-anchor="middle" x="56.5" y="-62" font-family="Helvetica,sans-Serif" font-size="10.00">freertos/FreeRTOS.h</text>
</a>
</g>
</g>
<!-- Node1&#45;&gt;Node2 -->
<g id="edge1_Node000001_Node000002" class="edge">
<title>Node1&#45;&gt;Node2</title>
<g id="a_edge1_Node000001_Node000002"><a xlink:title=" ">
<path fill="none" stroke="#63b8ff" d="M150.04,-109.99C129.88,-100.4 103.36,-87.79 83.7,-78.44"/>
<polygon fill="#63b8ff" stroke="#63b8ff" points="85.2,-75.27 74.66,-74.14 82.19,-81.6 85.2,-75.27"/>
</a>
</g>
</g>
<!-- Node3 -->
<g id="Node000003" class="node">
<title>Node3</title>
<g id="a_Node000003"><a xlink:title=" ">
<polygon fill="#e0e0e0" stroke="#999999" points="228,-74 131,-74 131,-55 228,-55 228,-74"/>
<text text-anchor="middle" x="179.5" y="-62" font-family="Helvetica,sans-Serif" font-size="10.00">freertos/queue.h</text>
</a>
</g>
</g>
<!-- Node1&#45;&gt;Node3 -->
<g id="edge2_Node000001_Node000003" class="edge">
<title>Node1&#45;&gt;Node3</title>
<g id="a_edge2_Node000001_Node000003"><a xlink:title=" ">
<path fill="none" stroke="#63b8ff" d="M179.5,-109.84C179.5,-102.21 179.5,-92.7 179.5,-84.45"/>
<polygon fill="#63b8ff" stroke="#63b8ff" points="183,-84.27 179.5,-74.27 176,-84.27 183,-84.27"/>
</a>
</g>
</g>
<!-- Node4 -->
<g id="Node000004" class="node">
<title>Node4</title>
<g id="a_Node000004"><a xlink:href="calibration_8h.html" target="_top" xlink:title=" ">
<polygon fill="white" stroke="#666666" points="323,-74 246,-74 246,-55 323,-55 323,-74"/>
<text text-anchor="middle" x="284.5" y="-62" font-family="Helvetica,sans-Serif" font-size="10.00">calibration.h</text>
</a>
</g>
</g>
<!-- Node1&#45;&gt;Node4 -->
<g id="edge3_Node000001_Node000004" class="edge">
<title>Node1&#45;&gt;Node4</title>
<g id="a_edge3_Node000001_Node000004"><a xlink:title=" ">
<path fill="none" stroke="#63b8ff" d="M204.65,-109.99C221.39,-100.66 243.27,-88.47 259.89,-79.21"/>
<polygon fill="#63b8ff" stroke="#63b8ff" points="261.96,-82.06 268.99,-74.14 258.55,-75.95 261.96,-82.06"/>
</a>
</g>
</g>
<!-- Node5 -->
<g id="Node000005" class="node">
<title>Node5</title>
<g id="a_Node000005"><a xlink:title=" ">
<polygon fill="#e0e0e0" stroke="#999999" points="274,-19 221,-19 221,0 274,0 274,-19"/>
<text text-anchor="middle" x="247.5" y="-7" font-family="Helvetica,sans-Serif" font-size="10.00">stdint.h</text>
</a>
</g>
</g>
<!-- Node4&#45;&gt;Node5 -->
<g id="edge4_Node000004_Node000005" class="edge">
<title>Node4&#45;&gt;Node5</title>
<g id="a_edge4_Node000004_Node000005"><a xlink:title=" ">
<path fill="none" stroke="#63b8ff" d="M278.39,-54.75C273.22,-47.34 265.65,-36.5 259.31,-27.41"/>
<polygon fill="#63b8ff" stroke="#63b8ff" points="262.09,-25.29 253.5,-19.09 256.35,-29.29 262.09,-25.29"/>
</a>
</g>
</g>
<!-- Node6 -->
<g id="Node000006" class="node">
<title>Node6</title>
<g id="a_Node000006"><a xlink:title=" ">
<polygon fill="#e0e0e0" stroke="#999999" points="348.5,-19 292.5,-19 292.5,0 348.5,0 348.5,-19"/>
<text text-anchor="middle" x="320.5" y="-7" font-family="Helvetica,sans-Serif" font-size="10.00">stddef.h</text>
</a>
</g>
</g>
<!-- Node4&#45;&gt;Node6 -->
<g id="edge5_Node000004_Node000006" class="edge">
<title>Node4&#45;&gt;Node6</title>
<g id="a_edge5_Node000004_Node000006"><a xlink:title=" ">
<path fill="none" stroke="#63b8ff" d="M290.44,-54.75C295.48,-47.34 302.84,-36.5 309.01,-27.41"/>
<polygon fill="#63b8ff" stroke="#63b8ff" points="311.94,-29.33 314.67,-19.09 306.15,-25.39 311.94,-29.33"/>
</a>
</g>
</g>
</g>
</svg>
