<?xml version="1.0" encoding="UTF-8" standalone="no"?>
<!DOCTYPE svg PUBLIC "-//W3C//DTD SVG 1.1//EN"
 "http://www.w3.org/Graphics/SVG/1.1/DTD/svg11.dtd">
<!-- Generated by graphviz version 2.43.0 (0)
 -->
<!-- Title: main/weight_manager/weight_manager.c Pages: 1 -->
<svg width="876pt" height="203pt"
 viewBox="0.00 0.00 875.50 203.00" xmlns="http://www.w3.org/2000/svg" xmlns:xlink="http://www.w3.org/1999/xlink">
<g id="graph0" class="graph" transform="scale(1 1) rotate(0) translate(4 199)">
<title>main/weight_manager/weight_manager.c</title>
<!-- Node1 -->
<g id="Node000001" class="node">
<title>Node1</title>
<g id="a_Node000001"><a xlink:title=" ">
<polygon fill="#999999" stroke="#666666" points="559,-195 433,-195 433,-165 559,-165 559,-195"/>
<text text-anchor="start" x="441" y="-183" font-family="Helvetica,sans-Serif" font-size="10.00">main/weight_manager</text>
<text text-anchor="middle" x="496" y="-172" font-family="Helvetica,sans-Serif" font-size="10.00">/weight_manager.c</text>
</a>
</g>
</g>
<!-- Node2 -->
<g id="Node000002" class="node">
<title>Node2</title>
<g id="a_Node000002"><a xlink:href="weight__manager_8h.html" target="_top" xlink:title=" ">
<polygon fill="white" stroke="#666666" points="393.5,-129 286.5,-129 286.5,-110 393.5,-110 393.5,-129"/>
<text text-anchor="middle" x="340" y="-117" font-family="Helvetica,sans-Serif" font-size="10.00">weight_manager.h</text>
</a>
</g>
</g>
<!-- Node1&#45;&gt;Node2 -->
<g id="edge1_Node000001_Node000002" class="edge">
<title>Node1&#45;&gt;Node2</title>
<g id="a_edge1_Node000001_Node000002"><a xlink:title=" ">
<path fill="none" stroke="#63b8ff" d="M458.63,-164.99C432.37,-155.14 397.59,-142.1 372.48,-132.68"/>
<polygon fill="#63b8ff" stroke="#63b8ff" points="373.63,-129.37 363.04,-129.14 371.17,-135.93 373.63,-129.37"/>
</a>
</g>
</g>
<!-- Node3 -->
<g id="Node000003" class="node">
<title>Node3</title>
<g id="a_Node000003"><a xlink:title=" ">
<polygon fill="#e0e0e0" stroke="#999999" points="314.5,-74 201.5,-74 201.5,-55 314.5,-55 314.5,-74"/>
<text text-anchor="middle" x="258" y="-62" font-family="Helvetica,sans-Serif" font-size="10.00">freertos/FreeRTOS.h</text>
</a>
</g>
</g>
<!-- Node1&#45;&gt;Node3 -->
<g id="edge7_Node000001_Node000003" class="edge">
<title>Node1&#45;&gt;Node3</title>
<g id="a_edge7_Node000001_Node000003"><a xlink:title=" ">
<path fill="none" stroke="#63b8ff" d="M432.84,-171.7C376.41,-163.94 299.32,-149.89 277,-129 264.8,-117.58 260.33,-98.69 258.74,-84.48"/>
<polygon fill="#63b8ff" stroke="#63b8ff" points="262.22,-84.03 257.99,-74.31 255.24,-84.54 262.22,-84.03"/>
</a>
</g>
</g>
<!-- Node4 -->
<g id="Node000004" class="node">
<title>Node4</title>
<g id="a_Node000004"><a xlink:title=" ">
<polygon fill="#e0e0e0" stroke="#999999" points="429.5,-74 332.5,-74 332.5,-55 429.5,-55 429.5,-74"/>
<text text-anchor="middle" x="381" y="-62" font-family="Helvetica,sans-Serif" font-size="10.00">freertos/queue.h</text>
</a>
</g>
</g>
<!-- Node1&#45;&gt;Node4 -->
<g id="edge9_Node000001_Node000004" class="edge">
<title>Node1&#45;&gt;Node4</title>
<g id="a_edge9_Node000001_Node000004"><a xlink:title=" ">
<path fill="none" stroke="#63b8ff" d="M481.44,-164.63C459.9,-143.37 419.71,-103.71 397.25,-81.54"/>
<polygon fill="#63b8ff" stroke="#63b8ff" points="399.42,-78.76 389.84,-74.23 394.5,-83.75 399.42,-78.76"/>
</a>
</g>
</g>
<!-- Node5 -->
<g id="Node000005" class="node">
<title>Node5</title>
<g id="a_Node000005"><a xlink:href="calibration_8h.html" target="_top" xlink:title=" ">
<polygon fill="white" stroke="#666666" points="524.5,-74 447.5,-74 447.5,-55 524.5,-55 524.5,-74"/>
<text text-anchor="middle" x="486" y="-62" font-family="Helvetica,sans-Serif" font-size="10.00">calibration.h</text>
</a>
</g>
</g>
<!-- Node1&#45;&gt;Node5 -->
<g id="edge22_Node000001_Node000005" class="edge">
<title>Node1&#45;&gt;Node5</title>
<g id="a_edge22_Node000001_Node000005"><a xlink:title=" ">
<path fill="none" stroke="#63b8ff" d="M489.81,-164.88C485.84,-155.04 481.06,-141.48 479,-129 476.51,-113.94 478.72,-96.71 481.3,-84"/>
<polygon fill="#63b8ff" stroke="#63b8ff" points="484.73,-84.7 483.55,-74.17 477.91,-83.14 484.73,-84.7"/>
</a>
</g>
</g>
<!-- Node8 -->
<g id="Node000008" class="node">
<title>Node8</title>
<g id="a_Node000008"><a xlink:title=" ">
<polygon fill="#e0e0e0" stroke="#999999" points="576,-129 488,-129 488,-110 576,-110 576,-129"/>
<text text-anchor="middle" x="532" y="-117" font-family="Helvetica,sans-Serif" font-size="10.00">freertos/task.h</text>
</a>
</g>
</g>
<!-- Node1&#45;&gt;Node8 -->
<g id="edge8_Node000001_Node000008" class="edge">
<title>Node1&#45;&gt;Node8</title>
<g id="a_edge8_Node000001_Node000008"><a xlink:title=" ">
<path fill="none" stroke="#63b8ff" d="M504.71,-164.84C509.67,-156.78 515.93,-146.62 521.2,-138.06"/>
<polygon fill="#63b8ff" stroke="#63b8ff" points="524.35,-139.62 526.61,-129.27 518.38,-135.95 524.35,-139.62"/>
</a>
</g>
</g>
<!-- Node9 -->
<g id="Node000009" class="node">
<title>Node9</title>
<g id="a_Node000009"><a xlink:title=" ">
<polygon fill="#e0e0e0" stroke="#999999" points="611,-74 561,-74 561,-55 611,-55 611,-74"/>
<text text-anchor="middle" x="586" y="-62" font-family="Helvetica,sans-Serif" font-size="10.00">stdio.h</text>
</a>
</g>
</g>
<!-- Node1&#45;&gt;Node9 -->
<g id="edge10_Node000001_Node000009" class="edge">
<title>Node1&#45;&gt;Node9</title>
<g id="a_edge10_Node000001_Node000009"><a xlink:title=" ">
<path fill="none" stroke="#63b8ff" d="M540.55,-164.89C557.51,-157.12 575.11,-145.6 585,-129 593.02,-115.53 592.44,-97.44 590.34,-84.01"/>
<polygon fill="#63b8ff" stroke="#63b8ff" points="593.74,-83.16 588.37,-74.03 586.87,-84.52 593.74,-83.16"/>
</a>
</g>
</g>
<!-- Node10 -->
<g id="Node000010" class="node">
<title>Node10</title>
<g id="a_Node000010"><a xlink:title=" ">
<polygon fill="#e0e0e0" stroke="#999999" points="766,-129 718,-129 718,-110 766,-110 766,-129"/>
<text text-anchor="middle" x="742" y="-117" font-family="Helvetica,sans-Serif" font-size="10.00">time.h</text>
</a>
</g>
</g>
<!-- Node1&#45;&gt;Node10 -->
<g id="edge11_Node000001_Node000010" class="edge">
<title>Node1&#45;&gt;Node10</title>
<g id="a_edge11_Node000001_Node000010"><a xlink:title=" ">
<path fill="none" stroke="#63b8ff" d="M557.6,-164.91C597.85,-155.62 651.81,-143 708.08,-129.19"/>
<polygon fill="#63b8ff" stroke="#63b8ff" points="708.99,-132.57 717.86,-126.78 707.32,-125.77 708.99,-132.57"/>
</a>
</g>
</g>
<!-- Node11 -->
<g id="Node000011" class="node">
<title>Node11</title>
<g id="a_Node000011"><a xlink:title=" ">
<polygon fill="#e0e0e0" stroke="#999999" points="835.5,-129 784.5,-129 784.5,-110 835.5,-110 835.5,-129"/>
<text text-anchor="middle" x="810" y="-117" font-family="Helvetica,sans-Serif" font-size="10.00">math.h</text>
</a>
</g>
</g>
<!-- Node1&#45;&gt;Node11 -->
<g id="edge12_Node000001_Node000011" class="edge">
<title>Node1&#45;&gt;Node11</title>
<g id="a_edge12_Node000001_Node000011"><a xlink:title=" ">
<path fill="none" stroke="#63b8ff" d="M559.1,-168.82C613.46,-159.79 694.25,-145.77 774.18,-129.06"/>
<polygon fill="#63b8ff" stroke="#63b8ff" points="775.36,-132.39 784.43,-126.9 773.92,-125.54 775.36,-132.39"/>
</a>
</g>
</g>
<!-- Node12 -->
<g id="Node000012" class="node">
<title>Node12</title>
<g id="a_Node000012"><a xlink:href="sntp__synch_8h.html" target="_top" xlink:title=" ">
<polygon fill="white" stroke="#666666" points="201,-129 121,-129 121,-110 201,-110 201,-129"/>
<text text-anchor="middle" x="161" y="-117" font-family="Helvetica,sans-Serif" font-size="10.00">sntp_synch.h</text>
</a>
</g>
</g>
<!-- Node1&#45;&gt;Node12 -->
<g id="edge13_Node000001_Node000012" class="edge">
<title>Node1&#45;&gt;Node12</title>
<g id="a_edge13_Node000001_Node000012"><a xlink:title=" ">
<path fill="none" stroke="#63b8ff" d="M432.99,-168C368.67,-156.76 270.12,-139.56 210.97,-129.23"/>
<polygon fill="#63b8ff" stroke="#63b8ff" points="211.57,-125.78 201.12,-127.51 210.37,-132.67 211.57,-125.78"/>
</a>
</g>
</g>
<!-- Node15 -->
<g id="Node000015" class="node">
<title>Node15</title>
<g id="a_Node000015"><a xlink:href="log__utils_8h.html" target="_top" xlink:title=" ">
<polygon fill="white" stroke="#666666" points="699.5,-129 632.5,-129 632.5,-110 699.5,-110 699.5,-129"/>
<text text-anchor="middle" x="666" y="-117" font-family="Helvetica,sans-Serif" font-size="10.00">log_utils.h</text>
</a>
</g>
</g>
<!-- Node1&#45;&gt;Node15 -->
<g id="edge17_Node000001_Node000015" class="edge">
<title>Node1&#45;&gt;Node15</title>
<g id="a_edge17_Node000001_Node000015"><a xlink:title=" ">
<path fill="none" stroke="#63b8ff" d="M536.72,-164.99C565.59,-155.05 603.91,-141.86 631.33,-132.43"/>
<polygon fill="#63b8ff" stroke="#63b8ff" points="632.58,-135.7 640.89,-129.14 630.3,-129.08 632.58,-135.7"/>
</a>
</g>
</g>
<!-- Node2&#45;&gt;Node3 -->
<g id="edge2_Node000002_Node000003" class="edge">
<title>Node2&#45;&gt;Node3</title>
<g id="a_edge2_Node000002_Node000003"><a xlink:title=" ">
<path fill="none" stroke="#63b8ff" d="M326.83,-109.98C314.23,-101.84 295,-89.41 280.06,-79.76"/>
<polygon fill="#63b8ff" stroke="#63b8ff" points="281.71,-76.66 271.41,-74.17 277.91,-82.54 281.71,-76.66"/>
</a>
</g>
</g>
<!-- Node2&#45;&gt;Node4 -->
<g id="edge3_Node000002_Node000004" class="edge">
<title>Node2&#45;&gt;Node4</title>
<g id="a_edge3_Node000002_Node000004"><a xlink:title=" ">
<path fill="none" stroke="#63b8ff" d="M346.77,-109.75C352.56,-102.26 361.06,-91.28 368.14,-82.13"/>
<polygon fill="#63b8ff" stroke="#63b8ff" points="371.01,-84.14 374.36,-74.09 365.47,-79.86 371.01,-84.14"/>
</a>
</g>
</g>
<!-- Node2&#45;&gt;Node5 -->
<g id="edge4_Node000002_Node000005" class="edge">
<title>Node2&#45;&gt;Node5</title>
<g id="a_edge4_Node000002_Node000005"><a xlink:title=" ">
<path fill="none" stroke="#63b8ff" d="M363.46,-109.98C387.58,-101.23 425.37,-87.51 452.6,-77.62"/>
<polygon fill="#63b8ff" stroke="#63b8ff" points="453.91,-80.87 462.12,-74.17 451.52,-74.29 453.91,-80.87"/>
</a>
</g>
</g>
<!-- Node6 -->
<g id="Node000006" class="node">
<title>Node6</title>
<g id="a_Node000006"><a xlink:title=" ">
<polygon fill="#e0e0e0" stroke="#999999" points="475.5,-19 422.5,-19 422.5,0 475.5,0 475.5,-19"/>
<text text-anchor="middle" x="449" y="-7" font-family="Helvetica,sans-Serif" font-size="10.00">stdint.h</text>
</a>
</g>
</g>
<!-- Node5&#45;&gt;Node6 -->
<g id="edge5_Node000005_Node000006" class="edge">
<title>Node5&#45;&gt;Node6</title>
<g id="a_edge5_Node000005_Node000006"><a xlink:title=" ">
<path fill="none" stroke="#63b8ff" d="M479.89,-54.75C474.72,-47.34 467.15,-36.5 460.81,-27.41"/>
<polygon fill="#63b8ff" stroke="#63b8ff" points="463.59,-25.29 455,-19.09 457.85,-29.29 463.59,-25.29"/>
</a>
</g>
</g>
<!-- Node7 -->
<g id="Node000007" class="node">
<title>Node7</title>
<g id="a_Node000007"><a xlink:title=" ">
<polygon fill="#e0e0e0" stroke="#999999" points="550,-19 494,-19 494,0 550,0 550,-19"/>
<text text-anchor="middle" x="522" y="-7" font-family="Helvetica,sans-Serif" font-size="10.00">stddef.h</text>
</a>
</g>
</g>
<!-- Node5&#45;&gt;Node7 -->
<g id="edge6_Node000005_Node000007" class="edge">
<title>Node5&#45;&gt;Node7</title>
<g id="a_edge6_Node000005_Node000007"><a xlink:title=" ">
<path fill="none" stroke="#63b8ff" d="M491.94,-54.75C496.98,-47.34 504.34,-36.5 510.51,-27.41"/>
<polygon fill="#63b8ff" stroke="#63b8ff" points="513.44,-29.33 516.17,-19.09 507.65,-25.39 513.44,-29.33"/>
</a>
</g>
</g>
<!-- Node12&#45;&gt;Node3 -->
<g id="edge15_Node000012_Node000003" class="edge">
<title>Node12&#45;&gt;Node3</title>
<g id="a_edge15_Node000012_Node000003"><a xlink:title=" ">
<path fill="none" stroke="#63b8ff" d="M176.58,-109.98C191.77,-101.69 215.1,-88.94 232.9,-79.22"/>
<polygon fill="#63b8ff" stroke="#63b8ff" points="235.03,-82.04 242.13,-74.17 231.68,-75.89 235.03,-82.04"/>
</a>
</g>
</g>
<!-- Node13 -->
<g id="Node000013" class="node">
<title>Node13</title>
<g id="a_Node000013"><a xlink:title=" ">
<polygon fill="#e0e0e0" stroke="#999999" points="62,-74 0,-74 0,-55 62,-55 62,-74"/>
<text text-anchor="middle" x="31" y="-62" font-family="Helvetica,sans-Serif" font-size="10.00">stdbool.h</text>
</a>
</g>
</g>
<!-- Node12&#45;&gt;Node13 -->
<g id="edge14_Node000012_Node000013" class="edge">
<title>Node12&#45;&gt;Node13</title>
<g id="a_edge14_Node000012_Node000013"><a xlink:title=" ">
<path fill="none" stroke="#63b8ff" d="M140.11,-109.98C118.92,-101.34 85.87,-87.87 61.7,-78.02"/>
<polygon fill="#63b8ff" stroke="#63b8ff" points="62.85,-74.7 52.27,-74.17 60.21,-81.19 62.85,-74.7"/>
</a>
</g>
</g>
<!-- Node14 -->
<g id="Node000014" class="node">
<title>Node14</title>
<g id="a_Node000014"><a xlink:title=" ">
<polygon fill="#e0e0e0" stroke="#999999" points="183.5,-74 80.5,-74 80.5,-55 183.5,-55 183.5,-74"/>
<text text-anchor="middle" x="132" y="-62" font-family="Helvetica,sans-Serif" font-size="10.00">freertos/semphr.h</text>
</a>
</g>
</g>
<!-- Node12&#45;&gt;Node14 -->
<g id="edge16_Node000012_Node000014" class="edge">
<title>Node12&#45;&gt;Node14</title>
<g id="a_edge16_Node000012_Node000014"><a xlink:title=" ">
<path fill="none" stroke="#63b8ff" d="M156.21,-109.75C152.24,-102.49 146.47,-91.95 141.57,-82.98"/>
<polygon fill="#63b8ff" stroke="#63b8ff" points="144.57,-81.18 136.7,-74.09 138.43,-84.54 144.57,-81.18"/>
</a>
</g>
</g>
<!-- Node15&#45;&gt;Node9 -->
<g id="edge21_Node000015_Node000009" class="edge">
<title>Node15&#45;&gt;Node9</title>
<g id="a_edge21_Node000015_Node000009"><a xlink:title=" ">
<path fill="none" stroke="#63b8ff" d="M653.15,-109.98C640.86,-101.84 622.09,-89.41 607.52,-79.76"/>
<polygon fill="#63b8ff" stroke="#63b8ff" points="609.36,-76.78 599.09,-74.17 605.49,-82.61 609.36,-76.78"/>
</a>
</g>
</g>
<!-- Node16 -->
<g id="Node000016" class="node">
<title>Node16</title>
<g id="a_Node000016"><a xlink:title=" ">
<polygon fill="#e0e0e0" stroke="#999999" points="703,-74 629,-74 629,-55 703,-55 703,-74"/>
<text text-anchor="middle" x="666" y="-62" font-family="Helvetica,sans-Serif" font-size="10.00">esp_timer.h</text>
</a>
</g>
</g>
<!-- Node15&#45;&gt;Node16 -->
<g id="edge18_Node000015_Node000016" class="edge">
<title>Node15&#45;&gt;Node16</title>
<g id="a_edge18_Node000015_Node000016"><a xlink:title=" ">
<path fill="none" stroke="#63b8ff" d="M666,-109.75C666,-102.8 666,-92.85 666,-84.13"/>
<polygon fill="#63b8ff" stroke="#63b8ff" points="669.5,-84.09 666,-74.09 662.5,-84.09 669.5,-84.09"/>
</a>
</g>
</g>
<!-- Node17 -->
<g id="Node000017" class="node">
<title>Node17</title>
<g id="a_Node000017"><a xlink:title=" ">
<polygon fill="#e0e0e0" stroke="#999999" points="784.5,-74 721.5,-74 721.5,-55 784.5,-55 784.5,-74"/>
<text text-anchor="middle" x="753" y="-62" font-family="Helvetica,sans-Serif" font-size="10.00">esp_log.h</text>
</a>
</g>
</g>
<!-- Node15&#45;&gt;Node17 -->
<g id="edge19_Node000015_Node000017" class="edge">
<title>Node15&#45;&gt;Node17</title>
<g id="a_edge19_Node000015_Node000017"><a xlink:title=" ">
<path fill="none" stroke="#63b8ff" d="M679.98,-109.98C693.47,-101.77 714.13,-89.18 730.04,-79.49"/>
<polygon fill="#63b8ff" stroke="#63b8ff" points="732.05,-82.36 738.77,-74.17 728.41,-76.38 732.05,-82.36"/>
</a>
</g>
</g>
<!-- Node18 -->
<g id="Node000018" class="node">
<title>Node18</title>
<g id="a_Node000018"><a xlink:title=" ">
<polygon fill="#e0e0e0" stroke="#999999" points="867.5,-74 802.5,-74 802.5,-55 867.5,-55 867.5,-74"/>
<text text-anchor="middle" x="835" y="-62" font-family="Helvetica,sans-Serif" font-size="10.00">inttypes.h</text>
</a>
</g>
</g>
<!-- Node15&#45;&gt;Node18 -->
<g id="edge20_Node000015_Node000018" class="edge">
<title>Node15&#45;&gt;Node18</title>
<g id="a_edge20_Node000015_Node000018"><a xlink:title=" ">
<path fill="none" stroke="#63b8ff" d="M693.15,-109.98C721.53,-101.09 766.23,-87.07 797.86,-77.15"/>
<polygon fill="#63b8ff" stroke="#63b8ff" points="799.14,-80.41 807.63,-74.08 797.05,-73.73 799.14,-80.41"/>
</a>
</g>
</g>
</g>
</svg>
