<?xml version="1.0" encoding="UTF-8" standalone="no"?>
<!DOCTYPE svg PUBLIC "-//W3C//DTD SVG 1.1//EN"
 "http://www.w3.org/Graphics/SVG/1.1/DTD/svg11.dtd">
<!-- Generated by graphviz version 2.43.0 (0)
 -->
<!-- Title: weight_manager_task Pages: 1 -->
<svg width="279pt" height="64pt"
 viewBox="0.00 0.00 279.00 64.00" xmlns="http://www.w3.org/2000/svg" xmlns:xlink="http://www.w3.org/1999/xlink">
<g id="graph0" class="graph" transform="scale(1 1) rotate(0) translate(4 60)">
<title>weight_manager_task</title>
<!-- Node1 -->
<g id="Node000001" class="node">
<title>Node1</title>
<g id="a_Node000001"><a xlink:title=" ">
<polygon fill="#999999" stroke="#666666" points="125,-37 0,-37 0,-18 125,-18 125,-37"/>
<text text-anchor="middle" x="62.5" y="-25" font-family="Helvetica,sans-Serif" font-size="10.00">weight_manager_task</text>
</a>
</g>
</g>
<!-- Node2 -->
<g id="Node000002" class="node">
<title>Node2</title>
<g id="a_Node000002"><a xlink:href="calibration_8c.html#a290a80f0669ce6f3a5a761650b2cbb28" target="_top" xlink:title="Convert a raw ADC value into weight using the computed model.">
<polygon fill="white" stroke="#666666" points="271,-56 161,-56 161,-37 271,-37 271,-56"/>
<text text-anchor="middle" x="216" y="-44" font-family="Helvetica,sans-Serif" font-size="10.00">calibration_convert</text>
</a>
</g>
</g>
<!-- Node1&#45;&gt;Node2 -->
<g id="edge1_Node000001_Node000002" class="edge">
<title>Node1&#45;&gt;Node2</title>
<g id="a_edge1_Node000001_Node000002"><a xlink:title=" ">
<path fill="none" stroke="#63b8ff" d="M125.12,-35.23C133.51,-36.28 142.13,-37.36 150.57,-38.42"/>
<polygon fill="#63b8ff" stroke="#63b8ff" points="150.38,-41.92 160.73,-39.69 151.25,-34.98 150.38,-41.92"/>
</a>
</g>
</g>
<!-- Node3 -->
<g id="Node000003" class="node">
<title>Node3</title>
<g id="a_Node000003"><a xlink:href="weight__manager_8c.html#adedf53bed0b45630ae2b4c1239517b37" target="_top" xlink:title=" ">
<polygon fill="white" stroke="#666666" points="239,-19 193,-19 193,0 239,0 239,-19"/>
<text text-anchor="middle" x="216" y="-7" font-family="Helvetica,sans-Serif" font-size="10.00">log_ts</text>
</a>
</g>
</g>
<!-- Node1&#45;&gt;Node3 -->
<g id="edge2_Node000001_Node000003" class="edge">
<title>Node1&#45;&gt;Node3</title>
<g id="a_edge2_Node000001_Node000003"><a xlink:title=" ">
<path fill="none" stroke="#63b8ff" d="M125.12,-20.18C144.74,-17.85 165.68,-15.36 182.4,-13.37"/>
<polygon fill="#63b8ff" stroke="#63b8ff" points="183.21,-16.8 192.73,-12.15 182.38,-9.85 183.21,-16.8"/>
</a>
</g>
</g>
</g>
</svg>
