<?xml version="1.0" encoding="UTF-8" standalone="no"?>
<!DOCTYPE svg PUBLIC "-//W3C//DTD SVG 1.1//EN"
 "http://www.w3.org/Graphics/SVG/1.1/DTD/svg11.dtd">
<!-- Generated by graphviz version 2.43.0 (0)
 -->
<!-- Title: wifi_modem_sleep Pages: 1 -->
<svg width="388pt" height="46pt"
 viewBox="0.00 0.00 388.00 46.00" xmlns="http://www.w3.org/2000/svg" xmlns:xlink="http://www.w3.org/1999/xlink">
<g id="graph0" class="graph" transform="scale(1 1) rotate(0) translate(4 42)">
<title>wifi_modem_sleep</title>
<!-- Node1 -->
<g id="Node000001" class="node">
<title>Node1</title>
<g id="a_Node000001"><a xlink:title=" ">
<polygon fill="#999999" stroke="#666666" points="380,-19 272,-19 272,0 380,0 380,-19"/>
<text text-anchor="middle" x="326" y="-7" font-family="Helvetica,sans-Serif" font-size="10.00">wifi_modem_sleep</text>
</a>
</g>
</g>
<!-- Node2 -->
<g id="Node000002" class="node">
<title>Node2</title>
<g id="a_Node000002"><a xlink:href="wifi__power__management_8c.html#a3a4b05342f1f7cbae735e68d5373c27d" target="_top" xlink:title=" ">
<polygon fill="white" stroke="#666666" points="236,-38 166,-38 166,-19 236,-19 236,-38"/>
<text text-anchor="middle" x="201" y="-26" font-family="Helvetica,sans-Serif" font-size="10.00">light_sleep</text>
</a>
</g>
</g>
<!-- Node1&#45;&gt;Node2 -->
<g id="edge1_Node000001_Node000002" class="edge">
<title>Node1&#45;&gt;Node2</title>
<g id="a_edge1_Node000001_Node000002"><a xlink:title=" ">
<path fill="none" stroke="#63b8ff" d="M261.8,-19.26C252.96,-20.63 244.16,-21.99 236.15,-23.23"/>
<polygon fill="#63b8ff" stroke="#63b8ff" points="262.42,-22.71 271.77,-17.72 261.35,-15.79 262.42,-22.71"/>
</a>
</g>
</g>
<!-- Node3 -->
<g id="Node000003" class="node">
<title>Node3</title>
<g id="a_Node000003"><a xlink:href="wifi__power__management_8c.html#a4387d7ea57be9c1929c9a308def2de0d" target="_top" xlink:title=" ">
<polygon fill="white" stroke="#666666" points="130,-19 0,-19 0,0 130,0 130,-19"/>
<text text-anchor="middle" x="65" y="-7" font-family="Helvetica,sans-Serif" font-size="10.00">manage_power_modes</text>
</a>
</g>
</g>
<!-- Node1&#45;&gt;Node3 -->
<g id="edge3_Node000001_Node000003" class="edge">
<title>Node1&#45;&gt;Node3</title>
<g id="a_edge3_Node000001_Node000003"><a xlink:title=" ">
<path fill="none" stroke="#63b8ff" d="M261.82,-9.5C221.94,-9.5 170.55,-9.5 130.43,-9.5"/>
<polygon fill="#63b8ff" stroke="#63b8ff" points="261.96,-13 271.96,-9.5 261.96,-6 261.96,-13"/>
</a>
</g>
</g>
<!-- Node2&#45;&gt;Node3 -->
<g id="edge2_Node000002_Node000003" class="edge">
<title>Node2&#45;&gt;Node3</title>
<g id="a_edge2_Node000002_Node000003"><a xlink:title=" ">
<path fill="none" stroke="#63b8ff" d="M155.74,-22.22C147.51,-21.06 138.76,-19.82 130.07,-18.58"/>
<polygon fill="#63b8ff" stroke="#63b8ff" points="155.45,-25.72 165.84,-23.66 156.43,-18.79 155.45,-25.72"/>
</a>
</g>
</g>
</g>
</svg>
