<?xml version="1.0" encoding="UTF-8" standalone="no"?>
<!DOCTYPE svg PUBLIC "-//W3C//DTD SVG 1.1//EN"
 "http://www.w3.org/Graphics/SVG/1.1/DTD/svg11.dtd">
<!-- Generated by graphviz version 2.43.0 (0)
 -->
<!-- Title: ble_advertising_sleep Pages: 1 -->
<svg width="403pt" height="46pt"
 viewBox="0.00 0.00 403.00 46.00" xmlns="http://www.w3.org/2000/svg" xmlns:xlink="http://www.w3.org/1999/xlink">
<g id="graph0" class="graph" transform="scale(1 1) rotate(0) translate(4 42)">
<title>ble_advertising_sleep</title>
<!-- Node1 -->
<g id="Node000001" class="node">
<title>Node1</title>
<g id="a_Node000001"><a xlink:title=" ">
<polygon fill="#999999" stroke="#666666" points="395,-19 272,-19 272,0 395,0 395,-19"/>
<text text-anchor="middle" x="333.5" y="-7" font-family="Helvetica,sans-Serif" font-size="10.00">ble_advertising_sleep</text>
</a>
</g>
</g>
<!-- Node2 -->
<g id="Node000002" class="node">
<title>Node2</title>
<g id="a_Node000002"><a xlink:href="wifi__power__management_8c.html#a3a4b05342f1f7cbae735e68d5373c27d" target="_top" xlink:title=" ">
<polygon fill="white" stroke="#666666" points="236,-38 166,-38 166,-19 236,-19 236,-38"/>
<text text-anchor="middle" x="201" y="-26" font-family="Helvetica,sans-Serif" font-size="10.00">light_sleep</text>
</a>
</g>
</g>
<!-- Node1&#45;&gt;Node2 -->
<g id="edge1_Node000001_Node000002" class="edge">
<title>Node1&#45;&gt;Node2</title>
<g id="a_edge1_Node000001_Node000002"><a xlink:title=" ">
<path fill="none" stroke="#63b8ff" d="M261.77,-19.8C252.88,-21.09 244.13,-22.37 236.18,-23.52"/>
<polygon fill="#63b8ff" stroke="#63b8ff" points="262.44,-23.24 271.83,-18.33 261.43,-16.31 262.44,-23.24"/>
</a>
</g>
</g>
<!-- Node3 -->
<g id="Node000003" class="node">
<title>Node3</title>
<g id="a_Node000003"><a xlink:href="wifi__power__management_8c.html#a4387d7ea57be9c1929c9a308def2de0d" target="_top" xlink:title=" ">
<polygon fill="white" stroke="#666666" points="130,-19 0,-19 0,0 130,0 130,-19"/>
<text text-anchor="middle" x="65" y="-7" font-family="Helvetica,sans-Serif" font-size="10.00">manage_power_modes</text>
</a>
</g>
</g>
<!-- Node1&#45;&gt;Node3 -->
<g id="edge3_Node000001_Node000003" class="edge">
<title>Node1&#45;&gt;Node3</title>
<g id="a_edge3_Node000001_Node000003"><a xlink:title=" ">
<path fill="none" stroke="#63b8ff" d="M261.55,-9.5C220.75,-9.5 169.89,-9.5 130.26,-9.5"/>
<polygon fill="#63b8ff" stroke="#63b8ff" points="261.69,-13 271.69,-9.5 261.69,-6 261.69,-13"/>
</a>
</g>
</g>
<!-- Node2&#45;&gt;Node3 -->
<g id="edge2_Node000002_Node000003" class="edge">
<title>Node2&#45;&gt;Node3</title>
<g id="a_edge2_Node000002_Node000003"><a xlink:title=" ">
<path fill="none" stroke="#63b8ff" d="M155.74,-22.22C147.51,-21.06 138.76,-19.82 130.07,-18.58"/>
<polygon fill="#63b8ff" stroke="#63b8ff" points="155.45,-25.72 165.84,-23.66 156.43,-18.79 155.45,-25.72"/>
</a>
</g>
</g>
</g>
</svg>
