<?xml version="1.0" encoding="UTF-8" standalone="no"?>
<!DOCTYPE svg PUBLIC "-//W3C//DTD SVG 1.1//EN"
 "http://www.w3.org/Graphics/SVG/1.1/DTD/svg11.dtd">
<!-- Generated by graphviz version 2.43.0 (0)
 -->
<!-- Title: main/wifi_power_management/wifi_power_management.c Pages: 1 -->
<svg width="792pt" height="148pt"
 viewBox="0.00 0.00 791.50 148.00" xmlns="http://www.w3.org/2000/svg" xmlns:xlink="http://www.w3.org/1999/xlink">
<g id="graph0" class="graph" transform="scale(1 1) rotate(0) translate(4 144)">
<title>main/wifi_power_management/wifi_power_management.c</title>
<!-- Node1 -->
<g id="Node000001" class="node">
<title>Node1</title>
<g id="a_Node000001"><a xlink:title=" ">
<polygon fill="#999999" stroke="#666666" points="485,-140 318,-140 318,-110 485,-110 485,-140"/>
<text text-anchor="start" x="326" y="-128" font-family="Helvetica,sans-Serif" font-size="10.00">main/wifi_power_management</text>
<text text-anchor="middle" x="401.5" y="-117" font-family="Helvetica,sans-Serif" font-size="10.00">/wifi_power_management.c</text>
</a>
</g>
</g>
<!-- Node2 -->
<g id="Node000002" class="node">
<title>Node2</title>
<g id="a_Node000002"><a xlink:href="wifi__power__management_8h.html" target="_top" xlink:title=" ">
<polygon fill="white" stroke="#666666" points="149,-74 0,-74 0,-55 149,-55 149,-74"/>
<text text-anchor="middle" x="74.5" y="-62" font-family="Helvetica,sans-Serif" font-size="10.00">wifi_power_management.h</text>
</a>
</g>
</g>
<!-- Node1&#45;&gt;Node2 -->
<g id="edge1_Node000001_Node000002" class="edge">
<title>Node1&#45;&gt;Node2</title>
<g id="a_edge1_Node000001_Node000002"><a xlink:title=" ">
<path fill="none" stroke="#63b8ff" d="M323.18,-109.99C264.42,-99.48 185.31,-85.32 132.24,-75.83"/>
<polygon fill="#63b8ff" stroke="#63b8ff" points="132.77,-72.37 122.31,-74.05 131.54,-79.26 132.77,-72.37"/>
</a>
</g>
</g>
<!-- Node5 -->
<g id="Node000005" class="node">
<title>Node5</title>
<g id="a_Node000005"><a xlink:title=" ">
<polygon fill="#e0e0e0" stroke="#999999" points="232,-74 167,-74 167,-55 232,-55 232,-74"/>
<text text-anchor="middle" x="199.5" y="-62" font-family="Helvetica,sans-Serif" font-size="10.00">esp_wifi.h</text>
</a>
</g>
</g>
<!-- Node1&#45;&gt;Node5 -->
<g id="edge4_Node000001_Node000005" class="edge">
<title>Node1&#45;&gt;Node5</title>
<g id="a_edge4_Node000001_Node000005"><a xlink:title=" ">
<path fill="none" stroke="#63b8ff" d="M353.12,-109.99C318.1,-99.85 271.39,-86.32 238.7,-76.85"/>
<polygon fill="#63b8ff" stroke="#63b8ff" points="239.61,-73.47 229.04,-74.05 237.67,-80.2 239.61,-73.47"/>
</a>
</g>
</g>
<!-- Node6 -->
<g id="Node000006" class="node">
<title>Node6</title>
<g id="a_Node000006"><a xlink:title=" ">
<polygon fill="#e0e0e0" stroke="#999999" points="308.5,-74 250.5,-74 250.5,-55 308.5,-55 308.5,-74"/>
<text text-anchor="middle" x="279.5" y="-62" font-family="Helvetica,sans-Serif" font-size="10.00">esp_bt.h</text>
</a>
</g>
</g>
<!-- Node1&#45;&gt;Node6 -->
<g id="edge5_Node000001_Node000006" class="edge">
<title>Node1&#45;&gt;Node6</title>
<g id="a_edge5_Node000001_Node000006"><a xlink:title=" ">
<path fill="none" stroke="#63b8ff" d="M372.28,-109.99C352.38,-100.45 326.22,-87.9 306.75,-78.57"/>
<polygon fill="#63b8ff" stroke="#63b8ff" points="308.05,-75.31 297.52,-74.14 305.02,-81.62 308.05,-75.31"/>
</a>
</g>
</g>
<!-- Node7 -->
<g id="Node000007" class="node">
<title>Node7</title>
<g id="a_Node000007"><a xlink:title=" ">
<polygon fill="#e0e0e0" stroke="#999999" points="390,-74 327,-74 327,-55 390,-55 390,-74"/>
<text text-anchor="middle" x="358.5" y="-62" font-family="Helvetica,sans-Serif" font-size="10.00">esp_log.h</text>
</a>
</g>
</g>
<!-- Node1&#45;&gt;Node7 -->
<g id="edge6_Node000001_Node000007" class="edge">
<title>Node1&#45;&gt;Node7</title>
<g id="a_edge6_Node000001_Node000007"><a xlink:title=" ">
<path fill="none" stroke="#63b8ff" d="M391.09,-109.84C385.04,-101.61 377.38,-91.18 371,-82.51"/>
<polygon fill="#63b8ff" stroke="#63b8ff" points="373.69,-80.25 364.94,-74.27 368.05,-84.4 373.69,-80.25"/>
</a>
</g>
</g>
<!-- Node8 -->
<g id="Node000008" class="node">
<title>Node8</title>
<g id="a_Node000008"><a xlink:title=" ">
<polygon fill="#e0e0e0" stroke="#999999" points="482.5,-74 408.5,-74 408.5,-55 482.5,-55 482.5,-74"/>
<text text-anchor="middle" x="445.5" y="-62" font-family="Helvetica,sans-Serif" font-size="10.00">esp_sleep.h</text>
</a>
</g>
</g>
<!-- Node1&#45;&gt;Node8 -->
<g id="edge7_Node000001_Node000008" class="edge">
<title>Node1&#45;&gt;Node8</title>
<g id="a_edge7_Node000001_Node000008"><a xlink:title=" ">
<path fill="none" stroke="#63b8ff" d="M412.15,-109.84C418.34,-101.61 426.19,-91.18 432.71,-82.51"/>
<polygon fill="#63b8ff" stroke="#63b8ff" points="435.69,-84.36 438.91,-74.27 430.1,-80.15 435.69,-84.36"/>
</a>
</g>
</g>
<!-- Node9 -->
<g id="Node000009" class="node">
<title>Node9</title>
<g id="a_Node000009"><a xlink:title=" ">
<polygon fill="#e0e0e0" stroke="#999999" points="578,-74 501,-74 501,-55 578,-55 578,-74"/>
<text text-anchor="middle" x="539.5" y="-62" font-family="Helvetica,sans-Serif" font-size="10.00">nimble/ble.h</text>
</a>
</g>
</g>
<!-- Node1&#45;&gt;Node9 -->
<g id="edge8_Node000001_Node000009" class="edge">
<title>Node1&#45;&gt;Node9</title>
<g id="a_edge8_Node000001_Node000009"><a xlink:title=" ">
<path fill="none" stroke="#63b8ff" d="M434.55,-109.99C457.48,-100.27 487.74,-87.44 509.88,-78.06"/>
<polygon fill="#63b8ff" stroke="#63b8ff" points="511.28,-81.26 519.12,-74.14 508.55,-74.82 511.28,-81.26"/>
</a>
</g>
</g>
<!-- Node10 -->
<g id="Node000010" class="node">
<title>Node10</title>
<g id="a_Node000010"><a xlink:title=" ">
<polygon fill="#e0e0e0" stroke="#999999" points="677,-74 596,-74 596,-55 677,-55 677,-74"/>
<text text-anchor="middle" x="636.5" y="-62" font-family="Helvetica,sans-Serif" font-size="10.00">host/ble_hs.h</text>
</a>
</g>
</g>
<!-- Node1&#45;&gt;Node10 -->
<g id="edge9_Node000001_Node000010" class="edge">
<title>Node1&#45;&gt;Node10</title>
<g id="a_edge9_Node000001_Node000010"><a xlink:title=" ">
<path fill="none" stroke="#63b8ff" d="M457.79,-109.99C499.05,-99.72 554.28,-85.97 592.36,-76.49"/>
<polygon fill="#63b8ff" stroke="#63b8ff" points="593.28,-79.87 602.14,-74.05 591.59,-73.07 593.28,-79.87"/>
</a>
</g>
</g>
<!-- Node11 -->
<g id="Node000011" class="node">
<title>Node11</title>
<g id="a_Node000011"><a xlink:title=" ">
<polygon fill="#e0e0e0" stroke="#999999" points="783.5,-74 695.5,-74 695.5,-55 783.5,-55 783.5,-74"/>
<text text-anchor="middle" x="739.5" y="-62" font-family="Helvetica,sans-Serif" font-size="10.00">host/ble_gap.h</text>
</a>
</g>
</g>
<!-- Node1&#45;&gt;Node11 -->
<g id="edge10_Node000001_Node000011" class="edge">
<title>Node1&#45;&gt;Node11</title>
<g id="a_edge10_Node000001_Node000011"><a xlink:title=" ">
<path fill="none" stroke="#63b8ff" d="M482.46,-109.99C545.34,-99.1 630.78,-84.32 685.54,-74.84"/>
<polygon fill="#63b8ff" stroke="#63b8ff" points="686.14,-78.29 695.4,-73.13 684.95,-71.39 686.14,-78.29"/>
</a>
</g>
</g>
<!-- Node3 -->
<g id="Node000003" class="node">
<title>Node3</title>
<g id="a_Node000003"><a xlink:title=" ">
<polygon fill="#e0e0e0" stroke="#999999" points="67.5,-19 5.5,-19 5.5,0 67.5,0 67.5,-19"/>
<text text-anchor="middle" x="36.5" y="-7" font-family="Helvetica,sans-Serif" font-size="10.00">stdbool.h</text>
</a>
</g>
</g>
<!-- Node2&#45;&gt;Node3 -->
<g id="edge2_Node000002_Node000003" class="edge">
<title>Node2&#45;&gt;Node3</title>
<g id="a_edge2_Node000002_Node000003"><a xlink:title=" ">
<path fill="none" stroke="#63b8ff" d="M68.23,-54.75C62.91,-47.34 55.14,-36.5 48.62,-27.41"/>
<polygon fill="#63b8ff" stroke="#63b8ff" points="51.33,-25.18 42.66,-19.09 45.64,-29.26 51.33,-25.18"/>
</a>
</g>
</g>
<!-- Node4 -->
<g id="Node000004" class="node">
<title>Node4</title>
<g id="a_Node000004"><a xlink:title=" ">
<polygon fill="#e0e0e0" stroke="#999999" points="139,-19 86,-19 86,0 139,0 139,-19"/>
<text text-anchor="middle" x="112.5" y="-7" font-family="Helvetica,sans-Serif" font-size="10.00">stdint.h</text>
</a>
</g>
</g>
<!-- Node2&#45;&gt;Node4 -->
<g id="edge3_Node000002_Node000004" class="edge">
<title>Node2&#45;&gt;Node4</title>
<g id="a_edge3_Node000002_Node000004"><a xlink:title=" ">
<path fill="none" stroke="#63b8ff" d="M80.77,-54.75C86.09,-47.34 93.86,-36.5 100.38,-27.41"/>
<polygon fill="#63b8ff" stroke="#63b8ff" points="103.36,-29.26 106.34,-19.09 97.67,-25.18 103.36,-29.26"/>
</a>
</g>
</g>
</g>
</svg>
