<?xml version="1.0" encoding="UTF-8" standalone="no"?>
<!DOCTYPE svg PUBLIC "-//W3C//DTD SVG 1.1//EN"
 "http://www.w3.org/Graphics/SVG/1.1/DTD/svg11.dtd">
<!-- Generated by graphviz version 2.43.0 (0)
 -->
<!-- Title: wifi_comm_start Pages: 1 -->
<svg width="731pt" height="193pt"
 viewBox="0.00 0.00 731.00 193.00" xmlns="http://www.w3.org/2000/svg" xmlns:xlink="http://www.w3.org/1999/xlink">
<g id="graph0" class="graph" transform="scale(1 1) rotate(0) translate(4 189)">
<title>wifi_comm_start</title>
<!-- Node1 -->
<g id="Node000001" class="node">
<title>Node1</title>
<g id="a_Node000001"><a xlink:title="Initialise Wi‑Fi in STA mode, scan for APs, connect to the given SSID/password, and (optionally) star...">
<polygon fill="#999999" stroke="#666666" points="98,-111 0,-111 0,-92 98,-92 98,-111"/>
<text text-anchor="middle" x="49" y="-99" font-family="Helvetica,sans-Serif" font-size="10.00">wifi_comm_start</text>
</a>
</g>
</g>
<!-- Node2 -->
<g id="Node000002" class="node">
<title>Node2</title>
<g id="a_Node000002"><a xlink:href="wifi__comm_8c.html#a26f0211cd2ec06e31508899b0eae707d" target="_top" xlink:title=" ">
<polygon fill="white" stroke="#666666" points="240.5,-148 136.5,-148 136.5,-129 240.5,-129 240.5,-148"/>
<text text-anchor="middle" x="188.5" y="-136" font-family="Helvetica,sans-Serif" font-size="10.00">wifi_connect_task</text>
</a>
</g>
</g>
<!-- Node1&#45;&gt;Node2 -->
<g id="edge1_Node000001_Node000002" class="edge">
<title>Node1&#45;&gt;Node2</title>
<g id="a_edge1_Node000001_Node000002"><a xlink:title=" ">
<path fill="none" stroke="#63b8ff" d="M85.41,-111.03C102.6,-115.65 123.45,-121.27 141.82,-126.21"/>
<polygon fill="#63b8ff" stroke="#63b8ff" points="141.17,-129.66 151.73,-128.88 142.99,-122.9 141.17,-129.66"/>
</a>
</g>
</g>
<!-- Node3 -->
<g id="Node000003" class="node">
<title>Node3</title>
<g id="a_Node000003"><a xlink:href="wifi__comm_8c.html#af00a27b9e490096d5767f48feed1d3ae" target="_top" xlink:title=" ">
<polygon fill="white" stroke="#666666" points="243,-111 134,-111 134,-92 243,-92 243,-111"/>
<text text-anchor="middle" x="188.5" y="-99" font-family="Helvetica,sans-Serif" font-size="10.00">wifi_event_handler</text>
</a>
</g>
</g>
<!-- Node1&#45;&gt;Node3 -->
<g id="edge2_Node000001_Node000003" class="edge">
<title>Node1&#45;&gt;Node3</title>
<g id="a_edge2_Node000001_Node000003"><a xlink:title=" ">
<path fill="none" stroke="#63b8ff" d="M98.09,-101.5C106.24,-101.5 114.81,-101.5 123.3,-101.5"/>
<polygon fill="#63b8ff" stroke="#63b8ff" points="123.56,-105 133.56,-101.5 123.56,-98 123.56,-105"/>
</a>
</g>
</g>
<!-- Node13 -->
<g id="Node000013" class="node">
<title>Node13</title>
<g id="a_Node000013"><a xlink:href="wifi__comm_8c.html#a2064b14d9080d81897b7ecda58cb4707" target="_top" xlink:title=" ">
<polygon fill="white" stroke="#666666" points="232.5,-74 144.5,-74 144.5,-55 232.5,-55 232.5,-74"/>
<text text-anchor="middle" x="188.5" y="-62" font-family="Helvetica,sans-Serif" font-size="10.00">wifi_scan_task</text>
</a>
</g>
</g>
<!-- Node1&#45;&gt;Node13 -->
<g id="edge12_Node000001_Node000013" class="edge">
<title>Node1&#45;&gt;Node13</title>
<g id="a_edge12_Node000001_Node000013"><a xlink:title=" ">
<path fill="none" stroke="#63b8ff" d="M85.41,-91.97C102.6,-87.35 123.45,-81.73 141.82,-76.79"/>
<polygon fill="#63b8ff" stroke="#63b8ff" points="142.99,-80.1 151.73,-74.12 141.17,-73.34 142.99,-80.1"/>
</a>
</g>
</g>
<!-- Node4 -->
<g id="Node000004" class="node">
<title>Node4</title>
<g id="a_Node000004"><a xlink:href="hx711_8c.html#a32b4a242719d0a006643ef6fe66650b6" target="_top" xlink:title=" ">
<polygon fill="white" stroke="#666666" points="390,-185 287,-185 287,-166 390,-166 390,-185"/>
<text text-anchor="middle" x="338.5" y="-173" font-family="Helvetica,sans-Serif" font-size="10.00">hx711_get_queue</text>
</a>
</g>
</g>
<!-- Node3&#45;&gt;Node4 -->
<g id="edge3_Node000003_Node000004" class="edge">
<title>Node3&#45;&gt;Node4</title>
<g id="a_edge3_Node000003_Node000004"><a xlink:title=" ">
<path fill="none" stroke="#63b8ff" d="M223.71,-111.01C230.37,-113.58 237.11,-116.72 243,-120.5 262.31,-132.88 259.43,-145.53 279,-157.5 281.77,-159.19 284.7,-160.73 287.73,-162.14"/>
<polygon fill="#63b8ff" stroke="#63b8ff" points="286.43,-165.39 297.01,-165.96 289.1,-158.92 286.43,-165.39"/>
</a>
</g>
</g>
<!-- Node5 -->
<g id="Node000005" class="node">
<title>Node5</title>
<g id="a_Node000005"><a xlink:href="sntp__synch_8c.html#a78e6192b5fb97b2676f845179584cd4d" target="_top" xlink:title=" ">
<polygon fill="white" stroke="#666666" points="385,-148 292,-148 292,-129 385,-129 385,-148"/>
<text text-anchor="middle" x="338.5" y="-136" font-family="Helvetica,sans-Serif" font-size="10.00">sntp_sync_start</text>
</a>
</g>
</g>
<!-- Node3&#45;&gt;Node5 -->
<g id="edge4_Node000003_Node000005" class="edge">
<title>Node3&#45;&gt;Node5</title>
<g id="a_edge4_Node000003_Node000005"><a xlink:title=" ">
<path fill="none" stroke="#63b8ff" d="M227.61,-111.03C246.44,-115.74 269.36,-121.47 289.39,-126.47"/>
<polygon fill="#63b8ff" stroke="#63b8ff" points="288.71,-129.91 299.26,-128.94 290.41,-123.12 288.71,-129.91"/>
</a>
</g>
</g>
<!-- Node7 -->
<g id="Node000007" class="node">
<title>Node7</title>
<g id="a_Node000007"><a xlink:href="sntp__synch_8c.html#a163c19382a04ea22327cebd45733f579" target="_top" xlink:title=" ">
<polygon fill="white" stroke="#666666" points="396.5,-111 280.5,-111 280.5,-92 396.5,-92 396.5,-111"/>
<text text-anchor="middle" x="338.5" y="-99" font-family="Helvetica,sans-Serif" font-size="10.00">sntp_time_available</text>
</a>
</g>
</g>
<!-- Node3&#45;&gt;Node7 -->
<g id="edge6_Node000003_Node000007" class="edge">
<title>Node3&#45;&gt;Node7</title>
<g id="a_edge6_Node000003_Node000007"><a xlink:title=" ">
<path fill="none" stroke="#63b8ff" d="M243.35,-101.5C252.12,-101.5 261.29,-101.5 270.33,-101.5"/>
<polygon fill="#63b8ff" stroke="#63b8ff" points="270.45,-105 280.45,-101.5 270.45,-98 270.45,-105"/>
</a>
</g>
</g>
<!-- Node8 -->
<g id="Node000008" class="node">
<title>Node8</title>
<g id="a_Node000008"><a xlink:href="wifi__comm_8c.html#a61c868bc85ed2ebbea39dba6aab3ae55" target="_top" xlink:title=" ">
<polygon fill="white" stroke="#666666" points="385.5,-74 291.5,-74 291.5,-55 385.5,-55 385.5,-74"/>
<text text-anchor="middle" x="338.5" y="-62" font-family="Helvetica,sans-Serif" font-size="10.00">tcp_server_task</text>
</a>
</g>
</g>
<!-- Node3&#45;&gt;Node8 -->
<g id="edge7_Node000003_Node000008" class="edge">
<title>Node3&#45;&gt;Node8</title>
<g id="a_edge7_Node000003_Node000008"><a xlink:title=" ">
<path fill="none" stroke="#63b8ff" d="M227.61,-91.97C246.44,-87.26 269.36,-81.53 289.39,-76.53"/>
<polygon fill="#63b8ff" stroke="#63b8ff" points="290.41,-79.88 299.26,-74.06 288.71,-73.09 290.41,-79.88"/>
</a>
</g>
</g>
<!-- Node9 -->
<g id="Node000009" class="node">
<title>Node9</title>
<g id="a_Node000009"><a xlink:href="weight__manager_8c.html#af363d5c833e2bc81e4ed46769ed2eb08" target="_top" xlink:title="Initialize the weight manager.">
<polygon fill="white" stroke="#666666" points="398,-37 279,-37 279,-18 398,-18 398,-37"/>
<text text-anchor="middle" x="338.5" y="-25" font-family="Helvetica,sans-Serif" font-size="10.00">weight_manager_init</text>
</a>
</g>
</g>
<!-- Node3&#45;&gt;Node9 -->
<g id="edge8_Node000003_Node000009" class="edge">
<title>Node3&#45;&gt;Node9</title>
<g id="a_edge8_Node000003_Node000009"><a xlink:title=" ">
<path fill="none" stroke="#63b8ff" d="M225.68,-91.95C231.69,-89.64 237.69,-86.84 243,-83.5 262.42,-71.28 259.52,-58.62 279,-46.5 282.32,-44.43 285.89,-42.57 289.57,-40.89"/>
<polygon fill="#63b8ff" stroke="#63b8ff" points="290.92,-44.12 298.86,-37.1 288.28,-37.64 290.92,-44.12"/>
</a>
</g>
</g>
<!-- Node6 -->
<g id="Node000006" class="node">
<title>Node6</title>
<g id="a_Node000006"><a xlink:href="sntp__synch_8c.html#ad0458e91b8c3a87fcacba336d2ce8d16" target="_top" xlink:title=" ">
<polygon fill="white" stroke="#666666" points="577,-148 434,-148 434,-129 577,-129 577,-148"/>
<text text-anchor="middle" x="505.5" y="-136" font-family="Helvetica,sans-Serif" font-size="10.00">time_sync_notification_cb</text>
</a>
</g>
</g>
<!-- Node5&#45;&gt;Node6 -->
<g id="edge5_Node000005_Node000006" class="edge">
<title>Node5&#45;&gt;Node6</title>
<g id="a_edge5_Node000005_Node000006"><a xlink:title=" ">
<path fill="none" stroke="#63b8ff" d="M385.02,-138.5C397.03,-138.5 410.36,-138.5 423.63,-138.5"/>
<polygon fill="#63b8ff" stroke="#63b8ff" points="423.75,-142 433.75,-138.5 423.75,-135 423.75,-142"/>
</a>
</g>
</g>
<!-- Node10 -->
<g id="Node000010" class="node">
<title>Node10</title>
<g id="a_Node000010"><a xlink:href="weight__manager_8c.html#a5427a48300064edb414c8c35b830fadb" target="_top" xlink:title=" ">
<polygon fill="white" stroke="#666666" points="568,-37 443,-37 443,-18 568,-18 568,-37"/>
<text text-anchor="middle" x="505.5" y="-25" font-family="Helvetica,sans-Serif" font-size="10.00">weight_manager_task</text>
</a>
</g>
</g>
<!-- Node9&#45;&gt;Node10 -->
<g id="edge9_Node000009_Node000010" class="edge">
<title>Node9&#45;&gt;Node10</title>
<g id="a_edge9_Node000009_Node000010"><a xlink:title=" ">
<path fill="none" stroke="#63b8ff" d="M398.14,-27.5C409.39,-27.5 421.28,-27.5 432.88,-27.5"/>
<polygon fill="#63b8ff" stroke="#63b8ff" points="432.98,-31 442.98,-27.5 432.98,-24 432.98,-31"/>
</a>
</g>
</g>
<!-- Node11 -->
<g id="Node000011" class="node">
<title>Node11</title>
<g id="a_Node000011"><a xlink:href="calibration_8c.html#a290a80f0669ce6f3a5a761650b2cbb28" target="_top" xlink:title="Convert a raw ADC value into weight using the computed model.">
<polygon fill="white" stroke="#666666" points="723,-56 613,-56 613,-37 723,-37 723,-56"/>
<text text-anchor="middle" x="668" y="-44" font-family="Helvetica,sans-Serif" font-size="10.00">calibration_convert</text>
</a>
</g>
</g>
<!-- Node10&#45;&gt;Node11 -->
<g id="edge10_Node000010_Node000011" class="edge">
<title>Node10&#45;&gt;Node11</title>
<g id="a_edge10_Node000010_Node000011"><a xlink:title=" ">
<path fill="none" stroke="#63b8ff" d="M568.09,-34.79C579.51,-36.14 591.46,-37.56 602.95,-38.92"/>
<polygon fill="#63b8ff" stroke="#63b8ff" points="602.56,-42.4 612.91,-40.1 603.39,-35.45 602.56,-42.4"/>
</a>
</g>
</g>
<!-- Node12 -->
<g id="Node000012" class="node">
<title>Node12</title>
<g id="a_Node000012"><a xlink:href="weight__manager_8c.html#adedf53bed0b45630ae2b4c1239517b37" target="_top" xlink:title=" ">
<polygon fill="white" stroke="#666666" points="691,-19 645,-19 645,0 691,0 691,-19"/>
<text text-anchor="middle" x="668" y="-7" font-family="Helvetica,sans-Serif" font-size="10.00">log_ts</text>
</a>
</g>
</g>
<!-- Node10&#45;&gt;Node12 -->
<g id="edge11_Node000010_Node000012" class="edge">
<title>Node10&#45;&gt;Node12</title>
<g id="a_edge11_Node000010_Node000012"><a xlink:title=" ">
<path fill="none" stroke="#63b8ff" d="M568.09,-20.59C590.92,-18.03 615.87,-15.23 635.01,-13.09"/>
<polygon fill="#63b8ff" stroke="#63b8ff" points="635.44,-16.56 644.99,-11.97 634.66,-9.61 635.44,-16.56"/>
</a>
</g>
</g>
</g>
</svg>
