<?xml version="1.0" encoding="UTF-8" standalone="no"?>
<!DOCTYPE svg PUBLIC "-//W3C//DTD SVG 1.1//EN"
 "http://www.w3.org/Graphics/SVG/1.1/DTD/svg11.dtd">
<!-- Generated by graphviz version 2.43.0 (0)
 -->
<!-- Title: manage_power_modes Pages: 1 -->
<svg width="455pt" height="200pt"
 viewBox="0.00 0.00 455.00 199.55" xmlns="http://www.w3.org/2000/svg" xmlns:xlink="http://www.w3.org/1999/xlink">
<g id="graph0" class="graph" transform="scale(1 1) rotate(0) translate(4 195.55)">
<title>manage_power_modes</title>
<!-- Node1 -->
<g id="Node000001" class="node">
<title>Node1</title>
<g id="a_Node000001"><a xlink:title=" ">
<polygon fill="#999999" stroke="#666666" points="130,-113 0,-113 0,-94 130,-94 130,-113"/>
<text text-anchor="middle" x="65" y="-101" font-family="Helvetica,sans-Serif" font-size="10.00">manage_power_modes</text>
</a>
</g>
</g>
<!-- Node2 -->
<g id="Node000002" class="node">
<title>Node2</title>
<g id="a_Node000002"><a xlink:href="wifi__power__management_8c.html#aeec4f33ebf7973472a0f25830eb03f54" target="_top" xlink:title=" ">
<polygon fill="white" stroke="#666666" points="447,-113 324,-113 324,-94 447,-94 447,-113"/>
<text text-anchor="middle" x="385.5" y="-101" font-family="Helvetica,sans-Serif" font-size="10.00">ble_advertising_sleep</text>
</a>
</g>
</g>
<!-- Node1&#45;&gt;Node2 -->
<g id="edge1_Node000001_Node000002" class="edge">
<title>Node1&#45;&gt;Node2</title>
<g id="a_edge1_Node000001_Node000002"><a xlink:title=" ">
<path fill="none" stroke="#63b8ff" d="M74.46,-113.01C90.37,-130.09 126.68,-165.39 166,-178.5 217.44,-195.65 236.71,-196.09 288,-178.5 321.24,-167.1 351.87,-139.06 369.34,-120.68"/>
<polygon fill="#63b8ff" stroke="#63b8ff" points="372.21,-122.73 376.41,-113.01 367.06,-117.99 372.21,-122.73"/>
</a>
</g>
</g>
<!-- Node3 -->
<g id="Node000003" class="node">
<title>Node3</title>
<g id="a_Node000003"><a xlink:href="wifi__power__management_8c.html#a6e2159f14001b78daaace33794a57f2a" target="_top" xlink:title=" ">
<polygon fill="white" stroke="#666666" points="288,-169 166,-169 166,-150 288,-150 288,-169"/>
<text text-anchor="middle" x="227" y="-157" font-family="Helvetica,sans-Serif" font-size="10.00">ble_connection_sleep</text>
</a>
</g>
</g>
<!-- Node1&#45;&gt;Node3 -->
<g id="edge2_Node000001_Node000003" class="edge">
<title>Node1&#45;&gt;Node3</title>
<g id="a_edge2_Node000001_Node000003"><a xlink:title=" ">
<path fill="none" stroke="#63b8ff" d="M89.67,-113.04C109.82,-121.04 139.62,-132.54 166,-141.5 171.34,-143.31 176.98,-145.13 182.58,-146.88"/>
<polygon fill="#63b8ff" stroke="#63b8ff" points="181.96,-150.35 192.54,-149.93 184,-143.65 181.96,-150.35"/>
</a>
</g>
</g>
<!-- Node4 -->
<g id="Node000004" class="node">
<title>Node4</title>
<g id="a_Node000004"><a xlink:href="wifi__power__management_8c.html#a852bc2cd60097157815ef8f855729a7e" target="_top" xlink:title=" ">
<polygon fill="white" stroke="#666666" points="271,-132 183,-132 183,-113 271,-113 271,-132"/>
<text text-anchor="middle" x="227" y="-120" font-family="Helvetica,sans-Serif" font-size="10.00">ble_idle_mode</text>
</a>
</g>
</g>
<!-- Node1&#45;&gt;Node4 -->
<g id="edge3_Node000001_Node000004" class="edge">
<title>Node1&#45;&gt;Node4</title>
<g id="a_edge3_Node000001_Node000004"><a xlink:title=" ">
<path fill="none" stroke="#63b8ff" d="M130.16,-111.12C144.29,-112.8 159.11,-114.56 172.76,-116.18"/>
<polygon fill="#63b8ff" stroke="#63b8ff" points="172.59,-119.68 182.93,-117.39 173.41,-112.73 172.59,-119.68"/>
</a>
</g>
</g>
<!-- Node5 -->
<g id="Node000005" class="node">
<title>Node5</title>
<g id="a_Node000005"><a xlink:href="wifi__power__management_8c.html#a3a4b05342f1f7cbae735e68d5373c27d" target="_top" xlink:title=" ">
<polygon fill="white" stroke="#666666" points="262,-95 192,-95 192,-76 262,-76 262,-95"/>
<text text-anchor="middle" x="227" y="-83" font-family="Helvetica,sans-Serif" font-size="10.00">light_sleep</text>
</a>
</g>
</g>
<!-- Node1&#45;&gt;Node5 -->
<g id="edge4_Node000001_Node000005" class="edge">
<title>Node1&#45;&gt;Node5</title>
<g id="a_edge4_Node000001_Node000005"><a xlink:title=" ">
<path fill="none" stroke="#63b8ff" d="M130.16,-96.28C147.42,-94.34 165.7,-92.28 181.62,-90.49"/>
<polygon fill="#63b8ff" stroke="#63b8ff" points="182.16,-93.95 191.7,-89.36 181.37,-87 182.16,-93.95"/>
</a>
</g>
</g>
<!-- Node6 -->
<g id="Node000006" class="node">
<title>Node6</title>
<g id="a_Node000006"><a xlink:href="wifi__power__management_8c.html#a2cd0828c9339f5d25782f5e3d736b49c" target="_top" xlink:title=" ">
<polygon fill="white" stroke="#666666" points="439.5,-76 331.5,-76 331.5,-57 439.5,-57 439.5,-76"/>
<text text-anchor="middle" x="385.5" y="-64" font-family="Helvetica,sans-Serif" font-size="10.00">wifi_modem_sleep</text>
</a>
</g>
</g>
<!-- Node1&#45;&gt;Node6 -->
<g id="edge8_Node000001_Node000006" class="edge">
<title>Node1&#45;&gt;Node6</title>
<g id="a_edge8_Node000001_Node000006"><a xlink:title=" ">
<path fill="none" stroke="#63b8ff" d="M85.34,-94C105.07,-84.87 136.85,-71.72 166,-66.5 217.51,-57.28 276.95,-57.99 320.82,-60.62"/>
<polygon fill="#63b8ff" stroke="#63b8ff" points="320.85,-64.12 331.05,-61.28 321.3,-57.14 320.85,-64.12"/>
</a>
</g>
</g>
<!-- Node7 -->
<g id="Node000007" class="node">
<title>Node7</title>
<g id="a_Node000007"><a xlink:href="wifi__power__management_8c.html#a3c4f6f9b8b30159b30debe4b4eea9312" target="_top" xlink:title=" ">
<polygon fill="white" stroke="#666666" points="278,-19 176,-19 176,0 278,0 278,-19"/>
<text text-anchor="middle" x="227" y="-7" font-family="Helvetica,sans-Serif" font-size="10.00">wifi_active_mode</text>
</a>
</g>
</g>
<!-- Node1&#45;&gt;Node7 -->
<g id="edge7_Node000001_Node000007" class="edge">
<title>Node1&#45;&gt;Node7</title>
<g id="a_edge7_Node000001_Node000007"><a xlink:title=" ">
<path fill="none" stroke="#63b8ff" d="M77.73,-93.93C95.84,-79.48 132.07,-51.84 166,-33.5 173.15,-29.64 181.05,-26.04 188.72,-22.86"/>
<polygon fill="#63b8ff" stroke="#63b8ff" points="190.22,-26.03 198.22,-19.08 187.63,-19.53 190.22,-26.03"/>
</a>
</g>
</g>
<!-- Node5&#45;&gt;Node2 -->
<g id="edge5_Node000005_Node000002" class="edge">
<title>Node5&#45;&gt;Node2</title>
<g id="a_edge5_Node000005_Node000002"><a xlink:title=" ">
<path fill="none" stroke="#63b8ff" d="M262.34,-89.45C277.39,-91.18 295.63,-93.28 313.38,-95.32"/>
<polygon fill="#63b8ff" stroke="#63b8ff" points="313.41,-98.85 323.75,-96.51 314.21,-91.89 313.41,-98.85"/>
</a>
</g>
</g>
<!-- Node5&#45;&gt;Node6 -->
<g id="edge6_Node000005_Node000006" class="edge">
<title>Node5&#45;&gt;Node6</title>
<g id="a_edge6_Node000005_Node000006"><a xlink:title=" ">
<path fill="none" stroke="#63b8ff" d="M262.34,-81.33C279.66,-79.23 301.22,-76.61 321.39,-74.16"/>
<polygon fill="#63b8ff" stroke="#63b8ff" points="321.96,-77.62 331.47,-72.94 321.12,-70.67 321.96,-77.62"/>
</a>
</g>
</g>
</g>
</svg>
