<?xml version="1.0" encoding="UTF-8" standalone="no"?>
<!DOCTYPE svg PUBLIC "-//W3C//DTD SVG 1.1//EN"
 "http://www.w3.org/Graphics/SVG/1.1/DTD/svg11.dtd">
<!-- Generated by graphviz version 2.43.0 (0)
 -->
<!-- Title: wifi_event_handler Pages: 1 -->
<svg width="597pt" height="193pt"
 viewBox="0.00 0.00 597.00 193.00" xmlns="http://www.w3.org/2000/svg" xmlns:xlink="http://www.w3.org/1999/xlink">
<g id="graph0" class="graph" transform="scale(1 1) rotate(0) translate(4 189)">
<title>wifi_event_handler</title>
<!-- Node1 -->
<g id="Node000001" class="node">
<title>Node1</title>
<g id="a_Node000001"><a xlink:title=" ">
<polygon fill="#999999" stroke="#666666" points="109,-111 0,-111 0,-92 109,-92 109,-111"/>
<text text-anchor="middle" x="54.5" y="-99" font-family="Helvetica,sans-Serif" font-size="10.00">wifi_event_handler</text>
</a>
</g>
</g>
<!-- Node2 -->
<g id="Node000002" class="node">
<title>Node2</title>
<g id="a_Node000002"><a xlink:href="hx711_8c.html#a32b4a242719d0a006643ef6fe66650b6" target="_top" xlink:title=" ">
<polygon fill="white" stroke="#666666" points="256,-185 153,-185 153,-166 256,-166 256,-185"/>
<text text-anchor="middle" x="204.5" y="-173" font-family="Helvetica,sans-Serif" font-size="10.00">hx711_get_queue</text>
</a>
</g>
</g>
<!-- Node1&#45;&gt;Node2 -->
<g id="edge1_Node000001_Node000002" class="edge">
<title>Node1&#45;&gt;Node2</title>
<g id="a_edge1_Node000001_Node000002"><a xlink:title=" ">
<path fill="none" stroke="#63b8ff" d="M68.53,-111.19C85.43,-123.38 116.16,-144.32 145,-157.5 149.02,-159.34 153.28,-161.06 157.6,-162.64"/>
<polygon fill="#63b8ff" stroke="#63b8ff" points="156.47,-165.95 167.06,-165.9 158.75,-159.34 156.47,-165.95"/>
</a>
</g>
</g>
<!-- Node3 -->
<g id="Node000003" class="node">
<title>Node3</title>
<g id="a_Node000003"><a xlink:href="sntp__synch_8c.html#a78e6192b5fb97b2676f845179584cd4d" target="_top" xlink:title=" ">
<polygon fill="white" stroke="#666666" points="251,-148 158,-148 158,-129 251,-129 251,-148"/>
<text text-anchor="middle" x="204.5" y="-136" font-family="Helvetica,sans-Serif" font-size="10.00">sntp_sync_start</text>
</a>
</g>
</g>
<!-- Node1&#45;&gt;Node3 -->
<g id="edge2_Node000001_Node000003" class="edge">
<title>Node1&#45;&gt;Node3</title>
<g id="a_edge2_Node000001_Node000003"><a xlink:title=" ">
<path fill="none" stroke="#63b8ff" d="M93.61,-111.03C112.44,-115.74 135.36,-121.47 155.39,-126.47"/>
<polygon fill="#63b8ff" stroke="#63b8ff" points="154.71,-129.91 165.26,-128.94 156.41,-123.12 154.71,-129.91"/>
</a>
</g>
</g>
<!-- Node5 -->
<g id="Node000005" class="node">
<title>Node5</title>
<g id="a_Node000005"><a xlink:href="sntp__synch_8c.html#a163c19382a04ea22327cebd45733f579" target="_top" xlink:title=" ">
<polygon fill="white" stroke="#666666" points="262.5,-111 146.5,-111 146.5,-92 262.5,-92 262.5,-111"/>
<text text-anchor="middle" x="204.5" y="-99" font-family="Helvetica,sans-Serif" font-size="10.00">sntp_time_available</text>
</a>
</g>
</g>
<!-- Node1&#45;&gt;Node5 -->
<g id="edge4_Node000001_Node000005" class="edge">
<title>Node1&#45;&gt;Node5</title>
<g id="a_edge4_Node000001_Node000005"><a xlink:title=" ">
<path fill="none" stroke="#63b8ff" d="M109.35,-101.5C118.12,-101.5 127.29,-101.5 136.33,-101.5"/>
<polygon fill="#63b8ff" stroke="#63b8ff" points="136.45,-105 146.45,-101.5 136.45,-98 136.45,-105"/>
</a>
</g>
</g>
<!-- Node6 -->
<g id="Node000006" class="node">
<title>Node6</title>
<g id="a_Node000006"><a xlink:href="wifi__comm_8c.html#a61c868bc85ed2ebbea39dba6aab3ae55" target="_top" xlink:title=" ">
<polygon fill="white" stroke="#666666" points="251.5,-74 157.5,-74 157.5,-55 251.5,-55 251.5,-74"/>
<text text-anchor="middle" x="204.5" y="-62" font-family="Helvetica,sans-Serif" font-size="10.00">tcp_server_task</text>
</a>
</g>
</g>
<!-- Node1&#45;&gt;Node6 -->
<g id="edge5_Node000001_Node000006" class="edge">
<title>Node1&#45;&gt;Node6</title>
<g id="a_edge5_Node000001_Node000006"><a xlink:title=" ">
<path fill="none" stroke="#63b8ff" d="M93.61,-91.97C112.44,-87.26 135.36,-81.53 155.39,-76.53"/>
<polygon fill="#63b8ff" stroke="#63b8ff" points="156.41,-79.88 165.26,-74.06 154.71,-73.09 156.41,-79.88"/>
</a>
</g>
</g>
<!-- Node7 -->
<g id="Node000007" class="node">
<title>Node7</title>
<g id="a_Node000007"><a xlink:href="weight__manager_8c.html#af363d5c833e2bc81e4ed46769ed2eb08" target="_top" xlink:title="Initialize the weight manager.">
<polygon fill="white" stroke="#666666" points="264,-37 145,-37 145,-18 264,-18 264,-37"/>
<text text-anchor="middle" x="204.5" y="-25" font-family="Helvetica,sans-Serif" font-size="10.00">weight_manager_init</text>
</a>
</g>
</g>
<!-- Node1&#45;&gt;Node7 -->
<g id="edge6_Node000001_Node000007" class="edge">
<title>Node1&#45;&gt;Node7</title>
<g id="a_edge6_Node000001_Node000007"><a xlink:title=" ">
<path fill="none" stroke="#63b8ff" d="M68.89,-91.87C85.91,-79.96 116.52,-59.65 145,-46.5 149.73,-44.32 154.77,-42.28 159.85,-40.4"/>
<polygon fill="#63b8ff" stroke="#63b8ff" points="161.28,-43.61 169.57,-37.02 158.97,-37 161.28,-43.61"/>
</a>
</g>
</g>
<!-- Node4 -->
<g id="Node000004" class="node">
<title>Node4</title>
<g id="a_Node000004"><a xlink:href="sntp__synch_8c.html#ad0458e91b8c3a87fcacba336d2ce8d16" target="_top" xlink:title=" ">
<polygon fill="white" stroke="#666666" points="443,-148 300,-148 300,-129 443,-129 443,-148"/>
<text text-anchor="middle" x="371.5" y="-136" font-family="Helvetica,sans-Serif" font-size="10.00">time_sync_notification_cb</text>
</a>
</g>
</g>
<!-- Node3&#45;&gt;Node4 -->
<g id="edge3_Node000003_Node000004" class="edge">
<title>Node3&#45;&gt;Node4</title>
<g id="a_edge3_Node000003_Node000004"><a xlink:title=" ">
<path fill="none" stroke="#63b8ff" d="M251.02,-138.5C263.03,-138.5 276.36,-138.5 289.63,-138.5"/>
<polygon fill="#63b8ff" stroke="#63b8ff" points="289.75,-142 299.75,-138.5 289.75,-135 289.75,-142"/>
</a>
</g>
</g>
<!-- Node8 -->
<g id="Node000008" class="node">
<title>Node8</title>
<g id="a_Node000008"><a xlink:href="weight__manager_8c.html#a5427a48300064edb414c8c35b830fadb" target="_top" xlink:title=" ">
<polygon fill="white" stroke="#666666" points="434,-37 309,-37 309,-18 434,-18 434,-37"/>
<text text-anchor="middle" x="371.5" y="-25" font-family="Helvetica,sans-Serif" font-size="10.00">weight_manager_task</text>
</a>
</g>
</g>
<!-- Node7&#45;&gt;Node8 -->
<g id="edge7_Node000007_Node000008" class="edge">
<title>Node7&#45;&gt;Node8</title>
<g id="a_edge7_Node000007_Node000008"><a xlink:title=" ">
<path fill="none" stroke="#63b8ff" d="M264.14,-27.5C275.39,-27.5 287.28,-27.5 298.88,-27.5"/>
<polygon fill="#63b8ff" stroke="#63b8ff" points="298.98,-31 308.98,-27.5 298.98,-24 298.98,-31"/>
</a>
</g>
</g>
<!-- Node9 -->
<g id="Node000009" class="node">
<title>Node9</title>
<g id="a_Node000009"><a xlink:href="calibration_8c.html#a290a80f0669ce6f3a5a761650b2cbb28" target="_top" xlink:title="Convert a raw ADC value into weight using the computed model.">
<polygon fill="white" stroke="#666666" points="589,-56 479,-56 479,-37 589,-37 589,-56"/>
<text text-anchor="middle" x="534" y="-44" font-family="Helvetica,sans-Serif" font-size="10.00">calibration_convert</text>
</a>
</g>
</g>
<!-- Node8&#45;&gt;Node9 -->
<g id="edge8_Node000008_Node000009" class="edge">
<title>Node8&#45;&gt;Node9</title>
<g id="a_edge8_Node000008_Node000009"><a xlink:title=" ">
<path fill="none" stroke="#63b8ff" d="M434.09,-34.79C445.51,-36.14 457.46,-37.56 468.95,-38.92"/>
<polygon fill="#63b8ff" stroke="#63b8ff" points="468.56,-42.4 478.91,-40.1 469.39,-35.45 468.56,-42.4"/>
</a>
</g>
</g>
<!-- Node10 -->
<g id="Node000010" class="node">
<title>Node10</title>
<g id="a_Node000010"><a xlink:href="weight__manager_8c.html#adedf53bed0b45630ae2b4c1239517b37" target="_top" xlink:title=" ">
<polygon fill="white" stroke="#666666" points="557,-19 511,-19 511,0 557,0 557,-19"/>
<text text-anchor="middle" x="534" y="-7" font-family="Helvetica,sans-Serif" font-size="10.00">log_ts</text>
</a>
</g>
</g>
<!-- Node8&#45;&gt;Node10 -->
<g id="edge9_Node000008_Node000010" class="edge">
<title>Node8&#45;&gt;Node10</title>
<g id="a_edge9_Node000008_Node000010"><a xlink:title=" ">
<path fill="none" stroke="#63b8ff" d="M434.09,-20.59C456.92,-18.03 481.87,-15.23 501.01,-13.09"/>
<polygon fill="#63b8ff" stroke="#63b8ff" points="501.44,-16.56 510.99,-11.97 500.66,-9.61 501.44,-16.56"/>
</a>
</g>
</g>
</g>
</svg>
