<?xml version="1.0" encoding="UTF-8" standalone="no"?>
<!DOCTYPE svg PUBLIC "-//W3C//DTD SVG 1.1//EN"
 "http://www.w3.org/Graphics/SVG/1.1/DTD/svg11.dtd">
<!-- Generated by graphviz version 2.43.0 (0)
 -->
<!-- Title: light_sleep Pages: 1 -->
<svg width="237pt" height="64pt"
 viewBox="0.00 0.00 237.00 64.00" xmlns="http://www.w3.org/2000/svg" xmlns:xlink="http://www.w3.org/1999/xlink">
<g id="graph0" class="graph" transform="scale(1 1) rotate(0) translate(4 60)">
<title>light_sleep</title>
<!-- Node1 -->
<g id="Node000001" class="node">
<title>Node1</title>
<g id="a_Node000001"><a xlink:title=" ">
<polygon fill="#999999" stroke="#666666" points="70,-37 0,-37 0,-18 70,-18 70,-37"/>
<text text-anchor="middle" x="35" y="-25" font-family="Helvetica,sans-Serif" font-size="10.00">light_sleep</text>
</a>
</g>
</g>
<!-- Node2 -->
<g id="Node000002" class="node">
<title>Node2</title>
<g id="a_Node000002"><a xlink:href="wifi__power__management_8c.html#aeec4f33ebf7973472a0f25830eb03f54" target="_top" xlink:title=" ">
<polygon fill="white" stroke="#666666" points="229,-56 106,-56 106,-37 229,-37 229,-56"/>
<text text-anchor="middle" x="167.5" y="-44" font-family="Helvetica,sans-Serif" font-size="10.00">ble_advertising_sleep</text>
</a>
</g>
</g>
<!-- Node1&#45;&gt;Node2 -->
<g id="edge1_Node000001_Node000002" class="edge">
<title>Node1&#45;&gt;Node2</title>
<g id="a_edge1_Node000001_Node000002"><a xlink:title=" ">
<path fill="none" stroke="#63b8ff" d="M70.29,-32.49C78.24,-33.65 87,-34.93 95.89,-36.22"/>
<polygon fill="#63b8ff" stroke="#63b8ff" points="95.54,-39.71 105.94,-37.68 96.55,-32.78 95.54,-39.71"/>
</a>
</g>
</g>
<!-- Node3 -->
<g id="Node000003" class="node">
<title>Node3</title>
<g id="a_Node000003"><a xlink:href="wifi__power__management_8c.html#a2cd0828c9339f5d25782f5e3d736b49c" target="_top" xlink:title=" ">
<polygon fill="white" stroke="#666666" points="221.5,-19 113.5,-19 113.5,0 221.5,0 221.5,-19"/>
<text text-anchor="middle" x="167.5" y="-7" font-family="Helvetica,sans-Serif" font-size="10.00">wifi_modem_sleep</text>
</a>
</g>
</g>
<!-- Node1&#45;&gt;Node3 -->
<g id="edge2_Node000001_Node000003" class="edge">
<title>Node1&#45;&gt;Node3</title>
<g id="a_edge2_Node000001_Node000003"><a xlink:title=" ">
<path fill="none" stroke="#63b8ff" d="M70.29,-22.77C80.45,-21.37 91.92,-19.79 103.3,-18.22"/>
<polygon fill="#63b8ff" stroke="#63b8ff" points="103.82,-21.68 113.25,-16.84 102.87,-14.74 103.82,-21.68"/>
</a>
</g>
</g>
</g>
</svg>
