<?xml version="1.0" encoding="UTF-8" standalone="no"?>
<!DOCTYPE svg PUBLIC "-//W3C//DTD SVG 1.1//EN"
 "http://www.w3.org/Graphics/SVG/1.1/DTD/svg11.dtd">
<!-- Generated by graphviz version 2.43.0 (0)
 -->
<!-- Title: main/wifi/wifi_comm.h Pages: 1 -->
<svg width="393pt" height="104pt"
 viewBox="0.00 0.00 392.50 104.00" xmlns="http://www.w3.org/2000/svg" xmlns:xlink="http://www.w3.org/1999/xlink">
<g id="graph0" class="graph" transform="scale(1 1) rotate(0) translate(4 100)">
<title>main/wifi/wifi_comm.h</title>
<!-- Node1 -->
<g id="Node000001" class="node">
<title>Node1</title>
<g id="a_Node000001"><a xlink:title=" ">
<polygon fill="#999999" stroke="#666666" points="265,-96 138,-96 138,-77 265,-77 265,-96"/>
<text text-anchor="middle" x="201.5" y="-84" font-family="Helvetica,sans-Serif" font-size="10.00">main/wifi/wifi_comm.h</text>
</a>
</g>
</g>
<!-- Node2 -->
<g id="Node000002" class="node">
<title>Node2</title>
<g id="a_Node000002"><a xlink:href="app__connection__manager_8c.html" target="_top" xlink:title=" ">
<polygon fill="white" stroke="#666666" points="145,-41 0,-41 0,0 145,0 145,-41"/>
<text text-anchor="start" x="8" y="-29" font-family="Helvetica,sans-Serif" font-size="10.00">main/app_connection</text>
<text text-anchor="start" x="8" y="-18" font-family="Helvetica,sans-Serif" font-size="10.00">_manager/app_connection</text>
<text text-anchor="middle" x="72.5" y="-7" font-family="Helvetica,sans-Serif" font-size="10.00">_manager.c</text>
</a>
</g>
</g>
<!-- Node1&#45;&gt;Node2 -->
<g id="edge1_Node000001_Node000002" class="edge">
<title>Node1&#45;&gt;Node2</title>
<g id="a_edge1_Node000001_Node000002"><a xlink:title=" ">
<path fill="none" stroke="#63b8ff" d="M174.95,-72.33C156.75,-63.3 132.28,-51.16 111.82,-41.01"/>
<polygon fill="#63b8ff" stroke="#63b8ff" points="173.59,-75.56 184.1,-76.87 176.7,-69.29 173.59,-75.56"/>
</a>
</g>
</g>
<!-- Node3 -->
<g id="Node000003" class="node">
<title>Node3</title>
<g id="a_Node000003"><a xlink:href="main_8c.html" target="_top" xlink:title=" ">
<polygon fill="white" stroke="#666666" points="240,-30 163,-30 163,-11 240,-11 240,-30"/>
<text text-anchor="middle" x="201.5" y="-18" font-family="Helvetica,sans-Serif" font-size="10.00">main/main.c</text>
</a>
</g>
</g>
<!-- Node1&#45;&gt;Node3 -->
<g id="edge2_Node000001_Node000003" class="edge">
<title>Node1&#45;&gt;Node3</title>
<g id="a_edge2_Node000001_Node000003"><a xlink:title=" ">
<path fill="none" stroke="#63b8ff" d="M201.5,-66.58C201.5,-54.63 201.5,-39.72 201.5,-30.41"/>
<polygon fill="#63b8ff" stroke="#63b8ff" points="198,-66.87 201.5,-76.87 205,-66.87 198,-66.87"/>
</a>
</g>
</g>
<!-- Node4 -->
<g id="Node000004" class="node">
<title>Node4</title>
<g id="a_Node000004"><a xlink:href="wifi__comm_8c.html" target="_top" xlink:title=" ">
<polygon fill="white" stroke="#666666" points="384.5,-30 258.5,-30 258.5,-11 384.5,-11 384.5,-30"/>
<text text-anchor="middle" x="321.5" y="-18" font-family="Helvetica,sans-Serif" font-size="10.00">main/wifi/wifi_comm.c</text>
</a>
</g>
</g>
<!-- Node1&#45;&gt;Node4 -->
<g id="edge3_Node000001_Node000004" class="edge">
<title>Node1&#45;&gt;Node4</title>
<g id="a_edge3_Node000001_Node000004"><a xlink:title=" ">
<path fill="none" stroke="#63b8ff" d="M226.76,-72.03C250.4,-59.42 285,-40.97 305.19,-30.2"/>
<polygon fill="#63b8ff" stroke="#63b8ff" points="224.86,-69.07 217.68,-76.87 228.15,-75.25 224.86,-69.07"/>
</a>
</g>
</g>
</g>
</svg>
