<?xml version="1.0" encoding="UTF-8" standalone="no"?>
<!DOCTYPE svg PUBLIC "-//W3C//DTD SVG 1.1//EN"
 "http://www.w3.org/Graphics/SVG/1.1/DTD/svg11.dtd">
<!-- Generated by graphviz version 2.43.0 (0)
 -->
<!-- Title: main/wifi/wifi_comm.c Pages: 1 -->
<svg width="1607pt" height="192pt"
 viewBox="0.00 0.00 1607.38 192.00" xmlns="http://www.w3.org/2000/svg" xmlns:xlink="http://www.w3.org/1999/xlink">
<g id="graph0" class="graph" transform="scale(1 1) rotate(0) translate(4 188)">
<title>main/wifi/wifi_comm.c</title>
<!-- Node1 -->
<g id="Node000001" class="node">
<title>Node1</title>
<g id="a_Node000001"><a xlink:title=" ">
<polygon fill="#999999" stroke="#666666" points="737.88,-184 611.88,-184 611.88,-165 737.88,-165 737.88,-184"/>
<text text-anchor="middle" x="674.88" y="-172" font-family="Helvetica,sans-Serif" font-size="10.00">main/wifi/wifi_comm.c</text>
</a>
</g>
</g>
<!-- Node2 -->
<g id="Node000002" class="node">
<title>Node2</title>
<g id="a_Node000002"><a xlink:href="wifi__comm_8h.html" target="_top" xlink:title=" ">
<polygon fill="white" stroke="#666666" points="147.38,-129 68.38,-129 68.38,-110 147.38,-110 147.38,-129"/>
<text text-anchor="middle" x="107.88" y="-117" font-family="Helvetica,sans-Serif" font-size="10.00">wifi_comm.h</text>
</a>
</g>
</g>
<!-- Node1&#45;&gt;Node2 -->
<g id="edge1_Node000001_Node000002" class="edge">
<title>Node1&#45;&gt;Node2</title>
<g id="a_edge1_Node000001_Node000002"><a xlink:title=" ">
<path fill="none" stroke="#63b8ff" d="M611.69,-169.83C515.85,-163.88 327.77,-150.68 157.56,-128.97"/>
<polygon fill="#63b8ff" stroke="#63b8ff" points="157.78,-125.47 147.41,-127.66 156.88,-132.41 157.78,-125.47"/>
</a>
</g>
</g>
<!-- Node5 -->
<g id="Node000005" class="node">
<title>Node5</title>
<g id="a_Node000005"><a xlink:title=" ">
<polygon fill="#e0e0e0" stroke="#999999" points="631.38,-129 578.38,-129 578.38,-110 631.38,-110 631.38,-129"/>
<text text-anchor="middle" x="604.88" y="-117" font-family="Helvetica,sans-Serif" font-size="10.00">string.h</text>
</a>
</g>
</g>
<!-- Node1&#45;&gt;Node5 -->
<g id="edge4_Node000001_Node000005" class="edge">
<title>Node1&#45;&gt;Node5</title>
<g id="a_edge4_Node000001_Node000005"><a xlink:title=" ">
<path fill="none" stroke="#63b8ff" d="M663.63,-164.98C653.08,-157 637.07,-144.88 624.43,-135.31"/>
<polygon fill="#63b8ff" stroke="#63b8ff" points="626.41,-132.42 616.33,-129.17 622.19,-138 626.41,-132.42"/>
</a>
</g>
</g>
<!-- Node6 -->
<g id="Node000006" class="node">
<title>Node6</title>
<g id="a_Node000006"><a xlink:title=" ">
<polygon fill="#e0e0e0" stroke="#999999" points="700.38,-129 649.38,-129 649.38,-110 700.38,-110 700.38,-129"/>
<text text-anchor="middle" x="674.88" y="-117" font-family="Helvetica,sans-Serif" font-size="10.00">errno.h</text>
</a>
</g>
</g>
<!-- Node1&#45;&gt;Node6 -->
<g id="edge5_Node000001_Node000006" class="edge">
<title>Node1&#45;&gt;Node6</title>
<g id="a_edge5_Node000001_Node000006"><a xlink:title=" ">
<path fill="none" stroke="#63b8ff" d="M674.88,-164.75C674.88,-157.8 674.88,-147.85 674.88,-139.13"/>
<polygon fill="#63b8ff" stroke="#63b8ff" points="678.38,-139.09 674.88,-129.09 671.38,-139.09 678.38,-139.09"/>
</a>
</g>
</g>
<!-- Node7 -->
<g id="Node000007" class="node">
<title>Node7</title>
<g id="a_Node000007"><a xlink:title=" ">
<polygon fill="#e0e0e0" stroke="#999999" points="779.38,-129 718.38,-129 718.38,-110 779.38,-110 779.38,-129"/>
<text text-anchor="middle" x="748.88" y="-117" font-family="Helvetica,sans-Serif" font-size="10.00">esp_err.h</text>
</a>
</g>
</g>
<!-- Node1&#45;&gt;Node7 -->
<g id="edge6_Node000001_Node000007" class="edge">
<title>Node1&#45;&gt;Node7</title>
<g id="a_edge6_Node000001_Node000007"><a xlink:title=" ">
<path fill="none" stroke="#63b8ff" d="M686.76,-164.98C698.03,-156.92 715.16,-144.65 728.58,-135.03"/>
<polygon fill="#63b8ff" stroke="#63b8ff" points="730.68,-137.84 736.77,-129.17 726.6,-132.15 730.68,-137.84"/>
</a>
</g>
</g>
<!-- Node8 -->
<g id="Node000008" class="node">
<title>Node8</title>
<g id="a_Node000008"><a xlink:title=" ">
<polygon fill="#e0e0e0" stroke="#999999" points="862.38,-129 797.38,-129 797.38,-110 862.38,-110 862.38,-129"/>
<text text-anchor="middle" x="829.88" y="-117" font-family="Helvetica,sans-Serif" font-size="10.00">esp_wifi.h</text>
</a>
</g>
</g>
<!-- Node1&#45;&gt;Node8 -->
<g id="edge7_Node000001_Node000008" class="edge">
<title>Node1&#45;&gt;Node8</title>
<g id="a_edge7_Node000001_Node000008"><a xlink:title=" ">
<path fill="none" stroke="#63b8ff" d="M699.78,-164.98C725.58,-156.16 766.1,-142.31 795.06,-132.41"/>
<polygon fill="#63b8ff" stroke="#63b8ff" points="796.45,-135.63 804.78,-129.08 794.18,-129.01 796.45,-135.63"/>
</a>
</g>
</g>
<!-- Node9 -->
<g id="Node000009" class="node">
<title>Node9</title>
<g id="a_Node000009"><a xlink:title=" ">
<polygon fill="#e0e0e0" stroke="#999999" points="950.88,-129 880.88,-129 880.88,-110 950.88,-110 950.88,-129"/>
<text text-anchor="middle" x="915.88" y="-117" font-family="Helvetica,sans-Serif" font-size="10.00">esp_netif.h</text>
</a>
</g>
</g>
<!-- Node1&#45;&gt;Node9 -->
<g id="edge8_Node000001_Node000009" class="edge">
<title>Node1&#45;&gt;Node9</title>
<g id="a_edge8_Node000001_Node000009"><a xlink:title=" ">
<path fill="none" stroke="#63b8ff" d="M713.6,-164.98C756.52,-155.54 825.66,-140.34 870.94,-130.38"/>
<polygon fill="#63b8ff" stroke="#63b8ff" points="871.76,-133.78 880.78,-128.22 870.26,-126.95 871.76,-133.78"/>
</a>
</g>
</g>
<!-- Node10 -->
<g id="Node000010" class="node">
<title>Node10</title>
<g id="a_Node000010"><a xlink:title=" ">
<polygon fill="#e0e0e0" stroke="#999999" points="1044.88,-129 968.88,-129 968.88,-110 1044.88,-110 1044.88,-129"/>
<text text-anchor="middle" x="1006.88" y="-117" font-family="Helvetica,sans-Serif" font-size="10.00">esp_event.h</text>
</a>
</g>
</g>
<!-- Node1&#45;&gt;Node10 -->
<g id="edge9_Node000001_Node000010" class="edge">
<title>Node1&#45;&gt;Node10</title>
<g id="a_edge9_Node000001_Node000010"><a xlink:title=" ">
<path fill="none" stroke="#63b8ff" d="M731.99,-164.99C787.38,-156.65 874.07,-143.35 958.64,-129.18"/>
<polygon fill="#63b8ff" stroke="#63b8ff" points="959.39,-132.6 968.67,-127.49 958.23,-125.7 959.39,-132.6"/>
</a>
</g>
</g>
<!-- Node11 -->
<g id="Node000011" class="node">
<title>Node11</title>
<g id="a_Node000011"><a xlink:title=" ">
<polygon fill="#e0e0e0" stroke="#999999" points="1134.38,-129 1063.38,-129 1063.38,-110 1134.38,-110 1134.38,-129"/>
<text text-anchor="middle" x="1098.88" y="-117" font-family="Helvetica,sans-Serif" font-size="10.00">nvs_flash.h</text>
</a>
</g>
</g>
<!-- Node1&#45;&gt;Node11 -->
<g id="edge10_Node000001_Node000011" class="edge">
<title>Node1&#45;&gt;Node11</title>
<g id="a_edge10_Node000001_Node000011"><a xlink:title=" ">
<path fill="none" stroke="#63b8ff" d="M738.09,-167.44C811.34,-160.11 935.9,-146.72 1052.85,-129.05"/>
<polygon fill="#63b8ff" stroke="#63b8ff" points="1053.69,-132.47 1063.05,-127.5 1052.64,-125.55 1053.69,-132.47"/>
</a>
</g>
</g>
<!-- Node12 -->
<g id="Node000012" class="node">
<title>Node12</title>
<g id="a_Node000012"><a xlink:title=" ">
<polygon fill="#e0e0e0" stroke="#999999" points="1238.88,-129 1152.88,-129 1152.88,-110 1238.88,-110 1238.88,-129"/>
<text text-anchor="middle" x="1195.88" y="-117" font-family="Helvetica,sans-Serif" font-size="10.00">lwip/sockets.h</text>
</a>
</g>
</g>
<!-- Node1&#45;&gt;Node12 -->
<g id="edge11_Node000001_Node000012" class="edge">
<title>Node1&#45;&gt;Node12</title>
<g id="a_edge11_Node000001_Node000012"><a xlink:title=" ">
<path fill="none" stroke="#63b8ff" d="M738.23,-168.77C828.32,-161.76 998.56,-147.41 1142.88,-129 1142.98,-128.99 1143.08,-128.97 1143.18,-128.96"/>
<polygon fill="#63b8ff" stroke="#63b8ff" points="1143.38,-132.47 1152.81,-127.64 1142.43,-125.53 1143.38,-132.47"/>
</a>
</g>
</g>
<!-- Node13 -->
<g id="Node000013" class="node">
<title>Node13</title>
<g id="a_Node000013"><a xlink:title=" ">
<polygon fill="#e0e0e0" stroke="#999999" points="330.38,-74 217.38,-74 217.38,-55 330.38,-55 330.38,-74"/>
<text text-anchor="middle" x="273.88" y="-62" font-family="Helvetica,sans-Serif" font-size="10.00">freertos/FreeRTOS.h</text>
</a>
</g>
</g>
<!-- Node1&#45;&gt;Node13 -->
<g id="edge12_Node000001_Node000013" class="edge">
<title>Node1&#45;&gt;Node13</title>
<g id="a_edge12_Node000001_Node000013"><a xlink:title=" ">
<path fill="none" stroke="#63b8ff" d="M611.61,-174.29C515.73,-174.16 339.81,-168.37 292.88,-129 279.94,-118.15 275.59,-98.87 274.23,-84.39"/>
<polygon fill="#63b8ff" stroke="#63b8ff" points="277.71,-83.86 273.68,-74.06 270.72,-84.23 277.71,-83.86"/>
</a>
</g>
</g>
<!-- Node14 -->
<g id="Node000014" class="node">
<title>Node14</title>
<g id="a_Node000014"><a xlink:title=" ">
<polygon fill="#e0e0e0" stroke="#999999" points="780.88,-74 692.88,-74 692.88,-55 780.88,-55 780.88,-74"/>
<text text-anchor="middle" x="736.88" y="-62" font-family="Helvetica,sans-Serif" font-size="10.00">freertos/task.h</text>
</a>
</g>
</g>
<!-- Node1&#45;&gt;Node14 -->
<g id="edge13_Node000001_Node000014" class="edge">
<title>Node1&#45;&gt;Node14</title>
<g id="a_edge13_Node000001_Node000014"><a xlink:title=" ">
<path fill="none" stroke="#63b8ff" d="M632.86,-164.97C594.87,-155.32 547.88,-137.29 568.88,-110 582.83,-91.87 639.23,-79.6 682.88,-72.61"/>
<polygon fill="#63b8ff" stroke="#63b8ff" points="683.47,-76.06 692.82,-71.07 682.4,-69.14 683.47,-76.06"/>
</a>
</g>
</g>
<!-- Node15 -->
<g id="Node000015" class="node">
<title>Node15</title>
<g id="a_Node000015"><a xlink:title=" ">
<polygon fill="#e0e0e0" stroke="#999999" points="1390.38,-129 1257.38,-129 1257.38,-110 1390.38,-110 1390.38,-129"/>
<text text-anchor="middle" x="1323.88" y="-117" font-family="Helvetica,sans-Serif" font-size="10.00">freertos/event_groups.h</text>
</a>
</g>
</g>
<!-- Node1&#45;&gt;Node15 -->
<g id="edge14_Node000001_Node000015" class="edge">
<title>Node1&#45;&gt;Node15</title>
<g id="a_edge14_Node000001_Node000015"><a xlink:title=" ">
<path fill="none" stroke="#63b8ff" d="M738.1,-169.29C841.96,-162.23 1055.41,-147.05 1247.18,-129.03"/>
<polygon fill="#63b8ff" stroke="#63b8ff" points="1247.53,-132.52 1257.16,-128.09 1246.88,-125.55 1247.53,-132.52"/>
</a>
</g>
</g>
<!-- Node16 -->
<g id="Node000016" class="node">
<title>Node16</title>
<g id="a_Node000016"><a xlink:href="hx711_8h.html" target="_top" xlink:title=" ">
<polygon fill="white" stroke="#666666" points="521.88,-129 465.88,-129 465.88,-110 521.88,-110 521.88,-129"/>
<text text-anchor="middle" x="493.88" y="-117" font-family="Helvetica,sans-Serif" font-size="10.00">hx711.h</text>
</a>
</g>
</g>
<!-- Node1&#45;&gt;Node16 -->
<g id="edge15_Node000001_Node000016" class="edge">
<title>Node1&#45;&gt;Node16</title>
<g id="a_edge15_Node000001_Node000016"><a xlink:title=" ">
<path fill="none" stroke="#63b8ff" d="M645.79,-164.98C614.91,-155.94 565.97,-141.61 532.01,-131.67"/>
<polygon fill="#63b8ff" stroke="#63b8ff" points="532.57,-128.18 521.99,-128.73 530.6,-134.9 532.57,-128.18"/>
</a>
</g>
</g>
<!-- Node20 -->
<g id="Node000020" class="node">
<title>Node20</title>
<g id="a_Node000020"><a xlink:href="weight__manager_8h.html" target="_top" xlink:title=" ">
<polygon fill="white" stroke="#666666" points="409.38,-129 302.38,-129 302.38,-110 409.38,-110 409.38,-129"/>
<text text-anchor="middle" x="355.88" y="-117" font-family="Helvetica,sans-Serif" font-size="10.00">weight_manager.h</text>
</a>
</g>
</g>
<!-- Node1&#45;&gt;Node20 -->
<g id="edge22_Node000001_Node000020" class="edge">
<title>Node1&#45;&gt;Node20</title>
<g id="a_edge22_Node000001_Node000020"><a xlink:title=" ">
<path fill="none" stroke="#63b8ff" d="M623.62,-164.98C567.43,-155.65 477.31,-140.67 417.35,-130.71"/>
<polygon fill="#63b8ff" stroke="#63b8ff" points="417.7,-127.22 407.27,-129.04 416.56,-134.13 417.7,-127.22"/>
</a>
</g>
</g>
<!-- Node21 -->
<g id="Node000021" class="node">
<title>Node21</title>
<g id="a_Node000021"><a xlink:href="calibration_8h.html" target="_top" xlink:title=" ">
<polygon fill="white" stroke="#666666" points="425.38,-74 348.38,-74 348.38,-55 425.38,-55 425.38,-74"/>
<text text-anchor="middle" x="386.88" y="-62" font-family="Helvetica,sans-Serif" font-size="10.00">calibration.h</text>
</a>
</g>
</g>
<!-- Node1&#45;&gt;Node21 -->
<g id="edge28_Node000001_Node000021" class="edge">
<title>Node1&#45;&gt;Node21</title>
<g id="a_edge28_Node000001_Node000021"><a xlink:title=" ">
<path fill="none" stroke="#63b8ff" d="M611.84,-169.53C566.66,-164.62 505.46,-153.62 456.88,-129 434.12,-117.47 413.18,-96.52 400.25,-81.85"/>
<polygon fill="#63b8ff" stroke="#63b8ff" points="402.76,-79.39 393.61,-74.05 397.43,-83.93 402.76,-79.39"/>
</a>
</g>
</g>
<!-- Node22 -->
<g id="Node000022" class="node">
<title>Node22</title>
<g id="a_Node000022"><a xlink:href="sntp__synch_8h.html" target="_top" xlink:title=" ">
<polygon fill="white" stroke="#666666" points="245.88,-129 165.88,-129 165.88,-110 245.88,-110 245.88,-129"/>
<text text-anchor="middle" x="205.88" y="-117" font-family="Helvetica,sans-Serif" font-size="10.00">sntp_synch.h</text>
</a>
</g>
</g>
<!-- Node1&#45;&gt;Node22 -->
<g id="edge29_Node000001_Node000022" class="edge">
<title>Node1&#45;&gt;Node22</title>
<g id="a_edge29_Node000001_Node000022"><a xlink:title=" ">
<path fill="none" stroke="#63b8ff" d="M611.83,-167.72C530.4,-160.02 384.33,-145.46 259.88,-129 258.61,-128.83 257.32,-128.66 256.02,-128.48"/>
<polygon fill="#63b8ff" stroke="#63b8ff" points="256.34,-124.99 245.95,-127.03 255.35,-131.92 256.34,-124.99"/>
</a>
</g>
</g>
<!-- Node24 -->
<g id="Node000024" class="node">
<title>Node24</title>
<g id="a_Node000024"><a xlink:href="log__utils_8h.html" target="_top" xlink:title=" ">
<polygon fill="white" stroke="#666666" points="1475.38,-129 1408.38,-129 1408.38,-110 1475.38,-110 1475.38,-129"/>
<text text-anchor="middle" x="1441.88" y="-117" font-family="Helvetica,sans-Serif" font-size="10.00">log_utils.h</text>
</a>
</g>
</g>
<!-- Node1&#45;&gt;Node24 -->
<g id="edge33_Node000001_Node000024" class="edge">
<title>Node1&#45;&gt;Node24</title>
<g id="a_edge33_Node000001_Node000024"><a xlink:title=" ">
<path fill="none" stroke="#63b8ff" d="M738.09,-172.45C862.57,-169.78 1148.29,-160.58 1398.15,-128.89"/>
<polygon fill="#63b8ff" stroke="#63b8ff" points="1398.67,-132.35 1408.14,-127.61 1397.78,-125.41 1398.67,-132.35"/>
</a>
</g>
</g>
<!-- Node3 -->
<g id="Node000003" class="node">
<title>Node3</title>
<g id="a_Node000003"><a xlink:title=" ">
<polygon fill="#e0e0e0" stroke="#999999" points="198.88,-74 136.88,-74 136.88,-55 198.88,-55 198.88,-74"/>
<text text-anchor="middle" x="167.88" y="-62" font-family="Helvetica,sans-Serif" font-size="10.00">stdbool.h</text>
</a>
</g>
</g>
<!-- Node2&#45;&gt;Node3 -->
<g id="edge2_Node000002_Node000003" class="edge">
<title>Node2&#45;&gt;Node3</title>
<g id="a_edge2_Node000002_Node000003"><a xlink:title=" ">
<path fill="none" stroke="#63b8ff" d="M117.52,-109.98C126.38,-102.15 139.75,-90.34 150.48,-80.86"/>
<polygon fill="#63b8ff" stroke="#63b8ff" points="152.88,-83.41 158.06,-74.17 148.25,-78.17 152.88,-83.41"/>
</a>
</g>
</g>
<!-- Node4 -->
<g id="Node000004" class="node">
<title>Node4</title>
<g id="a_Node000004"><a xlink:title=" ">
<polygon fill="#e0e0e0" stroke="#999999" points="296.88,-19 240.88,-19 240.88,0 296.88,0 296.88,-19"/>
<text text-anchor="middle" x="268.88" y="-7" font-family="Helvetica,sans-Serif" font-size="10.00">stddef.h</text>
</a>
</g>
</g>
<!-- Node2&#45;&gt;Node4 -->
<g id="edge3_Node000002_Node000004" class="edge">
<title>Node2&#45;&gt;Node4</title>
<g id="a_edge3_Node000002_Node000004"><a xlink:title=" ">
<path fill="none" stroke="#63b8ff" d="M69.27,-109.92C31.87,-99.84 -16.2,-81.13 5.88,-55 34.18,-21.51 164.52,-13.22 230.45,-11.17"/>
<polygon fill="#63b8ff" stroke="#63b8ff" points="230.56,-14.67 240.45,-10.89 230.36,-7.67 230.56,-14.67"/>
</a>
</g>
</g>
<!-- Node16&#45;&gt;Node3 -->
<g id="edge17_Node000016_Node000003" class="edge">
<title>Node16&#45;&gt;Node3</title>
<g id="a_edge17_Node000016_Node000003"><a xlink:title=" ">
<path fill="none" stroke="#63b8ff" d="M465.78,-114.65C416.08,-107.73 309.2,-92.35 209.25,-74.17"/>
<polygon fill="#63b8ff" stroke="#63b8ff" points="209.75,-70.7 199.29,-72.35 208.49,-77.59 209.75,-70.7"/>
</a>
</g>
</g>
<!-- Node16&#45;&gt;Node13 -->
<g id="edge19_Node000016_Node000013" class="edge">
<title>Node16&#45;&gt;Node13</title>
<g id="a_edge19_Node000016_Node000013"><a xlink:title=" ">
<path fill="none" stroke="#63b8ff" d="M465.56,-111.68C428.53,-102.76 363.19,-87.02 319.21,-76.42"/>
<polygon fill="#63b8ff" stroke="#63b8ff" points="319.89,-72.99 309.35,-74.05 318.25,-79.79 319.89,-72.99"/>
</a>
</g>
</g>
<!-- Node16&#45;&gt;Node14 -->
<g id="edge20_Node000016_Node000014" class="edge">
<title>Node16&#45;&gt;Node14</title>
<g id="a_edge20_Node000016_Node000014"><a xlink:title=" ">
<path fill="none" stroke="#63b8ff" d="M522.23,-112.32C562.87,-103.45 638.27,-87.01 688.01,-76.16"/>
<polygon fill="#63b8ff" stroke="#63b8ff" points="688.88,-79.55 697.9,-74 687.39,-72.71 688.88,-79.55"/>
</a>
</g>
</g>
<!-- Node17 -->
<g id="Node000017" class="node">
<title>Node17</title>
<g id="a_Node000017"><a xlink:title=" ">
<polygon fill="#e0e0e0" stroke="#999999" points="531.38,-19 478.38,-19 478.38,0 531.38,0 531.38,-19"/>
<text text-anchor="middle" x="504.88" y="-7" font-family="Helvetica,sans-Serif" font-size="10.00">stdint.h</text>
</a>
</g>
</g>
<!-- Node16&#45;&gt;Node17 -->
<g id="edge16_Node000016_Node000017" class="edge">
<title>Node16&#45;&gt;Node17</title>
<g id="a_edge16_Node000016_Node000017"><a xlink:title=" ">
<path fill="none" stroke="#63b8ff" d="M522.07,-112.16C563.9,-102.48 638.33,-84.07 645.88,-74 675.02,-35.1 592.44,-19.47 541.57,-13.64"/>
<polygon fill="#63b8ff" stroke="#63b8ff" points="541.87,-10.15 531.55,-12.57 541.13,-17.11 541.87,-10.15"/>
</a>
</g>
</g>
<!-- Node18 -->
<g id="Node000018" class="node">
<title>Node18</title>
<g id="a_Node000018"><a xlink:title=" ">
<polygon fill="#e0e0e0" stroke="#999999" points="636.88,-74 558.88,-74 558.88,-55 636.88,-55 636.88,-74"/>
<text text-anchor="middle" x="597.88" y="-62" font-family="Helvetica,sans-Serif" font-size="10.00">driver/gpio.h</text>
</a>
</g>
</g>
<!-- Node16&#45;&gt;Node18 -->
<g id="edge18_Node000016_Node000018" class="edge">
<title>Node16&#45;&gt;Node18</title>
<g id="a_edge18_Node000016_Node000018"><a xlink:title=" ">
<path fill="none" stroke="#63b8ff" d="M510.58,-109.98C527.09,-101.57 552.57,-88.59 571.75,-78.81"/>
<polygon fill="#63b8ff" stroke="#63b8ff" points="573.54,-81.83 580.86,-74.17 570.36,-75.59 573.54,-81.83"/>
</a>
</g>
</g>
<!-- Node19 -->
<g id="Node000019" class="node">
<title>Node19</title>
<g id="a_Node000019"><a xlink:title=" ">
<polygon fill="#e0e0e0" stroke="#999999" points="540.38,-74 443.38,-74 443.38,-55 540.38,-55 540.38,-74"/>
<text text-anchor="middle" x="491.88" y="-62" font-family="Helvetica,sans-Serif" font-size="10.00">freertos/queue.h</text>
</a>
</g>
</g>
<!-- Node16&#45;&gt;Node19 -->
<g id="edge21_Node000016_Node000019" class="edge">
<title>Node16&#45;&gt;Node19</title>
<g id="a_edge21_Node000016_Node000019"><a xlink:title=" ">
<path fill="none" stroke="#63b8ff" d="M493.54,-109.75C493.28,-102.8 492.91,-92.85 492.58,-84.13"/>
<polygon fill="#63b8ff" stroke="#63b8ff" points="496.07,-83.95 492.2,-74.09 489.08,-84.21 496.07,-83.95"/>
</a>
</g>
</g>
<!-- Node20&#45;&gt;Node13 -->
<g id="edge23_Node000020_Node000013" class="edge">
<title>Node20&#45;&gt;Node13</title>
<g id="a_edge23_Node000020_Node000013"><a xlink:title=" ">
<path fill="none" stroke="#63b8ff" d="M342.7,-109.98C330.1,-101.84 310.87,-89.41 295.94,-79.76"/>
<polygon fill="#63b8ff" stroke="#63b8ff" points="297.59,-76.66 287.29,-74.17 293.79,-82.54 297.59,-76.66"/>
</a>
</g>
</g>
<!-- Node20&#45;&gt;Node19 -->
<g id="edge24_Node000020_Node000019" class="edge">
<title>Node20&#45;&gt;Node19</title>
<g id="a_edge24_Node000020_Node000019"><a xlink:title=" ">
<path fill="none" stroke="#63b8ff" d="M377.73,-109.98C400,-101.3 434.78,-87.75 460.1,-77.88"/>
<polygon fill="#63b8ff" stroke="#63b8ff" points="461.58,-81.06 469.63,-74.17 459.04,-74.54 461.58,-81.06"/>
</a>
</g>
</g>
<!-- Node20&#45;&gt;Node21 -->
<g id="edge25_Node000020_Node000021" class="edge">
<title>Node20&#45;&gt;Node21</title>
<g id="a_edge25_Node000020_Node000021"><a xlink:title=" ">
<path fill="none" stroke="#63b8ff" d="M360.99,-109.75C365.24,-102.49 371.4,-91.95 376.65,-82.98"/>
<polygon fill="#63b8ff" stroke="#63b8ff" points="379.82,-84.49 381.85,-74.09 373.78,-80.95 379.82,-84.49"/>
</a>
</g>
</g>
<!-- Node21&#45;&gt;Node4 -->
<g id="edge27_Node000021_Node000004" class="edge">
<title>Node21&#45;&gt;Node4</title>
<g id="a_edge27_Node000021_Node000004"><a xlink:title=" ">
<path fill="none" stroke="#63b8ff" d="M367.92,-54.98C348.85,-46.42 319.22,-33.11 297.33,-23.28"/>
<polygon fill="#63b8ff" stroke="#63b8ff" points="298.74,-20.07 288.18,-19.17 295.87,-26.46 298.74,-20.07"/>
</a>
</g>
</g>
<!-- Node21&#45;&gt;Node17 -->
<g id="edge26_Node000021_Node000017" class="edge">
<title>Node21&#45;&gt;Node17</title>
<g id="a_edge26_Node000021_Node000017"><a xlink:title=" ">
<path fill="none" stroke="#63b8ff" d="M405.83,-54.98C424.9,-46.42 454.54,-33.11 476.42,-23.28"/>
<polygon fill="#63b8ff" stroke="#63b8ff" points="477.88,-26.46 485.57,-19.17 475.02,-20.07 477.88,-26.46"/>
</a>
</g>
</g>
<!-- Node22&#45;&gt;Node3 -->
<g id="edge30_Node000022_Node000003" class="edge">
<title>Node22&#45;&gt;Node3</title>
<g id="a_edge30_Node000022_Node000003"><a xlink:title=" ">
<path fill="none" stroke="#63b8ff" d="M199.6,-109.75C194.29,-102.34 186.52,-91.5 180,-82.41"/>
<polygon fill="#63b8ff" stroke="#63b8ff" points="182.7,-80.18 174.03,-74.09 177.02,-84.26 182.7,-80.18"/>
</a>
</g>
</g>
<!-- Node22&#45;&gt;Node13 -->
<g id="edge31_Node000022_Node000013" class="edge">
<title>Node22&#45;&gt;Node13</title>
<g id="a_edge31_Node000022_Node000013"><a xlink:title=" ">
<path fill="none" stroke="#63b8ff" d="M216.8,-109.98C226.95,-102.07 242.3,-90.11 254.52,-80.58"/>
<polygon fill="#63b8ff" stroke="#63b8ff" points="257.02,-83.08 262.75,-74.17 252.71,-77.56 257.02,-83.08"/>
</a>
</g>
</g>
<!-- Node23 -->
<g id="Node000023" class="node">
<title>Node23</title>
<g id="a_Node000023"><a xlink:title=" ">
<polygon fill="#e0e0e0" stroke="#999999" points="118.38,-74 15.38,-74 15.38,-55 118.38,-55 118.38,-74"/>
<text text-anchor="middle" x="66.88" y="-62" font-family="Helvetica,sans-Serif" font-size="10.00">freertos/semphr.h</text>
</a>
</g>
</g>
<!-- Node22&#45;&gt;Node23 -->
<g id="edge32_Node000022_Node000023" class="edge">
<title>Node22&#45;&gt;Node23</title>
<g id="a_edge32_Node000022_Node000023"><a xlink:title=" ">
<path fill="none" stroke="#63b8ff" d="M183.54,-109.98C160.68,-101.27 124.92,-87.63 99.01,-77.75"/>
<polygon fill="#63b8ff" stroke="#63b8ff" points="100.21,-74.46 89.61,-74.17 97.71,-81 100.21,-74.46"/>
</a>
</g>
</g>
<!-- Node25 -->
<g id="Node000025" class="node">
<title>Node25</title>
<g id="a_Node000025"><a xlink:title=" ">
<polygon fill="#e0e0e0" stroke="#999999" points="1434.88,-74 1360.88,-74 1360.88,-55 1434.88,-55 1434.88,-74"/>
<text text-anchor="middle" x="1397.88" y="-62" font-family="Helvetica,sans-Serif" font-size="10.00">esp_timer.h</text>
</a>
</g>
</g>
<!-- Node24&#45;&gt;Node25 -->
<g id="edge34_Node000024_Node000025" class="edge">
<title>Node24&#45;&gt;Node25</title>
<g id="a_edge34_Node000024_Node000025"><a xlink:title=" ">
<path fill="none" stroke="#63b8ff" d="M1434.61,-109.75C1428.33,-102.18 1419.09,-91.05 1411.44,-81.84"/>
<polygon fill="#63b8ff" stroke="#63b8ff" points="1414.09,-79.55 1405.01,-74.09 1408.7,-84.02 1414.09,-79.55"/>
</a>
</g>
</g>
<!-- Node26 -->
<g id="Node000026" class="node">
<title>Node26</title>
<g id="a_Node000026"><a xlink:title=" ">
<polygon fill="#e0e0e0" stroke="#999999" points="1516.38,-74 1453.38,-74 1453.38,-55 1516.38,-55 1516.38,-74"/>
<text text-anchor="middle" x="1484.88" y="-62" font-family="Helvetica,sans-Serif" font-size="10.00">esp_log.h</text>
</a>
</g>
</g>
<!-- Node24&#45;&gt;Node26 -->
<g id="edge35_Node000024_Node000026" class="edge">
<title>Node24&#45;&gt;Node26</title>
<g id="a_edge35_Node000024_Node000026"><a xlink:title=" ">
<path fill="none" stroke="#63b8ff" d="M1448.98,-109.75C1455.05,-102.26 1463.96,-91.28 1471.39,-82.13"/>
<polygon fill="#63b8ff" stroke="#63b8ff" points="1474.32,-84.06 1477.91,-74.09 1468.89,-79.65 1474.32,-84.06"/>
</a>
</g>
</g>
<!-- Node27 -->
<g id="Node000027" class="node">
<title>Node27</title>
<g id="a_Node000027"><a xlink:title=" ">
<polygon fill="#e0e0e0" stroke="#999999" points="1599.38,-74 1534.38,-74 1534.38,-55 1599.38,-55 1599.38,-74"/>
<text text-anchor="middle" x="1566.88" y="-62" font-family="Helvetica,sans-Serif" font-size="10.00">inttypes.h</text>
</a>
</g>
</g>
<!-- Node24&#45;&gt;Node27 -->
<g id="edge36_Node000024_Node000027" class="edge">
<title>Node24&#45;&gt;Node27</title>
<g id="a_edge36_Node000024_Node000027"><a xlink:title=" ">
<path fill="none" stroke="#63b8ff" d="M1461.96,-109.98C1482.25,-101.38 1513.83,-87.99 1537.05,-78.15"/>
<polygon fill="#63b8ff" stroke="#63b8ff" points="1538.59,-81.3 1546.43,-74.17 1535.85,-74.85 1538.59,-81.3"/>
</a>
</g>
</g>
<!-- Node28 -->
<g id="Node000028" class="node">
<title>Node28</title>
<g id="a_Node000028"><a xlink:title=" ">
<polygon fill="#e0e0e0" stroke="#999999" points="1342.88,-74 1292.88,-74 1292.88,-55 1342.88,-55 1342.88,-74"/>
<text text-anchor="middle" x="1317.88" y="-62" font-family="Helvetica,sans-Serif" font-size="10.00">stdio.h</text>
</a>
</g>
</g>
<!-- Node24&#45;&gt;Node28 -->
<g id="edge37_Node000024_Node000028" class="edge">
<title>Node24&#45;&gt;Node28</title>
<g id="a_edge37_Node000024_Node000028"><a xlink:title=" ">
<path fill="none" stroke="#63b8ff" d="M1421.95,-109.98C1401.82,-101.38 1370.5,-87.99 1347.47,-78.15"/>
<polygon fill="#63b8ff" stroke="#63b8ff" points="1348.73,-74.88 1338.16,-74.17 1345.98,-81.32 1348.73,-74.88"/>
</a>
</g>
</g>
</g>
</svg>
